<?xml version="1.0" encoding="UTF-8" standalone="no"?>
<!DOCTYPE svg PUBLIC "-//W3C//DTD SVG 1.1//EN" "http://www.w3.org/Graphics/SVG/1.1/DTD/svg11.dtd">
<!-- Generated by Microsoft Visio, SVG Export denormalized-tables-cql.svg Page-1 -->
<svg xmlns="http://www.w3.org/2000/svg" xmlns:xlink="http://www.w3.org/1999/xlink" xmlns:ev="http://www.w3.org/2001/xml-events"
		xmlns:v="http://schemas.microsoft.com/visio/2003/SVGExtensions/" width="8.55393in" height="5.91511in"
		viewBox="0 0 615.883 425.888" xml:space="preserve" color-interpolation-filters="sRGB" class="st13">
	<v:documentProperties v:langID="1033" v:viewMarkup="false">
		<v:userDefs>
			<v:ud v:nameU="msvConvertTheme"/>
		</v:userDefs>
	</v:documentProperties>

	<style type="text/css">
	<![CDATA[
		.st1 {fill:#fadecb;stroke:none;stroke-linecap:round;stroke-linejoin:round;stroke-width:0.75}
		.st2 {fill:#f9f9f7;stroke:none;stroke-linecap:round;stroke-linejoin:round;stroke-width:0.75}
		.st3 {stroke:#4b3c37;stroke-linecap:round;stroke-linejoin:round;stroke-width:0.997017}
		.st4 {stroke:#4b3c37;stroke-linecap:round;stroke-linejoin:round;stroke-width:1.00451}
		.st5 {stroke:#4b3c37;stroke-linecap:round;stroke-linejoin:round;stroke-width:2.00903}
		.st6 {stroke:#4b3c37;stroke-linecap:round;stroke-linejoin:round;stroke-width:0.989521}
		.st7 {stroke:none;stroke-linecap:round;stroke-linejoin:round;stroke-width:0.75}
		.st8 {fill:#4b3c37;font-family:Arial;font-size:1.32809em;font-weight:bold}
		.st9 {fill:#007b98;font-family:Arial;font-size:1.49785em}
		.st10 {fill:#bf5017;font-family:Arial;font-size:1.49785em}
		.st11 {fill:#cb6015;font-family:Arial;font-size:1.49785em}
		.st12 {fill:#4b3c37;font-family:Arial;font-size:1.49785em;font-weight:bold}
		.st13 {fill:none;fill-rule:evenodd;font-size:12px;overflow:visible;stroke-linecap:square;stroke-miterlimit:3}
	]]>
	</style>

	<g v:mID="0" v:index="1" v:groupContext="foregroundPage">
		<title>Page-1</title>
		<v:pageProperties v:drawingScale="1" v:pageScale="1" v:drawingUnits="0" v:shadowOffsetX="9" v:shadowOffsetY="-9"/>
		<g id="shape1159-1" v:mID="1159" v:groupContext="shape" transform="translate(1.48474,-342.312)">
			<title>Sheet.1159</title>
			<path d="M0 396.73 L0 425.89 L111.65 425.89 L111.65 396.73 L0 396.73 L0 396.73 Z" class="st1"/>
		</g>
		<g id="shape1160-3" v:mID="1160" v:groupContext="shape" transform="translate(113.136,-342.312)">
			<title>Sheet.1160</title>
			<path d="M0 396.73 L0 425.89 L66.63 425.89 L66.63 396.73 L0 396.73 L0 396.73 Z" class="st1"/>
		</g>
		<g id="shape1161-5" v:mID="1161" v:groupContext="shape" transform="translate(179.767,-342.312)">
			<title>Sheet.1161</title>
			<path d="M0 396.74 L0 425.89 L85.84 425.89 L85.84 396.74 L0 396.74 L0 396.74 Z" class="st1"/>
		</g>
		<g id="shape1162-7" v:mID="1162" v:groupContext="shape" transform="translate(265.607,-342.312)">
			<title>Sheet.1162</title>
			<path d="M0 396.74 L0 425.89 L100.85 425.89 L100.85 396.74 L0 396.74 L0 396.74 Z" class="st1"/>
		</g>
		<g id="shape1163-9" v:mID="1163" v:groupContext="shape" transform="translate(366.454,-342.312)">
			<title>Sheet.1163</title>
			<path d="M0 396.74 L0 425.89 L247.91 425.89 L247.91 396.74 L0 396.74 L0 396.74 Z" class="st1"/>
		</g>
		<g id="shape1164-11" v:mID="1164" v:groupContext="shape" transform="translate(1.48474,-283.993)">
			<title>Sheet.1164</title>
			<path d="M0 396.72 L0 425.89 L111.65 425.89 L111.65 396.72 L0 396.72 L0 396.72 Z" class="st1"/>
		</g>
		<g id="shape1165-13" v:mID="1165" v:groupContext="shape" transform="translate(113.136,-283.993)">
			<title>Sheet.1165</title>
			<path d="M0 396.72 L0 425.89 L66.63 425.89 L66.63 396.72 L0 396.72 L0 396.72 Z" class="st1"/>
		</g>
		<g id="shape1166-15" v:mID="1166" v:groupContext="shape" transform="translate(179.767,-283.986)">
			<title>Sheet.1166</title>
			<path d="M0 396.72 L0 425.89 L85.84 425.89 L85.84 396.72 L0 396.72 L0 396.72 Z" class="st1"/>
		</g>
		<g id="shape1167-17" v:mID="1167" v:groupContext="shape" transform="translate(265.607,-283.986)">
			<title>Sheet.1167</title>
			<path d="M0 396.72 L0 425.89 L100.85 425.89 L100.85 396.72 L0 396.72 L0 396.72 Z" class="st1"/>
		</g>
		<g id="shape1168-19" v:mID="1168" v:groupContext="shape" transform="translate(366.454,-283.986)">
			<title>Sheet.1168</title>
			<path d="M0 396.74 L0 425.89 L247.91 425.89 L247.91 396.74 L0 396.74 L0 396.74 Z" class="st1"/>
		</g>
		<g id="shape1169-21" v:mID="1169" v:groupContext="shape" transform="translate(1.48474,-254.838)">
			<title>Sheet.1169</title>
			<path d="M0 396.73 L0 425.89 L111.65 425.89 L111.65 396.73 L0 396.73 L0 396.73 Z" class="st2"/>
		</g>
		<g id="shape1170-23" v:mID="1170" v:groupContext="shape" transform="translate(113.136,-254.838)">
			<title>Sheet.1170</title>
			<path d="M0 396.73 L0 425.89 L66.63 425.89 L66.63 396.73 L0 396.73 L0 396.73 Z" class="st2"/>
		</g>
		<g id="shape1171-25" v:mID="1171" v:groupContext="shape" transform="translate(179.767,-254.838)">
			<title>Sheet.1171</title>
			<path d="M0 396.74 L0 425.89 L85.84 425.89 L85.84 396.74 L0 396.74 L0 396.74 Z" class="st2"/>
		</g>
		<g id="shape1172-27" v:mID="1172" v:groupContext="shape" transform="translate(265.607,-254.838)">
			<title>Sheet.1172</title>
			<path d="M0 396.74 L0 425.89 L100.85 425.89 L100.85 396.74 L0 396.74 L0 396.74 Z" class="st2"/>
		</g>
		<g id="shape1173-29" v:mID="1173" v:groupContext="shape" transform="translate(366.454,-254.838)">
			<title>Sheet.1173</title>
			<path d="M0 396.74 L0 425.89 L247.91 425.89 L247.91 396.74 L0 396.74 L0 396.74 Z" class="st2"/>
		</g>
		<g id="shape1174-31" v:mID="1174" v:groupContext="shape" transform="translate(1.48474,-225.682)">
			<title>Sheet.1174</title>
			<path d="M0 396.73 L0 425.89 L111.65 425.89 L111.65 396.73 L0 396.73 L0 396.73 Z" class="st1"/>
		</g>
		<g id="shape1175-33" v:mID="1175" v:groupContext="shape" transform="translate(113.136,-225.682)">
			<title>Sheet.1175</title>
			<path d="M0 396.73 L0 425.89 L66.63 425.89 L66.63 396.73 L0 396.73 L0 396.73 Z" class="st1"/>
		</g>
		<g id="shape1176-35" v:mID="1176" v:groupContext="shape" transform="translate(179.767,-225.674)">
			<title>Sheet.1176</title>
			<path d="M0 396.72 L0 425.89 L85.84 425.89 L85.84 396.72 L0 396.72 L0 396.72 Z" class="st1"/>
		</g>
		<g id="shape1177-37" v:mID="1177" v:groupContext="shape" transform="translate(265.607,-225.674)">
			<title>Sheet.1177</title>
			<path d="M0 396.72 L0 425.89 L100.85 425.89 L100.85 396.72 L0 396.72 L0 396.72 Z" class="st1"/>
		</g>
		<g id="shape1178-39" v:mID="1178" v:groupContext="shape" transform="translate(366.454,-225.659)">
			<title>Sheet.1178</title>
			<path d="M0 396.71 L0 425.89 L247.91 425.89 L247.91 396.71 L0 396.71 L0 396.71 Z" class="st1"/>
		</g>
		<g id="shape1179-41" v:mID="1179" v:groupContext="shape" transform="translate(113.136,-225.18)">
			<title>Sheet.1179</title>
			<path d="M0 249.94 L0 425.89" class="st3"/>
		</g>
		<g id="shape1180-44" v:mID="1180" v:groupContext="shape" transform="translate(179.767,-225.18)">
			<title>Sheet.1180</title>
			<path d="M0 249.94 L0 425.89" class="st3"/>
		</g>
		<g id="shape1181-47" v:mID="1181" v:groupContext="shape" transform="translate(265.607,-225.18)">
			<title>Sheet.1181</title>
			<path d="M0 249.95 L0 425.89" class="st4"/>
		</g>
		<g id="shape1182-50" v:mID="1182" v:groupContext="shape" transform="translate(366.454,-225.18)">
			<title>Sheet.1182</title>
			<path d="M0 249.95 L0 425.89" class="st4"/>
		</g>
		<g id="shape1183-53" v:mID="1183" v:groupContext="shape" transform="translate(1.00451,-371.46)">
			<title>Sheet.1183</title>
			<path d="M0 425.89 L613.87 425.89" class="st5"/>
		</g>
		<g id="shape1184-56" v:mID="1184" v:groupContext="shape" transform="translate(1.00451,-342.312)">
			<title>Sheet.1184</title>
			<path d="M0 425.89 L613.87 425.89" class="st6"/>
		</g>
		<g id="shape1185-59" v:mID="1185" v:groupContext="shape" transform="translate(1.00451,-313.134)">
			<title>Sheet.1185</title>
			<path d="M0 425.89 L613.87 425.89" class="st6"/>
		</g>
		<g id="shape1186-62" v:mID="1186" v:groupContext="shape" transform="translate(1.00451,-283.986)">
			<title>Sheet.1186</title>
			<path d="M0 425.89 L613.87 425.89" class="st6"/>
		</g>
		<g id="shape1187-65" v:mID="1187" v:groupContext="shape" transform="translate(1.00451,-254.838)">
			<title>Sheet.1187</title>
			<path d="M0 425.89 L613.87 425.89" class="st6"/>
		</g>
		<g id="shape1188-68" v:mID="1188" v:groupContext="shape" transform="translate(1.48474,-225.18)">
			<title>Sheet.1188</title>
			<path d="M0 249.94 L0 425.89" class="st3"/>
		</g>
		<g id="shape1189-71" v:mID="1189" v:groupContext="shape" transform="translate(614.369,-225.18)">
			<title>Sheet.1189</title>
			<path d="M0 249.95 L0 425.89" class="st6"/>
		</g>
		<g id="shape1190-74" v:mID="1190" v:groupContext="shape" transform="translate(1.00451,-400.609)">
			<title>Sheet.1190</title>
			<path d="M0 425.89 L613.87 425.89" class="st6"/>
		</g>
		<g id="shape1191-77" v:mID="1191" v:groupContext="shape" transform="translate(1.00451,-225.659)">
			<title>Sheet.1191</title>
			<path d="M0 425.89 L613.87 425.89" class="st6"/>
		</g>
		<g id="shape1192-80" v:mID="1192" v:groupContext="shape" transform="translate(10.9522,-375.3)">
			<title>Sheet.1192</title>
			<desc>video_title</desc>
			<v:textBlock v:margins="rect(0,0,0,0)"/>
			<v:textRect cx="47.8705" cy="416.324" width="95.75" height="19.1281"/>
			<path d="M95.74 406.76 L0 406.76 L0 425.89 L95.74 425.89 L95.74 406.76" class="st7"/>
			<text x="8.46" y="421.1" class="st8" v:langID="1033"><v:paragraph v:horizAlign="1"/><v:tabList/>video_title</text>		</g>
		<g id="shape1193-84" v:mID="1193" v:groupContext="shape" transform="translate(139.409,-375.3)">
			<title>Sheet.1193</title>
			<desc>id</desc>
			<v:textBlock v:margins="rect(0,0,0,0)"/>
			<v:textRect cx="10.6916" cy="416.324" width="21.39" height="19.1281"/>
			<path d="M21.38 406.76 L0 406.76 L0 425.89 L21.38 425.89 L21.38 406.76" class="st7"/>
			<text x="3.61" y="421.1" class="st8" v:langID="1033"><v:paragraph v:horizAlign="1"/><v:tabList/>id</text>		</g>
		<g id="shape1194-88" v:mID="1194" v:groupContext="shape" transform="translate(187.709,-375.3)">
			<title>Sheet.1194</title>
			<desc>user_id</desc>
			<v:textBlock v:margins="rect(0,0,0,0)"/>
			<v:textRect cx="35.1449" cy="416.324" width="70.29" height="19.1281"/>
			<path d="M70.29 406.76 L0 406.76 L0 425.89 L70.29 425.89 L70.29 406.76" class="st7"/>
			<text x="6.8" y="421.1" class="st8" v:langID="1033"><v:paragraph v:horizAlign="1"/><v:tabList/>user_id</text>		</g>
		<g id="shape1195-92" v:mID="1195" v:groupContext="shape" transform="translate(277.555,-375.3)">
			<title>Sheet.1195</title>
			<desc>video_id</desc>
			<v:textBlock v:margins="rect(0,0,0,0)"/>
			<v:textRect cx="39.7223" cy="416.324" width="79.45" height="19.1281"/>
			<path d="M79.44 406.76 L0 406.76 L0 425.89 L79.44 425.89 L79.44 406.76" class="st7"/>
			<text x="7.4" y="421.1" class="st8" v:langID="1033"><v:paragraph v:horizAlign="1"/><v:tabList/>video_id</text>		</g>
		<g id="shape1196-96" v:mID="1196" v:groupContext="shape" transform="translate(444.513,-375.3)">
			<title>Sheet.1196</title>
			<desc>comment</desc>
			<v:textBlock v:margins="rect(0,0,0,0)"/>
			<v:textRect cx="43.2843" cy="416.324" width="86.57" height="19.1281"/>
			<path d="M86.57 406.76 L0 406.76 L0 425.89 L86.57 425.89 L86.57 406.76" class="st7"/>
			<text x="7.86" y="421.1" class="st8" v:langID="1033"><v:paragraph v:horizAlign="1"/><v:tabList/>comment</text>		</g>
		<g id="shape1197-100" v:mID="1197" v:groupContext="shape" transform="translate(12.753,-343.493)">
			<title>Sheet.1197</title>
			<desc>Insurgent</desc>
			<v:textBlock v:margins="rect(0,0,0,0)"/>
			<v:textRect cx="45.9656" cy="415.101" width="91.94" height="21.5726"/>
			<path d="M91.93 404.32 L0 404.32 L0 425.89 L91.93 425.89 L91.93 404.32" class="st7"/>
			<text x="8.49" y="420.49" class="st9" v:langID="1033"><v:paragraph v:horizAlign="1"/><v:tabList/>Insurgent</text>		</g>
		<g id="shape1198-104" v:mID="1198" v:groupContext="shape" transform="translate(141.45,-343.493)">
			<title>Sheet.1198</title>
			<desc>1</desc>
			<v:textBlock v:margins="rect(0,0,0,0)"/>
			<v:textRect cx="8.62149" cy="415.101" width="17.25" height="21.5726"/>
			<path d="M17.24 404.32 L0 404.32 L0 425.89 L17.24 425.89 L17.24 404.32" class="st7"/>
			<text x="3.62" y="420.49" class="st9" v:langID="1033"><v:paragraph v:horizAlign="1"/><v:tabList/>1</text>		</g>
		<g id="shape1199-108" v:mID="1199" v:groupContext="shape" transform="translate(211.123,-343.493)">
			<title>Sheet.1199</title>
			<desc>a</desc>
			<v:textBlock v:margins="rect(0,0,0,0)"/>
			<v:textRect cx="8.62149" cy="415.101" width="17.25" height="21.5726"/>
			<path d="M17.24 404.32 L0 404.32 L0 425.89 L17.24 425.89 L17.24 404.32" class="st7"/>
			<text x="3.62" y="420.49" class="st10" v:langID="1033"><v:paragraph v:horizAlign="1"/><v:tabList/>a</text>		</g>
		<g id="shape1200-112" v:mID="1200" v:groupContext="shape" transform="translate(304.69,-343.493)">
			<title>Sheet.1200</title>
			<desc>1</desc>
			<v:textBlock v:margins="rect(0,0,0,0)"/>
			<v:textRect cx="8.62149" cy="415.101" width="17.25" height="21.5726"/>
			<path d="M17.24 404.32 L0 404.32 L0 425.89 L17.24 425.89 L17.24 404.32" class="st7"/>
			<text x="3.62" y="420.49" class="st10" v:langID="1033"><v:paragraph v:horizAlign="1"/><v:tabList/>1</text>		</g>
		<g id="shape1201-116" v:mID="1201" v:groupContext="shape" transform="translate(446.076,-343.493)">
			<title>Sheet.1201</title>
			<desc>Loved it!</desc>
			<v:textBlock v:margins="rect(0,0,0,0)"/>
			<v:textRect cx="41.9434" cy="415.101" width="83.89" height="21.5726"/>
			<path d="M83.89 404.32 L0 404.32 L0 425.89 L83.89 425.89 L83.89 404.32" class="st7"/>
			<text x="7.97" y="420.49" class="st11" v:langID="1033"><v:paragraph v:horizAlign="1"/><v:tabList/>Loved it!</text>		</g>
		<g id="shape1202-120" v:mID="1202" v:groupContext="shape" transform="translate(5.42965,-314.335)">
			<title>Sheet.1202</title>
			<desc>Mockingjay</desc>
			<v:textBlock v:margins="rect(0,0,0,0)"/>
			<v:textRect cx="54.5697" cy="415.101" width="109.14" height="21.5726"/>
			<path d="M109.14 404.32 L0 404.32 L0 425.89 L109.14 425.89 L109.14 404.32" class="st7"/>
			<text x="9.62" y="420.49" class="st9" v:langID="1033"><v:paragraph v:horizAlign="1"/><v:tabList/>Mockingjay</text>		</g>
		<g id="shape1203-124" v:mID="1203" v:groupContext="shape" transform="translate(141.45,-314.335)">
			<title>Sheet.1203</title>
			<desc>2</desc>
			<v:textBlock v:margins="rect(0,0,0,0)"/>
			<v:textRect cx="8.62149" cy="415.101" width="17.25" height="21.5726"/>
			<path d="M17.24 404.32 L0 404.32 L0 425.89 L17.24 425.89 L17.24 404.32" class="st7"/>
			<text x="3.62" y="420.49" class="st9" v:langID="1033"><v:paragraph v:horizAlign="1"/><v:tabList/>2</text>		</g>
		<g id="shape1204-128" v:mID="1204" v:groupContext="shape" transform="translate(211.123,-314.335)">
			<title>Sheet.1204</title>
			<desc>a</desc>
			<v:textBlock v:margins="rect(0,0,0,0)"/>
			<v:textRect cx="8.62149" cy="415.101" width="17.25" height="21.5726"/>
			<path d="M17.24 404.32 L0 404.32 L0 425.89 L17.24 425.89 L17.24 404.32" class="st7"/>
			<text x="3.62" y="420.49" class="st10" v:langID="1033"><v:paragraph v:horizAlign="1"/><v:tabList/>a</text>		</g>
		<g id="shape1205-132" v:mID="1205" v:groupContext="shape" transform="translate(304.69,-314.335)">
			<title>Sheet.1205</title>
			<desc>3</desc>
			<v:textBlock v:margins="rect(0,0,0,0)"/>
			<v:textRect cx="8.62149" cy="415.101" width="17.25" height="21.5726"/>
			<path d="M17.24 404.32 L0 404.32 L0 425.89 L17.24 425.89 L17.24 404.32" class="st7"/>
			<text x="3.62" y="420.49" class="st10" v:langID="1033"><v:paragraph v:horizAlign="1"/><v:tabList/>3</text>		</g>
		<g id="shape1206-136" v:mID="1206" v:groupContext="shape" transform="translate(446.557,-314.335)">
			<title>Sheet.1206</title>
			<desc>Hated it!</desc>
			<v:textBlock v:margins="rect(0,0,0,0)"/>
			<v:textRect cx="41.3631" cy="415.101" width="82.73" height="21.5726"/>
			<path d="M82.73 404.32 L0 404.32 L0 425.89 L82.73 425.89 L82.73 404.32" class="st7"/>
			<text x="7.89" y="420.49" class="st11" v:langID="1033"><v:paragraph v:horizAlign="1"/><v:tabList/>Hated it!</text>		</g>
		<g id="shape1207-140" v:mID="1207" v:groupContext="shape" transform="translate(8.31099,-285.177)">
			<title>Sheet.1207</title>
			<desc>Interstellar</desc>
			<v:textBlock v:margins="rect(0,0,0,0)"/>
			<v:textRect cx="51.123" cy="415.101" width="102.25" height="21.5726"/>
			<path d="M102.25 404.32 L0 404.32 L0 425.89 L102.25 425.89 L102.25 404.32" class="st7"/>
			<text x="9.17" y="420.49" class="st9" v:langID="1033"><v:paragraph v:horizAlign="1"/><v:tabList/>Interstellar</text>		</g>
		<g id="shape1208-144" v:mID="1208" v:groupContext="shape" transform="translate(141.45,-285.177)">
			<title>Sheet.1208</title>
			<desc>3</desc>
			<v:textBlock v:margins="rect(0,0,0,0)"/>
			<v:textRect cx="8.62149" cy="415.101" width="17.25" height="21.5726"/>
			<path d="M17.24 404.32 L0 404.32 L0 425.89 L17.24 425.89 L17.24 404.32" class="st7"/>
			<text x="3.62" y="420.49" class="st9" v:langID="1033"><v:paragraph v:horizAlign="1"/><v:tabList/>3</text>		</g>
		<g id="shape1209-148" v:mID="1209" v:groupContext="shape" transform="translate(211.123,-285.177)">
			<title>Sheet.1209</title>
			<desc>a</desc>
			<v:textBlock v:margins="rect(0,0,0,0)"/>
			<v:textRect cx="8.62149" cy="415.101" width="17.25" height="21.5726"/>
			<path d="M17.24 404.32 L0 404.32 L0 425.89 L17.24 425.89 L17.24 404.32" class="st7"/>
			<text x="3.62" y="420.49" class="st10" v:langID="1033"><v:paragraph v:horizAlign="1"/><v:tabList/>a</text>		</g>
		<g id="shape1210-152" v:mID="1210" v:groupContext="shape" transform="translate(304.69,-285.177)">
			<title>Sheet.1210</title>
			<desc>2</desc>
			<v:textBlock v:margins="rect(0,0,0,0)"/>
			<v:textRect cx="8.62149" cy="415.101" width="17.25" height="21.5726"/>
			<path d="M17.24 404.32 L0 404.32 L0 425.89 L17.24 425.89 L17.24 404.32" class="st7"/>
			<text x="3.62" y="420.49" class="st10" v:langID="1033"><v:paragraph v:horizAlign="1"/><v:tabList/>2</text>		</g>
		<g id="shape1211-156" v:mID="1211" v:groupContext="shape" transform="translate(410.66,-285.177)">
			<title>Sheet.1211</title>
			<desc>I cried at the end!</desc>
			<v:textBlock v:margins="rect(0,0,0,0)"/>
			<v:textRect cx="82.7343" cy="415.101" width="165.47" height="21.5726"/>
			<path d="M165.47 404.32 L0 404.32 L0 425.89 L165.47 425.89 L165.47 404.32" class="st7"/>
			<text x="13.29" y="420.49" class="st11" v:langID="1033"><v:paragraph v:horizAlign="1"/><v:tabList/>I cried at the end!</text>		</g>
		<g id="shape1212-160" v:mID="1212" v:groupContext="shape" transform="translate(8.31099,-256.019)">
			<title>Sheet.1212</title>
			<desc>Interstellar</desc>
			<v:textBlock v:margins="rect(0,0,0,0)"/>
			<v:textRect cx="51.123" cy="415.101" width="102.25" height="21.5726"/>
			<path d="M102.25 404.32 L0 404.32 L0 425.89 L102.25 425.89 L102.25 404.32" class="st7"/>
			<text x="9.17" y="420.49" class="st9" v:langID="1033"><v:paragraph v:horizAlign="1"/><v:tabList/>Interstellar</text>		</g>
		<g id="shape1213-164" v:mID="1213" v:groupContext="shape" transform="translate(141.45,-256.019)">
			<title>Sheet.1213</title>
			<desc>4</desc>
			<v:textBlock v:margins="rect(0,0,0,0)"/>
			<v:textRect cx="8.62149" cy="415.101" width="17.25" height="21.5726"/>
			<path d="M17.24 404.32 L0 404.32 L0 425.89 L17.24 425.89 L17.24 404.32" class="st7"/>
			<text x="3.62" y="420.49" class="st9" v:langID="1033"><v:paragraph v:horizAlign="1"/><v:tabList/>4</text>		</g>
		<g id="shape1214-168" v:mID="1214" v:groupContext="shape" transform="translate(211.123,-256.019)">
			<title>Sheet.1214</title>
			<desc>b</desc>
			<v:textBlock v:margins="rect(0,0,0,0)"/>
			<v:textRect cx="8.62149" cy="415.101" width="17.25" height="21.5726"/>
			<path d="M17.24 404.32 L0 404.32 L0 425.89 L17.24 425.89 L17.24 404.32" class="st7"/>
			<text x="3.62" y="420.49" class="st10" v:langID="1033"><v:paragraph v:horizAlign="1"/><v:tabList/>b</text>		</g>
		<g id="shape1215-172" v:mID="1215" v:groupContext="shape" transform="translate(304.69,-256.019)">
			<title>Sheet.1215</title>
			<desc>2</desc>
			<v:textBlock v:margins="rect(0,0,0,0)"/>
			<v:textRect cx="8.62149" cy="415.101" width="17.25" height="21.5726"/>
			<path d="M17.24 404.32 L0 404.32 L0 425.89 L17.24 425.89 L17.24 404.32" class="st7"/>
			<text x="3.62" y="420.49" class="st10" v:langID="1033"><v:paragraph v:horizAlign="1"/><v:tabList/>2</text>		</g>
		<g id="shape1216-176" v:mID="1216" v:groupContext="shape" transform="translate(365.999,-256.019)">
			<title>Sheet.1216</title>
			<desc>Someone stole</desc>
			<v:textBlock v:margins="rect(0,0,0,0)"/>
			<v:textRect cx="71.8186" cy="415.101" width="143.64" height="21.5726"/>
			<path d="M143.64 404.32 L0 404.32 L0 425.89 L143.64 425.89 L143.64 404.32" class="st7"/>
			<text x="11.87" y="420.49" class="st11" v:langID="1033"><v:paragraph v:horizAlign="1"/><v:tabList/>Someone stole</text>		</g>
		<g id="shape1217-180" v:mID="1217" v:groupContext="shape" transform="translate(491.097,-256.019)">
			<title>Sheet.1217</title>
			<desc>my tissues…</desc>
			<v:textBlock v:margins="rect(0,0,0,0)"/>
			<v:textRect cx="62.0233" cy="415.101" width="124.05" height="21.5726"/>
			<path d="M124.05 404.32 L0 404.32 L0 425.89 L124.05 425.89 L124.05 404.32" class="st7"/>
			<text x="10.59" y="420.49" class="st11" v:langID="1033"><v:paragraph v:horizAlign="1"/><v:tabList/>my tissues…</text>		</g>
		<g id="shape1218-184" v:mID="1218" v:groupContext="shape" transform="translate(41.2062,-226.861)">
			<title>Sheet.1218</title>
			<desc>…</desc>
			<v:textBlock v:margins="rect(0,0,0,0)"/>
			<v:textRect cx="13.2087" cy="415.101" width="26.42" height="21.5726"/>
			<path d="M26.42 404.32 L0 404.32 L0 425.89 L26.42 425.89 L26.42 404.32" class="st7"/>
			<text x="4.22" y="420.49" class="st9" v:langID="1033"><v:paragraph v:horizAlign="1"/><v:tabList/>…</text>		</g>
		<g id="shape1219-188" v:mID="1219" v:groupContext="shape" transform="translate(137.488,-226.861)">
			<title>Sheet.1219</title>
			<desc>…</desc>
			<v:textBlock v:margins="rect(0,0,0,0)"/>
			<v:textRect cx="13.2087" cy="415.101" width="26.42" height="21.5726"/>
			<path d="M26.42 404.32 L0 404.32 L0 425.89 L26.42 425.89 L26.42 404.32" class="st7"/>
			<text x="4.22" y="420.49" class="st9" v:langID="1033"><v:paragraph v:horizAlign="1"/><v:tabList/>…</text>		</g>
		<g id="shape1220-192" v:mID="1220" v:groupContext="shape" transform="translate(207.041,-226.861)">
			<title>Sheet.1220</title>
			<desc>…</desc>
			<v:textBlock v:margins="rect(0,0,0,0)"/>
			<v:textRect cx="13.2087" cy="415.101" width="26.42" height="21.5726"/>
			<path d="M26.42 404.32 L0 404.32 L0 425.89 L26.42 425.89 L26.42 404.32" class="st7"/>
			<text x="4.22" y="420.49" class="st11" v:langID="1033"><v:paragraph v:horizAlign="1"/><v:tabList/>…</text>		</g>
		<g id="shape1221-196" v:mID="1221" v:groupContext="shape" transform="translate(300.728,-226.861)">
			<title>Sheet.1221</title>
			<desc>…</desc>
			<v:textBlock v:margins="rect(0,0,0,0)"/>
			<v:textRect cx="13.2087" cy="415.101" width="26.42" height="21.5726"/>
			<path d="M26.42 404.32 L0 404.32 L0 425.89 L26.42 425.89 L26.42 404.32" class="st7"/>
			<text x="4.22" y="420.49" class="st11" v:langID="1033"><v:paragraph v:horizAlign="1"/><v:tabList/>…</text>		</g>
		<g id="shape1222-200" v:mID="1222" v:groupContext="shape" transform="translate(470.928,-226.861)">
			<title>Sheet.1222</title>
			<desc>…</desc>
			<v:textBlock v:margins="rect(0,0,0,0)"/>
			<v:textRect cx="13.2087" cy="415.101" width="26.42" height="21.5726"/>
			<path d="M26.42 404.32 L0 404.32 L0 425.89 L26.42 425.89 L26.42 404.32" class="st7"/>
			<text x="4.22" y="420.49" class="st11" v:langID="1033"><v:paragraph v:horizAlign="1"/><v:tabList/>…</text>		</g>
		<g id="shape1223-204" v:mID="1223" v:groupContext="shape" transform="translate(0.958665,-179.866)">
			<title>Sheet.1223</title>
			<desc>comments_by_user</desc>
			<v:textBlock v:margins="rect(0,0,0,0)"/>
			<v:textRect cx="105.115" cy="415.101" width="210.24" height="21.5726"/>
			<path d="M210.23 404.32 L0 404.32 L0 425.89 L210.23 425.89 L210.23 404.32" class="st7"/>
			<text x="20.7" y="420.49" class="st12" v:langID="1033"><v:paragraph v:horizAlign="1"/><v:tabList/>comments_by_user</text>		</g>
		<g id="shape1224-208" v:mID="1224" v:groupContext="shape" transform="translate(1.48474,-117.634)">
			<title>Sheet.1224</title>
			<path d="M0 396.74 L0 425.89 L111.65 425.89 L111.65 396.74 L0 396.74 L0 396.74 Z" class="st1"/>
		</g>
		<g id="shape1225-210" v:mID="1225" v:groupContext="shape" transform="translate(113.136,-117.634)">
			<title>Sheet.1225</title>
			<path d="M0 396.74 L0 425.89 L66.63 425.89 L66.63 396.74 L0 396.74 L0 396.74 Z" class="st1"/>
		</g>
		<g id="shape1226-212" v:mID="1226" v:groupContext="shape" transform="translate(179.767,-117.634)">
			<title>Sheet.1226</title>
			<path d="M0 396.74 L0 425.89 L85.84 425.89 L85.84 396.74 L0 396.74 L0 396.74 Z" class="st1"/>
		</g>
		<g id="shape1227-214" v:mID="1227" v:groupContext="shape" transform="translate(265.607,-117.634)">
			<title>Sheet.1227</title>
			<path d="M0 396.74 L0 425.89 L100.85 425.89 L100.85 396.74 L0 396.74 L0 396.74 Z" class="st1"/>
		</g>
		<g id="shape1228-216" v:mID="1228" v:groupContext="shape" transform="translate(366.454,-117.634)">
			<title>Sheet.1228</title>
			<path d="M0 396.74 L0 425.89 L247.91 425.89 L247.91 396.74 L0 396.74 L0 396.74 Z" class="st1"/>
		</g>
		<g id="shape1229-218" v:mID="1229" v:groupContext="shape" transform="translate(1.48474,-59.3079)">
			<title>Sheet.1229</title>
			<path d="M0 396.72 L0 425.89 L111.65 425.89 L111.65 396.72 L0 396.72 L0 396.72 Z" class="st1"/>
		</g>
		<g id="shape1230-220" v:mID="1230" v:groupContext="shape" transform="translate(113.136,-59.3079)">
			<title>Sheet.1230</title>
			<path d="M0 396.72 L0 425.89 L66.63 425.89 L66.63 396.72 L0 396.72 L0 396.72 Z" class="st1"/>
		</g>
		<g id="shape1231-222" v:mID="1231" v:groupContext="shape" transform="translate(179.767,-59.3079)">
			<title>Sheet.1231</title>
			<path d="M0 396.72 L0 425.89 L85.84 425.89 L85.84 396.72 L0 396.72 L0 396.72 Z" class="st1"/>
		</g>
		<g id="shape1232-224" v:mID="1232" v:groupContext="shape" transform="translate(265.607,-59.3079)">
			<title>Sheet.1232</title>
			<path d="M0 396.72 L0 425.89 L100.85 425.89 L100.85 396.72 L0 396.72 L0 396.72 Z" class="st1"/>
		</g>
		<g id="shape1233-226" v:mID="1233" v:groupContext="shape" transform="translate(366.454,-59.3079)">
			<title>Sheet.1233</title>
			<path d="M0 396.74 L0 425.89 L247.91 425.89 L247.91 396.74 L0 396.74 L0 396.74 Z" class="st1"/>
		</g>
		<g id="shape1234-228" v:mID="1234" v:groupContext="shape" transform="translate(1.48474,-30.1597)">
			<title>Sheet.1234</title>
			<path d="M0 396.74 L0 425.89 L111.65 425.89 L111.65 396.74 L0 396.74 L0 396.74 Z" class="st2"/>
		</g>
		<g id="shape1235-230" v:mID="1235" v:groupContext="shape" transform="translate(113.136,-30.1597)">
			<title>Sheet.1235</title>
			<path d="M0 396.74 L0 425.89 L66.63 425.89 L66.63 396.74 L0 396.74 L0 396.74 Z" class="st2"/>
		</g>
		<g id="shape1236-232" v:mID="1236" v:groupContext="shape" transform="translate(179.767,-30.1597)">
			<title>Sheet.1236</title>
			<path d="M0 396.74 L0 425.89 L85.84 425.89 L85.84 396.74 L0 396.74 L0 396.74 Z" class="st2"/>
		</g>
		<g id="shape1237-234" v:mID="1237" v:groupContext="shape" transform="translate(265.607,-30.1597)">
			<title>Sheet.1237</title>
			<path d="M0 396.74 L0 425.89 L100.85 425.89 L100.85 396.74 L0 396.74 L0 396.74 Z" class="st2"/>
		</g>
		<g id="shape1238-236" v:mID="1238" v:groupContext="shape" transform="translate(366.454,-30.1597)">
			<title>Sheet.1238</title>
			<path d="M0 396.74 L0 425.89 L247.91 425.89 L247.91 396.74 L0 396.74 L0 396.74 Z" class="st2"/>
		</g>
		<g id="shape1239-238" v:mID="1239" v:groupContext="shape" transform="translate(1.48474,-0.996548)">
			<title>Sheet.1239</title>
			<path d="M0 396.72 L0 425.89 L111.65 425.89 L111.65 396.72 L0 396.72 L0 396.72 Z" class="st1"/>
		</g>
		<g id="shape1240-240" v:mID="1240" v:groupContext="shape" transform="translate(113.136,-0.996548)">
			<title>Sheet.1240</title>
			<path d="M0 396.72 L0 425.89 L66.63 425.89 L66.63 396.72 L0 396.72 L0 396.72 Z" class="st1"/>
		</g>
		<g id="shape1241-242" v:mID="1241" v:groupContext="shape" transform="translate(179.767,-0.996548)">
			<title>Sheet.1241</title>
			<path d="M0 396.72 L0 425.89 L85.84 425.89 L85.84 396.72 L0 396.72 L0 396.72 Z" class="st1"/>
		</g>
		<g id="shape1242-244" v:mID="1242" v:groupContext="shape" transform="translate(265.607,-0.996548)">
			<title>Sheet.1242</title>
			<path d="M0 396.72 L0 425.89 L100.85 425.89 L100.85 396.72 L0 396.72 L0 396.72 Z" class="st1"/>
		</g>
		<g id="shape1243-246" v:mID="1243" v:groupContext="shape" transform="translate(366.454,-0.981569)">
			<title>Sheet.1243</title>
			<path d="M0 396.71 L0 425.89 L247.91 425.89 L247.91 396.71 L0 396.71 L0 396.71 Z" class="st1"/>
		</g>
		<g id="shape1244-248" v:mID="1244" v:groupContext="shape" transform="translate(113.136,-0.502257)">
			<title>Sheet.1244</title>
			<path d="M0 249.95 L0 425.89" class="st4"/>
		</g>
		<g id="shape1245-251" v:mID="1245" v:groupContext="shape" transform="translate(179.767,-0.502257)">
			<title>Sheet.1245</title>
			<path d="M0 249.95 L0 425.89" class="st4"/>
		</g>
		<g id="shape1246-254" v:mID="1246" v:groupContext="shape" transform="translate(265.607,-0.502257)">
			<title>Sheet.1246</title>
			<path d="M0 249.95 L0 425.89" class="st4"/>
		</g>
		<g id="shape1247-257" v:mID="1247" v:groupContext="shape" transform="translate(366.454,-0.502257)">
			<title>Sheet.1247</title>
			<path d="M0 249.95 L0 425.89" class="st4"/>
		</g>
		<g id="shape1248-260" v:mID="1248" v:groupContext="shape" transform="translate(1.00451,-146.783)">
			<title>Sheet.1248</title>
			<path d="M0 425.89 L613.87 425.89" class="st5"/>
		</g>
		<g id="shape1249-263" v:mID="1249" v:groupContext="shape" transform="translate(1.00451,-117.634)">
			<title>Sheet.1249</title>
			<path d="M0 425.89 L613.87 425.89" class="st6"/>
		</g>
		<g id="shape1250-266" v:mID="1250" v:groupContext="shape" transform="translate(1.00451,-88.4562)">
			<title>Sheet.1250</title>
			<path d="M0 425.89 L613.87 425.89" class="st6"/>
		</g>
		<g id="shape1251-269" v:mID="1251" v:groupContext="shape" transform="translate(1.00451,-59.3079)">
			<title>Sheet.1251</title>
			<path d="M0 425.89 L613.87 425.89" class="st6"/>
		</g>
		<g id="shape1252-272" v:mID="1252" v:groupContext="shape" transform="translate(1.00451,-30.1597)">
			<title>Sheet.1252</title>
			<path d="M0 425.89 L613.87 425.89" class="st6"/>
		</g>
		<g id="shape1253-275" v:mID="1253" v:groupContext="shape" transform="translate(1.48474,-0.502257)">
			<title>Sheet.1253</title>
			<path d="M0 249.95 L0 425.89" class="st4"/>
		</g>
		<g id="shape1254-278" v:mID="1254" v:groupContext="shape" transform="translate(614.369,-0.502257)">
			<title>Sheet.1254</title>
			<path d="M0 249.95 L0 425.89" class="st6"/>
		</g>
		<g id="shape1255-281" v:mID="1255" v:groupContext="shape" transform="translate(1.00451,-175.931)">
			<title>Sheet.1255</title>
			<path d="M0 425.89 L613.87 425.89" class="st6"/>
		</g>
		<g id="shape1256-284" v:mID="1256" v:groupContext="shape" transform="translate(1.00451,-0.98157)">
			<title>Sheet.1256</title>
			<path d="M0 425.89 L613.87 425.89" class="st6"/>
		</g>
		<g id="shape1257-287" v:mID="1257" v:groupContext="shape" transform="translate(11.1132,-150.622)">
			<title>Sheet.1257</title>
			<desc>user_login</desc>
			<v:textBlock v:margins="rect(0,0,0,0)"/>
			<v:textRect cx="48.8861" cy="416.324" width="97.78" height="19.1281"/>
			<path d="M97.77 406.76 L0 406.76 L0 425.89 L97.77 425.89 L97.77 406.76" class="st7"/>
			<text x="8.59" y="421.1" class="st8" v:langID="1033"><v:paragraph v:horizAlign="1"/><v:tabList/>user_login</text>		</g>
		<g id="shape1258-291" v:mID="1258" v:groupContext="shape" transform="translate(139.409,-150.622)">
			<title>Sheet.1258</title>
			<desc>id</desc>
			<v:textBlock v:margins="rect(0,0,0,0)"/>
			<v:textRect cx="10.6916" cy="416.324" width="21.39" height="19.1281"/>
			<path d="M21.38 406.76 L0 406.76 L0 425.89 L21.38 425.89 L21.38 406.76" class="st7"/>
			<text x="3.61" y="421.1" class="st8" v:langID="1033"><v:paragraph v:horizAlign="1"/><v:tabList/>id</text>		</g>
		<g id="shape1259-295" v:mID="1259" v:groupContext="shape" transform="translate(187.709,-150.622)">
			<title>Sheet.1259</title>
			<desc>user_id</desc>
			<v:textBlock v:margins="rect(0,0,0,0)"/>
			<v:textRect cx="35.1449" cy="416.324" width="70.29" height="19.1281"/>
			<path d="M70.29 406.76 L0 406.76 L0 425.89 L70.29 425.89 L70.29 406.76" class="st7"/>
			<text x="6.8" y="421.1" class="st8" v:langID="1033"><v:paragraph v:horizAlign="1"/><v:tabList/>user_id</text>		</g>
		<g id="shape1260-299" v:mID="1260" v:groupContext="shape" transform="translate(283.928,-150.622)">
			<title>Sheet.1260</title>
			<desc>video_id</desc>
			<v:textBlock v:margins="rect(0,0,0,0)"/>
			<v:textRect cx="39.7223" cy="416.324" width="79.45" height="19.1281"/>
			<path d="M79.44 406.76 L0 406.76 L0 425.89 L79.44 425.89 L79.44 406.76" class="st7"/>
			<text x="7.4" y="421.1" class="st8" v:langID="1033"><v:paragraph v:horizAlign="1"/><v:tabList/>video_id</text>		</g>
		<g id="shape1261-303" v:mID="1261" v:groupContext="shape" transform="translate(444.513,-150.622)">
			<title>Sheet.1261</title>
			<desc>comment</desc>
			<v:textBlock v:margins="rect(0,0,0,0)"/>
			<v:textRect cx="43.2843" cy="416.324" width="86.57" height="19.1281"/>
			<path d="M86.57 406.76 L0 406.76 L0 425.89 L86.57 425.89 L86.57 406.76" class="st7"/>
			<text x="7.86" y="421.1" class="st8" v:langID="1033"><v:paragraph v:horizAlign="1"/><v:tabList/>comment</text>		</g>
		<g id="shape1262-307" v:mID="1262" v:groupContext="shape" transform="translate(15.0775,-118.815)">
			<title>Sheet.1262</title>
			<desc>emotions</desc>
			<v:textBlock v:margins="rect(0,0,0,0)"/>
			<v:textRect cx="44.8099" cy="415.101" width="89.62" height="21.5726"/>
			<path d="M89.62 404.32 L0 404.32 L0 425.89 L89.62 425.89 L89.62 404.32" class="st7"/>
			<text x="8.34" y="420.49" class="st9" v:langID="1033"><v:paragraph v:horizAlign="1"/><v:tabList/>emotions</text>		</g>
		<g id="shape1263-311" v:mID="1263" v:groupContext="shape" transform="translate(141.45,-118.815)">
			<title>Sheet.1263</title>
			<desc>1</desc>
			<v:textBlock v:margins="rect(0,0,0,0)"/>
			<v:textRect cx="8.62149" cy="415.101" width="17.25" height="21.5726"/>
			<path d="M17.24 404.32 L0 404.32 L0 425.89 L17.24 425.89 L17.24 404.32" class="st7"/>
			<text x="3.62" y="420.49" class="st9" v:langID="1033"><v:paragraph v:horizAlign="1"/><v:tabList/>1</text>		</g>
		<g id="shape1264-315" v:mID="1264" v:groupContext="shape" transform="translate(211.123,-118.815)">
			<title>Sheet.1264</title>
			<desc>a</desc>
			<v:textBlock v:margins="rect(0,0,0,0)"/>
			<v:textRect cx="8.62149" cy="415.101" width="17.25" height="21.5726"/>
			<path d="M17.24 404.32 L0 404.32 L0 425.89 L17.24 425.89 L17.24 404.32" class="st7"/>
			<text x="3.62" y="420.49" class="st10" v:langID="1033"><v:paragraph v:horizAlign="1"/><v:tabList/>a</text>		</g>
		<g id="shape1265-319" v:mID="1265" v:groupContext="shape" transform="translate(304.69,-118.815)">
			<title>Sheet.1265</title>
			<desc>1</desc>
			<v:textBlock v:margins="rect(0,0,0,0)"/>
			<v:textRect cx="8.62149" cy="415.101" width="17.25" height="21.5726"/>
			<path d="M17.24 404.32 L0 404.32 L0 425.89 L17.24 425.89 L17.24 404.32" class="st7"/>
			<text x="3.62" y="420.49" class="st10" v:langID="1033"><v:paragraph v:horizAlign="1"/><v:tabList/>1</text>		</g>
		<g id="shape1266-323" v:mID="1266" v:groupContext="shape" transform="translate(446.076,-118.815)">
			<title>Sheet.1266</title>
			<desc>Loved it!</desc>
			<v:textBlock v:margins="rect(0,0,0,0)"/>
			<v:textRect cx="41.9434" cy="415.101" width="83.89" height="21.5726"/>
			<path d="M83.89 404.32 L0 404.32 L0 425.89 L83.89 425.89 L83.89 404.32" class="st7"/>
			<text x="7.97" y="420.49" class="st11" v:langID="1033"><v:paragraph v:horizAlign="1"/><v:tabList/>Loved it!</text>		</g>
		<g id="shape1267-327" v:mID="1267" v:groupContext="shape" transform="translate(15.0775,-89.6572)">
			<title>Sheet.1267</title>
			<desc>emotions</desc>
			<v:textBlock v:margins="rect(0,0,0,0)"/>
			<v:textRect cx="44.8099" cy="415.101" width="89.62" height="21.5726"/>
			<path d="M89.62 404.32 L0 404.32 L0 425.89 L89.62 425.89 L89.62 404.32" class="st7"/>
			<text x="8.34" y="420.49" class="st9" v:langID="1033"><v:paragraph v:horizAlign="1"/><v:tabList/>emotions</text>		</g>
		<g id="shape1268-331" v:mID="1268" v:groupContext="shape" transform="translate(141.45,-89.6572)">
			<title>Sheet.1268</title>
			<desc>2</desc>
			<v:textBlock v:margins="rect(0,0,0,0)"/>
			<v:textRect cx="8.62149" cy="415.101" width="17.25" height="21.5726"/>
			<path d="M17.24 404.32 L0 404.32 L0 425.89 L17.24 425.89 L17.24 404.32" class="st7"/>
			<text x="3.62" y="420.49" class="st9" v:langID="1033"><v:paragraph v:horizAlign="1"/><v:tabList/>2</text>		</g>
		<g id="shape1269-335" v:mID="1269" v:groupContext="shape" transform="translate(211.123,-89.6572)">
			<title>Sheet.1269</title>
			<desc>a</desc>
			<v:textBlock v:margins="rect(0,0,0,0)"/>
			<v:textRect cx="8.62149" cy="415.101" width="17.25" height="21.5726"/>
			<path d="M17.24 404.32 L0 404.32 L0 425.89 L17.24 425.89 L17.24 404.32" class="st7"/>
			<text x="3.62" y="420.49" class="st10" v:langID="1033"><v:paragraph v:horizAlign="1"/><v:tabList/>a</text>		</g>
		<g id="shape1270-339" v:mID="1270" v:groupContext="shape" transform="translate(304.69,-89.6572)">
			<title>Sheet.1270</title>
			<desc>3</desc>
			<v:textBlock v:margins="rect(0,0,0,0)"/>
			<v:textRect cx="8.62149" cy="415.101" width="17.25" height="21.5726"/>
			<path d="M17.24 404.32 L0 404.32 L0 425.89 L17.24 425.89 L17.24 404.32" class="st7"/>
			<text x="3.62" y="420.49" class="st10" v:langID="1033"><v:paragraph v:horizAlign="1"/><v:tabList/>3</text>		</g>
		<g id="shape1271-343" v:mID="1271" v:groupContext="shape" transform="translate(446.557,-89.6572)">
			<title>Sheet.1271</title>
			<desc>Hated it!</desc>
			<v:textBlock v:margins="rect(0,0,0,0)"/>
			<v:textRect cx="41.3631" cy="415.101" width="82.73" height="21.5726"/>
			<path d="M82.73 404.32 L0 404.32 L0 425.89 L82.73 425.89 L82.73 404.32" class="st7"/>
			<text x="7.89" y="420.49" class="st11" v:langID="1033"><v:paragraph v:horizAlign="1"/><v:tabList/>Hated it!</text>		</g>
		<g id="shape1272-347" v:mID="1272" v:groupContext="shape" transform="translate(15.0775,-60.4991)">
			<title>Sheet.1272</title>
			<desc>emotions</desc>
			<v:textBlock v:margins="rect(0,0,0,0)"/>
			<v:textRect cx="44.8099" cy="415.101" width="89.62" height="21.5726"/>
			<path d="M89.62 404.32 L0 404.32 L0 425.89 L89.62 425.89 L89.62 404.32" class="st7"/>
			<text x="8.34" y="420.49" class="st9" v:langID="1033"><v:paragraph v:horizAlign="1"/><v:tabList/>emotions</text>		</g>
		<g id="shape1273-351" v:mID="1273" v:groupContext="shape" transform="translate(141.45,-60.4991)">
			<title>Sheet.1273</title>
			<desc>3</desc>
			<v:textBlock v:margins="rect(0,0,0,0)"/>
			<v:textRect cx="8.62149" cy="415.101" width="17.25" height="21.5726"/>
			<path d="M17.24 404.32 L0 404.32 L0 425.89 L17.24 425.89 L17.24 404.32" class="st7"/>
			<text x="3.62" y="420.49" class="st9" v:langID="1033"><v:paragraph v:horizAlign="1"/><v:tabList/>3</text>		</g>
		<g id="shape1274-355" v:mID="1274" v:groupContext="shape" transform="translate(211.123,-60.4991)">
			<title>Sheet.1274</title>
			<desc>a</desc>
			<v:textBlock v:margins="rect(0,0,0,0)"/>
			<v:textRect cx="8.62149" cy="415.101" width="17.25" height="21.5726"/>
			<path d="M17.24 404.32 L0 404.32 L0 425.89 L17.24 425.89 L17.24 404.32" class="st7"/>
			<text x="3.62" y="420.49" class="st10" v:langID="1033"><v:paragraph v:horizAlign="1"/><v:tabList/>a</text>		</g>
		<g id="shape1275-359" v:mID="1275" v:groupContext="shape" transform="translate(304.69,-60.4991)">
			<title>Sheet.1275</title>
			<desc>2</desc>
			<v:textBlock v:margins="rect(0,0,0,0)"/>
			<v:textRect cx="8.62149" cy="415.101" width="17.25" height="21.5726"/>
			<path d="M17.24 404.32 L0 404.32 L0 425.89 L17.24 425.89 L17.24 404.32" class="st7"/>
			<text x="3.62" y="420.49" class="st10" v:langID="1033"><v:paragraph v:horizAlign="1"/><v:tabList/>2</text>		</g>
		<g id="shape1276-363" v:mID="1276" v:groupContext="shape" transform="translate(410.66,-60.4991)">
			<title>Sheet.1276</title>
			<desc>I cried at the end!</desc>
			<v:textBlock v:margins="rect(0,0,0,0)"/>
			<v:textRect cx="82.7343" cy="415.101" width="165.47" height="21.5726"/>
			<path d="M165.47 404.32 L0 404.32 L0 425.89 L165.47 425.89 L165.47 404.32" class="st7"/>
			<text x="13.29" y="420.49" class="st11" v:langID="1033"><v:paragraph v:horizAlign="1"/><v:tabList/>I cried at the end!</text>		</g>
		<g id="shape1277-367" v:mID="1277" v:groupContext="shape" transform="translate(19.0394,-31.3409)">
			<title>Sheet.1277</title>
			<desc>clueless</desc>
			<v:textBlock v:margins="rect(0,0,0,0)"/>
			<v:textRect cx="40.2124" cy="415.101" width="80.43" height="21.5726"/>
			<path d="M80.42 404.32 L0 404.32 L0 425.89 L80.42 425.89 L80.42 404.32" class="st7"/>
			<text x="7.74" y="420.49" class="st9" v:langID="1033"><v:paragraph v:horizAlign="1"/><v:tabList/>clueless</text>		</g>
		<g id="shape1278-371" v:mID="1278" v:groupContext="shape" transform="translate(141.45,-31.3409)">
			<title>Sheet.1278</title>
			<desc>4</desc>
			<v:textBlock v:margins="rect(0,0,0,0)"/>
			<v:textRect cx="8.62149" cy="415.101" width="17.25" height="21.5726"/>
			<path d="M17.24 404.32 L0 404.32 L0 425.89 L17.24 425.89 L17.24 404.32" class="st7"/>
			<text x="3.62" y="420.49" class="st9" v:langID="1033"><v:paragraph v:horizAlign="1"/><v:tabList/>4</text>		</g>
		<g id="shape1279-375" v:mID="1279" v:groupContext="shape" transform="translate(211.123,-31.3409)">
			<title>Sheet.1279</title>
			<desc>b</desc>
			<v:textBlock v:margins="rect(0,0,0,0)"/>
			<v:textRect cx="8.62149" cy="415.101" width="17.25" height="21.5726"/>
			<path d="M17.24 404.32 L0 404.32 L0 425.89 L17.24 425.89 L17.24 404.32" class="st7"/>
			<text x="3.62" y="420.49" class="st10" v:langID="1033"><v:paragraph v:horizAlign="1"/><v:tabList/>b</text>		</g>
		<g id="shape1280-379" v:mID="1280" v:groupContext="shape" transform="translate(304.69,-31.3409)">
			<title>Sheet.1280</title>
			<desc>2</desc>
			<v:textBlock v:margins="rect(0,0,0,0)"/>
			<v:textRect cx="8.62149" cy="415.101" width="17.25" height="21.5726"/>
			<path d="M17.24 404.32 L0 404.32 L0 425.89 L17.24 425.89 L17.24 404.32" class="st7"/>
			<text x="3.62" y="420.49" class="st10" v:langID="1033"><v:paragraph v:horizAlign="1"/><v:tabList/>2</text>		</g>
		<g id="shape1281-383" v:mID="1281" v:groupContext="shape" transform="translate(365.999,-31.3409)">
			<title>Sheet.1281</title>
			<desc>Someone stole</desc>
			<v:textBlock v:margins="rect(0,0,0,0)"/>
			<v:textRect cx="71.8186" cy="415.101" width="143.64" height="21.5726"/>
			<path d="M143.64 404.32 L0 404.32 L0 425.89 L143.64 425.89 L143.64 404.32" class="st7"/>
			<text x="11.87" y="420.49" class="st11" v:langID="1033"><v:paragraph v:horizAlign="1"/><v:tabList/>Someone stole</text>		</g>
		<g id="shape1282-387" v:mID="1282" v:groupContext="shape" transform="translate(491.097,-31.3409)">
			<title>Sheet.1282</title>
			<desc>my tissues…</desc>
			<v:textBlock v:margins="rect(0,0,0,0)"/>
			<v:textRect cx="62.0233" cy="415.101" width="124.05" height="21.5726"/>
			<path d="M124.05 404.32 L0 404.32 L0 425.89 L124.05 425.89 L124.05 404.32" class="st7"/>
			<text x="10.59" y="420.49" class="st11" v:langID="1033"><v:paragraph v:horizAlign="1"/><v:tabList/>my tissues…</text>		</g>
		<g id="shape1283-391" v:mID="1283" v:groupContext="shape" transform="translate(42.4502,-2.18265)">
			<title>Sheet.1283</title>
			<desc>…</desc>
			<v:textBlock v:margins="rect(0,0,0,0)"/>
			<v:textRect cx="13.2087" cy="415.101" width="26.42" height="21.5726"/>
			<path d="M26.42 404.32 L0 404.32 L0 425.89 L26.42 425.89 L26.42 404.32" class="st7"/>
			<text x="4.22" y="420.49" class="st9" v:langID="1033"><v:paragraph v:horizAlign="1"/><v:tabList/>…</text>		</g>
		<g id="shape1284-395" v:mID="1284" v:groupContext="shape" transform="translate(137.488,-2.18265)">
			<title>Sheet.1284</title>
			<desc>…</desc>
			<v:textBlock v:margins="rect(0,0,0,0)"/>
			<v:textRect cx="13.2087" cy="415.101" width="26.42" height="21.5726"/>
			<path d="M26.42 404.32 L0 404.32 L0 425.89 L26.42 425.89 L26.42 404.32" class="st7"/>
			<text x="4.22" y="420.49" class="st9" v:langID="1033"><v:paragraph v:horizAlign="1"/><v:tabList/>…</text>		</g>
		<g id="shape1285-399" v:mID="1285" v:groupContext="shape" transform="translate(207.041,-2.18265)">
			<title>Sheet.1285</title>
			<desc>…</desc>
			<v:textBlock v:margins="rect(0,0,0,0)"/>
			<v:textRect cx="13.2087" cy="415.101" width="26.42" height="21.5726"/>
			<path d="M26.42 404.32 L0 404.32 L0 425.89 L26.42 425.89 L26.42 404.32" class="st7"/>
			<text x="4.22" y="420.49" class="st11" v:langID="1033"><v:paragraph v:horizAlign="1"/><v:tabList/>…</text>		</g>
		<g id="shape1286-403" v:mID="1286" v:groupContext="shape" transform="translate(300.728,-2.18265)">
			<title>Sheet.1286</title>
			<desc>…</desc>
			<v:textBlock v:margins="rect(0,0,0,0)"/>
			<v:textRect cx="13.2087" cy="415.101" width="26.42" height="21.5726"/>
			<path d="M26.42 404.32 L0 404.32 L0 425.89 L26.42 425.89 L26.42 404.32" class="st7"/>
			<text x="4.22" y="420.49" class="st11" v:langID="1033"><v:paragraph v:horizAlign="1"/><v:tabList/>…</text>		</g>
		<g id="shape1287-407" v:mID="1287" v:groupContext="shape" transform="translate(470.928,-2.18265)">
			<title>Sheet.1287</title>
			<desc>…</desc>
			<v:textBlock v:margins="rect(0,0,0,0)"/>
			<v:textRect cx="13.2087" cy="415.101" width="26.42" height="21.5726"/>
			<path d="M26.42 404.32 L0 404.32 L0 425.89 L26.42 425.89 L26.42 404.32" class="st7"/>
			<text x="4.22" y="420.49" class="st11" v:langID="1033"><v:paragraph v:horizAlign="1"/><v:tabList/>…</text>		</g>
		<g id="shape1288-411" v:mID="1288" v:groupContext="shape" transform="translate(1.45196,-404.315)">
			<title>Sheet.1288</title>
			<desc>comments_by_video</desc>
			<v:textBlock v:margins="rect(0,0,0,0)"/>
			<v:textRect cx="105.115" cy="415.101" width="210.24" height="21.5726"/>
			<path d="M210.23 404.32 L0 404.32 L0 425.89 L210.23 425.89 L210.23 404.32" class="st7"/>
			<text x="16.21" y="420.49" class="st12" v:langID="1033"><v:paragraph v:horizAlign="1"/><v:tabList/>comments_by_video</text>		</g>
	</g>
</svg>
