<?xml version="1.0" encoding="UTF-8" standalone="no"?>
<!DOCTYPE svg PUBLIC "-//W3C//DTD SVG 1.1//EN" "http://www.w3.org/Graphics/SVG/1.1/DTD/svg11.dtd">
<!-- Generated by Microsoft Visio, SVG Export relational-tables.svg Page-1 -->
<svg xmlns="http://www.w3.org/2000/svg" xmlns:xlink="http://www.w3.org/1999/xlink" xmlns:ev="http://www.w3.org/2001/xml-events"
		xmlns:v="http://schemas.microsoft.com/visio/2003/SVGExtensions/" width="8.85158in" height="5.83616in"
		viewBox="0 0 637.314 420.203" xml:space="preserve" color-interpolation-filters="sRGB" class="st17">
	<v:documentProperties v:langID="1033" v:viewMarkup="false">
		<v:userDefs>
			<v:ud v:nameU="msvConvertTheme"/>
		</v:userDefs>
	</v:documentProperties>

	<style type="text/css">
	<![CDATA[
		.st1 {fill:#fadecb;stroke:none;stroke-linecap:round;stroke-linejoin:round;stroke-width:0.75}
		.st2 {fill:#f9f9f7;stroke:none;stroke-linecap:round;stroke-linejoin:round;stroke-width:0.75}
		.st3 {stroke:#4b3c37;stroke-linecap:round;stroke-linejoin:round;stroke-width:0.997017}
		.st4 {stroke:#4b3c37;stroke-linecap:round;stroke-linejoin:round;stroke-width:1.99403}
		.st5 {stroke:#4b3c37;stroke-linecap:round;stroke-linejoin:round;stroke-width:1.00451}
		.st6 {stroke:none;stroke-linecap:round;stroke-linejoin:round;stroke-width:0.75}
		.st7 {fill:#4b3c37;font-family:Arial;font-size:1.32809em;font-weight:bold}
		.st8 {fill:#007b98;font-family:Arial;font-size:1.49785em}
		.st9 {fill:#cb6015;font-family:Arial;font-size:1.49785em}
		.st10 {fill:#4b3c37;font-family:Arial;font-size:1.49785em;font-weight:bold}
		.st11 {stroke:#4b3c37;stroke-linecap:round;stroke-linejoin:round;stroke-width:2.00903}
		.st12 {stroke:#4b3c37;stroke-linecap:round;stroke-linejoin:round;stroke-width:0.989521}
		.st13 {fill:#bf5017;font-family:Arial;font-size:1.49785em}
		.st14 {visibility:visible}
		.st15 {stroke:none;stroke-linecap:round;stroke-linejoin:round;stroke-width:0.25}
		.st16 {fill:#c00000;font-family:Calibri;font-size:1.49785em}
		.st17 {fill:none;fill-rule:evenodd;font-size:12px;overflow:visible;stroke-linecap:square;stroke-miterlimit:3}
	]]>
	</style>

	<defs id="Patterns_And_Gradients">
		<linearGradient id="grad0-428" x1="0" y1="0" x2="1" y2="0" gradientTransform="rotate(270 0.5 0.5)">
			<stop offset="0" stop-color="#f0f0f0" stop-opacity="1"/>
			<stop offset="1" stop-color="#ffffff" stop-opacity="1"/>
		</linearGradient>
	</defs>
	<g v:mID="0" v:index="1" v:groupContext="foregroundPage">
		<title>Page-1</title>
		<v:pageProperties v:drawingScale="1" v:pageScale="1" v:drawingUnits="0" v:shadowOffsetX="9" v:shadowOffsetY="-9"/>
		<g id="shape3-1" v:mID="3" v:groupContext="shape" transform="translate(1.49975,-329.738)">
			<title>Sheet.3</title>
			<path d="M0 391.05 L0 420.2 L44.65 420.2 L44.65 391.05 L0 391.05 L0 391.05 Z" class="st1"/>
		</g>
		<g id="shape4-3" v:mID="4" v:groupContext="shape" transform="translate(46.1454,-329.738)">
			<title>Sheet.4</title>
			<path d="M0 391.05 L0 420.2 L110.77 420.2 L110.77 391.05 L0 391.05 L0 391.05 Z" class="st1"/>
		</g>
		<g id="shape5-5" v:mID="5" v:groupContext="shape" transform="translate(156.919,-329.738)">
			<title>Sheet.5</title>
			<path d="M0 391.05 L0 420.2 L82.22 420.2 L82.22 391.05 L0 391.05 L0 391.05 Z" class="st1"/>
		</g>
		<g id="shape6-7" v:mID="6" v:groupContext="shape" transform="translate(239.142,-329.73)">
			<title>Sheet.6</title>
			<path d="M0 391.04 L0 420.2 L78.83 420.2 L78.83 391.04 L0 391.04 L0 391.04 Z" class="st1"/>
		</g>
		<g id="shape7-9" v:mID="7" v:groupContext="shape" transform="translate(1.49975,-271.419)">
			<title>Sheet.7</title>
			<path d="M0 391.04 L0 420.2 L44.65 420.2 L44.65 391.04 L0 391.04 L0 391.04 Z" class="st1"/>
		</g>
		<g id="shape8-11" v:mID="8" v:groupContext="shape" transform="translate(46.1454,-271.419)">
			<title>Sheet.8</title>
			<path d="M0 391.04 L0 420.2 L110.77 420.2 L110.77 391.04 L0 391.04 L0 391.04 Z" class="st1"/>
		</g>
		<g id="shape9-13" v:mID="9" v:groupContext="shape" transform="translate(156.919,-271.419)">
			<title>Sheet.9</title>
			<path d="M0 391.04 L0 420.2 L82.22 420.2 L82.22 391.04 L0 391.04 L0 391.04 Z" class="st1"/>
		</g>
		<g id="shape10-15" v:mID="10" v:groupContext="shape" transform="translate(239.142,-271.419)">
			<title>Sheet.10</title>
			<path d="M0 391.04 L0 420.2 L78.83 420.2 L78.83 391.04 L0 391.04 L0 391.04 Z" class="st1"/>
		</g>
		<g id="shape11-17" v:mID="11" v:groupContext="shape" transform="translate(1.49975,-242.263)">
			<title>Sheet.11</title>
			<path d="M0 391.05 L0 420.2 L44.65 420.2 L44.65 391.05 L0 391.05 L0 391.05 Z" class="st2"/>
		</g>
		<g id="shape12-19" v:mID="12" v:groupContext="shape" transform="translate(46.1454,-242.263)">
			<title>Sheet.12</title>
			<path d="M0 391.05 L0 420.2 L110.77 420.2 L110.77 391.05 L0 391.05 L0 391.05 Z" class="st2"/>
		</g>
		<g id="shape13-21" v:mID="13" v:groupContext="shape" transform="translate(156.919,-242.263)">
			<title>Sheet.13</title>
			<path d="M0 391.05 L0 420.2 L82.22 420.2 L82.22 391.05 L0 391.05 L0 391.05 Z" class="st2"/>
		</g>
		<g id="shape14-23" v:mID="14" v:groupContext="shape" transform="translate(239.142,-242.256)">
			<title>Sheet.14</title>
			<path d="M0 391.04 L0 420.2 L78.83 420.2 L78.83 391.04 L0 391.04 L0 391.04 Z" class="st2"/>
		</g>
		<g id="shape15-25" v:mID="15" v:groupContext="shape" transform="translate(46.1454,-241.761)">
			<title>Sheet.15</title>
			<path d="M0 273.41 L0 420.2" class="st3"/>
		</g>
		<g id="shape16-28" v:mID="16" v:groupContext="shape" transform="translate(156.919,-241.761)">
			<title>Sheet.16</title>
			<path d="M0 273.41 L0 420.2" class="st3"/>
		</g>
		<g id="shape17-31" v:mID="17" v:groupContext="shape" transform="translate(239.142,-241.761)">
			<title>Sheet.17</title>
			<path d="M0 273.41 L0 420.2" class="st3"/>
		</g>
		<g id="shape18-34" v:mID="18" v:groupContext="shape" transform="translate(0.997017,-358.893)">
			<title>Sheet.18</title>
			<path d="M0 420.2 L317.47 420.2" class="st4"/>
		</g>
		<g id="shape19-37" v:mID="19" v:groupContext="shape" transform="translate(0.997017,-329.73)">
			<title>Sheet.19</title>
			<path d="M0 420.2 L317.47 420.2" class="st5"/>
		</g>
		<g id="shape20-40" v:mID="20" v:groupContext="shape" transform="translate(0.997017,-300.582)">
			<title>Sheet.20</title>
			<path d="M0 420.2 L317.47 420.2" class="st5"/>
		</g>
		<g id="shape21-43" v:mID="21" v:groupContext="shape" transform="translate(0.997017,-271.419)">
			<title>Sheet.21</title>
			<path d="M0 420.2 L317.47 420.2" class="st5"/>
		</g>
		<g id="shape22-46" v:mID="22" v:groupContext="shape" transform="translate(1.49975,-241.761)">
			<title>Sheet.22</title>
			<path d="M0 273.41 L0 420.2" class="st3"/>
		</g>
		<g id="shape23-49" v:mID="23" v:groupContext="shape" transform="translate(317.974,-241.761)">
			<title>Sheet.23</title>
			<path d="M0 273.41 L0 420.2" class="st5"/>
		</g>
		<g id="shape24-52" v:mID="24" v:groupContext="shape" transform="translate(0.997017,-388.057)">
			<title>Sheet.24</title>
			<path d="M0 420.2 L317.47 420.2" class="st5"/>
		</g>
		<g id="shape25-55" v:mID="25" v:groupContext="shape" transform="translate(0.997017,-242.256)">
			<title>Sheet.25</title>
			<path d="M0 420.2 L317.47 420.2" class="st5"/>
		</g>
		<g id="shape26-58" v:mID="26" v:groupContext="shape" transform="translate(14.3172,-362.724)">
			<title>Sheet.26</title>
			<desc>id</desc>
			<v:textBlock v:margins="rect(0,0,0,0)"/>
			<v:textRect cx="10.6916" cy="410.639" width="21.39" height="19.1281"/>
			<path d="M21.38 401.08 L0 401.08 L0 420.2 L21.38 420.2 L21.38 401.08" class="st6"/>
			<text x="3.61" y="415.42" class="st7" v:langID="1033"><v:paragraph v:horizAlign="1"/><v:tabList/>id</text>		</g>
		<g id="shape27-62" v:mID="27" v:groupContext="shape" transform="translate(80.6804,-362.724)">
			<title>Sheet.27</title>
			<desc>title</desc>
			<v:textBlock v:margins="rect(0,0,0,0)"/>
			<v:textRect cx="18.8398" cy="410.639" width="37.68" height="19.1281"/>
			<path d="M37.68 401.08 L0 401.08 L0 420.2 L37.68 420.2 L37.68 401.08" class="st6"/>
			<text x="4.67" y="415.42" class="st7" v:langID="1033"><v:paragraph v:horizAlign="1"/><v:tabList/>title</text>		</g>
		<g id="shape28-66" v:mID="28" v:groupContext="shape" transform="translate(164.814,-362.724)">
			<title>Sheet.28</title>
			<desc>runtime</desc>
			<v:textBlock v:margins="rect(0,0,0,0)"/>
			<v:textRect cx="36.1517" cy="410.639" width="72.31" height="19.1281"/>
			<path d="M72.3 401.08 L0 401.08 L0 420.2 L72.3 420.2 L72.3 401.08" class="st6"/>
			<text x="6.93" y="415.42" class="st7" v:langID="1033"><v:paragraph v:horizAlign="1"/><v:tabList/>runtime</text>		</g>
		<g id="shape29-70" v:mID="29" v:groupContext="shape" transform="translate(256.182,-362.724)">
			<title>Sheet.29</title>
			<desc>year</desc>
			<v:textBlock v:margins="rect(0,0,0,0)"/>
			<v:textRect cx="21.4037" cy="410.639" width="42.81" height="19.1281"/>
			<path d="M42.81 401.08 L0 401.08 L0 420.2 L42.81 420.2 L42.81 401.08" class="st6"/>
			<text x="5.01" y="415.42" class="st7" v:langID="1033"><v:paragraph v:horizAlign="1"/><v:tabList/>year</text>		</g>
		<g id="shape30-74" v:mID="30" v:groupContext="shape" transform="translate(16.4782,-330.918)">
			<title>Sheet.30</title>
			<desc>1</desc>
			<v:textBlock v:margins="rect(0,0,0,0)"/>
			<v:textRect cx="8.62149" cy="409.417" width="17.25" height="21.5726"/>
			<path d="M17.24 398.63 L0 398.63 L0 420.2 L17.24 420.2 L17.24 398.63" class="st6"/>
			<text x="3.62" y="414.81" class="st8" v:langID="1033"><v:paragraph v:horizAlign="1"/><v:tabList/>1</text>		</g>
		<g id="shape31-78" v:mID="31" v:groupContext="shape" transform="translate(57.3871,-330.918)">
			<title>Sheet.31</title>
			<desc>Insurgent</desc>
			<v:textBlock v:margins="rect(0,0,0,0)"/>
			<v:textRect cx="45.9656" cy="409.417" width="91.94" height="21.5726"/>
			<path d="M91.93 398.63 L0 398.63 L0 420.2 L91.93 420.2 L91.93 398.63" class="st6"/>
			<text x="8.49" y="414.81" class="st9" v:langID="1033"><v:paragraph v:horizAlign="1"/><v:tabList/>Insurgent</text>		</g>
		<g id="shape32-82" v:mID="32" v:groupContext="shape" transform="translate(179.703,-330.918)">
			<title>Sheet.32</title>
			<desc>119</desc>
			<v:textBlock v:margins="rect(0,0,0,0)"/>
			<v:textRect cx="20.1174" cy="409.417" width="40.24" height="21.5726"/>
			<path d="M40.23 398.63 L0 398.63 L0 420.2 L40.23 420.2 L40.23 398.63" class="st6"/>
			<text x="5.12" y="414.81" class="st9" v:langID="1033"><v:paragraph v:horizAlign="1"/><v:tabList/>119</text>		</g>
		<g id="shape33-86" v:mID="33" v:groupContext="shape" transform="translate(252.583,-330.918)">
			<title>Sheet.33</title>
			<desc>2015</desc>
			<v:textBlock v:margins="rect(0,0,0,0)"/>
			<v:textRect cx="25.8654" cy="409.417" width="51.74" height="21.5726"/>
			<path d="M51.73 398.63 L0 398.63 L0 420.2 L51.73 420.2 L51.73 398.63" class="st6"/>
			<text x="5.87" y="414.81" class="st9" v:langID="1033"><v:paragraph v:horizAlign="1"/><v:tabList/>2015</text>		</g>
		<g id="shape34-90" v:mID="34" v:groupContext="shape" transform="translate(16.4782,-301.76)">
			<title>Sheet.34</title>
			<desc>2</desc>
			<v:textBlock v:margins="rect(0,0,0,0)"/>
			<v:textRect cx="8.62149" cy="409.417" width="17.25" height="21.5726"/>
			<path d="M17.24 398.63 L0 398.63 L0 420.2 L17.24 420.2 L17.24 398.63" class="st6"/>
			<text x="3.62" y="414.81" class="st8" v:langID="1033"><v:paragraph v:horizAlign="1"/><v:tabList/>2</text>		</g>
		<g id="shape35-94" v:mID="35" v:groupContext="shape" transform="translate(52.825,-301.76)">
			<title>Sheet.35</title>
			<desc>Interstellar</desc>
			<v:textBlock v:margins="rect(0,0,0,0)"/>
			<v:textRect cx="51.123" cy="409.417" width="102.25" height="21.5726"/>
			<path d="M102.25 398.63 L0 398.63 L0 420.2 L102.25 420.2 L102.25 398.63" class="st6"/>
			<text x="9.17" y="414.81" class="st9" v:langID="1033"><v:paragraph v:horizAlign="1"/><v:tabList/>Interstellar</text>		</g>
		<g id="shape36-98" v:mID="36" v:groupContext="shape" transform="translate(184.023,-301.76)">
			<title>Sheet.36</title>
			<desc>98</desc>
			<v:textBlock v:margins="rect(0,0,0,0)"/>
			<v:textRect cx="14.3695" cy="409.417" width="28.74" height="21.5726"/>
			<path d="M28.74 398.63 L0 398.63 L0 420.2 L28.74 420.2 L28.74 398.63" class="st6"/>
			<text x="4.37" y="414.81" class="st9" v:langID="1033"><v:paragraph v:horizAlign="1"/><v:tabList/>98</text>		</g>
		<g id="shape37-102" v:mID="37" v:groupContext="shape" transform="translate(252.583,-301.76)">
			<title>Sheet.37</title>
			<desc>2014</desc>
			<v:textBlock v:margins="rect(0,0,0,0)"/>
			<v:textRect cx="25.8654" cy="409.417" width="51.74" height="21.5726"/>
			<path d="M51.73 398.63 L0 398.63 L0 420.2 L51.73 420.2 L51.73 398.63" class="st6"/>
			<text x="5.87" y="414.81" class="st9" v:langID="1033"><v:paragraph v:horizAlign="1"/><v:tabList/>2014</text>		</g>
		<g id="shape38-106" v:mID="38" v:groupContext="shape" transform="translate(16.4782,-272.601)">
			<title>Sheet.38</title>
			<desc>3</desc>
			<v:textBlock v:margins="rect(0,0,0,0)"/>
			<v:textRect cx="8.62149" cy="409.417" width="17.25" height="21.5726"/>
			<path d="M17.24 398.63 L0 398.63 L0 420.2 L17.24 420.2 L17.24 398.63" class="st6"/>
			<text x="3.62" y="414.81" class="st8" v:langID="1033"><v:paragraph v:horizAlign="1"/><v:tabList/>3</text>		</g>
		<g id="shape39-110" v:mID="39" v:groupContext="shape" transform="translate(50.0637,-272.601)">
			<title>Sheet.39</title>
			<desc>Mockingjay</desc>
			<v:textBlock v:margins="rect(0,0,0,0)"/>
			<v:textRect cx="54.5697" cy="409.417" width="109.14" height="21.5726"/>
			<path d="M109.14 398.63 L0 398.63 L0 420.2 L109.14 420.2 L109.14 398.63" class="st6"/>
			<text x="9.62" y="414.81" class="st9" v:langID="1033"><v:paragraph v:horizAlign="1"/><v:tabList/>Mockingjay</text>		</g>
		<g id="shape40-114" v:mID="40" v:groupContext="shape" transform="translate(179.1,-272.601)">
			<title>Sheet.40</title>
			<desc>122</desc>
			<v:textBlock v:margins="rect(0,0,0,0)"/>
			<v:textRect cx="20.1174" cy="409.417" width="40.24" height="21.5726"/>
			<path d="M40.23 398.63 L0 398.63 L0 420.2 L40.23 420.2 L40.23 398.63" class="st6"/>
			<text x="5.12" y="414.81" class="st9" v:langID="1033"><v:paragraph v:horizAlign="1"/><v:tabList/>122</text>		</g>
		<g id="shape41-118" v:mID="41" v:groupContext="shape" transform="translate(252.583,-272.601)">
			<title>Sheet.41</title>
			<desc>2014</desc>
			<v:textBlock v:margins="rect(0,0,0,0)"/>
			<v:textRect cx="25.8654" cy="409.417" width="51.74" height="21.5726"/>
			<path d="M51.73 398.63 L0 398.63 L0 420.2 L51.73 420.2 L51.73 398.63" class="st6"/>
			<text x="5.87" y="414.81" class="st9" v:langID="1033"><v:paragraph v:horizAlign="1"/><v:tabList/>2014</text>		</g>
		<g id="shape42-122" v:mID="42" v:groupContext="shape" transform="translate(12.3963,-243.443)">
			<title>Sheet.42</title>
			<desc>…</desc>
			<v:textBlock v:margins="rect(0,0,0,0)"/>
			<v:textRect cx="13.2087" cy="409.417" width="26.42" height="21.5726"/>
			<path d="M26.42 398.63 L0 398.63 L0 420.2 L26.42 420.2 L26.42 398.63" class="st6"/>
			<text x="4.22" y="414.81" class="st8" v:langID="1033"><v:paragraph v:horizAlign="1"/><v:tabList/>…</text>		</g>
		<g id="shape43-126" v:mID="43" v:groupContext="shape" transform="translate(88.8963,-243.443)">
			<title>Sheet.43</title>
			<desc>…</desc>
			<v:textBlock v:margins="rect(0,0,0,0)"/>
			<v:textRect cx="13.2087" cy="409.417" width="26.42" height="21.5726"/>
			<path d="M26.42 398.63 L0 398.63 L0 420.2 L26.42 420.2 L26.42 398.63" class="st6"/>
			<text x="4.22" y="414.81" class="st9" v:langID="1033"><v:paragraph v:horizAlign="1"/><v:tabList/>…</text>		</g>
		<g id="shape44-130" v:mID="44" v:groupContext="shape" transform="translate(187.314,-243.443)">
			<title>Sheet.44</title>
			<desc>…</desc>
			<v:textBlock v:margins="rect(0,0,0,0)"/>
			<v:textRect cx="13.2087" cy="409.417" width="26.42" height="21.5726"/>
			<path d="M26.42 398.63 L0 398.63 L0 420.2 L26.42 420.2 L26.42 398.63" class="st6"/>
			<text x="4.22" y="414.81" class="st9" v:langID="1033"><v:paragraph v:horizAlign="1"/><v:tabList/>…</text>		</g>
		<g id="shape45-134" v:mID="45" v:groupContext="shape" transform="translate(268.605,-243.443)">
			<title>Sheet.45</title>
			<desc>…</desc>
			<v:textBlock v:margins="rect(0,0,0,0)"/>
			<v:textRect cx="13.2087" cy="409.417" width="26.42" height="21.5726"/>
			<path d="M26.42 398.63 L0 398.63 L0 420.2 L26.42 420.2 L26.42 398.63" class="st6"/>
			<text x="4.22" y="414.81" class="st9" v:langID="1033"><v:paragraph v:horizAlign="1"/><v:tabList/>…</text>		</g>
		<g id="shape47-138" v:mID="47" v:groupContext="shape" transform="translate(32.278,-398.631)">
			<title>Sheet.47</title>
			<desc>videos</desc>
			<v:textBlock v:margins="rect(0,0,0,0)"/>
			<v:textRect cx="29.8673" cy="409.417" width="59.74" height="21.5726"/>
			<path d="M59.73 398.63 L0 398.63 L0 420.2 L59.73 420.2 L59.73 398.63" class="st6"/>
			<text x="1.4" y="414.81" class="st10" v:langID="1033"><v:paragraph v:horizAlign="1"/><v:tabList/>videos</text>		</g>
		<g id="shape48-142" v:mID="48" v:groupContext="shape" transform="translate(78.3278,-117.634)">
			<title>Sheet.48</title>
			<path d="M0 391.05 L0 420.2 L35.84 420.2 L35.84 391.05 L0 391.05 L0 391.05 Z" class="st1"/>
		</g>
		<g id="shape49-144" v:mID="49" v:groupContext="shape" transform="translate(114.164,-117.634)">
			<title>Sheet.49</title>
			<path d="M0 391.05 L0 420.2 L77.68 420.2 L77.68 391.05 L0 391.05 L0 391.05 Z" class="st1"/>
		</g>
		<g id="shape50-146" v:mID="50" v:groupContext="shape" transform="translate(191.84,-117.634)">
			<title>Sheet.50</title>
			<path d="M0 391.05 L0 420.2 L81.64 420.2 L81.64 391.05 L0 391.05 L0 391.05 Z" class="st1"/>
		</g>
		<g id="shape51-148" v:mID="51" v:groupContext="shape" transform="translate(273.478,-117.634)">
			<title>Sheet.51</title>
			<path d="M0 391.05 L0 420.2 L244.94 420.2 L244.94 391.05 L0 391.05 L0 391.05 Z" class="st1"/>
		</g>
		<g id="shape52-150" v:mID="52" v:groupContext="shape" transform="translate(78.3278,-59.3079)">
			<title>Sheet.52</title>
			<path d="M0 391.04 L0 420.2 L35.84 420.2 L35.84 391.04 L0 391.04 L0 391.04 Z" class="st1"/>
		</g>
		<g id="shape53-152" v:mID="53" v:groupContext="shape" transform="translate(114.164,-59.3079)">
			<title>Sheet.53</title>
			<path d="M0 391.04 L0 420.2 L77.68 420.2 L77.68 391.04 L0 391.04 L0 391.04 Z" class="st1"/>
		</g>
		<g id="shape54-154" v:mID="54" v:groupContext="shape" transform="translate(191.84,-59.3079)">
			<title>Sheet.54</title>
			<path d="M0 391.04 L0 420.2 L81.64 420.2 L81.64 391.04 L0 391.04 L0 391.04 Z" class="st1"/>
		</g>
		<g id="shape55-156" v:mID="55" v:groupContext="shape" transform="translate(273.478,-59.3079)">
			<title>Sheet.55</title>
			<path d="M0 391.05 L0 420.2 L244.94 420.2 L244.94 391.05 L0 391.05 L0 391.05 Z" class="st1"/>
		</g>
		<g id="shape56-158" v:mID="56" v:groupContext="shape" transform="translate(78.3278,-30.1597)">
			<title>Sheet.56</title>
			<path d="M0 391.05 L0 420.2 L35.84 420.2 L35.84 391.05 L0 391.05 L0 391.05 Z" class="st2"/>
		</g>
		<g id="shape57-160" v:mID="57" v:groupContext="shape" transform="translate(114.164,-30.1597)">
			<title>Sheet.57</title>
			<path d="M0 391.05 L0 420.2 L77.68 420.2 L77.68 391.05 L0 391.05 L0 391.05 Z" class="st2"/>
		</g>
		<g id="shape58-162" v:mID="58" v:groupContext="shape" transform="translate(191.84,-30.1597)">
			<title>Sheet.58</title>
			<path d="M0 391.05 L0 420.2 L81.64 420.2 L81.64 391.05 L0 391.05 L0 391.05 Z" class="st2"/>
		</g>
		<g id="shape59-164" v:mID="59" v:groupContext="shape" transform="translate(273.478,-30.1597)">
			<title>Sheet.59</title>
			<path d="M0 391.05 L0 420.2 L244.94 420.2 L244.94 391.05 L0 391.05 L0 391.05 Z" class="st2"/>
		</g>
		<g id="shape60-166" v:mID="60" v:groupContext="shape" transform="translate(78.3278,-0.996548)">
			<title>Sheet.60</title>
			<path d="M0 391.04 L0 420.2 L35.84 420.2 L35.84 391.04 L0 391.04 L0 391.04 Z" class="st1"/>
		</g>
		<g id="shape61-168" v:mID="61" v:groupContext="shape" transform="translate(114.164,-0.996548)">
			<title>Sheet.61</title>
			<path d="M0 391.04 L0 420.2 L77.68 420.2 L77.68 391.04 L0 391.04 L0 391.04 Z" class="st1"/>
		</g>
		<g id="shape62-170" v:mID="62" v:groupContext="shape" transform="translate(191.84,-0.996548)">
			<title>Sheet.62</title>
			<path d="M0 391.04 L0 420.2 L81.64 420.2 L81.64 391.04 L0 391.04 L0 391.04 Z" class="st1"/>
		</g>
		<g id="shape63-172" v:mID="63" v:groupContext="shape" transform="translate(273.478,-0.981569)">
			<title>Sheet.63</title>
			<path d="M0 391.03 L0 420.2 L244.94 420.2 L244.94 391.03 L0 391.03 L0 391.03 Z" class="st1"/>
		</g>
		<g id="shape64-174" v:mID="64" v:groupContext="shape" transform="translate(114.164,-0.502257)">
			<title>Sheet.64</title>
			<path d="M0 244.27 L0 420.2" class="st5"/>
		</g>
		<g id="shape65-177" v:mID="65" v:groupContext="shape" transform="translate(191.84,-0.502257)">
			<title>Sheet.65</title>
			<path d="M0 244.27 L0 420.2" class="st5"/>
		</g>
		<g id="shape66-180" v:mID="66" v:groupContext="shape" transform="translate(273.478,-0.502257)">
			<title>Sheet.66</title>
			<path d="M0 244.27 L0 420.2" class="st5"/>
		</g>
		<g id="shape67-183" v:mID="67" v:groupContext="shape" transform="translate(77.8476,-146.783)">
			<title>Sheet.67</title>
			<path d="M0 420.2 L441.08 420.2" class="st11"/>
		</g>
		<g id="shape68-186" v:mID="68" v:groupContext="shape" transform="translate(77.8476,-117.634)">
			<title>Sheet.68</title>
			<path d="M0 420.2 L441.08 420.2" class="st12"/>
		</g>
		<g id="shape69-189" v:mID="69" v:groupContext="shape" transform="translate(77.8476,-88.4562)">
			<title>Sheet.69</title>
			<path d="M0 420.2 L441.08 420.2" class="st12"/>
		</g>
		<g id="shape70-192" v:mID="70" v:groupContext="shape" transform="translate(77.8476,-59.3079)">
			<title>Sheet.70</title>
			<path d="M0 420.2 L441.08 420.2" class="st12"/>
		</g>
		<g id="shape71-195" v:mID="71" v:groupContext="shape" transform="translate(77.8476,-30.1597)">
			<title>Sheet.71</title>
			<path d="M0 420.2 L441.08 420.2" class="st12"/>
		</g>
		<g id="shape72-198" v:mID="72" v:groupContext="shape" transform="translate(78.3278,-0.502257)">
			<title>Sheet.72</title>
			<path d="M0 244.27 L0 420.2" class="st5"/>
		</g>
		<g id="shape73-201" v:mID="73" v:groupContext="shape" transform="translate(518.422,-0.502257)">
			<title>Sheet.73</title>
			<path d="M0 244.27 L0 420.2" class="st12"/>
		</g>
		<g id="shape74-204" v:mID="74" v:groupContext="shape" transform="translate(77.8476,-175.931)">
			<title>Sheet.74</title>
			<path d="M0 420.2 L441.08 420.2" class="st12"/>
		</g>
		<g id="shape75-207" v:mID="75" v:groupContext="shape" transform="translate(77.8476,-0.98157)">
			<title>Sheet.75</title>
			<path d="M0 420.2 L441.08 420.2" class="st12"/>
		</g>
		<g id="shape76-210" v:mID="76" v:groupContext="shape" transform="translate(86.3173,-150.622)">
			<title>Sheet.76</title>
			<desc>id</desc>
			<v:textBlock v:margins="rect(0,0,0,0)"/>
			<v:textRect cx="10.6916" cy="410.639" width="21.39" height="19.1281"/>
			<path d="M21.38 401.08 L0 401.08 L0 420.2 L21.38 420.2 L21.38 401.08" class="st6"/>
			<text x="3.61" y="415.42" class="st7" v:langID="1033"><v:paragraph v:horizAlign="1"/><v:tabList/>id</text>		</g>
		<g id="shape77-214" v:mID="77" v:groupContext="shape" transform="translate(118.419,-150.622)">
			<title>Sheet.77</title>
			<desc>user_id</desc>
			<v:textBlock v:margins="rect(0,0,0,0)"/>
			<v:textRect cx="35.1449" cy="410.639" width="70.29" height="19.1281"/>
			<path d="M70.29 401.08 L0 401.08 L0 420.2 L70.29 420.2 L70.29 401.08" class="st6"/>
			<text x="6.8" y="415.42" class="st7" v:langID="1033"><v:paragraph v:horizAlign="1"/><v:tabList/>user_id</text>		</g>
		<g id="shape78-218" v:mID="78" v:groupContext="shape" transform="translate(193.369,-150.622)">
			<title>Sheet.78</title>
			<desc>video_id</desc>
			<v:textBlock v:margins="rect(0,0,0,0)"/>
			<v:textRect cx="39.7223" cy="410.639" width="79.45" height="19.1281"/>
			<path d="M79.44 401.08 L0 401.08 L0 420.2 L79.44 420.2 L79.44 401.08" class="st6"/>
			<text x="7.4" y="415.42" class="st7" v:langID="1033"><v:paragraph v:horizAlign="1"/><v:tabList/>video_id</text>		</g>
		<g id="shape79-222" v:mID="79" v:groupContext="shape" transform="translate(348.245,-150.622)">
			<title>Sheet.79</title>
			<desc>comment</desc>
			<v:textBlock v:margins="rect(0,0,0,0)"/>
			<v:textRect cx="43.2843" cy="410.639" width="86.57" height="19.1281"/>
			<path d="M86.57 401.08 L0 401.08 L0 420.2 L86.57 420.2 L86.57 401.08" class="st6"/>
			<text x="7.86" y="415.42" class="st7" v:langID="1033"><v:paragraph v:horizAlign="1"/><v:tabList/>comment</text>		</g>
		<g id="shape80-226" v:mID="80" v:groupContext="shape" transform="translate(88.3582,-118.815)">
			<title>Sheet.80</title>
			<desc>1</desc>
			<v:textBlock v:margins="rect(0,0,0,0)"/>
			<v:textRect cx="8.62149" cy="409.417" width="17.25" height="21.5726"/>
			<path d="M17.24 398.63 L0 398.63 L0 420.2 L17.24 420.2 L17.24 398.63" class="st6"/>
			<text x="3.62" y="414.81" class="st8" v:langID="1033"><v:paragraph v:horizAlign="1"/><v:tabList/>1</text>		</g>
		<g id="shape81-230" v:mID="81" v:groupContext="shape" transform="translate(144.903,-118.815)">
			<title>Sheet.81</title>
			<desc>a</desc>
			<v:textBlock v:margins="rect(0,0,0,0)"/>
			<v:textRect cx="8.62149" cy="409.417" width="17.25" height="21.5726"/>
			<path d="M17.24 398.63 L0 398.63 L0 420.2 L17.24 420.2 L17.24 398.63" class="st6"/>
			<text x="3.62" y="414.81" class="st13" v:langID="1033"><v:paragraph v:horizAlign="1"/><v:tabList/>a</text>		</g>
		<g id="shape82-234" v:mID="82" v:groupContext="shape" transform="translate(224.764,-118.815)">
			<title>Sheet.82</title>
			<desc>1</desc>
			<v:textBlock v:margins="rect(0,0,0,0)"/>
			<v:textRect cx="8.62149" cy="409.417" width="17.25" height="21.5726"/>
			<path d="M17.24 398.63 L0 398.63 L0 420.2 L17.24 420.2 L17.24 398.63" class="st6"/>
			<text x="3.62" y="414.81" class="st13" v:langID="1033"><v:paragraph v:horizAlign="1"/><v:tabList/>1</text>		</g>
		<g id="shape83-238" v:mID="83" v:groupContext="shape" transform="translate(350.927,-118.815)">
			<title>Sheet.83</title>
			<desc>Loved it!</desc>
			<v:textBlock v:margins="rect(0,0,0,0)"/>
			<v:textRect cx="41.9434" cy="409.417" width="83.89" height="21.5726"/>
			<path d="M83.89 398.63 L0 398.63 L0 420.2 L83.89 420.2 L83.89 398.63" class="st6"/>
			<text x="7.97" y="414.81" class="st9" v:langID="1033"><v:paragraph v:horizAlign="1"/><v:tabList/>Loved it!</text>		</g>
		<g id="shape84-242" v:mID="84" v:groupContext="shape" transform="translate(88.3582,-89.6572)">
			<title>Sheet.84</title>
			<desc>2</desc>
			<v:textBlock v:margins="rect(0,0,0,0)"/>
			<v:textRect cx="8.62149" cy="409.417" width="17.25" height="21.5726"/>
			<path d="M17.24 398.63 L0 398.63 L0 420.2 L17.24 420.2 L17.24 398.63" class="st6"/>
			<text x="3.62" y="414.81" class="st8" v:langID="1033"><v:paragraph v:horizAlign="1"/><v:tabList/>2</text>		</g>
		<g id="shape85-246" v:mID="85" v:groupContext="shape" transform="translate(144.903,-89.6572)">
			<title>Sheet.85</title>
			<desc>a</desc>
			<v:textBlock v:margins="rect(0,0,0,0)"/>
			<v:textRect cx="8.62149" cy="409.417" width="17.25" height="21.5726"/>
			<path d="M17.24 398.63 L0 398.63 L0 420.2 L17.24 420.2 L17.24 398.63" class="st6"/>
			<text x="3.62" y="414.81" class="st13" v:langID="1033"><v:paragraph v:horizAlign="1"/><v:tabList/>a</text>		</g>
		<g id="shape86-250" v:mID="86" v:groupContext="shape" transform="translate(224.764,-89.6572)">
			<title>Sheet.86</title>
			<desc>3</desc>
			<v:textBlock v:margins="rect(0,0,0,0)"/>
			<v:textRect cx="8.62149" cy="409.417" width="17.25" height="21.5726"/>
			<path d="M17.24 398.63 L0 398.63 L0 420.2 L17.24 420.2 L17.24 398.63" class="st6"/>
			<text x="3.62" y="414.81" class="st13" v:langID="1033"><v:paragraph v:horizAlign="1"/><v:tabList/>3</text>		</g>
		<g id="shape87-254" v:mID="87" v:groupContext="shape" transform="translate(352.088,-89.6572)">
			<title>Sheet.87</title>
			<desc>Hated it!</desc>
			<v:textBlock v:margins="rect(0,0,0,0)"/>
			<v:textRect cx="41.3631" cy="409.417" width="82.73" height="21.5726"/>
			<path d="M82.73 398.63 L0 398.63 L0 420.2 L82.73 420.2 L82.73 398.63" class="st6"/>
			<text x="7.89" y="414.81" class="st9" v:langID="1033"><v:paragraph v:horizAlign="1"/><v:tabList/>Hated it!</text>		</g>
		<g id="shape88-258" v:mID="88" v:groupContext="shape" transform="translate(88.3582,-60.4991)">
			<title>Sheet.88</title>
			<desc>3</desc>
			<v:textBlock v:margins="rect(0,0,0,0)"/>
			<v:textRect cx="8.62149" cy="409.417" width="17.25" height="21.5726"/>
			<path d="M17.24 398.63 L0 398.63 L0 420.2 L17.24 420.2 L17.24 398.63" class="st6"/>
			<text x="3.62" y="414.81" class="st8" v:langID="1033"><v:paragraph v:horizAlign="1"/><v:tabList/>3</text>		</g>
		<g id="shape89-262" v:mID="89" v:groupContext="shape" transform="translate(144.903,-60.4991)">
			<title>Sheet.89</title>
			<desc>a</desc>
			<v:textBlock v:margins="rect(0,0,0,0)"/>
			<v:textRect cx="8.62149" cy="409.417" width="17.25" height="21.5726"/>
			<path d="M17.24 398.63 L0 398.63 L0 420.2 L17.24 420.2 L17.24 398.63" class="st6"/>
			<text x="3.62" y="414.81" class="st13" v:langID="1033"><v:paragraph v:horizAlign="1"/><v:tabList/>a</text>		</g>
		<g id="shape90-266" v:mID="90" v:groupContext="shape" transform="translate(224.764,-60.4991)">
			<title>Sheet.90</title>
			<desc>2</desc>
			<v:textBlock v:margins="rect(0,0,0,0)"/>
			<v:textRect cx="8.62149" cy="409.417" width="17.25" height="21.5726"/>
			<path d="M17.24 398.63 L0 398.63 L0 420.2 L17.24 420.2 L17.24 398.63" class="st6"/>
			<text x="3.62" y="414.81" class="st13" v:langID="1033"><v:paragraph v:horizAlign="1"/><v:tabList/>2</text>		</g>
		<g id="shape91-270" v:mID="91" v:groupContext="shape" transform="translate(316.079,-60.4991)">
			<title>Sheet.91</title>
			<desc>I cried at the end!</desc>
			<v:textBlock v:margins="rect(0,0,0,0)"/>
			<v:textRect cx="82.7343" cy="409.417" width="165.47" height="21.5726"/>
			<path d="M165.47 398.63 L0 398.63 L0 420.2 L165.47 420.2 L165.47 398.63" class="st6"/>
			<text x="13.29" y="414.81" class="st9" v:langID="1033"><v:paragraph v:horizAlign="1"/><v:tabList/>I cried at the end!</text>		</g>
		<g id="shape92-274" v:mID="92" v:groupContext="shape" transform="translate(88.3582,-31.3409)">
			<title>Sheet.92</title>
			<desc>4</desc>
			<v:textBlock v:margins="rect(0,0,0,0)"/>
			<v:textRect cx="8.62149" cy="409.417" width="17.25" height="21.5726"/>
			<path d="M17.24 398.63 L0 398.63 L0 420.2 L17.24 420.2 L17.24 398.63" class="st6"/>
			<text x="3.62" y="414.81" class="st8" v:langID="1033"><v:paragraph v:horizAlign="1"/><v:tabList/>4</text>		</g>
		<g id="shape93-278" v:mID="93" v:groupContext="shape" transform="translate(144.903,-31.3409)">
			<title>Sheet.93</title>
			<desc>b</desc>
			<v:textBlock v:margins="rect(0,0,0,0)"/>
			<v:textRect cx="8.62149" cy="409.417" width="17.25" height="21.5726"/>
			<path d="M17.24 398.63 L0 398.63 L0 420.2 L17.24 420.2 L17.24 398.63" class="st6"/>
			<text x="3.62" y="414.81" class="st13" v:langID="1033"><v:paragraph v:horizAlign="1"/><v:tabList/>b</text>		</g>
		<g id="shape94-282" v:mID="94" v:groupContext="shape" transform="translate(224.764,-31.3409)">
			<title>Sheet.94</title>
			<desc>2</desc>
			<v:textBlock v:margins="rect(0,0,0,0)"/>
			<v:textRect cx="8.62149" cy="409.417" width="17.25" height="21.5726"/>
			<path d="M17.24 398.63 L0 398.63 L0 420.2 L17.24 420.2 L17.24 398.63" class="st6"/>
			<text x="3.62" y="414.81" class="st13" v:langID="1033"><v:paragraph v:horizAlign="1"/><v:tabList/>2</text>		</g>
		<g id="shape95-286" v:mID="95" v:groupContext="shape" transform="translate(272.814,-31.3409)">
			<title>Sheet.95</title>
			<desc>Someone stole</desc>
			<v:textBlock v:margins="rect(0,0,0,0)"/>
			<v:textRect cx="71.8186" cy="409.417" width="143.64" height="21.5726"/>
			<path d="M143.64 398.63 L0 398.63 L0 420.2 L143.64 420.2 L143.64 398.63" class="st6"/>
			<text x="11.87" y="414.81" class="st9" v:langID="1033"><v:paragraph v:horizAlign="1"/><v:tabList/>Someone stole</text>		</g>
		<g id="shape96-290" v:mID="96" v:groupContext="shape" transform="translate(396.564,-31.3409)">
			<title>Sheet.96</title>
			<desc>my tissues…</desc>
			<v:textBlock v:margins="rect(0,0,0,0)"/>
			<v:textRect cx="62.0233" cy="409.417" width="124.05" height="21.5726"/>
			<path d="M124.05 398.63 L0 398.63 L0 420.2 L124.05 420.2 L124.05 398.63" class="st6"/>
			<text x="10.59" y="414.81" class="st9" v:langID="1033"><v:paragraph v:horizAlign="1"/><v:tabList/>my tissues…</text>		</g>
		<g id="shape97-294" v:mID="97" v:groupContext="shape" transform="translate(84.3963,-2.18265)">
			<title>Sheet.97</title>
			<desc>…</desc>
			<v:textBlock v:margins="rect(0,0,0,0)"/>
			<v:textRect cx="13.2087" cy="409.417" width="26.42" height="21.5726"/>
			<path d="M26.42 398.63 L0 398.63 L0 420.2 L26.42 420.2 L26.42 398.63" class="st6"/>
			<text x="4.22" y="414.81" class="st8" v:langID="1033"><v:paragraph v:horizAlign="1"/><v:tabList/>…</text>		</g>
		<g id="shape98-298" v:mID="98" v:groupContext="shape" transform="translate(138.105,-2.18265)">
			<title>Sheet.98</title>
			<desc>…</desc>
			<v:textBlock v:margins="rect(0,0,0,0)"/>
			<v:textRect cx="13.2087" cy="409.417" width="26.42" height="21.5726"/>
			<path d="M26.42 398.63 L0 398.63 L0 420.2 L26.42 420.2 L26.42 398.63" class="st6"/>
			<text x="4.22" y="414.81" class="st9" v:langID="1033"><v:paragraph v:horizAlign="1"/><v:tabList/>…</text>		</g>
		<g id="shape99-302" v:mID="99" v:groupContext="shape" transform="translate(220.682,-2.18265)">
			<title>Sheet.99</title>
			<desc>…</desc>
			<v:textBlock v:margins="rect(0,0,0,0)"/>
			<v:textRect cx="13.2087" cy="409.417" width="26.42" height="21.5726"/>
			<path d="M26.42 398.63 L0 398.63 L0 420.2 L26.42 420.2 L26.42 398.63" class="st6"/>
			<text x="4.22" y="414.81" class="st9" v:langID="1033"><v:paragraph v:horizAlign="1"/><v:tabList/>…</text>		</g>
		<g id="shape100-306" v:mID="100" v:groupContext="shape" transform="translate(380.814,-2.18265)">
			<title>Sheet.100</title>
			<desc>…</desc>
			<v:textBlock v:margins="rect(0,0,0,0)"/>
			<v:textRect cx="13.2087" cy="409.417" width="26.42" height="21.5726"/>
			<path d="M26.42 398.63 L0 398.63 L0 420.2 L26.42 420.2 L26.42 398.63" class="st6"/>
			<text x="4.22" y="414.81" class="st9" v:langID="1033"><v:paragraph v:horizAlign="1"/><v:tabList/>…</text>		</g>
		<g id="shape102-310" v:mID="102" v:groupContext="shape" transform="translate(109.466,-187.885)">
			<title>Sheet.102</title>
			<desc>comments</desc>
			<v:textBlock v:margins="rect(0,0,0,0)"/>
			<v:textRect cx="48.8167" cy="409.417" width="97.64" height="21.5726"/>
			<path d="M97.63 398.63 L0 398.63 L0 420.2 L97.63 420.2 L97.63 398.63" class="st6"/>
			<text x="3.87" y="414.81" class="st10" v:langID="1033"><v:paragraph v:horizAlign="1"/><v:tabList/>comments</text>		</g>
		<g id="shape103-314" v:mID="103" v:groupContext="shape" transform="translate(377.882,-329.73)">
			<title>Sheet.103</title>
			<path d="M0 391.04 L0 420.2 L35.43 420.2 L35.43 391.04 L0 391.04 L0 391.04 Z" class="st1"/>
		</g>
		<g id="shape104-316" v:mID="104" v:groupContext="shape" transform="translate(413.313,-329.73)">
			<title>Sheet.104</title>
			<path d="M0 391.05 L0 420.2 L92.5 420.2 L92.5 391.05 L0 391.05 L0 391.05 Z" class="st1"/>
		</g>
		<g id="shape105-318" v:mID="105" v:groupContext="shape" transform="translate(505.816,-329.73)">
			<title>Sheet.105</title>
			<path d="M0 391.05 L0 420.2 L127.26 420.2 L127.26 391.05 L0 391.05 L0 391.05 Z" class="st1"/>
		</g>
		<g id="shape106-320" v:mID="106" v:groupContext="shape" transform="translate(377.882,-271.419)">
			<title>Sheet.106</title>
			<path d="M0 391.04 L0 420.2 L35.43 420.2 L35.43 391.04 L0 391.04 L0 391.04 Z" class="st1"/>
		</g>
		<g id="shape107-322" v:mID="107" v:groupContext="shape" transform="translate(413.313,-271.404)">
			<title>Sheet.107</title>
			<path d="M0 391.03 L0 420.2 L92.5 420.2 L92.5 391.03 L0 391.03 L0 391.03 Z" class="st1"/>
		</g>
		<g id="shape108-324" v:mID="108" v:groupContext="shape" transform="translate(505.816,-271.404)">
			<title>Sheet.108</title>
			<path d="M0 391.03 L0 420.2 L127.26 420.2 L127.26 391.03 L0 391.03 L0 391.03 Z" class="st1"/>
		</g>
		<g id="shape109-326" v:mID="109" v:groupContext="shape" transform="translate(377.882,-242.256)">
			<title>Sheet.109</title>
			<path d="M0 391.04 L0 420.2 L35.43 420.2 L35.43 391.04 L0 391.04 L0 391.04 Z" class="st2"/>
		</g>
		<g id="shape110-328" v:mID="110" v:groupContext="shape" transform="translate(413.313,-242.256)">
			<title>Sheet.110</title>
			<path d="M0 391.05 L0 420.2 L92.5 420.2 L92.5 391.05 L0 391.05 L0 391.05 Z" class="st2"/>
		</g>
		<g id="shape111-330" v:mID="111" v:groupContext="shape" transform="translate(505.816,-242.256)">
			<title>Sheet.111</title>
			<path d="M0 391.05 L0 420.2 L127.26 420.2 L127.26 391.05 L0 391.05 L0 391.05 Z" class="st2"/>
		</g>
		<g id="shape112-332" v:mID="112" v:groupContext="shape" transform="translate(413.313,-241.761)">
			<title>Sheet.112</title>
			<path d="M0 273.41 L0 420.2" class="st5"/>
		</g>
		<g id="shape113-335" v:mID="113" v:groupContext="shape" transform="translate(505.816,-241.746)">
			<title>Sheet.113</title>
			<path d="M0 273.41 L0 420.2" class="st12"/>
		</g>
		<g id="shape114-338" v:mID="114" v:groupContext="shape" transform="translate(377.386,-358.878)">
			<title>Sheet.114</title>
			<path d="M0 420.2 L256.2 420.2" class="st11"/>
		</g>
		<g id="shape115-341" v:mID="115" v:groupContext="shape" transform="translate(377.386,-329.73)">
			<title>Sheet.115</title>
			<path d="M0 420.2 L256.2 420.2" class="st12"/>
		</g>
		<g id="shape116-344" v:mID="116" v:groupContext="shape" transform="translate(377.386,-300.582)">
			<title>Sheet.116</title>
			<path d="M0 420.2 L256.2 420.2" class="st12"/>
		</g>
		<g id="shape117-347" v:mID="117" v:groupContext="shape" transform="translate(377.386,-271.404)">
			<title>Sheet.117</title>
			<path d="M0 420.2 L256.2 420.2" class="st12"/>
		</g>
		<g id="shape118-350" v:mID="118" v:groupContext="shape" transform="translate(377.882,-241.761)">
			<title>Sheet.118</title>
			<path d="M0 273.41 L0 420.2" class="st5"/>
		</g>
		<g id="shape119-353" v:mID="119" v:groupContext="shape" transform="translate(633.075,-241.746)">
			<title>Sheet.119</title>
			<path d="M0 273.41 L0 420.2" class="st12"/>
		</g>
		<g id="shape120-356" v:mID="120" v:groupContext="shape" transform="translate(377.386,-388.057)">
			<title>Sheet.120</title>
			<path d="M0 420.2 L256.2 420.2" class="st12"/>
		</g>
		<g id="shape121-359" v:mID="121" v:groupContext="shape" transform="translate(377.386,-242.256)">
			<title>Sheet.121</title>
			<path d="M0 420.2 L256.2 420.2" class="st12"/>
		</g>
		<g id="shape122-362" v:mID="122" v:groupContext="shape" transform="translate(385.567,-362.724)">
			<title>Sheet.122</title>
			<desc>id</desc>
			<v:textBlock v:margins="rect(0,0,0,0)"/>
			<v:textRect cx="10.6916" cy="410.639" width="21.39" height="19.1281"/>
			<path d="M21.38 401.08 L0 401.08 L0 420.2 L21.38 420.2 L21.38 401.08" class="st6"/>
			<text x="3.61" y="415.42" class="st7" v:langID="1033"><v:paragraph v:horizAlign="1"/><v:tabList/>id</text>		</g>
		<g id="shape123-366" v:mID="123" v:groupContext="shape" transform="translate(432.352,-362.72)">
			<title>Sheet.123</title>
			<desc>login</desc>
			<v:textBlock v:margins="rect(0,0,0,0)"/>
			<v:textRect cx="24.4328" cy="410.639" width="48.87" height="19.1281"/>
			<path d="M48.87 401.08 L0 401.08 L0 420.2 L48.87 420.2 L48.87 401.08" class="st6"/>
			<text x="5.4" y="415.42" class="st7" v:langID="1033"><v:paragraph v:horizAlign="1"/><v:tabList/>login</text>		</g>
		<g id="shape124-370" v:mID="124" v:groupContext="shape" transform="translate(538.155,-362.724)">
			<title>Sheet.124</title>
			<desc>name</desc>
			<v:textBlock v:margins="rect(0,0,0,0)"/>
			<v:textRect cx="26.4868" cy="410.639" width="52.98" height="19.1281"/>
			<path d="M52.97 401.08 L0 401.08 L0 420.2 L52.97 420.2 L52.97 401.08" class="st6"/>
			<text x="5.67" y="415.42" class="st7" v:langID="1033"><v:paragraph v:horizAlign="1"/><v:tabList/>name</text>		</g>
		<g id="shape125-374" v:mID="125" v:groupContext="shape" transform="translate(387.728,-330.918)">
			<title>Sheet.125</title>
			<desc>a</desc>
			<v:textBlock v:margins="rect(0,0,0,0)"/>
			<v:textRect cx="8.62149" cy="409.417" width="17.25" height="21.5726"/>
			<path d="M17.24 398.63 L0 398.63 L0 420.2 L17.24 420.2 L17.24 398.63" class="st6"/>
			<text x="3.62" y="414.81" class="st8" v:langID="1033"><v:paragraph v:horizAlign="1"/><v:tabList/>a</text>		</g>
		<g id="shape126-378" v:mID="126" v:groupContext="shape" transform="translate(414.944,-330.914)">
			<title>Sheet.126</title>
			<desc>emotions</desc>
			<v:textBlock v:margins="rect(0,0,0,0)"/>
			<v:textRect cx="44.8099" cy="409.417" width="89.62" height="21.5726"/>
			<path d="M89.62 398.63 L0 398.63 L0 420.2 L89.62 420.2 L89.62 398.63" class="st6"/>
			<text x="8.34" y="414.81" class="st9" v:langID="1033"><v:paragraph v:horizAlign="1"/><v:tabList/>emotions</text>		</g>
		<g id="shape127-382" v:mID="127" v:groupContext="shape" transform="translate(504.062,-330.918)">
			<title>Sheet.127</title>
			<desc>Mr. Emotional</desc>
			<v:textBlock v:margins="rect(0,0,0,0)"/>
			<v:textRect cx="66.6258" cy="409.417" width="133.26" height="21.5726"/>
			<path d="M133.25 398.63 L0 398.63 L0 420.2 L133.25 420.2 L133.25 398.63" class="st6"/>
			<text x="11.19" y="414.81" class="st9" v:langID="1033"><v:paragraph v:horizAlign="1"/><v:tabList/>Mr. Emotional</text>		</g>
		<g id="shape128-386" v:mID="128" v:groupContext="shape" transform="translate(387.728,-301.76)">
			<title>Sheet.128</title>
			<desc>b</desc>
			<v:textBlock v:margins="rect(0,0,0,0)"/>
			<v:textRect cx="8.62149" cy="409.417" width="17.25" height="21.5726"/>
			<path d="M17.24 398.63 L0 398.63 L0 420.2 L17.24 420.2 L17.24 398.63" class="st6"/>
			<text x="3.62" y="414.81" class="st8" v:langID="1033"><v:paragraph v:horizAlign="1"/><v:tabList/>b</text>		</g>
		<g id="shape129-390" v:mID="129" v:groupContext="shape" transform="translate(419.026,-301.756)">
			<title>Sheet.129</title>
			<desc>clueless</desc>
			<v:textBlock v:margins="rect(0,0,0,0)"/>
			<v:textRect cx="40.2124" cy="409.417" width="80.43" height="21.5726"/>
			<path d="M80.42 398.63 L0 398.63 L0 420.2 L80.42 420.2 L80.42 398.63" class="st6"/>
			<text x="7.74" y="414.81" class="st9" v:langID="1033"><v:paragraph v:horizAlign="1"/><v:tabList/>clueless</text>		</g>
		<g id="shape130-394" v:mID="130" v:groupContext="shape" transform="translate(520.51,-301.76)">
			<title>Sheet.130</title>
			<desc>Mr. Naïve</desc>
			<v:textBlock v:margins="rect(0,0,0,0)"/>
			<v:textRect cx="47.6661" cy="409.417" width="95.34" height="21.5726"/>
			<path d="M95.33 398.63 L0 398.63 L0 420.2 L95.33 420.2 L95.33 398.63" class="st6"/>
			<text x="8.72" y="414.81" class="st9" v:langID="1033"><v:paragraph v:horizAlign="1"/><v:tabList/>Mr. Naïve</text>		</g>
		<g id="shape131-398" v:mID="131" v:groupContext="shape" transform="translate(388.208,-272.601)">
			<title>Sheet.131</title>
			<desc>c</desc>
			<v:textBlock v:margins="rect(0,0,0,0)"/>
			<v:textRect cx="8.0411" cy="409.417" width="16.09" height="21.5726"/>
			<path d="M16.08 398.63 L0 398.63 L0 420.2 L16.08 420.2 L16.08 398.63" class="st6"/>
			<text x="3.55" y="414.81" class="st8" v:langID="1033"><v:paragraph v:horizAlign="1"/><v:tabList/>c</text>		</g>
		<g id="shape132-402" v:mID="132" v:groupContext="shape" transform="translate(420.707,-272.597)">
			<title>Sheet.132</title>
			<desc>noshow</desc>
			<v:textBlock v:margins="rect(0,0,0,0)"/>
			<v:textRect cx="38.4967" cy="409.417" width="77" height="21.5726"/>
			<path d="M76.99 398.63 L0 398.63 L0 420.2 L76.99 420.2 L76.99 398.63" class="st6"/>
			<text x="7.52" y="414.81" class="st9" v:langID="1033"><v:paragraph v:horizAlign="1"/><v:tabList/>noshow</text>		</g>
		<g id="shape133-406" v:mID="133" v:groupContext="shape" transform="translate(513.066,-272.601)">
			<title>Sheet.133</title>
			<desc>Mr. Inactive</desc>
			<v:textBlock v:margins="rect(0,0,0,0)"/>
			<v:textRect cx="56.2856" cy="409.417" width="112.58" height="21.5726"/>
			<path d="M112.57 398.63 L0 398.63 L0 420.2 L112.57 420.2 L112.57 398.63" class="st6"/>
			<text x="9.84" y="414.81" class="st9" v:langID="1033"><v:paragraph v:horizAlign="1"/><v:tabList/>Mr. Inactive</text>		</g>
		<g id="shape134-410" v:mID="134" v:groupContext="shape" transform="translate(383.646,-243.443)">
			<title>Sheet.134</title>
			<desc>…</desc>
			<v:textBlock v:margins="rect(0,0,0,0)"/>
			<v:textRect cx="13.2087" cy="409.417" width="26.42" height="21.5726"/>
			<path d="M26.42 398.63 L0 398.63 L0 420.2 L26.42 420.2 L26.42 398.63" class="st6"/>
			<text x="4.22" y="414.81" class="st8" v:langID="1033"><v:paragraph v:horizAlign="1"/><v:tabList/>…</text>		</g>
		<g id="shape135-414" v:mID="135" v:groupContext="shape" transform="translate(560.526,-243.443)">
			<title>Sheet.135</title>
			<desc>…</desc>
			<v:textBlock v:margins="rect(0,0,0,0)"/>
			<v:textRect cx="13.2087" cy="409.417" width="26.42" height="21.5726"/>
			<path d="M26.42 398.63 L0 398.63 L0 420.2 L26.42 420.2 L26.42 398.63" class="st6"/>
			<text x="4.22" y="414.81" class="st9" v:langID="1033"><v:paragraph v:horizAlign="1"/><v:tabList/>…</text>		</g>
		<g id="shape136-418" v:mID="136" v:groupContext="shape" transform="translate(399.061,-398.631)">
			<title>Sheet.136</title>
			<desc>users</desc>
			<v:textBlock v:margins="rect(0,0,0,0)"/>
			<v:textRect cx="30.4526" cy="409.417" width="60.91" height="21.5726"/>
			<path d="M60.91 398.63 L0 398.63 L0 420.2 L60.91 420.2 L60.91 398.63" class="st6"/>
			<text x="6.47" y="414.81" class="st10" v:langID="1033"><v:paragraph v:horizAlign="1"/><v:tabList/>users</text>		</g>
		<g id="shape138-422" v:mID="138" v:groupContext="shape" transform="translate(446.356,-244.9)">
			<title>Sheet.138</title>
			<desc>…</desc>
			<v:userDefs>
				<v:ud v:nameU="msvThemeColors" v:val="VT0(36):26"/>
				<v:ud v:nameU="msvThemeEffects" v:val="VT0(16):26"/>
			</v:userDefs>
			<v:textBlock v:margins="rect(0,0,0,0)"/>
			<v:textRect cx="13.2087" cy="409.417" width="26.42" height="21.5726"/>
			<g id="shadow138-423" v:groupContext="shadow" v:shadowOffsetX="1.44" v:shadowOffsetY="-1.44" v:shadowType="1"
					transform="matrix(1,0,0,1,1.44,1.44)" class="st14">
				<path d="M26.42 398.63 L0 398.63 L0 420.2 L26.42 420.2 L26.42 398.63" class="st15"/>
			</g>
			<path d="M26.42 398.63 L0 398.63 L0 420.2 L26.42 420.2 L26.42 398.63" class="st15"/>
			<text x="7" y="414.81" class="st16" v:langID="1033"><v:paragraph v:horizAlign="1"/><v:tabList/>…</text>		</g>
	</g>
</svg>
