<?xml version="1.0" encoding="UTF-8" standalone="no"?>
<!DOCTYPE svg PUBLIC "-//W3C//DTD SVG 1.1//EN" "http://www.w3.org/Graphics/SVG/1.1/DTD/svg11.dtd">
<!-- Generated by Microsoft Visio, SVG Export videos-comments-final-result-set.svg Page-1 -->
<svg xmlns="http://www.w3.org/2000/svg" xmlns:xlink="http://www.w3.org/1999/xlink" xmlns:ev="http://www.w3.org/2001/xml-events"
		xmlns:v="http://schemas.microsoft.com/visio/2003/SVGExtensions/" width="11.5678in" height="1.24266in"
		viewBox="0 0 832.885 89.4714" xml:space="preserve" color-interpolation-filters="sRGB" class="st13">
	<v:documentProperties v:langID="1033" v:viewMarkup="false">
		<v:userDefs>
			<v:ud v:nameU="msvConvertTheme"/>
		</v:userDefs>
	</v:documentProperties>

	<style type="text/css">
	<![CDATA[
		.st1 {fill:#fadecb;stroke:none;stroke-linecap:round;stroke-linejoin:round;stroke-width:0.75}
		.st2 {fill:#f9f9f7;stroke:none;stroke-linecap:round;stroke-linejoin:round;stroke-width:0.75}
		.st3 {stroke:#4b3c37;stroke-linecap:round;stroke-linejoin:round;stroke-width:0.997017}
		.st4 {stroke:#4b3c37;stroke-linecap:round;stroke-linejoin:round;stroke-width:1.00451}
		.st5 {stroke:#4b3c37;stroke-linecap:round;stroke-linejoin:round;stroke-width:0.989521}
		.st6 {stroke:#4b3c37;stroke-linecap:round;stroke-linejoin:round;stroke-width:2.00903}
		.st7 {stroke:none;stroke-linecap:round;stroke-linejoin:round;stroke-width:0.75}
		.st8 {fill:#007b98;font-family:Arial;font-size:1.32809em;font-weight:bold}
		.st9 {fill:#4b3c37;font-family:Arial;font-size:1.32809em;font-weight:bold}
		.st10 {fill:#007b98;font-family:Arial;font-size:1.49785em}
		.st11 {fill:#cb6015;font-family:Arial;font-size:1.49785em}
		.st12 {fill:#bf5017;font-family:Arial;font-size:1.49785em}
		.st13 {fill:none;fill-rule:evenodd;font-size:12px;overflow:visible;stroke-linecap:square;stroke-miterlimit:3}
	]]>
	</style>

	<g v:mID="0" v:index="1" v:groupContext="foregroundPage">
		<title>Page-1</title>
		<v:pageProperties v:drawingScale="1" v:pageScale="1" v:drawingUnits="0" v:shadowOffsetX="9" v:shadowOffsetY="-9"/>
		<g id="shape389-1" v:mID="389" v:groupContext="shape" transform="translate(1.49224,-30.1597)">
			<title>Sheet.389</title>
			<path d="M0 60.32 L0 89.47 L48.02 89.47 L48.02 60.32 L0 60.32 L0 60.32 Z" class="st1"/>
		</g>
		<g id="shape390-3" v:mID="390" v:groupContext="shape" transform="translate(49.5145,-30.1597)">
			<title>Sheet.390</title>
			<path d="M0 60.32 L0 89.47 L145.07 89.47 L145.07 60.32 L0 60.32 L0 60.32 Z" class="st1"/>
		</g>
		<g id="shape391-5" v:mID="391" v:groupContext="shape" transform="translate(194.594,-30.1597)">
			<title>Sheet.391</title>
			<path d="M0 60.32 L0 89.47 L90 89.47 L90 60.32 L0 60.32 L0 60.32 Z" class="st1"/>
		</g>
		<g id="shape392-7" v:mID="392" v:groupContext="shape" transform="translate(284.591,-30.1597)">
			<title>Sheet.392</title>
			<path d="M0 60.32 L0 89.47 L84.37 89.47 L84.37 60.32 L0 60.32 L0 60.32 Z" class="st1"/>
		</g>
		<g id="shape393-9" v:mID="393" v:groupContext="shape" transform="translate(368.96,-30.1597)">
			<title>Sheet.393</title>
			<path d="M0 60.32 L0 89.47 L44.29 89.47 L44.29 60.32 L0 60.32 L0 60.32 Z" class="st1"/>
		</g>
		<g id="shape394-11" v:mID="394" v:groupContext="shape" transform="translate(413.245,-30.1597)">
			<title>Sheet.394</title>
			<path d="M0 60.32 L0 89.47 L84.94 89.47 L84.94 60.32 L0 60.32 L0 60.32 Z" class="st1"/>
		</g>
		<g id="shape395-13" v:mID="395" v:groupContext="shape" transform="translate(498.185,-30.1597)">
			<title>Sheet.395</title>
			<path d="M0 60.32 L0 89.47 L83.95 89.47 L83.95 60.32 L0 60.32 L0 60.32 Z" class="st1"/>
		</g>
		<g id="shape396-15" v:mID="396" v:groupContext="shape" transform="translate(582.134,-30.1597)">
			<title>Sheet.396</title>
			<path d="M0 60.32 L0 89.47 L244.52 89.47 L244.52 60.32 L0 60.32 L0 60.32 Z" class="st1"/>
		</g>
		<g id="shape397-17" v:mID="397" v:groupContext="shape" transform="translate(1.49224,-0.996548)">
			<title>Sheet.397</title>
			<path d="M0 60.31 L0 89.47 L48.02 89.47 L48.02 60.31 L0 60.31 L0 60.31 Z" class="st2"/>
		</g>
		<g id="shape398-19" v:mID="398" v:groupContext="shape" transform="translate(49.5145,-0.996548)">
			<title>Sheet.398</title>
			<path d="M0 60.31 L0 89.47 L145.07 89.47 L145.07 60.31 L0 60.31 L0 60.31 Z" class="st2"/>
		</g>
		<g id="shape399-21" v:mID="399" v:groupContext="shape" transform="translate(194.594,-0.996548)">
			<title>Sheet.399</title>
			<path d="M0 60.31 L0 89.47 L90 89.47 L90 60.31 L0 60.31 L0 60.31 Z" class="st2"/>
		</g>
		<g id="shape400-23" v:mID="400" v:groupContext="shape" transform="translate(284.591,-0.996548)">
			<title>Sheet.400</title>
			<path d="M0 60.31 L0 89.47 L84.37 89.47 L84.37 60.31 L0 60.31 L0 60.31 Z" class="st2"/>
		</g>
		<g id="shape401-25" v:mID="401" v:groupContext="shape" transform="translate(368.96,-0.996548)">
			<title>Sheet.401</title>
			<path d="M0 60.31 L0 89.47 L44.29 89.47 L44.29 60.31 L0 60.31 L0 60.31 Z" class="st2"/>
		</g>
		<g id="shape402-27" v:mID="402" v:groupContext="shape" transform="translate(413.245,-0.981569)">
			<title>Sheet.402</title>
			<path d="M0 60.29 L0 89.47 L84.94 89.47 L84.94 60.29 L0 60.29 L0 60.29 Z" class="st2"/>
		</g>
		<g id="shape403-29" v:mID="403" v:groupContext="shape" transform="translate(498.185,-0.981569)">
			<title>Sheet.403</title>
			<path d="M0 60.29 L0 89.47 L83.95 89.47 L83.95 60.29 L0 60.29 L0 60.29 Z" class="st2"/>
		</g>
		<g id="shape404-31" v:mID="404" v:groupContext="shape" transform="translate(582.134,-0.981569)">
			<title>Sheet.404</title>
			<path d="M0 60.29 L0 89.47 L244.52 89.47 L244.52 60.29 L0 60.29 L0 60.29 Z" class="st2"/>
		</g>
		<g id="shape405-33" v:mID="405" v:groupContext="shape" transform="translate(49.5145,-0.502257)">
			<title>Sheet.405</title>
			<path d="M0 1 L0 89.47" class="st3"/>
		</g>
		<g id="shape406-36" v:mID="406" v:groupContext="shape" transform="translate(194.587,-0.502257)">
			<title>Sheet.406</title>
			<path d="M0 1 L0 89.47" class="st3"/>
		</g>
		<g id="shape407-39" v:mID="407" v:groupContext="shape" transform="translate(284.591,-0.502257)">
			<title>Sheet.407</title>
			<path d="M0 1.01 L0 89.47" class="st4"/>
		</g>
		<g id="shape408-42" v:mID="408" v:groupContext="shape" transform="translate(368.96,-0.502257)">
			<title>Sheet.408</title>
			<path d="M0 1.01 L0 89.47" class="st4"/>
		</g>
		<g id="shape409-45" v:mID="409" v:groupContext="shape" transform="translate(413.245,-0.502257)">
			<title>Sheet.409</title>
			<path d="M0 1.01 L0 89.47" class="st4"/>
		</g>
		<g id="shape410-48" v:mID="410" v:groupContext="shape" transform="translate(498.185,-0.502257)">
			<title>Sheet.410</title>
			<path d="M0 1.01 L0 89.47" class="st5"/>
		</g>
		<g id="shape411-51" v:mID="411" v:groupContext="shape" transform="translate(582.134,-0.502257)">
			<title>Sheet.411</title>
			<path d="M0 1.01 L0 89.47" class="st5"/>
		</g>
		<g id="shape412-54" v:mID="412" v:groupContext="shape" transform="translate(1.00451,-59.3079)">
			<title>Sheet.412</title>
			<path d="M0 89.47 L826.16 89.47" class="st6"/>
		</g>
		<g id="shape413-57" v:mID="413" v:groupContext="shape" transform="translate(1.00451,-30.1597)">
			<title>Sheet.413</title>
			<path d="M0 89.47 L826.16 89.47" class="st5"/>
		</g>
		<g id="shape414-60" v:mID="414" v:groupContext="shape" transform="translate(1.49224,-0.502257)">
			<title>Sheet.414</title>
			<path d="M0 1 L0 89.47" class="st3"/>
		</g>
		<g id="shape415-63" v:mID="415" v:groupContext="shape" transform="translate(826.657,-0.502257)">
			<title>Sheet.415</title>
			<path d="M0 1.01 L0 89.47" class="st5"/>
		</g>
		<g id="shape416-66" v:mID="416" v:groupContext="shape" transform="translate(1.00451,-88.4562)">
			<title>Sheet.416</title>
			<path d="M0 89.47 L826.16 89.47" class="st5"/>
		</g>
		<g id="shape417-69" v:mID="417" v:groupContext="shape" transform="translate(1.00451,-0.981569)">
			<title>Sheet.417</title>
			<path d="M0 89.47 L826.16 89.47" class="st5"/>
		</g>
		<g id="shape418-72" v:mID="418" v:groupContext="shape" transform="translate(18.4046,-63.1448)">
			<title>Sheet.418</title>
			<desc>id</desc>
			<v:textBlock v:margins="rect(0,0,0,0)"/>
			<v:textRect cx="10.6916" cy="79.9074" width="21.39" height="19.1281"/>
			<path d="M21.38 70.34 L0 70.34 L0 89.47 L21.38 89.47 L21.38 70.34" class="st7"/>
			<text x="3.61" y="84.69" class="st8" v:langID="1033"><v:paragraph v:horizAlign="1"/><v:tabList/>id</text>		</g>
		<g id="shape419-76" v:mID="419" v:groupContext="shape" transform="translate(100.045,-63.1448)">
			<title>Sheet.419</title>
			<desc>title</desc>
			<v:textBlock v:margins="rect(0,0,0,0)"/>
			<v:textRect cx="18.8398" cy="79.9074" width="37.68" height="19.1281"/>
			<path d="M37.68 70.34 L0 70.34 L0 89.47 L37.68 89.47 L37.68 70.34" class="st7"/>
			<text x="4.67" y="84.69" class="st9" v:langID="1033"><v:paragraph v:horizAlign="1"/><v:tabList/>title</text>		</g>
		<g id="shape420-80" v:mID="420" v:groupContext="shape" transform="translate(204.009,-63.1448)">
			<title>Sheet.420</title>
			<desc>runtime</desc>
			<v:textBlock v:margins="rect(0,0,0,0)"/>
			<v:textRect cx="36.1517" cy="79.9074" width="72.31" height="19.1281"/>
			<path d="M72.3 70.34 L0 70.34 L0 89.47 L72.3 89.47 L72.3 70.34" class="st7"/>
			<text x="6.93" y="84.69" class="st9" v:langID="1033"><v:paragraph v:horizAlign="1"/><v:tabList/>runtime</text>		</g>
		<g id="shape421-84" v:mID="421" v:groupContext="shape" transform="translate(306.912,-63.1448)">
			<title>Sheet.421</title>
			<desc>year</desc>
			<v:textBlock v:margins="rect(0,0,0,0)"/>
			<v:textRect cx="21.4037" cy="79.9074" width="42.81" height="19.1281"/>
			<path d="M42.81 70.34 L0 70.34 L0 89.47 L42.81 89.47 L42.81 70.34" class="st7"/>
			<text x="5.01" y="84.69" class="st9" v:langID="1033"><v:paragraph v:horizAlign="1"/><v:tabList/>year</text>		</g>
		<g id="shape422-88" v:mID="422" v:groupContext="shape" transform="translate(384.079,-63.1448)">
			<title>Sheet.422</title>
			<desc>id</desc>
			<v:textBlock v:margins="rect(0,0,0,0)"/>
			<v:textRect cx="10.6916" cy="79.9074" width="21.39" height="19.1281"/>
			<path d="M21.38 70.34 L0 70.34 L0 89.47 L21.38 89.47 L21.38 70.34" class="st7"/>
			<text x="3.61" y="84.69" class="st9" v:langID="1033"><v:paragraph v:horizAlign="1"/><v:tabList/>id</text>		</g>
		<g id="shape423-92" v:mID="423" v:groupContext="shape" transform="translate(424.812,-63.1448)">
			<title>Sheet.423</title>
			<desc>user_id</desc>
			<v:textBlock v:margins="rect(0,0,0,0)"/>
			<v:textRect cx="35.1449" cy="79.9074" width="70.29" height="19.1281"/>
			<path d="M70.29 70.34 L0 70.34 L0 89.47 L70.29 89.47 L70.29 70.34" class="st7"/>
			<text x="6.8" y="84.69" class="st9" v:langID="1033"><v:paragraph v:horizAlign="1"/><v:tabList/>user_id</text>		</g>
		<g id="shape424-96" v:mID="424" v:groupContext="shape" transform="translate(502.868,-63.1448)">
			<title>Sheet.424</title>
			<desc>video_id</desc>
			<v:textBlock v:margins="rect(0,0,0,0)"/>
			<v:textRect cx="39.7223" cy="79.9074" width="79.45" height="19.1281"/>
			<path d="M79.44 70.34 L0 70.34 L0 89.47 L79.44 89.47 L79.44 70.34" class="st7"/>
			<text x="7.4" y="84.69" class="st9" v:langID="1033"><v:paragraph v:horizAlign="1"/><v:tabList/>video_id</text>		</g>
		<g id="shape425-100" v:mID="425" v:groupContext="shape" transform="translate(662.259,-63.1448)">
			<title>Sheet.425</title>
			<desc>comment</desc>
			<v:textBlock v:margins="rect(0,0,0,0)"/>
			<v:textRect cx="43.2843" cy="79.9074" width="86.57" height="19.1281"/>
			<path d="M86.57 70.34 L0 70.34 L0 89.47 L86.57 89.47 L86.57 70.34" class="st7"/>
			<text x="7.86" y="84.69" class="st9" v:langID="1033"><v:paragraph v:horizAlign="1"/><v:tabList/>comment</text>		</g>
		<g id="shape426-104" v:mID="426" v:groupContext="shape" transform="translate(20.5657,-31.3383)">
			<title>Sheet.426</title>
			<desc>2</desc>
			<v:textBlock v:margins="rect(0,0,0,0)"/>
			<v:textRect cx="8.62149" cy="78.6851" width="17.25" height="21.5726"/>
			<path d="M17.24 67.9 L0 67.9 L0 89.47 L17.24 89.47 L17.24 67.9" class="st7"/>
			<text x="3.62" y="84.08" class="st10" v:langID="1033"><v:paragraph v:horizAlign="1"/><v:tabList/>2</text>		</g>
		<g id="shape427-108" v:mID="427" v:groupContext="shape" transform="translate(72.1893,-31.3383)">
			<title>Sheet.427</title>
			<desc>Interstellar</desc>
			<v:textBlock v:margins="rect(0,0,0,0)"/>
			<v:textRect cx="51.123" cy="78.6851" width="102.25" height="21.5726"/>
			<path d="M102.25 67.9 L0 67.9 L0 89.47 L102.25 89.47 L102.25 67.9" class="st7"/>
			<text x="9.17" y="84.08" class="st11" v:langID="1033"><v:paragraph v:horizAlign="1"/><v:tabList/>Interstellar</text>		</g>
		<g id="shape428-112" v:mID="428" v:groupContext="shape" transform="translate(223.218,-31.3383)">
			<title>Sheet.428</title>
			<desc>98</desc>
			<v:textBlock v:margins="rect(0,0,0,0)"/>
			<v:textRect cx="14.3695" cy="78.6851" width="28.74" height="21.5726"/>
			<path d="M28.74 67.9 L0 67.9 L0 89.47 L28.74 89.47 L28.74 67.9" class="st7"/>
			<text x="4.37" y="84.08" class="st11" v:langID="1033"><v:paragraph v:horizAlign="1"/><v:tabList/>98</text>		</g>
		<g id="shape429-116" v:mID="429" v:groupContext="shape" transform="translate(303.312,-31.3383)">
			<title>Sheet.429</title>
			<desc>2014</desc>
			<v:textBlock v:margins="rect(0,0,0,0)"/>
			<v:textRect cx="25.8654" cy="78.6851" width="51.74" height="21.5726"/>
			<path d="M51.73 67.9 L0 67.9 L0 89.47 L51.73 89.47 L51.73 67.9" class="st7"/>
			<text x="5.87" y="84.08" class="st11" v:langID="1033"><v:paragraph v:horizAlign="1"/><v:tabList/>2014</text>		</g>
		<g id="shape430-120" v:mID="430" v:groupContext="shape" transform="translate(386.12,-31.3383)">
			<title>Sheet.430</title>
			<desc>3</desc>
			<v:textBlock v:margins="rect(0,0,0,0)"/>
			<v:textRect cx="8.62149" cy="78.6851" width="17.25" height="21.5726"/>
			<path d="M17.24 67.9 L0 67.9 L0 89.47 L17.24 89.47 L17.24 67.9" class="st7"/>
			<text x="3.62" y="84.08" class="st10" v:langID="1033"><v:paragraph v:horizAlign="1"/><v:tabList/>3</text>		</g>
		<g id="shape431-124" v:mID="431" v:groupContext="shape" transform="translate(448.226,-31.3383)">
			<title>Sheet.431</title>
			<desc>a</desc>
			<v:textBlock v:margins="rect(0,0,0,0)"/>
			<v:textRect cx="8.62149" cy="78.6851" width="17.25" height="21.5726"/>
			<path d="M17.24 67.9 L0 67.9 L0 89.47 L17.24 89.47 L17.24 67.9" class="st7"/>
			<text x="3.62" y="84.08" class="st12" v:langID="1033"><v:paragraph v:horizAlign="1"/><v:tabList/>a</text>		</g>
		<g id="shape432-128" v:mID="432" v:groupContext="shape" transform="translate(530.118,-31.3383)">
			<title>Sheet.432</title>
			<desc>2</desc>
			<v:textBlock v:margins="rect(0,0,0,0)"/>
			<v:textRect cx="8.62149" cy="78.6851" width="17.25" height="21.5726"/>
			<path d="M17.24 67.9 L0 67.9 L0 89.47 L17.24 89.47 L17.24 67.9" class="st7"/>
			<text x="3.62" y="84.08" class="st12" v:langID="1033"><v:paragraph v:horizAlign="1"/><v:tabList/>2</text>		</g>
		<g id="shape433-132" v:mID="433" v:groupContext="shape" transform="translate(628.401,-31.3383)">
			<title>Sheet.433</title>
			<desc>I cried at the end!</desc>
			<v:textBlock v:margins="rect(0,0,0,0)"/>
			<v:textRect cx="82.7343" cy="78.6851" width="165.47" height="21.5726"/>
			<path d="M165.47 67.9 L0 67.9 L0 89.47 L165.47 89.47 L165.47 67.9" class="st7"/>
			<text x="13.29" y="84.08" class="st11" v:langID="1033"><v:paragraph v:horizAlign="1"/><v:tabList/>I cried at the end!</text>		</g>
		<g id="shape434-136" v:mID="434" v:groupContext="shape" transform="translate(20.5657,-2.18014)">
			<title>Sheet.434</title>
			<desc>2</desc>
			<v:textBlock v:margins="rect(0,0,0,0)"/>
			<v:textRect cx="8.62149" cy="78.6851" width="17.25" height="21.5726"/>
			<path d="M17.24 67.9 L0 67.9 L0 89.47 L17.24 89.47 L17.24 67.9" class="st7"/>
			<text x="3.62" y="84.08" class="st10" v:langID="1033"><v:paragraph v:horizAlign="1"/><v:tabList/>2</text>		</g>
		<g id="shape435-140" v:mID="435" v:groupContext="shape" transform="translate(72.1893,-2.18014)">
			<title>Sheet.435</title>
			<desc>Interstellar</desc>
			<v:textBlock v:margins="rect(0,0,0,0)"/>
			<v:textRect cx="51.123" cy="78.6851" width="102.25" height="21.5726"/>
			<path d="M102.25 67.9 L0 67.9 L0 89.47 L102.25 89.47 L102.25 67.9" class="st7"/>
			<text x="9.17" y="84.08" class="st11" v:langID="1033"><v:paragraph v:horizAlign="1"/><v:tabList/>Interstellar</text>		</g>
		<g id="shape436-144" v:mID="436" v:groupContext="shape" transform="translate(223.218,-2.18014)">
			<title>Sheet.436</title>
			<desc>98</desc>
			<v:textBlock v:margins="rect(0,0,0,0)"/>
			<v:textRect cx="14.3695" cy="78.6851" width="28.74" height="21.5726"/>
			<path d="M28.74 67.9 L0 67.9 L0 89.47 L28.74 89.47 L28.74 67.9" class="st7"/>
			<text x="4.37" y="84.08" class="st11" v:langID="1033"><v:paragraph v:horizAlign="1"/><v:tabList/>98</text>		</g>
		<g id="shape437-148" v:mID="437" v:groupContext="shape" transform="translate(303.312,-2.18014)">
			<title>Sheet.437</title>
			<desc>2014</desc>
			<v:textBlock v:margins="rect(0,0,0,0)"/>
			<v:textRect cx="25.8654" cy="78.6851" width="51.74" height="21.5726"/>
			<path d="M51.73 67.9 L0 67.9 L0 89.47 L51.73 89.47 L51.73 67.9" class="st7"/>
			<text x="5.87" y="84.08" class="st11" v:langID="1033"><v:paragraph v:horizAlign="1"/><v:tabList/>2014</text>		</g>
		<g id="shape438-152" v:mID="438" v:groupContext="shape" transform="translate(386.12,-2.18014)">
			<title>Sheet.438</title>
			<desc>4</desc>
			<v:textBlock v:margins="rect(0,0,0,0)"/>
			<v:textRect cx="8.62149" cy="78.6851" width="17.25" height="21.5726"/>
			<path d="M17.24 67.9 L0 67.9 L0 89.47 L17.24 89.47 L17.24 67.9" class="st7"/>
			<text x="3.62" y="84.08" class="st10" v:langID="1033"><v:paragraph v:horizAlign="1"/><v:tabList/>4</text>		</g>
		<g id="shape439-156" v:mID="439" v:groupContext="shape" transform="translate(448.226,-2.18014)">
			<title>Sheet.439</title>
			<desc>b</desc>
			<v:textBlock v:margins="rect(0,0,0,0)"/>
			<v:textRect cx="8.62149" cy="78.6851" width="17.25" height="21.5726"/>
			<path d="M17.24 67.9 L0 67.9 L0 89.47 L17.24 89.47 L17.24 67.9" class="st7"/>
			<text x="3.62" y="84.08" class="st12" v:langID="1033"><v:paragraph v:horizAlign="1"/><v:tabList/>b</text>		</g>
		<g id="shape440-160" v:mID="440" v:groupContext="shape" transform="translate(530.118,-2.18014)">
			<title>Sheet.440</title>
			<desc>2</desc>
			<v:textBlock v:margins="rect(0,0,0,0)"/>
			<v:textRect cx="8.62149" cy="78.6851" width="17.25" height="21.5726"/>
			<path d="M17.24 67.9 L0 67.9 L0 89.47 L17.24 89.47 L17.24 67.9" class="st7"/>
			<text x="3.62" y="84.08" class="st12" v:langID="1033"><v:paragraph v:horizAlign="1"/><v:tabList/>2</text>		</g>
		<g id="shape441-164" v:mID="441" v:groupContext="shape" transform="translate(583.74,-2.18014)">
			<title>Sheet.441</title>
			<desc>Someone stole</desc>
			<v:textBlock v:margins="rect(0,0,0,0)"/>
			<v:textRect cx="71.8186" cy="78.6851" width="143.64" height="21.5726"/>
			<path d="M143.64 67.9 L0 67.9 L0 89.47 L143.64 89.47 L143.64 67.9" class="st7"/>
			<text x="11.87" y="84.08" class="st11" v:langID="1033"><v:paragraph v:horizAlign="1"/><v:tabList/>Someone stole</text>		</g>
		<g id="shape442-168" v:mID="442" v:groupContext="shape" transform="translate(708.838,-2.18014)">
			<title>Sheet.442</title>
			<desc>my tissues…</desc>
			<v:textBlock v:margins="rect(0,0,0,0)"/>
			<v:textRect cx="62.0233" cy="78.6851" width="124.05" height="21.5726"/>
			<path d="M124.05 67.9 L0 67.9 L0 89.47 L124.05 89.47 L124.05 67.9" class="st7"/>
			<text x="10.59" y="84.08" class="st11" v:langID="1033"><v:paragraph v:horizAlign="1"/><v:tabList/>my tissues…</text>		</g>
	</g>
</svg>
