<?xml version="1.0" encoding="UTF-8" standalone="no"?>
<!DOCTYPE svg PUBLIC "-//W3C//DTD SVG 1.1//EN" "http://www.w3.org/Graphics/SVG/1.1/DTD/svg11.dtd">
<!-- Generated by Microsoft Visio, SVG Export videos-comments-joined-search.svg Page-1 -->
<svg xmlns="http://www.w3.org/2000/svg" xmlns:xlink="http://www.w3.org/1999/xlink" xmlns:ev="http://www.w3.org/2001/xml-events"
		xmlns:v="http://schemas.microsoft.com/visio/2003/SVGExtensions/" width="11.576in" height="2.97567in"
		viewBox="0 0 833.474 214.248" xml:space="preserve" color-interpolation-filters="sRGB" class="st17">
	<v:documentProperties v:langID="1033" v:viewMarkup="false">
		<v:userDefs>
			<v:ud v:nameU="msvConvertTheme"/>
		</v:userDefs>
	</v:documentProperties>

	<style type="text/css">
	<![CDATA[
		.st1 {fill:#fadecb;stroke:none;stroke-linecap:round;stroke-linejoin:round;stroke-width:0.75}
		.st2 {fill:#f9f9f7;stroke:none;stroke-linecap:round;stroke-linejoin:round;stroke-width:0.75}
		.st3 {stroke:#4b3c37;stroke-linecap:round;stroke-linejoin:round;stroke-width:0.997017}
		.st4 {stroke:#4b3c37;stroke-linecap:round;stroke-linejoin:round;stroke-width:1.00451}
		.st5 {stroke:#4b3c37;stroke-linecap:round;stroke-linejoin:round;stroke-width:0.989521}
		.st6 {stroke:#4b3c37;stroke-linecap:round;stroke-linejoin:round;stroke-width:2.00903}
		.st7 {stroke:none;stroke-linecap:round;stroke-linejoin:round;stroke-width:0.75}
		.st8 {fill:#007b98;font-family:Arial;font-size:1.32809em;font-weight:bold}
		.st9 {fill:#4b3c37;font-family:Arial;font-size:1.32809em;font-weight:bold}
		.st10 {fill:#007b98;font-family:Arial;font-size:1.49785em}
		.st11 {fill:#cb6015;font-family:Arial;font-size:1.49785em}
		.st12 {fill:#bf5017;font-family:Arial;font-size:1.49785em}
		.st13 {fill:#007b98;font-family:Arial;font-size:1.49785em;font-weight:bold}
		.st14 {fill:#cb6015;font-family:Arial;font-size:1.49785em;font-weight:bold}
		.st15 {fill:#bf5017;font-family:Arial;font-size:1.49785em;font-weight:bold}
		.st16 {fill:#4b3c37;font-family:Arial;font-size:1.49785em;font-weight:bold}
		.st17 {fill:none;fill-rule:evenodd;font-size:12px;overflow:visible;stroke-linecap:square;stroke-miterlimit:3}
	]]>
	</style>

	<g v:mID="0" v:index="1" v:groupContext="foregroundPage">
		<title>Page-1</title>
		<v:pageProperties v:drawingScale="1" v:pageScale="1" v:drawingUnits="0" v:shadowOffsetX="9" v:shadowOffsetY="-9"/>
		<g id="shape290-1" v:mID="290" v:groupContext="shape" transform="translate(1.49224,-117.634)">
			<title>Sheet.290</title>
			<path d="M0 185.09 L0 214.25 L48.02 214.25 L48.02 185.09 L0 185.09 L0 185.09 Z" class="st1"/>
		</g>
		<g id="shape291-3" v:mID="291" v:groupContext="shape" transform="translate(49.5145,-117.634)">
			<title>Sheet.291</title>
			<path d="M0 185.09 L0 214.25 L145.07 214.25 L145.07 185.09 L0 185.09 L0 185.09 Z" class="st1"/>
		</g>
		<g id="shape292-5" v:mID="292" v:groupContext="shape" transform="translate(194.594,-117.634)">
			<title>Sheet.292</title>
			<path d="M0 185.1 L0 214.25 L90 214.25 L90 185.1 L0 185.1 L0 185.1 Z" class="st1"/>
		</g>
		<g id="shape293-7" v:mID="293" v:groupContext="shape" transform="translate(284.591,-117.634)">
			<title>Sheet.293</title>
			<path d="M0 185.1 L0 214.25 L84.37 214.25 L84.37 185.1 L0 185.1 L0 185.1 Z" class="st1"/>
		</g>
		<g id="shape294-9" v:mID="294" v:groupContext="shape" transform="translate(368.96,-117.634)">
			<title>Sheet.294</title>
			<path d="M0 185.1 L0 214.25 L44.29 214.25 L44.29 185.1 L0 185.1 L0 185.1 Z" class="st1"/>
		</g>
		<g id="shape295-11" v:mID="295" v:groupContext="shape" transform="translate(413.245,-117.634)">
			<title>Sheet.295</title>
			<path d="M0 185.1 L0 214.25 L84.94 214.25 L84.94 185.1 L0 185.1 L0 185.1 Z" class="st1"/>
		</g>
		<g id="shape296-13" v:mID="296" v:groupContext="shape" transform="translate(498.185,-117.634)">
			<title>Sheet.296</title>
			<path d="M0 185.1 L0 214.25 L83.95 214.25 L83.95 185.1 L0 185.1 L0 185.1 Z" class="st1"/>
		</g>
		<g id="shape297-15" v:mID="297" v:groupContext="shape" transform="translate(582.134,-117.634)">
			<title>Sheet.297</title>
			<path d="M0 185.1 L0 214.25 L244.52 214.25 L244.52 185.1 L0 185.1 L0 185.1 Z" class="st1"/>
		</g>
		<g id="shape298-17" v:mID="298" v:groupContext="shape" transform="translate(1.49224,-59.3154)">
			<title>Sheet.298</title>
			<path d="M0 185.09 L0 214.25 L48.02 214.25 L48.02 185.09 L0 185.09 L0 185.09 Z" class="st1"/>
		</g>
		<g id="shape299-19" v:mID="299" v:groupContext="shape" transform="translate(49.5145,-59.3154)">
			<title>Sheet.299</title>
			<path d="M0 185.09 L0 214.25 L145.07 214.25 L145.07 185.09 L0 185.09 L0 185.09 Z" class="st1"/>
		</g>
		<g id="shape300-21" v:mID="300" v:groupContext="shape" transform="translate(194.594,-59.3079)">
			<title>Sheet.300</title>
			<path d="M0 185.08 L0 214.25 L90 214.25 L90 185.08 L0 185.08 L0 185.08 Z" class="st1"/>
		</g>
		<g id="shape301-23" v:mID="301" v:groupContext="shape" transform="translate(284.591,-59.3079)">
			<title>Sheet.301</title>
			<path d="M0 185.08 L0 214.25 L84.37 214.25 L84.37 185.08 L0 185.08 L0 185.08 Z" class="st1"/>
		</g>
		<g id="shape302-25" v:mID="302" v:groupContext="shape" transform="translate(368.96,-59.3079)">
			<title>Sheet.302</title>
			<path d="M0 185.08 L0 214.25 L44.29 214.25 L44.29 185.08 L0 185.08 L0 185.08 Z" class="st1"/>
		</g>
		<g id="shape303-27" v:mID="303" v:groupContext="shape" transform="translate(413.245,-59.3079)">
			<title>Sheet.303</title>
			<path d="M0 185.1 L0 214.25 L84.94 214.25 L84.94 185.1 L0 185.1 L0 185.1 Z" class="st1"/>
		</g>
		<g id="shape304-29" v:mID="304" v:groupContext="shape" transform="translate(498.185,-59.3079)">
			<title>Sheet.304</title>
			<path d="M0 185.1 L0 214.25 L83.95 214.25 L83.95 185.1 L0 185.1 L0 185.1 Z" class="st1"/>
		</g>
		<g id="shape305-31" v:mID="305" v:groupContext="shape" transform="translate(582.134,-59.3079)">
			<title>Sheet.305</title>
			<path d="M0 185.1 L0 214.25 L244.52 214.25 L244.52 185.1 L0 185.1 L0 185.1 Z" class="st1"/>
		</g>
		<g id="shape306-33" v:mID="306" v:groupContext="shape" transform="translate(1.49224,-30.1597)">
			<title>Sheet.306</title>
			<path d="M0 185.09 L0 214.25 L48.02 214.25 L48.02 185.09 L0 185.09 L0 185.09 Z" class="st2"/>
		</g>
		<g id="shape307-35" v:mID="307" v:groupContext="shape" transform="translate(49.5145,-30.1597)">
			<title>Sheet.307</title>
			<path d="M0 185.09 L0 214.25 L145.07 214.25 L145.07 185.09 L0 185.09 L0 185.09 Z" class="st2"/>
		</g>
		<g id="shape308-37" v:mID="308" v:groupContext="shape" transform="translate(194.594,-30.1597)">
			<title>Sheet.308</title>
			<path d="M0 185.1 L0 214.25 L90 214.25 L90 185.1 L0 185.1 L0 185.1 Z" class="st2"/>
		</g>
		<g id="shape309-39" v:mID="309" v:groupContext="shape" transform="translate(284.591,-30.1597)">
			<title>Sheet.309</title>
			<path d="M0 185.1 L0 214.25 L84.37 214.25 L84.37 185.1 L0 185.1 L0 185.1 Z" class="st2"/>
		</g>
		<g id="shape310-41" v:mID="310" v:groupContext="shape" transform="translate(368.96,-30.1597)">
			<title>Sheet.310</title>
			<path d="M0 185.1 L0 214.25 L44.29 214.25 L44.29 185.1 L0 185.1 L0 185.1 Z" class="st2"/>
		</g>
		<g id="shape311-43" v:mID="311" v:groupContext="shape" transform="translate(413.245,-30.1597)">
			<title>Sheet.311</title>
			<path d="M0 185.1 L0 214.25 L84.94 214.25 L84.94 185.1 L0 185.1 L0 185.1 Z" class="st2"/>
		</g>
		<g id="shape312-45" v:mID="312" v:groupContext="shape" transform="translate(498.185,-30.1597)">
			<title>Sheet.312</title>
			<path d="M0 185.1 L0 214.25 L83.95 214.25 L83.95 185.1 L0 185.1 L0 185.1 Z" class="st2"/>
		</g>
		<g id="shape313-47" v:mID="313" v:groupContext="shape" transform="translate(582.134,-30.1597)">
			<title>Sheet.313</title>
			<path d="M0 185.1 L0 214.25 L244.52 214.25 L244.52 185.1 L0 185.1 L0 185.1 Z" class="st2"/>
		</g>
		<g id="shape314-49" v:mID="314" v:groupContext="shape" transform="translate(1.49224,-0.996548)">
			<title>Sheet.314</title>
			<path d="M0 185.08 L0 214.25 L48.02 214.25 L48.02 185.08 L0 185.08 L0 185.08 Z" class="st1"/>
		</g>
		<g id="shape315-51" v:mID="315" v:groupContext="shape" transform="translate(49.5145,-0.996548)">
			<title>Sheet.315</title>
			<path d="M0 185.08 L0 214.25 L145.07 214.25 L145.07 185.08 L0 185.08 L0 185.08 Z" class="st1"/>
		</g>
		<g id="shape316-53" v:mID="316" v:groupContext="shape" transform="translate(194.594,-0.996548)">
			<title>Sheet.316</title>
			<path d="M0 185.08 L0 214.25 L90 214.25 L90 185.08 L0 185.08 L0 185.08 Z" class="st1"/>
		</g>
		<g id="shape317-55" v:mID="317" v:groupContext="shape" transform="translate(284.591,-0.996548)">
			<title>Sheet.317</title>
			<path d="M0 185.08 L0 214.25 L84.37 214.25 L84.37 185.08 L0 185.08 L0 185.08 Z" class="st1"/>
		</g>
		<g id="shape318-57" v:mID="318" v:groupContext="shape" transform="translate(368.96,-0.996548)">
			<title>Sheet.318</title>
			<path d="M0 185.08 L0 214.25 L44.29 214.25 L44.29 185.08 L0 185.08 L0 185.08 Z" class="st1"/>
		</g>
		<g id="shape319-59" v:mID="319" v:groupContext="shape" transform="translate(413.245,-0.981569)">
			<title>Sheet.319</title>
			<path d="M0 185.07 L0 214.25 L84.94 214.25 L84.94 185.07 L0 185.07 L0 185.07 Z" class="st1"/>
		</g>
		<g id="shape320-61" v:mID="320" v:groupContext="shape" transform="translate(498.185,-0.981569)">
			<title>Sheet.320</title>
			<path d="M0 185.07 L0 214.25 L83.95 214.25 L83.95 185.07 L0 185.07 L0 185.07 Z" class="st1"/>
		</g>
		<g id="shape321-63" v:mID="321" v:groupContext="shape" transform="translate(582.134,-0.981569)">
			<title>Sheet.321</title>
			<path d="M0 185.07 L0 214.25 L244.52 214.25 L244.52 185.07 L0 185.07 L0 185.07 Z" class="st1"/>
		</g>
		<g id="shape322-65" v:mID="322" v:groupContext="shape" transform="translate(49.5145,-0.502257)">
			<title>Sheet.322</title>
			<path d="M0 38.3 L0 214.25" class="st3"/>
		</g>
		<g id="shape323-68" v:mID="323" v:groupContext="shape" transform="translate(194.587,-0.502257)">
			<title>Sheet.323</title>
			<path d="M0 38.3 L0 214.25" class="st3"/>
		</g>
		<g id="shape324-71" v:mID="324" v:groupContext="shape" transform="translate(284.591,-0.502257)">
			<title>Sheet.324</title>
			<path d="M0 38.31 L0 214.25" class="st4"/>
		</g>
		<g id="shape325-74" v:mID="325" v:groupContext="shape" transform="translate(368.96,-0.502257)">
			<title>Sheet.325</title>
			<path d="M0 38.31 L0 214.25" class="st4"/>
		</g>
		<g id="shape326-77" v:mID="326" v:groupContext="shape" transform="translate(413.245,-0.502257)">
			<title>Sheet.326</title>
			<path d="M0 38.31 L0 214.25" class="st4"/>
		</g>
		<g id="shape327-80" v:mID="327" v:groupContext="shape" transform="translate(498.185,-0.502257)">
			<title>Sheet.327</title>
			<path d="M0 38.31 L0 214.25" class="st5"/>
		</g>
		<g id="shape328-83" v:mID="328" v:groupContext="shape" transform="translate(582.134,-0.502257)">
			<title>Sheet.328</title>
			<path d="M0 38.31 L0 214.25" class="st5"/>
		</g>
		<g id="shape329-86" v:mID="329" v:groupContext="shape" transform="translate(1.00451,-146.783)">
			<title>Sheet.329</title>
			<path d="M0 214.25 L826.16 214.25" class="st6"/>
		</g>
		<g id="shape330-89" v:mID="330" v:groupContext="shape" transform="translate(1.00451,-117.634)">
			<title>Sheet.330</title>
			<path d="M0 214.25 L826.16 214.25" class="st5"/>
		</g>
		<g id="shape331-92" v:mID="331" v:groupContext="shape" transform="translate(1.00451,-88.4562)">
			<title>Sheet.331</title>
			<path d="M0 214.25 L826.16 214.25" class="st5"/>
		</g>
		<g id="shape332-95" v:mID="332" v:groupContext="shape" transform="translate(1.00451,-59.3079)">
			<title>Sheet.332</title>
			<path d="M0 214.25 L826.16 214.25" class="st5"/>
		</g>
		<g id="shape333-98" v:mID="333" v:groupContext="shape" transform="translate(1.00451,-30.1597)">
			<title>Sheet.333</title>
			<path d="M0 214.25 L826.16 214.25" class="st5"/>
		</g>
		<g id="shape334-101" v:mID="334" v:groupContext="shape" transform="translate(1.49224,-0.502257)">
			<title>Sheet.334</title>
			<path d="M0 38.3 L0 214.25" class="st3"/>
		</g>
		<g id="shape335-104" v:mID="335" v:groupContext="shape" transform="translate(826.657,-0.502257)">
			<title>Sheet.335</title>
			<path d="M0 38.31 L0 214.25" class="st5"/>
		</g>
		<g id="shape336-107" v:mID="336" v:groupContext="shape" transform="translate(1.00451,-175.931)">
			<title>Sheet.336</title>
			<path d="M0 214.25 L826.16 214.25" class="st5"/>
		</g>
		<g id="shape337-110" v:mID="337" v:groupContext="shape" transform="translate(1.00451,-0.98157)">
			<title>Sheet.337</title>
			<path d="M0 214.25 L826.16 214.25" class="st5"/>
		</g>
		<g id="shape338-113" v:mID="338" v:groupContext="shape" transform="translate(13.8495,-150.619)">
			<title>Sheet.338</title>
			<desc>id</desc>
			<v:textBlock v:margins="rect(0,0,0,0)"/>
			<v:textRect cx="10.6916" cy="204.684" width="21.39" height="19.1281"/>
			<path d="M21.38 195.12 L0 195.12 L0 214.25 L21.38 214.25 L21.38 195.12" class="st7"/>
			<text x="3.61" y="209.47" class="st8" v:langID="1033"><v:paragraph v:horizAlign="1"/><v:tabList/>id</text>		</g>
		<g id="shape339-117" v:mID="339" v:groupContext="shape" transform="translate(101.464,-150.619)">
			<title>Sheet.339</title>
			<desc>title</desc>
			<v:textBlock v:margins="rect(0,0,0,0)"/>
			<v:textRect cx="18.8398" cy="204.684" width="37.68" height="19.1281"/>
			<path d="M37.68 195.12 L0 195.12 L0 214.25 L37.68 214.25 L37.68 195.12" class="st7"/>
			<text x="4.67" y="209.47" class="st9" v:langID="1033"><v:paragraph v:horizAlign="1"/><v:tabList/>title</text>		</g>
		<g id="shape340-121" v:mID="340" v:groupContext="shape" transform="translate(203.89,-150.619)">
			<title>Sheet.340</title>
			<desc>runtime</desc>
			<v:textBlock v:margins="rect(0,0,0,0)"/>
			<v:textRect cx="36.1517" cy="204.684" width="72.31" height="19.1281"/>
			<path d="M72.3 195.12 L0 195.12 L0 214.25 L72.3 214.25 L72.3 195.12" class="st7"/>
			<text x="6.93" y="209.47" class="st9" v:langID="1033"><v:paragraph v:horizAlign="1"/><v:tabList/>runtime</text>		</g>
		<g id="shape341-125" v:mID="341" v:groupContext="shape" transform="translate(303.971,-150.619)">
			<title>Sheet.341</title>
			<desc>year</desc>
			<v:textBlock v:margins="rect(0,0,0,0)"/>
			<v:textRect cx="21.4037" cy="204.684" width="42.81" height="19.1281"/>
			<path d="M42.81 195.12 L0 195.12 L0 214.25 L42.81 214.25 L42.81 195.12" class="st7"/>
			<text x="5.01" y="209.47" class="st9" v:langID="1033"><v:paragraph v:horizAlign="1"/><v:tabList/>year</text>		</g>
		<g id="shape342-129" v:mID="342" v:groupContext="shape" transform="translate(379.524,-150.619)">
			<title>Sheet.342</title>
			<desc>id</desc>
			<v:textBlock v:margins="rect(0,0,0,0)"/>
			<v:textRect cx="10.6916" cy="204.684" width="21.39" height="19.1281"/>
			<path d="M21.38 195.12 L0 195.12 L0 214.25 L21.38 214.25 L21.38 195.12" class="st7"/>
			<text x="3.61" y="209.47" class="st9" v:langID="1033"><v:paragraph v:horizAlign="1"/><v:tabList/>id</text>		</g>
		<g id="shape343-133" v:mID="343" v:groupContext="shape" transform="translate(420.782,-150.619)">
			<title>Sheet.343</title>
			<desc>user_id</desc>
			<v:textBlock v:margins="rect(0,0,0,0)"/>
			<v:textRect cx="35.1449" cy="204.684" width="70.29" height="19.1281"/>
			<path d="M70.29 195.12 L0 195.12 L0 214.25 L70.29 214.25 L70.29 195.12" class="st7"/>
			<text x="6.8" y="209.47" class="st9" v:langID="1033"><v:paragraph v:horizAlign="1"/><v:tabList/>user_id</text>		</g>
		<g id="shape344-137" v:mID="344" v:groupContext="shape" transform="translate(501.459,-150.619)">
			<title>Sheet.344</title>
			<desc>video_id</desc>
			<v:textBlock v:margins="rect(0,0,0,0)"/>
			<v:textRect cx="39.7223" cy="204.684" width="79.45" height="19.1281"/>
			<path d="M79.44 195.12 L0 195.12 L0 214.25 L79.44 214.25 L79.44 195.12" class="st7"/>
			<text x="7.4" y="209.47" class="st9" v:langID="1033"><v:paragraph v:horizAlign="1"/><v:tabList/>video_id</text>		</g>
		<g id="shape345-141" v:mID="345" v:groupContext="shape" transform="translate(662.485,-150.619)">
			<title>Sheet.345</title>
			<desc>comment</desc>
			<v:textBlock v:margins="rect(0,0,0,0)"/>
			<v:textRect cx="43.2843" cy="204.684" width="86.57" height="19.1281"/>
			<path d="M86.57 195.12 L0 195.12 L0 214.25 L86.57 214.25 L86.57 195.12" class="st7"/>
			<text x="7.86" y="209.47" class="st9" v:langID="1033"><v:paragraph v:horizAlign="1"/><v:tabList/>comment</text>		</g>
		<g id="shape346-145" v:mID="346" v:groupContext="shape" transform="translate(16.0105,-118.813)">
			<title>Sheet.346</title>
			<desc>1</desc>
			<v:textBlock v:margins="rect(0,0,0,0)"/>
			<v:textRect cx="8.62149" cy="203.462" width="17.25" height="21.5726"/>
			<path d="M17.24 192.68 L0 192.68 L0 214.25 L17.24 214.25 L17.24 192.68" class="st7"/>
			<text x="3.62" y="208.85" class="st10" v:langID="1033"><v:paragraph v:horizAlign="1"/><v:tabList/>1</text>		</g>
		<g id="shape347-149" v:mID="347" v:groupContext="shape" transform="translate(78.1707,-118.813)">
			<title>Sheet.347</title>
			<desc>Insurgent</desc>
			<v:textBlock v:margins="rect(0,0,0,0)"/>
			<v:textRect cx="45.9656" cy="203.462" width="91.94" height="21.5726"/>
			<path d="M91.93 192.68 L0 192.68 L0 214.25 L91.93 214.25 L91.93 192.68" class="st7"/>
			<text x="8.49" y="208.85" class="st11" v:langID="1033"><v:paragraph v:horizAlign="1"/><v:tabList/>Insurgent</text>		</g>
		<g id="shape348-153" v:mID="348" v:groupContext="shape" transform="translate(218.78,-118.813)">
			<title>Sheet.348</title>
			<desc>119</desc>
			<v:textBlock v:margins="rect(0,0,0,0)"/>
			<v:textRect cx="20.1174" cy="203.462" width="40.24" height="21.5726"/>
			<path d="M40.23 192.68 L0 192.68 L0 214.25 L40.23 214.25 L40.23 192.68" class="st7"/>
			<text x="5.12" y="208.85" class="st11" v:langID="1033"><v:paragraph v:horizAlign="1"/><v:tabList/>119</text>		</g>
		<g id="shape349-157" v:mID="349" v:groupContext="shape" transform="translate(300.372,-118.813)">
			<title>Sheet.349</title>
			<desc>2015</desc>
			<v:textBlock v:margins="rect(0,0,0,0)"/>
			<v:textRect cx="25.8654" cy="203.462" width="51.74" height="21.5726"/>
			<path d="M51.73 192.68 L0 192.68 L0 214.25 L51.73 214.25 L51.73 192.68" class="st7"/>
			<text x="5.87" y="208.85" class="st11" v:langID="1033"><v:paragraph v:horizAlign="1"/><v:tabList/>2015</text>		</g>
		<g id="shape350-161" v:mID="350" v:groupContext="shape" transform="translate(381.565,-118.813)">
			<title>Sheet.350</title>
			<desc>1</desc>
			<v:textBlock v:margins="rect(0,0,0,0)"/>
			<v:textRect cx="8.62149" cy="203.462" width="17.25" height="21.5726"/>
			<path d="M17.24 192.68 L0 192.68 L0 214.25 L17.24 214.25 L17.24 192.68" class="st7"/>
			<text x="3.62" y="208.85" class="st10" v:langID="1033"><v:paragraph v:horizAlign="1"/><v:tabList/>1</text>		</g>
		<g id="shape351-165" v:mID="351" v:groupContext="shape" transform="translate(444.196,-118.813)">
			<title>Sheet.351</title>
			<desc>a</desc>
			<v:textBlock v:margins="rect(0,0,0,0)"/>
			<v:textRect cx="8.62149" cy="203.462" width="17.25" height="21.5726"/>
			<path d="M17.24 192.68 L0 192.68 L0 214.25 L17.24 214.25 L17.24 192.68" class="st7"/>
			<text x="3.62" y="208.85" class="st12" v:langID="1033"><v:paragraph v:horizAlign="1"/><v:tabList/>a</text>		</g>
		<g id="shape352-169" v:mID="352" v:groupContext="shape" transform="translate(528.709,-118.813)">
			<title>Sheet.352</title>
			<desc>1</desc>
			<v:textBlock v:margins="rect(0,0,0,0)"/>
			<v:textRect cx="8.62149" cy="203.462" width="17.25" height="21.5726"/>
			<path d="M17.24 192.68 L0 192.68 L0 214.25 L17.24 214.25 L17.24 192.68" class="st7"/>
			<text x="3.62" y="208.85" class="st12" v:langID="1033"><v:paragraph v:horizAlign="1"/><v:tabList/>1</text>		</g>
		<g id="shape353-173" v:mID="353" v:groupContext="shape" transform="translate(664.044,-118.813)">
			<title>Sheet.353</title>
			<desc>Loved it!</desc>
			<v:textBlock v:margins="rect(0,0,0,0)"/>
			<v:textRect cx="41.9434" cy="203.462" width="83.89" height="21.5726"/>
			<path d="M83.89 192.68 L0 192.68 L0 214.25 L83.89 214.25 L83.89 192.68" class="st7"/>
			<text x="7.97" y="208.85" class="st11" v:langID="1033"><v:paragraph v:horizAlign="1"/><v:tabList/>Loved it!</text>		</g>
		<g id="shape354-177" v:mID="354" v:groupContext="shape" transform="translate(16.0105,-89.6547)">
			<title>Sheet.354</title>
			<desc>3</desc>
			<v:textBlock v:margins="rect(0,0,0,0)"/>
			<v:textRect cx="8.62149" cy="203.462" width="17.25" height="21.5726"/>
			<path d="M17.24 192.68 L0 192.68 L0 214.25 L17.24 214.25 L17.24 192.68" class="st7"/>
			<text x="3.62" y="208.85" class="st10" v:langID="1033"><v:paragraph v:horizAlign="1"/><v:tabList/>3</text>		</g>
		<g id="shape355-181" v:mID="355" v:groupContext="shape" transform="translate(70.8473,-89.6547)">
			<title>Sheet.355</title>
			<desc>Mockingjay</desc>
			<v:textBlock v:margins="rect(0,0,0,0)"/>
			<v:textRect cx="54.5697" cy="203.462" width="109.14" height="21.5726"/>
			<path d="M109.14 192.68 L0 192.68 L0 214.25 L109.14 214.25 L109.14 192.68" class="st7"/>
			<text x="9.62" y="208.85" class="st11" v:langID="1033"><v:paragraph v:horizAlign="1"/><v:tabList/>Mockingjay</text>		</g>
		<g id="shape356-185" v:mID="356" v:groupContext="shape" transform="translate(218.177,-89.6547)">
			<title>Sheet.356</title>
			<desc>122</desc>
			<v:textBlock v:margins="rect(0,0,0,0)"/>
			<v:textRect cx="20.1174" cy="203.462" width="40.24" height="21.5726"/>
			<path d="M40.23 192.68 L0 192.68 L0 214.25 L40.23 214.25 L40.23 192.68" class="st7"/>
			<text x="5.12" y="208.85" class="st11" v:langID="1033"><v:paragraph v:horizAlign="1"/><v:tabList/>122</text>		</g>
		<g id="shape357-189" v:mID="357" v:groupContext="shape" transform="translate(300.372,-89.6547)">
			<title>Sheet.357</title>
			<desc>2014</desc>
			<v:textBlock v:margins="rect(0,0,0,0)"/>
			<v:textRect cx="25.8654" cy="203.462" width="51.74" height="21.5726"/>
			<path d="M51.73 192.68 L0 192.68 L0 214.25 L51.73 214.25 L51.73 192.68" class="st7"/>
			<text x="5.87" y="208.85" class="st11" v:langID="1033"><v:paragraph v:horizAlign="1"/><v:tabList/>2014</text>		</g>
		<g id="shape358-193" v:mID="358" v:groupContext="shape" transform="translate(381.565,-89.6547)">
			<title>Sheet.358</title>
			<desc>2</desc>
			<v:textBlock v:margins="rect(0,0,0,0)"/>
			<v:textRect cx="8.62149" cy="203.462" width="17.25" height="21.5726"/>
			<path d="M17.24 192.68 L0 192.68 L0 214.25 L17.24 214.25 L17.24 192.68" class="st7"/>
			<text x="3.62" y="208.85" class="st10" v:langID="1033"><v:paragraph v:horizAlign="1"/><v:tabList/>2</text>		</g>
		<g id="shape359-197" v:mID="359" v:groupContext="shape" transform="translate(444.196,-89.6547)">
			<title>Sheet.359</title>
			<desc>a</desc>
			<v:textBlock v:margins="rect(0,0,0,0)"/>
			<v:textRect cx="8.62149" cy="203.462" width="17.25" height="21.5726"/>
			<path d="M17.24 192.68 L0 192.68 L0 214.25 L17.24 214.25 L17.24 192.68" class="st7"/>
			<text x="3.62" y="208.85" class="st12" v:langID="1033"><v:paragraph v:horizAlign="1"/><v:tabList/>a</text>		</g>
		<g id="shape360-201" v:mID="360" v:groupContext="shape" transform="translate(528.709,-89.6547)">
			<title>Sheet.360</title>
			<desc>3</desc>
			<v:textBlock v:margins="rect(0,0,0,0)"/>
			<v:textRect cx="8.62149" cy="203.462" width="17.25" height="21.5726"/>
			<path d="M17.24 192.68 L0 192.68 L0 214.25 L17.24 214.25 L17.24 192.68" class="st7"/>
			<text x="3.62" y="208.85" class="st12" v:langID="1033"><v:paragraph v:horizAlign="1"/><v:tabList/>3</text>		</g>
		<g id="shape361-205" v:mID="361" v:groupContext="shape" transform="translate(664.524,-89.6547)">
			<title>Sheet.361</title>
			<desc>Hated it!</desc>
			<v:textBlock v:margins="rect(0,0,0,0)"/>
			<v:textRect cx="41.3631" cy="203.462" width="82.73" height="21.5726"/>
			<path d="M82.73 192.68 L0 192.68 L0 214.25 L82.73 214.25 L82.73 192.68" class="st7"/>
			<text x="7.89" y="208.85" class="st11" v:langID="1033"><v:paragraph v:horizAlign="1"/><v:tabList/>Hated it!</text>		</g>
		<g id="shape362-209" v:mID="362" v:groupContext="shape" transform="translate(16.0105,-60.4965)">
			<title>Sheet.362</title>
			<desc>2</desc>
			<v:textBlock v:margins="rect(0,0,0,0)"/>
			<v:textRect cx="8.62149" cy="203.462" width="17.25" height="21.5726"/>
			<path d="M17.24 192.68 L0 192.68 L0 214.25 L17.24 214.25 L17.24 192.68" class="st7"/>
			<text x="3.62" y="208.85" class="st13" v:langID="1033"><v:paragraph v:horizAlign="1"/><v:tabList/>2</text>		</g>
		<g id="shape363-213" v:mID="363" v:groupContext="shape" transform="translate(73.6086,-60.4965)">
			<title>Sheet.363</title>
			<desc>Interstellar</desc>
			<v:textBlock v:margins="rect(0,0,0,0)"/>
			<v:textRect cx="51.123" cy="203.462" width="102.25" height="21.5726"/>
			<path d="M102.25 192.68 L0 192.68 L0 214.25 L102.25 214.25 L102.25 192.68" class="st7"/>
			<text x="5.17" y="208.85" class="st14" v:langID="1033"><v:paragraph v:horizAlign="1"/><v:tabList/>Interstellar</text>		</g>
		<g id="shape364-217" v:mID="364" v:groupContext="shape" transform="translate(223.099,-60.4965)">
			<title>Sheet.364</title>
			<desc>98</desc>
			<v:textBlock v:margins="rect(0,0,0,0)"/>
			<v:textRect cx="14.3695" cy="203.462" width="28.74" height="21.5726"/>
			<path d="M28.74 192.68 L0 192.68 L0 214.25 L28.74 214.25 L28.74 192.68" class="st7"/>
			<text x="4.37" y="208.85" class="st14" v:langID="1033"><v:paragraph v:horizAlign="1"/><v:tabList/>98</text>		</g>
		<g id="shape365-221" v:mID="365" v:groupContext="shape" transform="translate(300.372,-60.4965)">
			<title>Sheet.365</title>
			<desc>2014</desc>
			<v:textBlock v:margins="rect(0,0,0,0)"/>
			<v:textRect cx="25.8654" cy="203.462" width="51.74" height="21.5726"/>
			<path d="M51.73 192.68 L0 192.68 L0 214.25 L51.73 214.25 L51.73 192.68" class="st7"/>
			<text x="5.87" y="208.85" class="st14" v:langID="1033"><v:paragraph v:horizAlign="1"/><v:tabList/>2014</text>		</g>
		<g id="shape366-225" v:mID="366" v:groupContext="shape" transform="translate(381.565,-60.4965)">
			<title>Sheet.366</title>
			<desc>3</desc>
			<v:textBlock v:margins="rect(0,0,0,0)"/>
			<v:textRect cx="8.62149" cy="203.462" width="17.25" height="21.5726"/>
			<path d="M17.24 192.68 L0 192.68 L0 214.25 L17.24 214.25 L17.24 192.68" class="st7"/>
			<text x="3.62" y="208.85" class="st13" v:langID="1033"><v:paragraph v:horizAlign="1"/><v:tabList/>3</text>		</g>
		<g id="shape367-229" v:mID="367" v:groupContext="shape" transform="translate(444.196,-60.4965)">
			<title>Sheet.367</title>
			<desc>a</desc>
			<v:textBlock v:margins="rect(0,0,0,0)"/>
			<v:textRect cx="8.62149" cy="203.462" width="17.25" height="21.5726"/>
			<path d="M17.24 192.68 L0 192.68 L0 214.25 L17.24 214.25 L17.24 192.68" class="st7"/>
			<text x="3.62" y="208.85" class="st15" v:langID="1033"><v:paragraph v:horizAlign="1"/><v:tabList/>a</text>		</g>
		<g id="shape368-233" v:mID="368" v:groupContext="shape" transform="translate(528.709,-60.4965)">
			<title>Sheet.368</title>
			<desc>2</desc>
			<v:textBlock v:margins="rect(0,0,0,0)"/>
			<v:textRect cx="8.62149" cy="203.462" width="17.25" height="21.5726"/>
			<path d="M17.24 192.68 L0 192.68 L0 214.25 L17.24 214.25 L17.24 192.68" class="st7"/>
			<text x="3.62" y="208.85" class="st15" v:langID="1033"><v:paragraph v:horizAlign="1"/><v:tabList/>2</text>		</g>
		<g id="shape369-237" v:mID="369" v:groupContext="shape" transform="translate(628.627,-60.4965)">
			<title>Sheet.369</title>
			<desc>I cried at the end!</desc>
			<v:textBlock v:margins="rect(0,0,0,0)"/>
			<v:textRect cx="82.7343" cy="203.462" width="165.47" height="21.5726"/>
			<path d="M165.47 192.68 L0 192.68 L0 214.25 L165.47 214.25 L165.47 192.68" class="st7"/>
			<text x="8.33" y="208.85" class="st14" v:langID="1033"><v:paragraph v:horizAlign="1"/><v:tabList/>I cried at the end!</text>		</g>
		<g id="shape370-241" v:mID="370" v:groupContext="shape" transform="translate(16.0105,-31.3383)">
			<title>Sheet.370</title>
			<desc>2</desc>
			<v:textBlock v:margins="rect(0,0,0,0)"/>
			<v:textRect cx="8.62149" cy="203.462" width="17.25" height="21.5726"/>
			<path d="M17.24 192.68 L0 192.68 L0 214.25 L17.24 214.25 L17.24 192.68" class="st7"/>
			<text x="3.62" y="208.85" class="st13" v:langID="1033"><v:paragraph v:horizAlign="1"/><v:tabList/>2</text>		</g>
		<g id="shape371-245" v:mID="371" v:groupContext="shape" transform="translate(73.6086,-31.3383)">
			<title>Sheet.371</title>
			<desc>Interstellar</desc>
			<v:textBlock v:margins="rect(0,0,0,0)"/>
			<v:textRect cx="51.123" cy="203.462" width="102.25" height="21.5726"/>
			<path d="M102.25 192.68 L0 192.68 L0 214.25 L102.25 214.25 L102.25 192.68" class="st7"/>
			<text x="5.17" y="208.85" class="st14" v:langID="1033"><v:paragraph v:horizAlign="1"/><v:tabList/>Interstellar</text>		</g>
		<g id="shape372-249" v:mID="372" v:groupContext="shape" transform="translate(223.099,-31.3383)">
			<title>Sheet.372</title>
			<desc>98</desc>
			<v:textBlock v:margins="rect(0,0,0,0)"/>
			<v:textRect cx="14.3695" cy="203.462" width="28.74" height="21.5726"/>
			<path d="M28.74 192.68 L0 192.68 L0 214.25 L28.74 214.25 L28.74 192.68" class="st7"/>
			<text x="4.37" y="208.85" class="st14" v:langID="1033"><v:paragraph v:horizAlign="1"/><v:tabList/>98</text>		</g>
		<g id="shape373-253" v:mID="373" v:groupContext="shape" transform="translate(300.372,-31.3383)">
			<title>Sheet.373</title>
			<desc>2014</desc>
			<v:textBlock v:margins="rect(0,0,0,0)"/>
			<v:textRect cx="25.8654" cy="203.462" width="51.74" height="21.5726"/>
			<path d="M51.73 192.68 L0 192.68 L0 214.25 L51.73 214.25 L51.73 192.68" class="st7"/>
			<text x="5.87" y="208.85" class="st14" v:langID="1033"><v:paragraph v:horizAlign="1"/><v:tabList/>2014</text>		</g>
		<g id="shape374-257" v:mID="374" v:groupContext="shape" transform="translate(381.565,-31.3383)">
			<title>Sheet.374</title>
			<desc>4</desc>
			<v:textBlock v:margins="rect(0,0,0,0)"/>
			<v:textRect cx="8.62149" cy="203.462" width="17.25" height="21.5726"/>
			<path d="M17.24 192.68 L0 192.68 L0 214.25 L17.24 214.25 L17.24 192.68" class="st7"/>
			<text x="3.62" y="208.85" class="st13" v:langID="1033"><v:paragraph v:horizAlign="1"/><v:tabList/>4</text>		</g>
		<g id="shape375-261" v:mID="375" v:groupContext="shape" transform="translate(444.196,-31.3383)">
			<title>Sheet.375</title>
			<desc>b</desc>
			<v:textBlock v:margins="rect(0,0,0,0)"/>
			<v:textRect cx="8.62149" cy="203.462" width="17.25" height="21.5726"/>
			<path d="M17.24 192.68 L0 192.68 L0 214.25 L17.24 214.25 L17.24 192.68" class="st7"/>
			<text x="3.13" y="208.85" class="st15" v:langID="1033"><v:paragraph v:horizAlign="1"/><v:tabList/>b</text>		</g>
		<g id="shape376-265" v:mID="376" v:groupContext="shape" transform="translate(528.709,-31.3383)">
			<title>Sheet.376</title>
			<desc>2</desc>
			<v:textBlock v:margins="rect(0,0,0,0)"/>
			<v:textRect cx="8.62149" cy="203.462" width="17.25" height="21.5726"/>
			<path d="M17.24 192.68 L0 192.68 L0 214.25 L17.24 214.25 L17.24 192.68" class="st7"/>
			<text x="3.62" y="208.85" class="st15" v:langID="1033"><v:paragraph v:horizAlign="1"/><v:tabList/>2</text>		</g>
		<g id="shape377-269" v:mID="377" v:groupContext="shape" transform="translate(577.337,-31.3383)">
			<title>Sheet.377</title>
			<desc>Someone stole</desc>
			<v:textBlock v:margins="rect(0,0,0,0)"/>
			<v:textRect cx="71.8186" cy="203.462" width="143.64" height="21.5726"/>
			<path d="M143.64 192.68 L0 192.68 L0 214.25 L143.64 214.25 L143.64 192.68" class="st7"/>
			<text x="7.89" y="208.85" class="st14" v:langID="1033"><v:paragraph v:horizAlign="1"/><v:tabList/>Someone stole</text>		</g>
		<g id="shape378-273" v:mID="378" v:groupContext="shape" transform="translate(709.428,-31.6677)">
			<title>Sheet.378</title>
			<desc>my tissues…</desc>
			<v:textBlock v:margins="rect(0,0,0,0)"/>
			<v:textRect cx="62.0233" cy="203.462" width="124.05" height="21.5726"/>
			<path d="M124.05 192.68 L0 192.68 L0 214.25 L124.05 214.25 L124.05 192.68" class="st7"/>
			<text x="6.58" y="208.85" class="st14" v:langID="1033"><v:paragraph v:horizAlign="1"/><v:tabList/>my tissues…</text>		</g>
		<g id="shape379-277" v:mID="379" v:groupContext="shape" transform="translate(11.9287,-2.18015)">
			<title>Sheet.379</title>
			<desc>…</desc>
			<v:textBlock v:margins="rect(0,0,0,0)"/>
			<v:textRect cx="13.2087" cy="203.462" width="26.42" height="21.5726"/>
			<path d="M26.42 192.68 L0 192.68 L0 214.25 L26.42 214.25 L26.42 192.68" class="st7"/>
			<text x="4.22" y="208.85" class="st10" v:langID="1033"><v:paragraph v:horizAlign="1"/><v:tabList/>…</text>		</g>
		<g id="shape380-281" v:mID="380" v:groupContext="shape" transform="translate(106.624,-2.18015)">
			<title>Sheet.380</title>
			<desc>…</desc>
			<v:textBlock v:margins="rect(0,0,0,0)"/>
			<v:textRect cx="13.2087" cy="203.462" width="26.42" height="21.5726"/>
			<path d="M26.42 192.68 L0 192.68 L0 214.25 L26.42 214.25 L26.42 192.68" class="st7"/>
			<text x="4.22" y="208.85" class="st12" v:langID="1033"><v:paragraph v:horizAlign="1"/><v:tabList/>…</text>		</g>
		<g id="shape381-285" v:mID="381" v:groupContext="shape" transform="translate(224.06,-2.18015)">
			<title>Sheet.381</title>
			<desc>…</desc>
			<v:textBlock v:margins="rect(0,0,0,0)"/>
			<v:textRect cx="13.2087" cy="203.462" width="26.42" height="21.5726"/>
			<path d="M26.42 192.68 L0 192.68 L0 214.25 L26.42 214.25 L26.42 192.68" class="st7"/>
			<text x="4.22" y="208.85" class="st12" v:langID="1033"><v:paragraph v:horizAlign="1"/><v:tabList/>…</text>		</g>
		<g id="shape382-289" v:mID="382" v:groupContext="shape" transform="translate(311.297,-2.18015)">
			<title>Sheet.382</title>
			<desc>…</desc>
			<v:textBlock v:margins="rect(0,0,0,0)"/>
			<v:textRect cx="13.2087" cy="203.462" width="26.42" height="21.5726"/>
			<path d="M26.42 192.68 L0 192.68 L0 214.25 L26.42 214.25 L26.42 192.68" class="st7"/>
			<text x="4.22" y="208.85" class="st12" v:langID="1033"><v:paragraph v:horizAlign="1"/><v:tabList/>…</text>		</g>
		<g id="shape383-293" v:mID="383" v:groupContext="shape" transform="translate(377.603,-2.18015)">
			<title>Sheet.383</title>
			<desc>…</desc>
			<v:textBlock v:margins="rect(0,0,0,0)"/>
			<v:textRect cx="13.2087" cy="203.462" width="26.42" height="21.5726"/>
			<path d="M26.42 192.68 L0 192.68 L0 214.25 L26.42 214.25 L26.42 192.68" class="st7"/>
			<text x="4.22" y="208.85" class="st10" v:langID="1033"><v:paragraph v:horizAlign="1"/><v:tabList/>…</text>		</g>
		<g id="shape384-297" v:mID="384" v:groupContext="shape" transform="translate(440.234,-2.18015)">
			<title>Sheet.384</title>
			<desc>…</desc>
			<v:textBlock v:margins="rect(0,0,0,0)"/>
			<v:textRect cx="13.2087" cy="203.462" width="26.42" height="21.5726"/>
			<path d="M26.42 192.68 L0 192.68 L0 214.25 L26.42 214.25 L26.42 192.68" class="st7"/>
			<text x="4.22" y="208.85" class="st11" v:langID="1033"><v:paragraph v:horizAlign="1"/><v:tabList/>…</text>		</g>
		<g id="shape385-301" v:mID="385" v:groupContext="shape" transform="translate(524.627,-2.18015)">
			<title>Sheet.385</title>
			<desc>…</desc>
			<v:textBlock v:margins="rect(0,0,0,0)"/>
			<v:textRect cx="13.2087" cy="203.462" width="26.42" height="21.5726"/>
			<path d="M26.42 192.68 L0 192.68 L0 214.25 L26.42 214.25 L26.42 192.68" class="st7"/>
			<text x="4.22" y="208.85" class="st11" v:langID="1033"><v:paragraph v:horizAlign="1"/><v:tabList/>…</text>		</g>
		<g id="shape386-305" v:mID="386" v:groupContext="shape" transform="translate(688.895,-2.18015)">
			<title>Sheet.386</title>
			<desc>…</desc>
			<v:textBlock v:margins="rect(0,0,0,0)"/>
			<v:textRect cx="13.2087" cy="203.462" width="26.42" height="21.5726"/>
			<path d="M26.42 192.68 L0 192.68 L0 214.25 L26.42 214.25 L26.42 192.68" class="st7"/>
			<text x="4.22" y="208.85" class="st11" v:langID="1033"><v:paragraph v:horizAlign="1"/><v:tabList/>…</text>		</g>
		<g id="shape387-309" v:mID="387" v:groupContext="shape" transform="translate(304.197,-192.675)">
			<title>Sheet.387</title>
			<desc>WHERE title = ‘Interstellar’</desc>
			<v:textBlock v:margins="rect(0,0,0,0)"/>
			<v:textRect cx="117.171" cy="203.462" width="234.35" height="21.5726"/>
			<path d="M234.34 192.68 L0 192.68 L0 214.25 L234.34 214.25 L234.34 192.68" class="st7"/>
			<text x="4.06" y="208.85" class="st16" v:langID="1033"><v:paragraph v:horizAlign="1"/><v:tabList/>WHERE title = ‘Interstellar’</text>		</g>
	</g>
</svg>
