<?xml version="1.0" encoding="UTF-8" standalone="no"?>
<!DOCTYPE svg PUBLIC "-//W3C//DTD SVG 1.1//EN" "http://www.w3.org/Graphics/SVG/1.1/DTD/svg11.dtd">
<!-- Generated by Microsoft Visio, SVG Export videos-comments-join.svg Page-1 -->
<svg xmlns="http://www.w3.org/2000/svg" xmlns:xlink="http://www.w3.org/1999/xlink" xmlns:ev="http://www.w3.org/2001/xml-events"
		xmlns:v="http://schemas.microsoft.com/visio/2003/SVGExtensions/" width="11.8648in" height="2.90913in"
		viewBox="0 0 854.266 209.457" xml:space="preserve" color-interpolation-filters="sRGB" class="st16">
	<v:documentProperties v:langID="1033" v:viewMarkup="false">
		<v:userDefs>
			<v:ud v:nameU="msvConvertTheme"/>
		</v:userDefs>
	</v:documentProperties>

	<style type="text/css">
	<![CDATA[
		.st1 {fill:#fadecb;stroke:none;stroke-linecap:round;stroke-linejoin:round;stroke-width:0.75}
		.st2 {fill:#f9f9f7;stroke:none;stroke-linecap:round;stroke-linejoin:round;stroke-width:0.75}
		.st3 {stroke:#4b3c37;stroke-linecap:round;stroke-linejoin:round;stroke-width:0.997017}
		.st4 {stroke:#4b3c37;stroke-linecap:round;stroke-linejoin:round;stroke-width:1.99403}
		.st5 {stroke:#4b3c37;stroke-linecap:round;stroke-linejoin:round;stroke-width:1.00451}
		.st6 {stroke:none;stroke-linecap:round;stroke-linejoin:round;stroke-width:0.75}
		.st7 {fill:#4b3c37;font-family:Arial;font-size:1.32809em;font-weight:bold}
		.st8 {fill:#007b98;font-family:Arial;font-size:1.49785em}
		.st9 {fill:#cb6015;font-family:Arial;font-size:1.49785em}
		.st10 {fill:#4b3c37;font-family:Arial;font-size:1.49785em;font-weight:bold}
		.st11 {stroke:#4b3c37;stroke-linecap:round;stroke-linejoin:round;stroke-width:2.00903}
		.st12 {stroke:#4b3c37;stroke-linecap:round;stroke-linejoin:round;stroke-width:0.989521}
		.st13 {fill:#bf5017;font-family:Arial;font-size:1.49785em}
		.st14 {marker-end:url(#mrkr13-324);marker-start:url(#mrkr13-322);stroke:#007b98;stroke-linecap:round;stroke-linejoin:round;stroke-width:2.25}
		.st15 {fill:#007b98;fill-opacity:1;stroke:#007b98;stroke-opacity:1;stroke-width:0.47169811320755}
		.st16 {fill:none;fill-rule:evenodd;font-size:12px;overflow:visible;stroke-linecap:square;stroke-miterlimit:3}
	]]>
	</style>

	<defs id="Patterns_And_Gradients">
		<linearGradient id="grad0-319" x1="0" y1="0" x2="1" y2="0" gradientTransform="rotate(270 0.5 0.5)">
			<stop offset="0" stop-color="#006984" stop-opacity="1"/>
			<stop offset="1" stop-color="#007b98" stop-opacity="1"/>
		</linearGradient>
	</defs>
	<defs id="Markers">
		<g id="lend13">
			<path d="M 3 1 L 0 0 L 3 -1 L 3 1 " style="stroke:none"/>
		</g>
		<marker id="mrkr13-322" class="st15" v:arrowType="13" v:arrowSize="2" v:setback="6.2" refX="6.2" orient="auto"
				markerUnits="strokeWidth" overflow="visible">
			<use xlink:href="#lend13" transform="scale(2.12) "/>
		</marker>
		<marker id="mrkr13-324" class="st15" v:arrowType="13" v:arrowSize="2" v:setback="6.36" refX="-6.36" orient="auto"
				markerUnits="strokeWidth" overflow="visible">
			<use xlink:href="#lend13" transform="scale(-2.12,-2.12) "/>
		</marker>
	</defs>
	<g v:mID="0" v:index="1" v:groupContext="foregroundPage">
		<title>Page-1</title>
		<v:pageProperties v:drawingScale="1" v:pageScale="1" v:drawingUnits="0" v:shadowOffsetX="9" v:shadowOffsetY="-9"/>
		<v:layer v:name="Connector" v:index="0"/>
		<g id="shape3-1" v:mID="3" v:groupContext="shape" transform="translate(1.49975,-101.757)">
			<title>Sheet.3</title>
			<path d="M0 180.3 L0 209.46 L44.65 209.46 L44.65 180.3 L0 180.3 L0 180.3 Z" class="st1"/>
		</g>
		<g id="shape4-3" v:mID="4" v:groupContext="shape" transform="translate(46.1454,-101.757)">
			<title>Sheet.4</title>
			<path d="M0 180.3 L0 209.46 L110.77 209.46 L110.77 180.3 L0 180.3 L0 180.3 Z" class="st1"/>
		</g>
		<g id="shape5-5" v:mID="5" v:groupContext="shape" transform="translate(156.919,-101.757)">
			<title>Sheet.5</title>
			<path d="M0 180.3 L0 209.46 L82.22 209.46 L82.22 180.3 L0 180.3 L0 180.3 Z" class="st1"/>
		</g>
		<g id="shape6-7" v:mID="6" v:groupContext="shape" transform="translate(239.142,-101.75)">
			<title>Sheet.6</title>
			<path d="M0 180.29 L0 209.46 L78.83 209.46 L78.83 180.29 L0 180.29 L0 180.29 Z" class="st1"/>
		</g>
		<g id="shape7-9" v:mID="7" v:groupContext="shape" transform="translate(1.49975,-43.4385)">
			<title>Sheet.7</title>
			<path d="M0 180.29 L0 209.46 L44.65 209.46 L44.65 180.29 L0 180.29 L0 180.29 Z" class="st1"/>
		</g>
		<g id="shape8-11" v:mID="8" v:groupContext="shape" transform="translate(46.1454,-43.4385)">
			<title>Sheet.8</title>
			<path d="M0 180.29 L0 209.46 L110.77 209.46 L110.77 180.29 L0 180.29 L0 180.29 Z" class="st1"/>
		</g>
		<g id="shape9-13" v:mID="9" v:groupContext="shape" transform="translate(156.919,-43.4385)">
			<title>Sheet.9</title>
			<path d="M0 180.29 L0 209.46 L82.22 209.46 L82.22 180.29 L0 180.29 L0 180.29 Z" class="st1"/>
		</g>
		<g id="shape10-15" v:mID="10" v:groupContext="shape" transform="translate(239.142,-43.4385)">
			<title>Sheet.10</title>
			<path d="M0 180.29 L0 209.46 L78.83 209.46 L78.83 180.29 L0 180.29 L0 180.29 Z" class="st1"/>
		</g>
		<g id="shape11-17" v:mID="11" v:groupContext="shape" transform="translate(1.49975,-14.2828)">
			<title>Sheet.11</title>
			<path d="M0 180.3 L0 209.46 L44.65 209.46 L44.65 180.3 L0 180.3 L0 180.3 Z" class="st2"/>
		</g>
		<g id="shape12-19" v:mID="12" v:groupContext="shape" transform="translate(46.1454,-14.2828)">
			<title>Sheet.12</title>
			<path d="M0 180.3 L0 209.46 L110.77 209.46 L110.77 180.3 L0 180.3 L0 180.3 Z" class="st2"/>
		</g>
		<g id="shape13-21" v:mID="13" v:groupContext="shape" transform="translate(156.919,-14.2828)">
			<title>Sheet.13</title>
			<path d="M0 180.3 L0 209.46 L82.22 209.46 L82.22 180.3 L0 180.3 L0 180.3 Z" class="st2"/>
		</g>
		<g id="shape14-23" v:mID="14" v:groupContext="shape" transform="translate(239.142,-14.2753)">
			<title>Sheet.14</title>
			<path d="M0 180.29 L0 209.46 L78.83 209.46 L78.83 180.29 L0 180.29 L0 180.29 Z" class="st2"/>
		</g>
		<g id="shape15-25" v:mID="15" v:groupContext="shape" transform="translate(46.1454,-13.781)">
			<title>Sheet.15</title>
			<path d="M0 62.67 L0 209.46" class="st3"/>
		</g>
		<g id="shape16-28" v:mID="16" v:groupContext="shape" transform="translate(156.919,-13.781)">
			<title>Sheet.16</title>
			<path d="M0 62.67 L0 209.46" class="st3"/>
		</g>
		<g id="shape17-31" v:mID="17" v:groupContext="shape" transform="translate(239.142,-13.781)">
			<title>Sheet.17</title>
			<path d="M0 62.67 L0 209.46" class="st3"/>
		</g>
		<g id="shape18-34" v:mID="18" v:groupContext="shape" transform="translate(0.997017,-130.913)">
			<title>Sheet.18</title>
			<path d="M0 209.46 L317.47 209.46" class="st4"/>
		</g>
		<g id="shape19-37" v:mID="19" v:groupContext="shape" transform="translate(0.997017,-101.75)">
			<title>Sheet.19</title>
			<path d="M0 209.46 L317.47 209.46" class="st5"/>
		</g>
		<g id="shape20-40" v:mID="20" v:groupContext="shape" transform="translate(0.997017,-72.6017)">
			<title>Sheet.20</title>
			<path d="M0 209.46 L317.47 209.46" class="st5"/>
		</g>
		<g id="shape21-43" v:mID="21" v:groupContext="shape" transform="translate(0.997017,-43.4385)">
			<title>Sheet.21</title>
			<path d="M0 209.46 L317.47 209.46" class="st5"/>
		</g>
		<g id="shape22-46" v:mID="22" v:groupContext="shape" transform="translate(1.49975,-13.781)">
			<title>Sheet.22</title>
			<path d="M0 62.67 L0 209.46" class="st3"/>
		</g>
		<g id="shape23-49" v:mID="23" v:groupContext="shape" transform="translate(317.974,-13.781)">
			<title>Sheet.23</title>
			<path d="M0 62.67 L0 209.46" class="st5"/>
		</g>
		<g id="shape24-52" v:mID="24" v:groupContext="shape" transform="translate(0.997017,-160.076)">
			<title>Sheet.24</title>
			<path d="M0 209.46 L317.47 209.46" class="st5"/>
		</g>
		<g id="shape25-55" v:mID="25" v:groupContext="shape" transform="translate(0.997017,-14.2753)">
			<title>Sheet.25</title>
			<path d="M0 209.46 L317.47 209.46" class="st5"/>
		</g>
		<g id="shape26-58" v:mID="26" v:groupContext="shape" transform="translate(14.3172,-134.744)">
			<title>Sheet.26</title>
			<desc>id</desc>
			<v:textBlock v:margins="rect(0,0,0,0)"/>
			<v:textRect cx="10.6916" cy="199.893" width="21.39" height="19.1281"/>
			<path d="M21.38 190.33 L0 190.33 L0 209.46 L21.38 209.46 L21.38 190.33" class="st6"/>
			<text x="3.61" y="204.67" class="st7" v:langID="1033"><v:paragraph v:horizAlign="1"/><v:tabList/>id</text>		</g>
		<g id="shape27-62" v:mID="27" v:groupContext="shape" transform="translate(80.6804,-134.744)">
			<title>Sheet.27</title>
			<desc>title</desc>
			<v:textBlock v:margins="rect(0,0,0,0)"/>
			<v:textRect cx="18.8398" cy="199.893" width="37.68" height="19.1281"/>
			<path d="M37.68 190.33 L0 190.33 L0 209.46 L37.68 209.46 L37.68 190.33" class="st6"/>
			<text x="4.67" y="204.67" class="st7" v:langID="1033"><v:paragraph v:horizAlign="1"/><v:tabList/>title</text>		</g>
		<g id="shape28-66" v:mID="28" v:groupContext="shape" transform="translate(164.814,-134.744)">
			<title>Sheet.28</title>
			<desc>runtime</desc>
			<v:textBlock v:margins="rect(0,0,0,0)"/>
			<v:textRect cx="36.1517" cy="199.893" width="72.31" height="19.1281"/>
			<path d="M72.3 190.33 L0 190.33 L0 209.46 L72.3 209.46 L72.3 190.33" class="st6"/>
			<text x="6.93" y="204.67" class="st7" v:langID="1033"><v:paragraph v:horizAlign="1"/><v:tabList/>runtime</text>		</g>
		<g id="shape29-70" v:mID="29" v:groupContext="shape" transform="translate(256.182,-134.744)">
			<title>Sheet.29</title>
			<desc>year</desc>
			<v:textBlock v:margins="rect(0,0,0,0)"/>
			<v:textRect cx="21.4037" cy="199.893" width="42.81" height="19.1281"/>
			<path d="M42.81 190.33 L0 190.33 L0 209.46 L42.81 209.46 L42.81 190.33" class="st6"/>
			<text x="5.01" y="204.67" class="st7" v:langID="1033"><v:paragraph v:horizAlign="1"/><v:tabList/>year</text>		</g>
		<g id="shape30-74" v:mID="30" v:groupContext="shape" transform="translate(16.4782,-102.937)">
			<title>Sheet.30</title>
			<desc>1</desc>
			<v:textBlock v:margins="rect(0,0,0,0)"/>
			<v:textRect cx="8.62149" cy="198.671" width="17.25" height="21.5726"/>
			<path d="M17.24 187.88 L0 187.88 L0 209.46 L17.24 209.46 L17.24 187.88" class="st6"/>
			<text x="3.62" y="204.06" class="st8" v:langID="1033"><v:paragraph v:horizAlign="1"/><v:tabList/>1</text>		</g>
		<g id="shape31-78" v:mID="31" v:groupContext="shape" transform="translate(57.3871,-102.937)">
			<title>Sheet.31</title>
			<desc>Insurgent</desc>
			<v:textBlock v:margins="rect(0,0,0,0)"/>
			<v:textRect cx="45.9656" cy="198.671" width="91.94" height="21.5726"/>
			<path d="M91.93 187.88 L0 187.88 L0 209.46 L91.93 209.46 L91.93 187.88" class="st6"/>
			<text x="8.49" y="204.06" class="st9" v:langID="1033"><v:paragraph v:horizAlign="1"/><v:tabList/>Insurgent</text>		</g>
		<g id="shape32-82" v:mID="32" v:groupContext="shape" transform="translate(179.703,-102.937)">
			<title>Sheet.32</title>
			<desc>119</desc>
			<v:textBlock v:margins="rect(0,0,0,0)"/>
			<v:textRect cx="20.1174" cy="198.671" width="40.24" height="21.5726"/>
			<path d="M40.23 187.88 L0 187.88 L0 209.46 L40.23 209.46 L40.23 187.88" class="st6"/>
			<text x="5.12" y="204.06" class="st9" v:langID="1033"><v:paragraph v:horizAlign="1"/><v:tabList/>119</text>		</g>
		<g id="shape33-86" v:mID="33" v:groupContext="shape" transform="translate(252.583,-102.937)">
			<title>Sheet.33</title>
			<desc>2015</desc>
			<v:textBlock v:margins="rect(0,0,0,0)"/>
			<v:textRect cx="25.8654" cy="198.671" width="51.74" height="21.5726"/>
			<path d="M51.73 187.88 L0 187.88 L0 209.46 L51.73 209.46 L51.73 187.88" class="st6"/>
			<text x="5.87" y="204.06" class="st9" v:langID="1033"><v:paragraph v:horizAlign="1"/><v:tabList/>2015</text>		</g>
		<g id="shape34-90" v:mID="34" v:groupContext="shape" transform="translate(16.4782,-73.7793)">
			<title>Sheet.34</title>
			<desc>2</desc>
			<v:textBlock v:margins="rect(0,0,0,0)"/>
			<v:textRect cx="8.62149" cy="198.671" width="17.25" height="21.5726"/>
			<path d="M17.24 187.88 L0 187.88 L0 209.46 L17.24 209.46 L17.24 187.88" class="st6"/>
			<text x="3.62" y="204.06" class="st8" v:langID="1033"><v:paragraph v:horizAlign="1"/><v:tabList/>2</text>		</g>
		<g id="shape35-94" v:mID="35" v:groupContext="shape" transform="translate(52.825,-73.7793)">
			<title>Sheet.35</title>
			<desc>Interstellar</desc>
			<v:textBlock v:margins="rect(0,0,0,0)"/>
			<v:textRect cx="51.123" cy="198.671" width="102.25" height="21.5726"/>
			<path d="M102.25 187.88 L0 187.88 L0 209.46 L102.25 209.46 L102.25 187.88" class="st6"/>
			<text x="9.17" y="204.06" class="st9" v:langID="1033"><v:paragraph v:horizAlign="1"/><v:tabList/>Interstellar</text>		</g>
		<g id="shape36-98" v:mID="36" v:groupContext="shape" transform="translate(184.023,-73.7793)">
			<title>Sheet.36</title>
			<desc>98</desc>
			<v:textBlock v:margins="rect(0,0,0,0)"/>
			<v:textRect cx="14.3695" cy="198.671" width="28.74" height="21.5726"/>
			<path d="M28.74 187.88 L0 187.88 L0 209.46 L28.74 209.46 L28.74 187.88" class="st6"/>
			<text x="4.37" y="204.06" class="st9" v:langID="1033"><v:paragraph v:horizAlign="1"/><v:tabList/>98</text>		</g>
		<g id="shape37-102" v:mID="37" v:groupContext="shape" transform="translate(252.583,-73.7793)">
			<title>Sheet.37</title>
			<desc>2014</desc>
			<v:textBlock v:margins="rect(0,0,0,0)"/>
			<v:textRect cx="25.8654" cy="198.671" width="51.74" height="21.5726"/>
			<path d="M51.73 187.88 L0 187.88 L0 209.46 L51.73 209.46 L51.73 187.88" class="st6"/>
			<text x="5.87" y="204.06" class="st9" v:langID="1033"><v:paragraph v:horizAlign="1"/><v:tabList/>2014</text>		</g>
		<g id="shape38-106" v:mID="38" v:groupContext="shape" transform="translate(16.4782,-44.6211)">
			<title>Sheet.38</title>
			<desc>3</desc>
			<v:textBlock v:margins="rect(0,0,0,0)"/>
			<v:textRect cx="8.62149" cy="198.671" width="17.25" height="21.5726"/>
			<path d="M17.24 187.88 L0 187.88 L0 209.46 L17.24 209.46 L17.24 187.88" class="st6"/>
			<text x="3.62" y="204.06" class="st8" v:langID="1033"><v:paragraph v:horizAlign="1"/><v:tabList/>3</text>		</g>
		<g id="shape39-110" v:mID="39" v:groupContext="shape" transform="translate(50.0637,-44.6211)">
			<title>Sheet.39</title>
			<desc>Mockingjay</desc>
			<v:textBlock v:margins="rect(0,0,0,0)"/>
			<v:textRect cx="54.5697" cy="198.671" width="109.14" height="21.5726"/>
			<path d="M109.14 187.88 L0 187.88 L0 209.46 L109.14 209.46 L109.14 187.88" class="st6"/>
			<text x="9.62" y="204.06" class="st9" v:langID="1033"><v:paragraph v:horizAlign="1"/><v:tabList/>Mockingjay</text>		</g>
		<g id="shape40-114" v:mID="40" v:groupContext="shape" transform="translate(179.1,-44.6211)">
			<title>Sheet.40</title>
			<desc>122</desc>
			<v:textBlock v:margins="rect(0,0,0,0)"/>
			<v:textRect cx="20.1174" cy="198.671" width="40.24" height="21.5726"/>
			<path d="M40.23 187.88 L0 187.88 L0 209.46 L40.23 209.46 L40.23 187.88" class="st6"/>
			<text x="5.12" y="204.06" class="st9" v:langID="1033"><v:paragraph v:horizAlign="1"/><v:tabList/>122</text>		</g>
		<g id="shape41-118" v:mID="41" v:groupContext="shape" transform="translate(252.583,-44.6211)">
			<title>Sheet.41</title>
			<desc>2014</desc>
			<v:textBlock v:margins="rect(0,0,0,0)"/>
			<v:textRect cx="25.8654" cy="198.671" width="51.74" height="21.5726"/>
			<path d="M51.73 187.88 L0 187.88 L0 209.46 L51.73 209.46 L51.73 187.88" class="st6"/>
			<text x="5.87" y="204.06" class="st9" v:langID="1033"><v:paragraph v:horizAlign="1"/><v:tabList/>2014</text>		</g>
		<g id="shape42-122" v:mID="42" v:groupContext="shape" transform="translate(12.3963,-15.4629)">
			<title>Sheet.42</title>
			<desc>…</desc>
			<v:textBlock v:margins="rect(0,0,0,0)"/>
			<v:textRect cx="13.2087" cy="198.671" width="26.42" height="21.5726"/>
			<path d="M26.42 187.88 L0 187.88 L0 209.46 L26.42 209.46 L26.42 187.88" class="st6"/>
			<text x="4.22" y="204.06" class="st8" v:langID="1033"><v:paragraph v:horizAlign="1"/><v:tabList/>…</text>		</g>
		<g id="shape43-126" v:mID="43" v:groupContext="shape" transform="translate(88.8963,-15.4629)">
			<title>Sheet.43</title>
			<desc>…</desc>
			<v:textBlock v:margins="rect(0,0,0,0)"/>
			<v:textRect cx="13.2087" cy="198.671" width="26.42" height="21.5726"/>
			<path d="M26.42 187.88 L0 187.88 L0 209.46 L26.42 209.46 L26.42 187.88" class="st6"/>
			<text x="4.22" y="204.06" class="st9" v:langID="1033"><v:paragraph v:horizAlign="1"/><v:tabList/>…</text>		</g>
		<g id="shape44-130" v:mID="44" v:groupContext="shape" transform="translate(187.314,-15.4629)">
			<title>Sheet.44</title>
			<desc>…</desc>
			<v:textBlock v:margins="rect(0,0,0,0)"/>
			<v:textRect cx="13.2087" cy="198.671" width="26.42" height="21.5726"/>
			<path d="M26.42 187.88 L0 187.88 L0 209.46 L26.42 209.46 L26.42 187.88" class="st6"/>
			<text x="4.22" y="204.06" class="st9" v:langID="1033"><v:paragraph v:horizAlign="1"/><v:tabList/>…</text>		</g>
		<g id="shape45-134" v:mID="45" v:groupContext="shape" transform="translate(268.605,-15.4629)">
			<title>Sheet.45</title>
			<desc>…</desc>
			<v:textBlock v:margins="rect(0,0,0,0)"/>
			<v:textRect cx="13.2087" cy="198.671" width="26.42" height="21.5726"/>
			<path d="M26.42 187.88 L0 187.88 L0 209.46 L26.42 209.46 L26.42 187.88" class="st6"/>
			<text x="4.22" y="204.06" class="st9" v:langID="1033"><v:paragraph v:horizAlign="1"/><v:tabList/>…</text>		</g>
		<g id="shape47-138" v:mID="47" v:groupContext="shape" transform="translate(32.278,-170.65)">
			<title>Sheet.47</title>
			<desc>videos</desc>
			<v:textBlock v:margins="rect(0,0,0,0)"/>
			<v:textRect cx="29.8673" cy="198.671" width="59.74" height="21.5726"/>
			<path d="M59.73 187.88 L0 187.88 L0 209.46 L59.73 209.46 L59.73 187.88" class="st6"/>
			<text x="1.4" y="204.06" class="st10" v:langID="1033"><v:paragraph v:horizAlign="1"/><v:tabList/>videos</text>		</g>
		<g id="shape48-142" v:mID="48" v:groupContext="shape" transform="translate(411.983,-117.634)">
			<title>Sheet.48</title>
			<path d="M0 180.31 L0 209.46 L35.84 209.46 L35.84 180.31 L0 180.31 L0 180.31 Z" class="st1"/>
		</g>
		<g id="shape49-144" v:mID="49" v:groupContext="shape" transform="translate(447.82,-117.634)">
			<title>Sheet.49</title>
			<path d="M0 180.31 L0 209.46 L77.68 209.46 L77.68 180.31 L0 180.31 L0 180.31 Z" class="st1"/>
		</g>
		<g id="shape50-146" v:mID="50" v:groupContext="shape" transform="translate(525.496,-117.634)">
			<title>Sheet.50</title>
			<path d="M0 180.31 L0 209.46 L81.64 209.46 L81.64 180.31 L0 180.31 L0 180.31 Z" class="st1"/>
		</g>
		<g id="shape51-148" v:mID="51" v:groupContext="shape" transform="translate(607.133,-117.634)">
			<title>Sheet.51</title>
			<path d="M0 180.31 L0 209.46 L244.94 209.46 L244.94 180.31 L0 180.31 L0 180.31 Z" class="st1"/>
		</g>
		<g id="shape52-150" v:mID="52" v:groupContext="shape" transform="translate(411.983,-59.3079)">
			<title>Sheet.52</title>
			<path d="M0 180.29 L0 209.46 L35.84 209.46 L35.84 180.29 L0 180.29 L0 180.29 Z" class="st1"/>
		</g>
		<g id="shape53-152" v:mID="53" v:groupContext="shape" transform="translate(447.82,-59.3079)">
			<title>Sheet.53</title>
			<path d="M0 180.29 L0 209.46 L77.68 209.46 L77.68 180.29 L0 180.29 L0 180.29 Z" class="st1"/>
		</g>
		<g id="shape54-154" v:mID="54" v:groupContext="shape" transform="translate(525.496,-59.3079)">
			<title>Sheet.54</title>
			<path d="M0 180.29 L0 209.46 L81.64 209.46 L81.64 180.29 L0 180.29 L0 180.29 Z" class="st1"/>
		</g>
		<g id="shape55-156" v:mID="55" v:groupContext="shape" transform="translate(607.133,-59.3079)">
			<title>Sheet.55</title>
			<path d="M0 180.31 L0 209.46 L244.94 209.46 L244.94 180.31 L0 180.31 L0 180.31 Z" class="st1"/>
		</g>
		<g id="shape56-158" v:mID="56" v:groupContext="shape" transform="translate(411.983,-30.1597)">
			<title>Sheet.56</title>
			<path d="M0 180.31 L0 209.46 L35.84 209.46 L35.84 180.31 L0 180.31 L0 180.31 Z" class="st2"/>
		</g>
		<g id="shape57-160" v:mID="57" v:groupContext="shape" transform="translate(447.82,-30.1597)">
			<title>Sheet.57</title>
			<path d="M0 180.31 L0 209.46 L77.68 209.46 L77.68 180.31 L0 180.31 L0 180.31 Z" class="st2"/>
		</g>
		<g id="shape58-162" v:mID="58" v:groupContext="shape" transform="translate(525.496,-30.1597)">
			<title>Sheet.58</title>
			<path d="M0 180.31 L0 209.46 L81.64 209.46 L81.64 180.31 L0 180.31 L0 180.31 Z" class="st2"/>
		</g>
		<g id="shape59-164" v:mID="59" v:groupContext="shape" transform="translate(607.133,-30.1597)">
			<title>Sheet.59</title>
			<path d="M0 180.31 L0 209.46 L244.94 209.46 L244.94 180.31 L0 180.31 L0 180.31 Z" class="st2"/>
		</g>
		<g id="shape60-166" v:mID="60" v:groupContext="shape" transform="translate(411.983,-0.996548)">
			<title>Sheet.60</title>
			<path d="M0 180.29 L0 209.46 L35.84 209.46 L35.84 180.29 L0 180.29 L0 180.29 Z" class="st1"/>
		</g>
		<g id="shape61-168" v:mID="61" v:groupContext="shape" transform="translate(447.82,-0.996548)">
			<title>Sheet.61</title>
			<path d="M0 180.29 L0 209.46 L77.68 209.46 L77.68 180.29 L0 180.29 L0 180.29 Z" class="st1"/>
		</g>
		<g id="shape62-170" v:mID="62" v:groupContext="shape" transform="translate(525.496,-0.996548)">
			<title>Sheet.62</title>
			<path d="M0 180.29 L0 209.46 L81.64 209.46 L81.64 180.29 L0 180.29 L0 180.29 Z" class="st1"/>
		</g>
		<g id="shape63-172" v:mID="63" v:groupContext="shape" transform="translate(607.133,-0.981569)">
			<title>Sheet.63</title>
			<path d="M0 180.28 L0 209.46 L244.94 209.46 L244.94 180.28 L0 180.28 L0 180.28 Z" class="st1"/>
		</g>
		<g id="shape64-174" v:mID="64" v:groupContext="shape" transform="translate(447.82,-0.502257)">
			<title>Sheet.64</title>
			<path d="M0 33.52 L0 209.46" class="st5"/>
		</g>
		<g id="shape65-177" v:mID="65" v:groupContext="shape" transform="translate(525.496,-0.502257)">
			<title>Sheet.65</title>
			<path d="M0 33.52 L0 209.46" class="st5"/>
		</g>
		<g id="shape66-180" v:mID="66" v:groupContext="shape" transform="translate(607.133,-0.502257)">
			<title>Sheet.66</title>
			<path d="M0 33.52 L0 209.46" class="st5"/>
		</g>
		<g id="shape67-183" v:mID="67" v:groupContext="shape" transform="translate(411.503,-146.783)">
			<title>Sheet.67</title>
			<path d="M0 209.46 L441.08 209.46" class="st11"/>
		</g>
		<g id="shape68-186" v:mID="68" v:groupContext="shape" transform="translate(411.503,-117.634)">
			<title>Sheet.68</title>
			<path d="M0 209.46 L441.08 209.46" class="st12"/>
		</g>
		<g id="shape69-189" v:mID="69" v:groupContext="shape" transform="translate(411.503,-88.4562)">
			<title>Sheet.69</title>
			<path d="M0 209.46 L441.08 209.46" class="st12"/>
		</g>
		<g id="shape70-192" v:mID="70" v:groupContext="shape" transform="translate(411.503,-59.3079)">
			<title>Sheet.70</title>
			<path d="M0 209.46 L441.08 209.46" class="st12"/>
		</g>
		<g id="shape71-195" v:mID="71" v:groupContext="shape" transform="translate(411.503,-30.1597)">
			<title>Sheet.71</title>
			<path d="M0 209.46 L441.08 209.46" class="st12"/>
		</g>
		<g id="shape72-198" v:mID="72" v:groupContext="shape" transform="translate(411.983,-0.502257)">
			<title>Sheet.72</title>
			<path d="M0 33.52 L0 209.46" class="st5"/>
		</g>
		<g id="shape73-201" v:mID="73" v:groupContext="shape" transform="translate(852.077,-0.502257)">
			<title>Sheet.73</title>
			<path d="M0 33.52 L0 209.46" class="st12"/>
		</g>
		<g id="shape74-204" v:mID="74" v:groupContext="shape" transform="translate(411.503,-175.931)">
			<title>Sheet.74</title>
			<path d="M0 209.46 L441.08 209.46" class="st12"/>
		</g>
		<g id="shape75-207" v:mID="75" v:groupContext="shape" transform="translate(411.503,-0.98157)">
			<title>Sheet.75</title>
			<path d="M0 209.46 L441.08 209.46" class="st12"/>
		</g>
		<g id="shape76-210" v:mID="76" v:groupContext="shape" transform="translate(419.973,-150.622)">
			<title>Sheet.76</title>
			<desc>id</desc>
			<v:textBlock v:margins="rect(0,0,0,0)"/>
			<v:textRect cx="10.6916" cy="199.893" width="21.39" height="19.1281"/>
			<path d="M21.38 190.33 L0 190.33 L0 209.46 L21.38 209.46 L21.38 190.33" class="st6"/>
			<text x="3.61" y="204.67" class="st7" v:langID="1033"><v:paragraph v:horizAlign="1"/><v:tabList/>id</text>		</g>
		<g id="shape77-214" v:mID="77" v:groupContext="shape" transform="translate(452.074,-150.622)">
			<title>Sheet.77</title>
			<desc>user_id</desc>
			<v:textBlock v:margins="rect(0,0,0,0)"/>
			<v:textRect cx="35.1449" cy="199.893" width="70.29" height="19.1281"/>
			<path d="M70.29 190.33 L0 190.33 L0 209.46 L70.29 209.46 L70.29 190.33" class="st6"/>
			<text x="6.8" y="204.67" class="st7" v:langID="1033"><v:paragraph v:horizAlign="1"/><v:tabList/>user_id</text>		</g>
		<g id="shape78-218" v:mID="78" v:groupContext="shape" transform="translate(527.024,-150.622)">
			<title>Sheet.78</title>
			<desc>video_id</desc>
			<v:textBlock v:margins="rect(0,0,0,0)"/>
			<v:textRect cx="39.7223" cy="199.893" width="79.45" height="19.1281"/>
			<path d="M79.44 190.33 L0 190.33 L0 209.46 L79.44 209.46 L79.44 190.33" class="st6"/>
			<text x="7.4" y="204.67" class="st7" v:langID="1033"><v:paragraph v:horizAlign="1"/><v:tabList/>video_id</text>		</g>
		<g id="shape79-222" v:mID="79" v:groupContext="shape" transform="translate(681.9,-150.622)">
			<title>Sheet.79</title>
			<desc>comment</desc>
			<v:textBlock v:margins="rect(0,0,0,0)"/>
			<v:textRect cx="43.2843" cy="199.893" width="86.57" height="19.1281"/>
			<path d="M86.57 190.33 L0 190.33 L0 209.46 L86.57 209.46 L86.57 190.33" class="st6"/>
			<text x="7.86" y="204.67" class="st7" v:langID="1033"><v:paragraph v:horizAlign="1"/><v:tabList/>comment</text>		</g>
		<g id="shape80-226" v:mID="80" v:groupContext="shape" transform="translate(422.013,-118.815)">
			<title>Sheet.80</title>
			<desc>1</desc>
			<v:textBlock v:margins="rect(0,0,0,0)"/>
			<v:textRect cx="8.62149" cy="198.671" width="17.25" height="21.5726"/>
			<path d="M17.24 187.88 L0 187.88 L0 209.46 L17.24 209.46 L17.24 187.88" class="st6"/>
			<text x="3.62" y="204.06" class="st8" v:langID="1033"><v:paragraph v:horizAlign="1"/><v:tabList/>1</text>		</g>
		<g id="shape81-230" v:mID="81" v:groupContext="shape" transform="translate(478.558,-118.815)">
			<title>Sheet.81</title>
			<desc>a</desc>
			<v:textBlock v:margins="rect(0,0,0,0)"/>
			<v:textRect cx="8.62149" cy="198.671" width="17.25" height="21.5726"/>
			<path d="M17.24 187.88 L0 187.88 L0 209.46 L17.24 209.46 L17.24 187.88" class="st6"/>
			<text x="3.62" y="204.06" class="st13" v:langID="1033"><v:paragraph v:horizAlign="1"/><v:tabList/>a</text>		</g>
		<g id="shape82-234" v:mID="82" v:groupContext="shape" transform="translate(558.419,-118.815)">
			<title>Sheet.82</title>
			<desc>1</desc>
			<v:textBlock v:margins="rect(0,0,0,0)"/>
			<v:textRect cx="8.62149" cy="198.671" width="17.25" height="21.5726"/>
			<path d="M17.24 187.88 L0 187.88 L0 209.46 L17.24 209.46 L17.24 187.88" class="st6"/>
			<text x="3.62" y="204.06" class="st13" v:langID="1033"><v:paragraph v:horizAlign="1"/><v:tabList/>1</text>		</g>
		<g id="shape83-238" v:mID="83" v:groupContext="shape" transform="translate(684.582,-118.815)">
			<title>Sheet.83</title>
			<desc>Loved it!</desc>
			<v:textBlock v:margins="rect(0,0,0,0)"/>
			<v:textRect cx="41.9434" cy="198.671" width="83.89" height="21.5726"/>
			<path d="M83.89 187.88 L0 187.88 L0 209.46 L83.89 209.46 L83.89 187.88" class="st6"/>
			<text x="7.97" y="204.06" class="st9" v:langID="1033"><v:paragraph v:horizAlign="1"/><v:tabList/>Loved it!</text>		</g>
		<g id="shape84-242" v:mID="84" v:groupContext="shape" transform="translate(422.013,-89.6572)">
			<title>Sheet.84</title>
			<desc>2</desc>
			<v:textBlock v:margins="rect(0,0,0,0)"/>
			<v:textRect cx="8.62149" cy="198.671" width="17.25" height="21.5726"/>
			<path d="M17.24 187.88 L0 187.88 L0 209.46 L17.24 209.46 L17.24 187.88" class="st6"/>
			<text x="3.62" y="204.06" class="st8" v:langID="1033"><v:paragraph v:horizAlign="1"/><v:tabList/>2</text>		</g>
		<g id="shape85-246" v:mID="85" v:groupContext="shape" transform="translate(478.558,-89.6572)">
			<title>Sheet.85</title>
			<desc>a</desc>
			<v:textBlock v:margins="rect(0,0,0,0)"/>
			<v:textRect cx="8.62149" cy="198.671" width="17.25" height="21.5726"/>
			<path d="M17.24 187.88 L0 187.88 L0 209.46 L17.24 209.46 L17.24 187.88" class="st6"/>
			<text x="3.62" y="204.06" class="st13" v:langID="1033"><v:paragraph v:horizAlign="1"/><v:tabList/>a</text>		</g>
		<g id="shape86-250" v:mID="86" v:groupContext="shape" transform="translate(558.419,-89.6572)">
			<title>Sheet.86</title>
			<desc>3</desc>
			<v:textBlock v:margins="rect(0,0,0,0)"/>
			<v:textRect cx="8.62149" cy="198.671" width="17.25" height="21.5726"/>
			<path d="M17.24 187.88 L0 187.88 L0 209.46 L17.24 209.46 L17.24 187.88" class="st6"/>
			<text x="3.62" y="204.06" class="st13" v:langID="1033"><v:paragraph v:horizAlign="1"/><v:tabList/>3</text>		</g>
		<g id="shape87-254" v:mID="87" v:groupContext="shape" transform="translate(685.743,-89.6572)">
			<title>Sheet.87</title>
			<desc>Hated it!</desc>
			<v:textBlock v:margins="rect(0,0,0,0)"/>
			<v:textRect cx="41.3631" cy="198.671" width="82.73" height="21.5726"/>
			<path d="M82.73 187.88 L0 187.88 L0 209.46 L82.73 209.46 L82.73 187.88" class="st6"/>
			<text x="7.89" y="204.06" class="st9" v:langID="1033"><v:paragraph v:horizAlign="1"/><v:tabList/>Hated it!</text>		</g>
		<g id="shape88-258" v:mID="88" v:groupContext="shape" transform="translate(422.013,-60.4991)">
			<title>Sheet.88</title>
			<desc>3</desc>
			<v:textBlock v:margins="rect(0,0,0,0)"/>
			<v:textRect cx="8.62149" cy="198.671" width="17.25" height="21.5726"/>
			<path d="M17.24 187.88 L0 187.88 L0 209.46 L17.24 209.46 L17.24 187.88" class="st6"/>
			<text x="3.62" y="204.06" class="st8" v:langID="1033"><v:paragraph v:horizAlign="1"/><v:tabList/>3</text>		</g>
		<g id="shape89-262" v:mID="89" v:groupContext="shape" transform="translate(478.558,-60.4991)">
			<title>Sheet.89</title>
			<desc>a</desc>
			<v:textBlock v:margins="rect(0,0,0,0)"/>
			<v:textRect cx="8.62149" cy="198.671" width="17.25" height="21.5726"/>
			<path d="M17.24 187.88 L0 187.88 L0 209.46 L17.24 209.46 L17.24 187.88" class="st6"/>
			<text x="3.62" y="204.06" class="st13" v:langID="1033"><v:paragraph v:horizAlign="1"/><v:tabList/>a</text>		</g>
		<g id="shape90-266" v:mID="90" v:groupContext="shape" transform="translate(558.419,-60.4991)">
			<title>Sheet.90</title>
			<desc>2</desc>
			<v:textBlock v:margins="rect(0,0,0,0)"/>
			<v:textRect cx="8.62149" cy="198.671" width="17.25" height="21.5726"/>
			<path d="M17.24 187.88 L0 187.88 L0 209.46 L17.24 209.46 L17.24 187.88" class="st6"/>
			<text x="3.62" y="204.06" class="st13" v:langID="1033"><v:paragraph v:horizAlign="1"/><v:tabList/>2</text>		</g>
		<g id="shape91-270" v:mID="91" v:groupContext="shape" transform="translate(649.735,-60.4991)">
			<title>Sheet.91</title>
			<desc>I cried at the end!</desc>
			<v:textBlock v:margins="rect(0,0,0,0)"/>
			<v:textRect cx="82.7343" cy="198.671" width="165.47" height="21.5726"/>
			<path d="M165.47 187.88 L0 187.88 L0 209.46 L165.47 209.46 L165.47 187.88" class="st6"/>
			<text x="13.29" y="204.06" class="st9" v:langID="1033"><v:paragraph v:horizAlign="1"/><v:tabList/>I cried at the end!</text>		</g>
		<g id="shape92-274" v:mID="92" v:groupContext="shape" transform="translate(422.013,-31.3409)">
			<title>Sheet.92</title>
			<desc>4</desc>
			<v:textBlock v:margins="rect(0,0,0,0)"/>
			<v:textRect cx="8.62149" cy="198.671" width="17.25" height="21.5726"/>
			<path d="M17.24 187.88 L0 187.88 L0 209.46 L17.24 209.46 L17.24 187.88" class="st6"/>
			<text x="3.62" y="204.06" class="st8" v:langID="1033"><v:paragraph v:horizAlign="1"/><v:tabList/>4</text>		</g>
		<g id="shape93-278" v:mID="93" v:groupContext="shape" transform="translate(478.558,-31.3409)">
			<title>Sheet.93</title>
			<desc>b</desc>
			<v:textBlock v:margins="rect(0,0,0,0)"/>
			<v:textRect cx="8.62149" cy="198.671" width="17.25" height="21.5726"/>
			<path d="M17.24 187.88 L0 187.88 L0 209.46 L17.24 209.46 L17.24 187.88" class="st6"/>
			<text x="3.62" y="204.06" class="st13" v:langID="1033"><v:paragraph v:horizAlign="1"/><v:tabList/>b</text>		</g>
		<g id="shape94-282" v:mID="94" v:groupContext="shape" transform="translate(558.419,-31.3409)">
			<title>Sheet.94</title>
			<desc>2</desc>
			<v:textBlock v:margins="rect(0,0,0,0)"/>
			<v:textRect cx="8.62149" cy="198.671" width="17.25" height="21.5726"/>
			<path d="M17.24 187.88 L0 187.88 L0 209.46 L17.24 209.46 L17.24 187.88" class="st6"/>
			<text x="3.62" y="204.06" class="st13" v:langID="1033"><v:paragraph v:horizAlign="1"/><v:tabList/>2</text>		</g>
		<g id="shape95-286" v:mID="95" v:groupContext="shape" transform="translate(606.469,-31.3409)">
			<title>Sheet.95</title>
			<desc>Someone stole</desc>
			<v:textBlock v:margins="rect(0,0,0,0)"/>
			<v:textRect cx="71.8186" cy="198.671" width="143.64" height="21.5726"/>
			<path d="M143.64 187.88 L0 187.88 L0 209.46 L143.64 209.46 L143.64 187.88" class="st6"/>
			<text x="11.87" y="204.06" class="st9" v:langID="1033"><v:paragraph v:horizAlign="1"/><v:tabList/>Someone stole</text>		</g>
		<g id="shape96-290" v:mID="96" v:groupContext="shape" transform="translate(730.219,-31.3409)">
			<title>Sheet.96</title>
			<desc>my tissues…</desc>
			<v:textBlock v:margins="rect(0,0,0,0)"/>
			<v:textRect cx="62.0233" cy="198.671" width="124.05" height="21.5726"/>
			<path d="M124.05 187.88 L0 187.88 L0 209.46 L124.05 209.46 L124.05 187.88" class="st6"/>
			<text x="10.59" y="204.06" class="st9" v:langID="1033"><v:paragraph v:horizAlign="1"/><v:tabList/>my tissues…</text>		</g>
		<g id="shape97-294" v:mID="97" v:groupContext="shape" transform="translate(418.052,-2.18265)">
			<title>Sheet.97</title>
			<desc>…</desc>
			<v:textBlock v:margins="rect(0,0,0,0)"/>
			<v:textRect cx="13.2087" cy="198.671" width="26.42" height="21.5726"/>
			<path d="M26.42 187.88 L0 187.88 L0 209.46 L26.42 209.46 L26.42 187.88" class="st6"/>
			<text x="4.22" y="204.06" class="st8" v:langID="1033"><v:paragraph v:horizAlign="1"/><v:tabList/>…</text>		</g>
		<g id="shape98-298" v:mID="98" v:groupContext="shape" transform="translate(471.76,-2.18265)">
			<title>Sheet.98</title>
			<desc>…</desc>
			<v:textBlock v:margins="rect(0,0,0,0)"/>
			<v:textRect cx="13.2087" cy="198.671" width="26.42" height="21.5726"/>
			<path d="M26.42 187.88 L0 187.88 L0 209.46 L26.42 209.46 L26.42 187.88" class="st6"/>
			<text x="4.22" y="204.06" class="st9" v:langID="1033"><v:paragraph v:horizAlign="1"/><v:tabList/>…</text>		</g>
		<g id="shape99-302" v:mID="99" v:groupContext="shape" transform="translate(554.337,-2.18265)">
			<title>Sheet.99</title>
			<desc>…</desc>
			<v:textBlock v:margins="rect(0,0,0,0)"/>
			<v:textRect cx="13.2087" cy="198.671" width="26.42" height="21.5726"/>
			<path d="M26.42 187.88 L0 187.88 L0 209.46 L26.42 209.46 L26.42 187.88" class="st6"/>
			<text x="4.22" y="204.06" class="st9" v:langID="1033"><v:paragraph v:horizAlign="1"/><v:tabList/>…</text>		</g>
		<g id="shape100-306" v:mID="100" v:groupContext="shape" transform="translate(714.469,-2.18265)">
			<title>Sheet.100</title>
			<desc>…</desc>
			<v:textBlock v:margins="rect(0,0,0,0)"/>
			<v:textRect cx="13.2087" cy="198.671" width="26.42" height="21.5726"/>
			<path d="M26.42 187.88 L0 187.88 L0 209.46 L26.42 209.46 L26.42 187.88" class="st6"/>
			<text x="4.22" y="204.06" class="st9" v:langID="1033"><v:paragraph v:horizAlign="1"/><v:tabList/>…</text>		</g>
		<g id="shape102-310" v:mID="102" v:groupContext="shape" transform="translate(443.122,-187.885)">
			<title>Sheet.102</title>
			<desc>comments</desc>
			<v:textBlock v:margins="rect(0,0,0,0)"/>
			<v:textRect cx="48.8167" cy="198.671" width="97.64" height="21.5726"/>
			<path d="M97.63 187.88 L0 187.88 L0 209.46 L97.63 209.46 L97.63 187.88" class="st6"/>
			<text x="3.87" y="204.06" class="st10" v:langID="1033"><v:paragraph v:horizAlign="1"/><v:tabList/>comments</text>		</g>
		<g id="shape184-314" v:mID="184" v:groupContext="shape" v:layerMember="0" transform="translate(324.094,-115.723)">
			<title>Dynamic connector.11</title>
			<v:userDefs>
				<v:ud v:nameU="msvThemeColors" v:val="VT0(36):26"/>
				<v:ud v:nameU="msvThemeEffects" v:val="VT0(16):26"/>
			</v:userDefs>
			<path d="M13.64 206.55 L14 206.47 L70.38 194.44" class="st14"/>
		</g>
		<g id="shape185-325" v:mID="185" v:groupContext="shape" v:layerMember="0" transform="translate(325.219,-57.2229)">
			<title>Dynamic connector.185</title>
			<v:userDefs>
				<v:ud v:nameU="msvThemeColors" v:val="VT0(36):26"/>
				<v:ud v:nameU="msvThemeEffects" v:val="VT0(16):26"/>
			</v:userDefs>
			<path d="M12.11 202.54 L12.42 202.36 L66.33 171.56" class="st14"/>
		</g>
		<g id="shape186-333" v:mID="186" v:groupContext="shape" v:layerMember="0" transform="translate(324.094,-88.1604)">
			<title>Dynamic connector.186</title>
			<v:userDefs>
				<v:ud v:nameU="msvThemeColors" v:val="VT0(36):26"/>
				<v:ud v:nameU="msvThemeEffects" v:val="VT0(16):26"/>
			</v:userDefs>
			<path d="M13.73 213.59 L14.09 213.65 L36.93 217.72 A3 3 0 0 1 42.84 218.77 L68.04 223.26" class="st14"/>
		</g>
		<g id="shape187-341" v:mID="187" v:groupContext="shape" v:layerMember="0" transform="translate(325.219,-79.7229)">
			<title>Dynamic connector.187</title>
			<v:userDefs>
				<v:ud v:nameU="msvThemeColors" v:val="VT0(36):26"/>
				<v:ud v:nameU="msvThemeEffects" v:val="VT0(16):26"/>
			</v:userDefs>
			<path d="M12.8 214.99 L13.13 215.14 L19.66 217.96 A3 3 0 0 1 25.17 220.34 L70.12 239.78" class="st14"/>
		</g>
		<g id="shape188-349" v:mID="188" v:groupContext="shape" v:layerMember="0" transform="translate(322.969,-31.9104)">
			<title>Dynamic connector.188</title>
			<v:userDefs>
				<v:ud v:nameU="msvThemeColors" v:val="VT0(36):26"/>
				<v:ud v:nameU="msvThemeEffects" v:val="VT0(16):26"/>
			</v:userDefs>
			<path d="M13.8 214.29 L14.16 214.35 L70.22 222.57" class="st14"/>
		</g>
	</g>
</svg>
