<?xml version="1.0" encoding="UTF-8" standalone="no"?>
<svg width="1300px" height="903px" viewBox="0 0 1300 903" version="1.1" xmlns="http://www.w3.org/2000/svg" xmlns:xlink="http://www.w3.org/1999/xlink">
    <!-- Generator: Sketch 3.6.1 (26313) - http://www.bohemiancoding.com/sketch -->
    <title>Fill 3</title>
    <desc>Created with Sketch.</desc>
    <defs></defs>
    <g id="Page-1" stroke="none" stroke-width="1" fill="none" fill-rule="evenodd">
        <path d="M1283.71032,607.31405 C1292.70718,607.31405 1300,600.021939 1300,591.025077 C1300,582.027507 1292.70718,574.735396 1283.71032,574.735396 C1283.15435,574.735396 1282.60687,574.763018 1282.06577,574.817553 L1271.38682,511.226888 C1275.19294,510.121315 1277.97706,506.6162 1277.97706,502.454541 C1277.97706,497.406865 1273.88552,493.314613 1268.83713,493.314613 C1267.82434,493.314613 1266.85404,493.485301 1265.94394,493.789139 L1253.90374,468.137141 C1261.99405,463.908198 1267.51979,455.441814 1267.51979,445.680045 C1267.51979,431.690042 1256.17863,420.349591 1242.18934,420.349591 C1234.96734,420.349591 1228.45643,423.376639 1223.84149,428.226006 L1185.84404,395.000723 C1187.94753,392.256974 1189.19972,388.826226 1189.19972,385.101555 C1189.19972,376.105402 1181.9069,368.811874 1172.91003,368.811874 C1166.76528,368.811874 1161.41731,372.215709 1158.64311,377.239305 L1118.93311,358.6202 C1120.19521,355.61015 1120.89425,352.304761 1120.89425,348.836476 C1120.89425,334.846473 1109.55238,323.506022 1095.56309,323.506022 C1082.05328,323.506022 1071.01525,334.083691 1070.27442,347.409358 L1021.11429,346.700403 C1020.70067,338.441534 1014.13593,331.806677 1005.90752,331.2762 L1005.90752,275.008101 C1014.40861,274.460626 1021.13483,267.39657 1021.13483,258.756665 C1021.13483,249.760512 1013.84201,242.466984 1004.84515,242.466984 C1004.26863,242.466984 1003.69849,242.498147 1003.13686,242.556931 L993.184568,184.704484 C996.972981,183.588995 999.739394,180.090963 999.739394,175.941344 C999.739394,170.893667 995.647851,166.801416 990.599467,166.801416 C989.184389,166.801416 987.850052,167.132168 986.655239,167.705848 L969.092838,139.898654 C973.159593,136.936765 975.804895,132.140516 975.804895,126.724552 C975.804895,117.72769 968.512784,110.434871 959.515214,110.434871 C955.785586,110.434871 952.350588,111.691301 949.604714,113.799752 L934.175553,96.187066 C939.015005,91.573545 942.035678,85.0697129 942.035678,77.855509 C942.035678,63.8662143 930.693811,52.5250552 916.704516,52.5250552 C907.583712,52.5250552 899.591144,57.3482172 895.130605,64.5808355 L866.853843,48.7777203 C867.302164,47.6990601 867.552175,46.5169959 867.552175,45.2761471 C867.552175,40.2284708 863.459924,36.1362197 858.411539,36.1362197 C854.434732,36.1362197 851.06206,38.6802429 849.804213,42.2257273 L797.492382,30.3080551 C797.764349,28.8200282 797.913789,27.2895064 797.913789,25.7228641 C797.913789,11.7335694 786.57263,0.392410261 772.583335,0.392410261 C758.594041,0.392410261 747.252173,11.7335694 747.252173,25.7228641 C747.252173,26.5458471 747.295376,27.3582064 747.371159,28.1613585 L700.869786,34.6368608 C699.847785,30.7060899 696.284595,27.7994443 692.033696,27.7994443 C686.985311,27.7994443 682.893769,31.8916954 682.893769,36.9393718 C682.893769,37.7042785 682.998589,38.4422719 683.174943,39.1519354 L641.694333,54.8261496 C639.131187,49.1941695 633.45742,45.2761471 626.865765,45.2761471 C617.868904,45.2761471 610.576084,52.5689665 610.576084,61.5658281 C610.576084,64.9788703 611.627123,68.1454427 613.421112,70.7631235 L573.852769,101.804881 C572.196888,100.136959 569.903584,99.1029189 567.367352,99.1029189 C562.318967,99.1029189 558.227424,103.19517 558.227424,108.242846 C558.227424,111.11408 559.553971,113.673684 561.623468,115.348688 L537.234983,153.977188 C533.520228,151.839698 529.216919,150.611598 524.623229,150.611598 C510.633934,150.611598 499.292775,161.951341 499.292775,175.941344 C499.292775,186.978665 506.354706,196.362229 516.205005,199.833348 L500.929534,249.771135 C500.39764,249.674814 499.852998,249.616737 499.292775,249.616737 C495.722502,249.616737 492.637378,251.669237 491.13377,254.654498 L420.562622,228.95009 C420.984738,227.501725 421.215626,225.970495 421.215626,224.385438 C421.215626,215.388577 413.922807,208.095757 404.925945,208.095757 C395.929084,208.095757 388.636264,215.388577 388.636264,224.385438 C388.636264,224.992406 388.672385,225.590875 388.736835,226.180136 L337.891784,235.206036 C335.390963,223.846462 325.270822,215.344665 313.159798,215.344665 C299.170504,215.344665 287.829345,226.685824 287.829345,240.675119 C287.829345,248.911323 291.76224,256.226098 297.849623,260.852368 L273.862714,295.375868 C272.57937,294.688868 271.113299,294.297207 269.555156,294.297207 C264.506771,294.297207 260.415228,298.38875 260.415228,303.437135 C260.415228,307.719905 263.364369,311.304343 267.340467,312.295888 L262.606544,348.936338 C261.884132,348.874721 261.154638,348.835767 260.415936,348.835767 C246.425934,348.835767 235.085483,360.176927 235.085483,374.166929 C235.085483,388.156224 246.425934,399.497383 260.415936,399.497383 C261.937959,399.497383 263.426694,399.355026 264.87506,399.097932 L273.755769,439.021107 C267.309304,440.901503 262.518014,446.655301 262.070401,453.595414 L213.920938,453.595414 C213.372754,445.094325 206.308699,438.368103 197.669502,438.368103 C188.671932,438.368103 181.379821,445.660922 181.379821,454.657784 C181.379821,455.533177 181.450646,456.391573 181.583796,457.229429 L150.265114,464.357935 C147.342887,453.596122 137.509586,445.680045 125.82351,445.680045 C111.833507,445.680045 100.493056,457.020496 100.493056,471.010499 C100.493056,476.446295 102.210555,481.477681 105.124992,485.60322 L76.2745504,507.811721 C74.6144195,506.109095 72.2984518,505.048141 69.7324729,505.048141 C64.6840883,505.048141 60.5925454,509.140393 60.5925454,514.188069 C60.5925454,516.928985 61.8050643,519.382352 63.7159147,521.057356 L43.7001463,550.147894 C41.2602354,548.69103 38.408833,547.851049 35.360538,547.851049 C26.3636764,547.851049 19.070857,555.143868 19.070857,564.140729 C19.070857,572.227494 24.9641803,578.934593 32.6897385,580.209437 L27.5946096,631.259173 C27.1122934,631.231551 26.6278525,631.214553 26.1384538,631.214553 C12.1491591,631.214553 0.808,642.554296 0.808,656.544299 C0.808,670.534301 12.1491591,681.874752 26.1384538,681.874752 C27.6965972,681.874752 29.2179118,681.726729 30.698148,681.457595 L37.7699942,712.644543 C26.9982657,715.559688 19.070857,725.397239 19.070857,737.091813 C19.070857,751.081816 30.4127244,762.422267 44.4020191,762.422267 C50.2379744,762.422267 55.6086113,760.443425 59.8913809,757.127412 L74.7567771,774.772678 C71.6723614,777.736692 69.7494708,781.899767 69.7494708,786.516121 C69.7494708,795.512983 77.0422902,802.805802 86.0391518,802.805802 C92.2299388,802.805802 97.6133242,799.353098 100.369113,794.267885 L163.548995,823.291847 C163.26003,824.182113 163.099258,825.128331 163.099258,826.114919 C163.099258,831.162595 167.190801,835.254847 172.239185,835.254847 C176.719556,835.254847 180.439269,832.030198 181.221882,827.776467 L227.837283,830.871506 L227.837283,830.887796 C227.837283,839.884657 235.130102,847.177477 244.126964,847.177477 C253.123825,847.177477 260.416645,839.884657 260.416645,830.887796 C260.416645,829.218457 260.164509,827.607196 259.697774,826.091547 L287.322948,815.564164 C291.202725,824.576607 300.16205,830.887796 310.596653,830.887796 C318.009874,830.887796 324.678019,827.702809 329.310663,822.626803 L352.330107,841.919451 C350.350556,844.615747 349.179824,847.942383 349.179824,851.544528 C349.179824,860.542097 356.472644,867.834208 365.469505,867.834208 C372.581721,867.834208 378.624485,863.275931 380.846256,856.922247 L432.280569,871.220337 C431.850663,873.06957 431.615525,874.994586 431.615525,876.974844 C431.615525,890.964847 442.958101,902.30459 456.947395,902.30459 C470.93669,902.30459 482.277849,890.964847 482.277849,876.974844 C482.277849,876.408955 482.253061,875.84944 482.216232,875.292758 L524.871115,870.64949 C526.204744,878.304224 532.877139,884.123889 540.91291,884.123889 C549.909771,884.123889 557.202591,876.831778 557.202591,867.834208 C557.202591,865.444583 556.684154,863.177484 555.759892,861.132775 L594.589533,840.457629 C596.240457,842.835922 598.985622,844.395482 602.099784,844.395482 C607.148169,844.395482 611.239712,840.302523 611.239712,835.254847 C611.239712,833.545847 610.761645,831.951583 609.945036,830.583249 L646.435338,802.718688 C651.081438,808.295425 658.077502,811.846575 665.903631,811.846575 C673.668143,811.846575 680.612505,808.349251 685.260022,802.848297 L721.02437,830.542171 C720.19218,831.919712 719.704906,833.528849 719.704906,835.254847 C719.704906,840.302523 723.796449,844.395482 728.844834,844.395482 C731.752188,844.395482 734.336581,843.033523 736.010877,840.91799 L773.443855,863.981345 C772.897089,865.153494 772.583335,866.45596 772.583335,867.834208 C772.583335,872.881885 776.674878,876.974844 781.723263,876.974844 C785.683072,876.974844 789.04512,874.45136 790.314299,870.929248 L833.201487,880.933945 C833.05913,881.799423 832.981931,882.686856 832.981931,883.591996 C832.981931,892.588857 840.27475,899.881677 849.271612,899.881677 C858.268473,899.881677 865.561293,892.588857 865.561293,883.591996 C865.561293,882.38231 865.426017,881.204495 865.175298,880.070592 L904.321526,868.677731 C907.698448,878.697301 917.165585,885.915754 928.324017,885.915754 C942.313311,885.915754 953.655179,874.575303 953.655179,860.5853 C953.655179,855.91087 952.383875,851.536029 950.176269,847.777362 L986.648157,824.291891 C989.615712,828.293487 994.374423,830.887796 999.739394,830.887796 C1008.10804,830.887796 1014.99787,824.578023 1015.92071,816.456555 L1039.01452,817.591167 C1039.33323,822.349878 1043.28384,826.114919 1048.124,826.114919 C1053.17238,826.114919 1057.26392,822.022668 1057.26392,816.974992 C1057.26392,816.776682 1057.24693,816.582623 1057.23418,816.387855 L1094.71107,809.529899 C1096.48452,816.605995 1102.88424,821.847731 1110.51135,821.847731 C1119.50821,821.847731 1126.80103,814.554912 1126.80103,805.55805 C1126.80103,803.400021 1126.3775,801.341856 1125.61542,799.456502 L1158.73022,783.493323 C1161.52851,788.433346 1166.82761,791.768481 1172.91003,791.768481 C1181.9069,791.768481 1189.19972,784.475662 1189.19972,775.4788 C1189.19972,772.182619 1188.21738,769.118034 1186.53458,766.553471 L1217.29941,743.398044 C1218.9645,745.143165 1221.30597,746.23599 1223.90878,746.23599 C1228.95716,746.23599 1233.0487,742.143739 1233.0487,737.096062 C1233.0487,734.263074 1231.75969,731.7318 1229.73694,730.055379 L1246.82411,703.689468 C1250.59765,705.920446 1254.99657,707.205914 1259.6965,707.205914 C1273.68579,707.205914 1285.02766,695.865464 1285.02766,681.875461 C1285.02766,670.49464 1277.52237,660.868855 1267.19187,657.673953 L1280.58341,607.011628 C1281.59549,607.208521 1282.64016,607.31405 1283.71032,607.31405 L1283.71032,607.31405 Z M1279.97007,575.171676 C1276.25602,576.044237 1273.03279,578.185976 1270.7841,581.116702 L1228.93379,553.173525 L1263.93535,510.160268 C1265.35327,511.063991 1267.0311,511.594468 1268.83713,511.594468 C1268.98941,511.594468 1269.13885,511.578887 1269.2897,511.571804 L1279.97007,575.171676 L1279.97007,575.171676 Z M1264.02176,494.695695 C1261.42887,496.309082 1259.6965,499.176066 1259.6965,502.454541 C1259.6965,504.931281 1260.68592,507.175007 1262.28656,508.821681 L1227.15892,551.988628 L1170.72722,514.309887 C1172.11326,511.913888 1172.91003,509.134727 1172.91003,506.16788 C1172.91003,503.045927 1172.03039,500.130074 1170.50837,497.651918 L1222.14028,461.153117 C1226.77293,467.146303 1234.02821,471.009791 1242.18934,471.009791 C1245.66117,471.009791 1248.96939,470.310043 1251.98298,469.045822 L1264.02176,494.695695 L1264.02176,494.695695 Z M1236.61898,671.433775 L1172.09555,645.441819 C1172.62178,643.84118 1172.91003,642.131472 1172.91003,640.353772 C1172.91003,635.638972 1170.90428,631.393031 1167.70229,628.418394 L1202.22084,585.999357 L1245.97634,660.587681 C1241.90462,663.217402 1238.63819,666.981026 1236.61898,671.433775 L1236.61898,671.433775 Z M1110.51135,789.268369 C1106.70594,789.268369 1103.2072,790.576501 1100.43441,792.763568 L1038.84384,724.271126 C1043.54447,719.672478 1046.46599,713.262135 1046.46599,706.166916 C1046.46599,701.838819 1045.37883,697.766398 1043.46586,694.203916 L1142.33076,648.178485 C1144.2494,651.6751 1147.41456,654.387686 1151.22705,655.725565 L1113.85782,789.613994 C1112.77774,789.388771 1111.65871,789.268369 1110.51135,789.268369 L1110.51135,789.268369 Z M1039.11793,815.469259 L1016.0227,814.333939 C1015.90442,806.903011 1010.81354,800.682478 1003.92938,798.8552 L1017.27701,731.204864 C1018.53485,731.397507 1019.82386,731.496662 1021.13483,731.496662 C1022.83179,731.496662 1024.48909,731.326682 1026.09185,731.00868 L1044.94538,808.41441 C1041.92188,809.53769 1039.66044,812.208489 1039.11793,815.469259 L1039.11793,815.469259 Z M999.739394,798.308434 C997.849083,798.308434 996.036679,798.634227 994.348218,799.225614 L947.757606,689.805702 C949.436151,688.844611 950.778279,687.368624 951.572224,685.590216 L996.655687,699.647503 C996.103254,701.727624 995.804374,703.911858 995.804374,706.166916 C995.804374,718.108669 1004.07245,728.114782 1015.19405,730.789123 L1001.84289,798.448667 C1001.15376,798.359428 1000.4526,798.308434 999.739394,798.308434 L999.739394,798.308434 Z M849.271612,867.302315 C847.812623,867.302315 846.398962,867.497791 845.053293,867.857581 L813.284874,774.242201 C819.188821,771.795208 823.344106,765.978375 823.344106,759.189119 C823.344106,756.642263 822.759094,754.232807 821.716554,752.08611 L880.319035,718.812666 L898.80924,774.720976 L855.171309,868.408597 C853.341199,867.697517 851.353858,867.302315 849.271612,867.302315 L849.271612,867.302315 Z M665.903631,761.185668 C657.204942,761.185668 649.531794,765.572549 644.969975,772.252735 L552.680434,714.883312 C553.904993,712.596382 554.601199,709.982951 554.601199,707.206623 C554.601199,706.795839 554.581369,706.390722 554.550914,705.98773 L722.342418,682.343612 C723.445867,688.37646 726.679723,693.662107 731.243666,697.388195 L680.210929,765.615044 C676.139217,762.822426 671.213359,761.185668 665.903631,761.185668 L665.903631,761.185668 Z M456.947395,851.64439 C455.54365,851.64439 454.169651,851.763376 452.828231,851.982932 L431.231655,748.277158 C438.113691,746.371973 443.167742,740.069283 443.167742,732.580988 C443.167742,731.704886 443.096209,730.845783 442.963058,730.007218 L522.697505,711.849182 C523.910732,715.937183 526.683519,719.350934 530.328158,721.404142 L466.928012,853.689808 C463.864844,852.375301 460.491463,851.64439 456.947395,851.64439 L456.947395,851.64439 Z M50.8336101,569.23515 L142.556554,592.92672 C142.370285,593.911184 142.269006,594.925393 142.269006,595.963684 C142.269006,598.00556 142.648626,599.958197 143.334917,601.759977 L81.2322794,630.171305 L45.3361969,577.014535 C47.8717211,575.047733 49.8087767,572.349312 50.8336101,569.23515 L50.8336101,569.23515 Z M197.669502,470.947465 C206.308699,470.947465 213.372754,464.221243 213.920938,455.720155 L262.070401,455.720155 C262.339535,459.893146 264.178144,463.636231 267.00405,466.36794 L168.258129,582.875987 C166.949289,581.904272 165.488175,581.127325 163.9187,580.580559 L194.356323,470.609631 C195.426484,470.830604 196.534182,470.947465 197.669502,470.947465 L197.669502,470.947465 Z M404.925945,240.675119 C405.930948,240.675119 406.913286,240.579506 407.868003,240.405277 L426.30084,313.535321 L361.416208,363.41999 C359.884978,361.677702 357.988292,360.266874 355.845137,359.304366 L400.251515,239.990953 C401.73246,240.434315 403.300518,240.675119 404.925945,240.675119 L404.925945,240.675119 Z M499.292775,267.897301 C499.538537,267.897301 499.780757,267.879595 500.022269,267.859764 L523.707465,386.77231 L479.255759,408.345513 C476.013405,402.331788 470.408338,397.784134 463.686366,395.932068 L497.974019,267.791064 C498.40605,267.854098 498.843746,267.897301 499.292775,267.897301 L499.292775,267.897301 Z M582.533753,255.27988 L634.295276,324.606638 C633.803753,325.071956 633.358974,325.585435 632.98077,326.1492 L507.84769,261.952275 C508.156486,261.125751 508.348421,260.243984 508.405081,259.323971 L582.533753,255.27988 L582.533753,255.27988 Z M549.927478,177.003714 L657.590936,177.004422 C658.03784,187.849809 665.30233,196.932368 675.214246,200.083359 L661.931782,248.821376 L583.555753,253.096355 L540.61403,195.583158 C546.056908,191.147407 549.617974,184.496259 549.927478,177.003714 L549.927478,177.003714 Z M692.499723,46.0566353 C693.461522,46.0077663 694.382951,45.8122901 695.243471,45.4893295 L724.433163,102.151214 L693.31704,152.856033 C690.923873,151.773831 688.33523,151.049295 685.615562,150.758914 L692.499723,46.0566353 L692.499723,46.0566353 Z M772.583335,51.0533179 C775.582761,51.0533179 778.458952,50.5285069 781.129043,49.5716652 L816.238264,135.949469 C810.802468,138.589105 807.054425,144.162301 807.054425,150.61089 C807.054425,151.232731 807.091962,151.846073 807.159954,152.450207 L757.362399,161.431487 L726.870949,102.243286 L760.252047,47.847792 C763.901643,49.8868351 768.105798,51.0533179 772.583335,51.0533179 L772.583335,51.0533179 Z M1003.78278,275.008101 L1003.78278,331.2762 C998.187625,331.637406 993.363755,334.820976 990.71916,339.420332 L912.8729,301.2614 C914.243358,298.143697 915.01039,294.7002 915.01039,291.0761 C915.01039,289.073886 914.77171,287.12904 914.331889,285.260684 L989.481145,264.171921 C991.600928,270.187063 997.150043,274.581028 1003.78278,275.008101 L1003.78278,275.008101 Z M1004.84515,363.818024 C1013.40502,363.818024 1020.41808,357.215038 1021.07888,348.824435 L1070.25034,349.534099 C1070.42103,355.848121 1072.89635,361.586338 1076.87387,365.932142 L988.23463,454.114559 L967.601979,442.760651 L999.753559,363.001416 C1001.35632,363.528351 1003.06674,363.818024 1004.84515,363.818024 L1004.84515,363.818024 Z M1095.56309,374.166929 C1098.42086,374.166929 1101.16532,373.686738 1103.72918,372.813469 L1125.24218,428.250087 L1063.16362,486.339089 C1062.41005,485.700958 1061.55023,485.186063 1060.61535,484.817066 L1090.10604,373.571294 C1091.86462,373.957288 1093.68907,374.166929 1095.56309,374.166929 L1095.56309,374.166929 Z M1161.77002,396.980982 C1163.93725,399.015067 1166.66046,400.46414 1169.68822,401.071816 L1157.73372,489.920694 C1157.36614,489.895197 1156.99502,489.878199 1156.62035,489.878199 C1154.9156,489.878199 1153.27318,490.140959 1151.72849,490.626816 L1127.743,428.820934 L1161.77002,396.980982 L1161.77002,396.980982 Z M807.054425,742.899438 C803.826235,742.899438 800.821143,743.842115 798.290576,745.461168 L763.086451,697.525595 C768.486126,693.194664 772.071981,686.700039 772.528092,679.353393 L867.931795,681.356316 L879.63841,716.755917 L820.664099,750.23971 C817.750371,745.819541 812.745189,742.899438 807.054425,742.899438 L807.054425,742.899438 Z M550.598187,696.518467 L619.104795,628.601122 L723.306342,669.502386 C722.413243,672.091028 721.921719,674.868065 721.921719,677.760546 C721.921719,678.597694 721.964214,679.424218 722.043538,680.23941 L554.261241,703.88282 C553.684728,701.101534 552.395718,698.583007 550.598187,696.518467 L550.598187,696.518467 Z M244.126964,627.099638 C235.674744,627.099638 228.194239,631.243591 223.59205,637.606482 L172.709461,604.028492 C173.963767,601.833635 174.722299,599.320066 174.832078,596.637935 L253.018297,594.770996 L247.391274,627.316362 C246.321113,627.178962 245.233954,627.099638 244.126964,627.099638 L244.126964,627.099638 Z M349.247816,592.474151 C349.401506,594.215022 349.825745,595.877986 350.483707,597.417715 L266.227103,640.0556 C262.729779,633.823735 256.677101,629.222962 249.485561,627.673318 L255.183408,594.720002 L349.247816,592.474151 L349.247816,592.474151 Z M294.611518,454.657784 C294.611518,453.972201 294.564065,453.298658 294.481909,452.635739 L353.162297,441.364696 L363.193199,574.896877 C361.192402,575.176634 359.309173,575.817598 357.610796,576.755317 L287.969578,467.781601 C291.997378,464.815463 294.611518,460.043294 294.611518,454.657784 L294.611518,454.657784 Z M363.701012,381.546155 L433.263616,411.359104 C432.201954,414.153847 431.615525,417.182311 431.615525,420.349591 C431.615525,421.617353 431.711847,422.862452 431.891741,424.080637 L355.102186,438.829172 L351.45613,390.294422 C356.816852,389.545097 361.336884,386.188714 363.701012,381.546155 L363.701012,381.546155 Z M506.885183,263.846128 L632.017554,328.04376 C631.645724,329.039556 631.432542,330.11255 631.432542,331.238663 C631.432542,332.292534 631.620227,333.301078 631.948146,334.243046 L579.427381,359.732147 L505.713742,265.259081 C506.149314,264.828466 506.542391,264.356066 506.885183,263.846128 L506.885183,263.846128 Z M708.225639,175.942052 C708.225639,174.772736 708.139941,173.623251 707.986251,172.495722 L756.193791,163.801282 L792.812286,234.883075 C790.52394,236.425637 788.982086,238.978159 788.802191,241.900386 L712.405713,246.067712 L693.368742,199.003282 C702.129757,195.017977 708.225639,186.194635 708.225639,175.942052 L708.225639,175.942052 Z M817.982676,165.993306 L799.309036,233.444626 C798.853633,233.374509 798.389731,233.327057 797.913789,233.327057 C796.783427,233.327057 795.704058,233.542364 794.704722,233.917735 L758.38015,163.406788 L807.534616,154.541661 C808.860455,159.893883 812.833012,164.198609 817.982676,165.993306 L817.982676,165.993306 Z M934.181219,680.621863 L869.477898,679.263446 L856.324335,639.491836 C857.742954,638.829625 858.960431,637.81754 859.869111,636.561818 L934.781104,678.377429 C934.48789,679.084259 934.288873,679.838542 934.181219,680.621863 L934.181219,680.621863 Z M772.569878,677.230069 C772.506136,674.151319 771.894211,671.208553 770.826174,668.493134 L844.602847,635.854279 C846.19357,638.544909 849.115797,640.353772 852.46793,640.353772 C853.09827,640.353772 853.715153,640.29003 854.310081,640.168212 L867.224257,679.216701 L772.569878,677.230069 L772.569878,677.230069 Z M456.946687,445.680045 C458.816459,445.680045 460.63807,445.471112 462.393107,445.086534 L491.792439,556.230319 C481.464782,559.427346 473.961613,569.052422 473.961613,580.43041 C473.961613,580.74558 473.974361,581.056501 473.984985,581.368838 L381.589207,588.682904 C380.891583,583.839203 378.063553,579.686043 374.084622,577.200804 L445.926364,443.162935 C449.257958,444.774906 452.996794,445.680045 456.946687,445.680045 L456.946687,445.680045 Z M444.055884,442.153683 L372.211308,576.19651 C370.156684,575.260916 367.874712,574.735396 365.469505,574.735396 C365.416387,574.735396 365.364685,574.738229 365.311566,574.738938 L355.262249,440.961704 L432.294734,426.166424 C433.891123,432.957804 438.217095,438.693897 444.055884,442.153683 L444.055884,442.153683 Z M381.75352,590.801271 L474.152131,583.486496 C475.1628,591.89268 480.286967,599.028977 487.457259,602.825889 L462.607705,655.037149 L379.55158,599.210288 C380.952493,596.804373 381.759186,594.00963 381.759186,591.025077 C381.759186,590.949295 381.754937,590.875637 381.75352,590.801271 L381.75352,590.801271 Z M499.292775,555.100665 C497.422295,555.100665 495.602808,555.308889 493.847772,555.693468 L464.449148,444.549683 C471.264608,442.439107 476.845595,437.527414 479.855644,431.16169 L522.92202,449.321143 C522.341965,450.994022 522.022546,452.788012 522.022546,454.657784 C522.022546,461.598605 526.365516,467.522383 532.481229,469.868097 L505.777485,555.942062 C503.707279,555.395296 501.535085,555.100665 499.292775,555.100665 L499.292775,555.100665 Z M639.605004,340.32618 L640.393283,415.99883 C635.407224,416.255924 630.80716,417.960674 626.991833,420.691675 L598.301456,383.921615 L635.6027,338.902603 C636.77839,339.66751 638.138933,340.17249 639.605004,340.32618 L639.605004,340.32618 Z M727.766174,328.659227 C728.164208,332.408687 729.834963,335.777109 732.339324,338.327507 L688.893329,386.92954 L647.229283,337.488942 C648.619572,336.009414 649.519045,334.070942 649.678401,331.921413 L727.766174,328.659227 L727.766174,328.659227 Z M788.915511,244.022294 C789.296548,246.236275 790.464447,248.180413 792.131661,249.544496 L751.81895,312.647887 C749.488109,311.362419 746.811643,310.629383 743.962366,310.629383 C742.176167,310.629383 740.459376,310.920473 738.851655,311.451658 L713.24711,248.149958 L788.915511,244.022294 L788.915511,244.022294 Z M861.541283,499.328339 C861.291271,497.17031 860.290518,495.245295 858.806033,493.813928 L907.707655,429.542637 C910.286382,431.25447 913.37788,432.253807 916.704516,432.253807 C918.034604,432.253807 919.325739,432.090202 920.562338,431.789905 L934.626707,476.559614 C925.187191,479.96699 918.35544,488.820786 917.921993,499.328339 L861.541283,499.328339 L861.541283,499.328339 Z M843.734537,633.915807 L769.967779,666.549704 C767.949983,662.468076 764.864151,659.011831 761.076446,656.539341 L802.149814,587.298282 L845.01788,625.930322 C843.956926,627.423307 843.328003,629.243502 843.328003,631.213845 C843.328003,632.154397 843.470361,633.062369 843.734537,633.915807 L843.734537,633.915807 Z M801.644834,583.984394 L729.596992,519.056559 L749.417992,499.406954 C753.938025,503.600485 759.987871,506.16788 766.639018,506.16788 C778.323677,506.16788 788.155562,498.253928 791.079914,487.494948 L843.38183,499.410495 C843.347834,499.732748 843.328003,500.05925 843.328003,500.390709 C843.328003,503.352598 844.74308,505.977361 846.927314,507.648116 L801.644834,583.984394 L801.644834,583.984394 Z M731.655866,657.809228 L666.640917,581.47295 L691.928167,556.402423 L735.968382,655.083185 C734.435735,655.847384 732.99162,656.763147 731.655866,657.809228 L731.655866,657.809228 Z M653.004329,463.97194 C655.543394,462.706303 657.839531,461.028466 659.805625,459.02271 L726.505494,519.130216 L692.615875,552.729454 L653.004329,463.97194 L653.004329,463.97194 Z M661.231326,457.447569 C664.865341,453.06352 667.050992,447.434373 667.050992,441.29458 C667.050992,434.17174 664.107517,427.740857 659.374302,423.138668 L688.845168,390.170479 L749.519272,462.170868 C744.473012,466.801387 741.308564,473.448993 741.308564,480.837426 C741.308564,487.410666 743.812926,493.398895 747.919342,497.900513 L728.016185,517.632274 L661.231326,457.447569 L661.231326,457.447569 Z M733.923673,339.743292 C736.690086,341.911945 740.173953,343.208745 743.962366,343.208745 C744.406437,343.208745 744.844842,343.185373 745.279705,343.150669 L761.899429,455.956001 C757.902791,456.713117 754.240446,458.407244 751.146115,460.803952 L690.275827,388.570549 L733.923673,339.743292 L733.923673,339.743292 Z M906.019194,428.253628 L857.114031,492.529876 C855.752072,491.722474 854.166307,491.250073 852.46793,491.250073 C852.184632,491.250073 851.90629,491.26778 851.629366,491.292568 L842.707579,449.110085 L902.2067,423.388679 C903.160001,425.246411 904.458218,426.89521 906.019194,428.253628 L906.019194,428.253628 Z M849.550661,491.734514 C846.896859,492.628322 844.794782,494.704902 843.859896,497.340289 L791.548065,485.422617 C791.82074,483.93459 791.97018,482.404068 791.97018,480.837426 C791.97018,477.641107 791.37242,474.58573 790.291635,471.76974 L840.717404,449.970605 L849.550661,491.734514 L849.550661,491.734514 Z M943.225533,475.060255 C940.952061,475.060255 938.750829,475.364093 936.654418,475.925733 L922.589341,431.153191 C925.837361,429.893928 928.578277,427.625413 930.431051,424.730807 L964.92693,443.713243 L951.70325,476.518536 C949.052281,475.577276 946.200171,475.060255 943.225533,475.060255 L943.225533,475.060255 Z M901.361053,421.439583 L842.259258,446.989594 L826.066607,370.437301 L901.769004,409.459586 C900.899985,411.452593 900.414836,413.650991 900.414836,415.964126 C900.414836,417.8856 900.750545,419.728459 901.361053,421.439583 L901.361053,421.439583 Z M840.269084,447.850114 L789.452362,469.817811 C785.353737,461.348593 776.679128,455.506972 766.639018,455.506972 C765.748043,455.506972 764.868401,455.553717 764.001506,455.643664 L747.383199,342.845414 C751.850113,341.890697 755.639234,339.10587 757.925455,335.311083 L823.629529,369.180871 L840.269084,447.850114 L840.269084,447.850114 Z M758.898587,333.422188 C759.766898,331.429889 760.252047,329.231491 760.252047,326.919064 C760.252047,321.532846 757.636491,316.759261 753.607982,313.793831 L793.926358,250.681941 C795.133211,251.269078 796.482422,251.60762 797.913789,251.60762 C798.197088,251.60762 798.476137,251.589914 798.753062,251.565125 L823.062223,366.498031 L758.898587,333.422188 L758.898587,333.422188 Z M687.461962,388.52947 L657.794912,421.718633 C653.612713,418.28151 648.310068,416.16456 642.518732,415.984665 L641.729745,340.297142 C643.14978,340.117247 644.468536,339.617225 645.608814,338.862941 L687.461962,388.52947 L687.461962,388.52947 Z M633.967358,337.544894 L596.962869,382.206241 L580.763843,361.444689 L632.875241,336.154605 C633.19466,336.653919 633.560116,337.118529 633.967358,337.544894 L633.967358,337.544894 Z M625.317537,421.999807 C619.856953,426.645907 616.389376,433.562647 616.389376,441.29458 C616.389376,452.331901 623.451306,461.714757 633.301606,465.185876 L620.128212,508.2565 C618.927025,507.97391 617.67626,507.82022 616.389376,507.82022 C611.931669,507.82022 607.893953,509.612793 604.952603,512.513773 L551.161244,464.664606 C553.315023,461.903151 554.601908,458.432032 554.601908,454.657784 C554.601908,449.994686 552.639355,445.791948 549.49828,442.822269 L596.914,385.596619 L625.317537,421.999807 L625.317537,421.999807 Z M507.806612,556.571694 L534.510357,470.49702 C535.730666,470.788818 537.002678,470.947465 538.312227,470.947465 C542.769933,470.947465 546.808358,469.154892 549.749708,466.253912 L603.541067,514.103079 C601.387288,516.864534 600.100403,520.335653 600.100403,524.109901 C600.100403,526.262972 600.52181,528.316888 601.281051,530.197992 L521.640801,568.502823 C518.692369,562.989828 513.765094,558.697851 507.806612,556.571694 L507.806612,556.571694 Z M622.160172,508.875508 L635.332858,465.811258 C637.373318,466.341027 639.51364,466.624325 641.719829,466.624325 C645.020969,466.624325 648.17196,465.986903 651.063732,464.837418 L691.002488,554.328676 L665.259127,579.851064 L627.735493,535.793143 C630.783788,532.832671 632.679765,528.693676 632.679765,524.109901 C632.679765,517.146417 628.308464,511.205641 622.160172,508.875508 L622.160172,508.875508 Z M730.036813,659.18606 C727.524661,661.515484 725.487743,664.348472 724.081873,667.52496 L620.753594,626.965779 L665.127393,582.973017 L730.036813,659.18606 L730.036813,659.18606 Z M747.252173,652.4308 C743.951034,652.4308 740.800751,653.068931 737.90827,654.217707 L693.540846,554.803201 L728.086301,520.554501 L800.539969,585.847792 L759.252002,655.449349 C755.680312,653.525042 751.594435,652.4308 747.252173,652.4308 L747.252173,652.4308 Z M852.46793,622.073917 C850.156212,622.073917 848.05201,622.938687 846.441457,624.353764 L803.255388,585.434884 L848.751758,508.736692 C849.887787,509.243088 851.143508,509.530637 852.46793,509.530637 C854.315747,509.530637 856.033246,508.978204 857.470987,508.034819 L900.722923,559.792801 L856.769114,623.149744 C855.487187,622.46487 854.023241,622.073917 852.46793,622.073917 L852.46793,622.073917 Z M859.098539,506.66861 C860.420836,505.273364 861.307561,503.465209 861.541283,501.45308 L917.921993,501.45308 C918.244245,509.25867 922.096401,516.15133 927.928107,520.577165 L901.978645,557.981814 L859.098539,506.66861 L859.098539,506.66861 Z M929.675352,521.787559 C933.314325,524.097153 937.580805,525.505148 942.163163,525.69425 L942.163163,606.06966 L903.391598,559.673107 L929.675352,521.787559 L929.675352,521.787559 Z M944.287904,525.69425 C951.138069,525.410951 957.282112,522.408692 961.676076,517.736386 L1035.12979,581.201691 C1033.06242,583.9334 1031.83432,587.33511 1031.83432,591.025077 C1031.83432,594.721418 1033.06737,598.128795 1035.14254,600.862628 L978.677545,649.764958 L944.287904,608.612267 L944.287904,525.69425 L944.287904,525.69425 Z M1048.124,574.735396 C1043.5813,574.735396 1039.47488,576.595961 1036.52079,579.594679 L963.066365,516.129374 C966.500654,511.806234 968.556695,506.339984 968.556695,500.390709 C968.556695,500.22073 968.54678,500.052875 968.543239,499.883604 L1048.27627,494.936499 C1049.04259,499.209353 1052.7701,502.454541 1057.26392,502.454541 C1058.77957,502.454541 1060.20527,502.079878 1061.46383,501.426874 L1095.86409,552.337085 L1060.27114,580.175441 C1057.28871,576.837473 1052.95282,574.735396 1048.124,574.735396 L1048.124,574.735396 Z M1048.14949,492.815299 L968.42142,497.762405 C967.849157,492.211873 965.483612,487.194651 961.915463,483.295751 L988.605043,456.743571 L1048.80108,489.868992 C1048.42713,490.786172 1048.20544,491.778426 1048.14949,492.815299 L1048.14949,492.815299 Z M960.415396,481.790727 C958.435138,479.959908 956.160957,478.444259 953.672885,477.316022 L966.801659,444.745159 L986.664446,455.676243 L960.415396,481.790727 L960.415396,481.790727 Z M965.727249,441.728735 L931.458718,422.870242 C932.441765,420.773123 932.994197,418.433783 932.994197,415.964126 C932.994197,412.580122 931.962281,409.43763 930.195913,406.833406 L992.659757,358.334068 C994.086875,359.941789 995.823497,361.266919 997.781091,362.210304 L965.727249,441.728735 L965.727249,441.728735 Z M991.35375,356.658355 L928.889906,405.157693 C925.905353,401.795645 921.554592,399.674445 916.704516,399.674445 C915.889324,399.674445 915.088297,399.736063 914.304267,399.851507 L896.071157,315.591362 C902.915656,313.812245 908.63475,309.244052 911.941555,303.170834 L989.780733,341.326933 C988.993163,343.238491 988.555466,345.33207 988.555466,347.528343 C988.555466,350.911639 989.587382,354.054131 991.35375,356.658355 L991.35375,356.658355 Z M912.229104,400.301952 C908.221842,401.445063 904.845629,404.079033 902.742135,407.571399 L825.500009,367.754461 L800.831058,251.123887 C802.716412,250.48859 804.326966,249.259781 805.436789,247.654185 L866.81489,280.166263 C865.234791,283.470236 864.348774,287.16941 864.348774,291.0761 C864.348774,305.066103 875.690641,316.406554 889.679936,316.406554 C891.150965,316.406554 892.590831,316.274112 893.993868,316.033308 L912.229104,400.301952 L912.229104,400.301952 Z M889.679936,265.745646 C880.355156,265.745646 872.211732,270.788365 867.814935,278.291534 L806.427626,245.774498 C806.826369,244.747539 807.054425,243.634883 807.054425,242.466984 C807.054425,241.794858 806.976518,241.141146 806.839118,240.509389 L899.052877,208.67227 L891.80751,265.84126 C891.105637,265.782475 890.39739,265.745646 889.679936,265.745646 L889.679936,265.745646 Z M736.880604,312.244895 C731.539714,314.827163 727.827791,320.240295 727.681892,326.535902 L649.588454,329.798796 C649.079932,326.591854 646.91128,323.942302 643.984095,322.763071 L663.579165,250.859003 L711.004092,248.271776 L736.880604,312.244895 L736.880604,312.244895 Z M641.932304,322.210638 C641.487524,322.144063 641.036371,322.098027 640.572469,322.098027 C638.903839,322.098027 637.34428,322.552721 635.997194,323.334626 L585.082734,255.141064 L661.343229,250.980821 L641.932304,322.210638 L641.932304,322.210638 Z M595.575413,383.881245 L547.863646,441.465267 C545.180098,439.519005 541.881083,438.368103 538.312227,438.368103 C537.589107,438.368103 536.878027,438.420513 536.179695,438.511877 L526.112672,387.967122 L578.809082,362.39374 L595.575413,383.881245 L595.575413,383.881245 Z M534.094616,438.922661 C529.562543,440.134471 525.811667,443.251466 523.747836,447.363548 L480.682877,429.204804 C481.711252,426.447598 482.277141,423.46517 482.277141,420.349591 C482.277141,416.761612 481.527107,413.350695 480.181438,410.25778 L524.136663,388.926089 L534.094616,438.922661 L534.094616,438.922661 Z M267.186778,641.951577 L351.446215,599.312275 C354.022817,603.663037 358.564097,606.71204 363.851161,607.234018 L360.83332,695.272661 C357.798482,695.519839 355.1893,697.247962 353.718979,699.734617 L267.702382,661.694671 C268.830619,658.824146 269.457418,655.701485 269.457418,652.430092 C269.457418,648.691256 268.641517,645.145771 267.186778,641.951577 L267.186778,641.951577 Z M362.956645,695.348443 L365.974485,607.301301 C367.721022,607.248183 369.398151,606.923098 370.964794,606.362166 L419.434385,718.092379 C416.406629,719.651231 413.932014,722.129387 412.37812,725.159268 L370.337287,706.998398 C370.58659,706.166916 370.72399,705.287273 370.72399,704.373635 C370.72399,699.79411 367.352026,696.012071 362.956645,695.348443 L362.956645,695.348443 Z M426.878061,716.291307 C424.948796,716.291307 423.099563,716.628432 421.382772,717.243191 L372.913181,605.512978 C375.047837,604.413778 376.908402,602.858468 378.364558,600.972406 L461.684151,656.977037 L432.903826,717.447166 C431.03972,716.704215 429.007051,716.291307 426.878061,716.291307 L426.878061,716.291307 Z M434.822467,718.360805 L463.467517,658.175391 L524.232277,699.019287 C522.829239,701.425202 522.021838,704.221362 522.021838,707.206623 C522.021838,708.082016 522.092662,708.939703 522.225813,709.776851 L442.492074,727.934888 C441.273181,723.834137 438.484813,720.41118 434.822467,718.360805 L434.822467,718.360805 Z M525.41859,697.257169 L464.389655,656.235503 L489.373776,603.743777 C492.419946,605.041285 495.772079,605.760864 499.292775,605.760864 C501.514546,605.760864 503.669033,605.472608 505.72295,604.935048 L532.515225,691.982854 C529.687903,693.060805 527.238785,694.902248 525.41859,697.257169 L525.41859,697.257169 Z M522.562938,570.417214 L602.20248,532.112384 C604.999347,537.058073 610.302701,540.399582 616.389376,540.399582 C620.038264,540.399582 623.405979,539.199812 626.121398,537.174225 L663.746311,581.351131 L618.592024,626.117299 L523.238606,588.689279 C524.131705,586.099928 524.623229,583.323599 524.623229,580.43041 C524.623229,576.872886 523.886652,573.488882 522.562938,570.417214 L522.562938,570.417214 Z M870.185437,681.403768 L934.130226,682.745896 C934.219465,683.690698 934.449645,684.595129 934.804477,685.433694 L881.523055,715.685756 L870.185437,681.403768 L870.185437,681.403768 Z M935.824352,676.526779 L860.912359,634.711168 C861.359263,633.633217 861.607858,632.453277 861.607858,631.213845 C861.607858,628.485677 860.405963,626.042933 858.509985,624.368638 L902.135876,561.483387 L942.163163,609.383548 L942.163163,672.800692 C939.556106,673.103822 937.289007,674.504026 935.824352,676.526779 L935.824352,676.526779 Z M944.287904,672.800692 L944.287904,611.926154 L977.071241,651.156664 L949.385158,675.135074 C948.005492,673.874394 946.243374,673.028039 944.287904,672.800692 L944.287904,672.800692 Z M950.782529,676.735004 L978.433908,652.787048 L1006.04138,685.823938 C1002.06599,688.778036 998.989361,692.870287 997.286735,697.617667 L952.203981,683.561797 C952.306676,683.013614 952.366169,682.451265 952.366169,681.874752 C952.366169,679.96886 951.780449,678.199659 950.782529,676.735004 L950.782529,676.735004 Z M1021.13483,680.835754 C1016.24509,680.835754 1011.68115,682.225335 1007.80916,684.625584 L980.040921,651.396051 L1036.53424,602.468224 C1038.41251,604.370575 1040.75469,605.812566 1043.37945,606.610052 L1025.87654,681.285491 C1024.33965,680.994401 1022.75601,680.835754 1021.13483,680.835754 L1021.13483,680.835754 Z M1027.94462,681.769224 L1045.44895,607.092369 C1046.32009,607.236143 1047.21248,607.31405 1048.124,607.31405 C1054.33674,607.31405 1059.73571,603.835141 1062.483,598.720181 L1141.38242,634.592891 C1140.70534,636.384048 1140.33067,638.325353 1140.33067,640.353772 C1140.33067,642.434602 1140.72517,644.421943 1141.43625,646.251345 L1042.37374,692.36814 C1039.05277,687.268762 1033.94985,683.442103 1027.94462,681.769224 L1027.94462,681.769224 Z M1142.26135,632.658669 L1063.36122,596.785958 C1064.03901,594.994093 1064.41368,593.053497 1064.41368,591.025077 C1064.41368,587.620534 1063.3676,584.461044 1061.58281,581.847613 L1097.05749,554.102037 L1146.64115,627.483508 C1144.84362,628.878754 1143.34497,630.640165 1142.26135,632.658669 L1142.26135,632.658669 Z M1063.22311,500.235603 C1064.62969,499.023084 1065.65807,497.390575 1066.12197,495.531426 L1140.36679,505.136672 C1140.34555,505.477339 1140.33067,505.820839 1140.33067,506.16788 C1140.33067,509.572423 1141.37675,512.731913 1143.16154,515.345344 L1097.54193,551.025412 L1063.22311,500.235603 L1063.22311,500.235603 Z M1149.74894,491.398097 C1145.10072,493.564625 1141.64589,497.858018 1140.63593,503.028929 L1066.39819,493.424392 C1066.39889,493.387563 1066.40385,493.351442 1066.40385,493.314613 C1066.40385,491.281945 1065.73314,489.411464 1064.61128,487.893691 L1126.07083,430.385451 L1149.74894,491.398097 L1149.74894,491.398097 Z M1088.0493,373.033734 L1058.56072,484.276673 C1058.13578,484.215764 1057.70516,484.173978 1057.26392,484.173978 C1054.1958,484.173978 1051.48746,485.691043 1049.82945,488.010552 L990.17381,455.181887 L1078.37393,367.43575 C1081.10918,369.965608 1084.40112,371.901956 1088.0493,373.033734 L1088.0493,373.033734 Z M893.915253,266.104728 L901.293062,207.898865 L982.373178,179.905402 C982.754215,180.693681 983.242905,181.417509 983.823668,182.05989 L905.56025,271.347172 C902.259111,268.686288 898.276638,266.83918 893.915253,266.104728 L893.915253,266.104728 Z M981.674138,177.898938 L901.590526,205.548193 L906.815264,164.326801 L981.474412,175.633965 C981.471579,175.73666 981.459539,175.83794 981.459539,175.941344 C981.459539,176.61347 981.536738,177.267182 981.674138,177.898938 L981.674138,177.898938 Z M899.351049,206.321599 L806.140786,238.502926 C805.159864,236.47309 803.457946,234.859703 801.360119,234.004141 L820.030218,166.562737 C821.100379,166.78371 822.208077,166.900571 823.344106,166.900571 C831.14403,166.900571 837.66061,161.416614 839.256291,154.095465 L904.713895,164.008798 L899.351049,206.321599 L899.351049,206.321599 Z M755.176041,161.825981 L707.61088,170.404269 C706.019449,163.27293 701.426468,157.278327 695.222224,153.814291 L725.571316,104.359528 L755.176041,161.825981 L755.176041,161.825981 Z M710.162694,246.190239 L664.167718,248.699558 L677.266038,200.635792 C679.076317,201.047283 680.959546,201.271798 682.894477,201.271798 C685.87903,201.271798 688.741056,200.751236 691.400523,199.803601 L710.162694,246.190239 L710.162694,246.190239 Z M504.03378,266.560839 L577.471911,360.68049 L525.682766,385.814051 L502.10664,267.451105 C502.78939,267.230132 503.43177,266.927002 504.03378,266.560839 L504.03378,266.560839 Z M495.920811,267.246422 L461.614035,395.455418 C460.100511,395.173535 458.542368,395.018429 456.946687,395.018429 C454.290053,395.018429 451.72974,395.429921 449.323825,396.187745 L428.701797,314.368219 L492.747865,265.128763 C493.636715,266.042402 494.716083,266.767647 495.920811,267.246422 L495.920811,267.246422 Z M447.318069,396.917948 C441.518235,399.304032 436.797768,403.776612 434.096514,409.404342 L364.540285,379.594226 C365.14017,377.896558 365.469505,376.070697 365.469505,374.166929 C365.469505,370.811255 364.453879,367.692844 362.714424,365.101368 L426.866021,315.779755 L447.318069,396.917948 L447.318069,396.917948 Z M339.238161,387.067649 C341.989701,389.190265 345.436031,390.45661 349.179824,390.45661 C349.232943,390.45661 349.284645,390.453069 349.337763,390.452361 L353.001525,439.232873 L294.087415,450.547827 C293.35013,447.710589 291.867061,445.173649 289.859889,443.159394 L339.238161,387.067649 L339.238161,387.067649 Z M278.321837,470.947465 C281.171823,470.947465 283.849705,470.213721 286.179837,468.927545 L355.821765,577.900552 C351.963235,580.742039 349.405047,585.24224 349.196822,590.350118 L255.552404,592.586054 L276.59938,470.856101 C277.16527,470.915594 277.739658,470.947465 278.321837,470.947465 L278.321837,470.947465 Z M274.505802,470.493479 L253.387293,592.637047 L174.781084,594.513194 C174.426252,590.496017 172.614556,586.900247 169.877182,584.252819 L268.622394,467.744772 C270.351934,469.028824 272.345649,469.974334 274.505802,470.493479 L274.505802,470.493479 Z M144.217393,603.692783 C145.076497,605.284214 146.19411,606.714165 147.51145,607.931641 L103.203518,662.707464 L82.4377158,631.956088 L144.217393,603.692783 L144.217393,603.692783 Z M149.164498,609.267395 C151.819716,611.145666 155.059238,612.253364 158.559395,612.253364 C163.858499,612.253364 168.5648,609.720673 171.540146,605.802651 L222.417069,639.376391 C220.119515,643.188885 218.795802,647.655091 218.795802,652.430092 C218.795802,657.377905 220.220086,661.990718 222.672038,665.891034 L155.059238,712.373993 C152.076102,708.595495 147.458331,706.166916 142.269006,706.166916 C139.271704,706.166916 136.466338,706.979984 134.05334,708.39152 L104.447199,664.549614 L149.164498,609.267395 L149.164498,609.267395 Z M156.266091,714.122655 L223.873224,667.643237 C226.369087,670.960666 229.663144,673.640673 233.46643,675.408457 L202.231321,750.874299 L157.317129,728.700503 C158.116032,726.776904 158.559395,724.669161 158.559395,722.456597 C158.559395,719.410427 157.72083,716.561149 156.266091,714.122655 L156.266091,714.122655 Z M235.426858,676.226483 C237.823565,677.104001 240.390961,677.623854 243.064593,677.733632 L243.064593,771.033842 L204.140755,751.816976 L235.426858,676.226483 L235.426858,676.226483 Z M245.189334,677.733632 C248.013823,677.616771 250.717202,677.036717 253.229354,676.069252 L299.54375,782.761704 C294.806286,785.062798 290.894638,788.797385 288.371154,793.40099 L245.189334,772.082048 L245.189334,677.733632 L245.189334,677.733632 Z M310.596653,780.227596 C307.386877,780.227596 304.319459,780.831023 301.493554,781.920307 L255.180575,675.226438 C260.238875,672.768821 264.353081,668.677278 266.843986,663.6381 L352.850668,701.673089 C352.587201,702.526527 352.444135,703.433083 352.444135,704.373635 C352.444135,707.560746 354.077352,710.364696 356.551259,712.000747 L321.036213,782.48053 C317.851935,781.037831 314.319907,780.227596 310.596653,780.227596 L310.596653,780.227596 Z M322.933607,783.435955 L358.450777,712.951922 C359.429575,713.309587 360.481322,713.514979 361.584062,713.514979 C364.964525,713.514979 367.908708,711.674953 369.490223,708.946077 L411.533181,727.108363 C410.922673,728.819488 410.58838,730.66093 410.58838,732.580988 C410.58838,735.383521 411.296627,738.019617 412.542433,740.322836 L331.466567,791.206133 C329.261794,788.005565 326.340275,785.339723 322.933607,783.435955 L322.933607,783.435955 Z M507.753494,604.30825 C514.3324,601.976701 519.658417,597.005515 522.463076,590.666704 L616.942517,627.751933 L549.103078,695.009193 C546.229012,692.464461 542.45193,690.916942 538.311519,690.916942 C537.014718,690.916942 535.755455,691.073464 534.546478,691.359596 L507.753494,604.30825 L507.753494,604.30825 Z M681.91143,766.887764 L732.944876,698.662331 C737.016588,701.454241 741.942445,703.090999 747.252173,703.090999 C752.482577,703.090999 757.34186,701.505234 761.378159,698.789107 L796.578035,746.719014 C793.02476,749.7064 790.764744,754.183229 790.764744,759.189119 C790.764744,759.882493 790.812905,760.563827 790.896478,761.235245 L690.547086,780.66246 C689.244619,775.160089 686.152413,770.350384 681.91143,766.887764 L681.91143,766.887764 Z M882.202972,717.743213 L935.864722,687.276552 C936.560221,688.22277 937.432073,689.027339 938.434243,689.647763 L900.117372,771.912068 L882.202972,717.743213 L882.202972,717.743213 Z M1156.62035,624.064091 C1153.62164,624.064091 1150.81414,624.877867 1148.40115,626.291528 L1098.73462,552.790363 L1144.47321,517.017516 C1147.45635,520.354775 1151.79223,522.457561 1156.62035,522.457561 C1159.24937,522.457561 1161.73036,521.83147 1163.92946,520.725189 L1201.07418,584.043887 L1166.05491,627.078391 C1163.3919,625.183122 1160.13822,624.064091 1156.62035,624.064091 L1156.62035,624.064091 Z M1165.7617,519.651486 C1167.20723,518.669856 1168.48491,517.46017 1169.54657,516.076255 L1225.81184,553.643801 L1202.50484,582.285309 L1165.7617,519.651486 L1165.7617,519.651486 Z M1222.44129,429.823103 C1218.95105,434.163949 1216.85818,439.676235 1216.85818,445.680045 C1216.85818,450.746136 1218.35116,455.460228 1220.91289,459.41862 L1169.27885,495.918129 C1166.93668,493.02919 1163.62704,490.956859 1159.84075,490.197618 L1171.79596,401.349449 C1172.16425,401.374238 1172.53537,401.391236 1172.91003,401.391236 C1177.41803,401.391236 1181.49753,399.560417 1184.44667,396.601361 L1222.44129,429.823103 L1222.44129,429.823103 Z M1157.74222,379.163612 C1157.02122,381.003638 1156.62035,383.005144 1156.62035,385.101555 C1156.62035,389.023827 1158.00639,392.621013 1160.31528,395.432046 L1126.91435,426.685569 L1105.71014,372.046438 C1111.01066,369.726221 1115.36072,365.645302 1118.02585,360.541674 L1157.74222,379.163612 L1157.74222,379.163612 Z M1001.04257,242.918137 C993.881483,244.631387 988.555466,251.07006 988.555466,258.756665 C988.555466,259.912524 988.677993,261.039345 988.906048,262.126504 L913.761042,283.214558 C912.446535,279.187466 910.151107,275.606569 907.156639,272.749501 L985.416515,183.466468 C986.889669,184.482802 988.673743,185.081271 990.599467,185.081271 C990.764488,185.081271 990.925969,185.06569 991.088865,185.056483 L1001.04257,242.918137 L1001.04257,242.918137 Z M948.004784,115.197832 C945.052102,118.146264 943.225533,122.222226 943.225533,126.724552 C943.225533,135.721413 950.518353,143.014233 959.515214,143.014233 C962.334746,143.014233 964.985714,142.297487 967.298849,141.037515 L984.855584,168.83621 C983.387388,170.024648 982.301645,171.659282 981.790999,173.533304 L907.082981,162.21835 L914.576942,103.090349 C915.278815,103.149134 915.987062,103.185963 916.704516,103.185963 C922.716117,103.185963 928.235486,101.087427 932.579165,97.5886868 L948.004784,115.197832 L948.004784,115.197832 Z M894.095856,66.4364426 C892.358526,69.8686076 891.373354,73.7455516 891.373354,77.855509 C891.373354,90.4013963 900.496284,100.809794 912.469199,102.826882 L904.980904,161.900347 L839.570753,151.994096 C839.609706,151.537985 839.633787,151.077625 839.633787,150.61089 C839.633787,143.788347 835.437423,137.94885 829.486732,135.523104 L856.551683,54.2262644 C857.152276,54.3502077 857.774117,54.4160746 858.411539,54.4160746 C861.458418,54.4160746 864.149756,52.9195487 865.810596,50.6283697 L894.095856,66.4364426 L894.095856,66.4364426 Z M849.325438,44.2959333 C849.291443,44.6181857 849.271612,44.9446876 849.271612,45.2761471 C849.271612,48.9377841 851.42964,52.0873585 854.539553,53.5463473 L827.471769,134.850269 C826.153721,134.506061 824.769807,134.321209 823.344106,134.321209 C821.5487,134.321209 819.822702,134.61584 818.207898,135.151983 L783.096554,48.7678048 C789.868811,45.6727655 795.038306,39.6845371 797.024231,32.3803858 L849.325438,44.2959333 L849.325438,44.2959333 Z M747.666498,30.2655603 C748.90593,37.1079345 752.886986,42.9955918 758.438934,46.7393854 L725.732796,100.034264 L697.135907,44.5239888 C699.571569,42.8822723 701.174332,40.0981534 701.174332,36.9393718 C701.174332,36.8727965 701.165833,36.8076378 701.163708,36.7410626 L747.666498,30.2655603 L747.666498,30.2655603 Z M683.922143,41.1406929 C685.199821,43.6032677 687.561825,45.4064646 690.378523,45.9227767 L683.494362,150.626471 C683.294636,150.621514 683.095619,150.611598 682.894477,150.611598 C679.272502,150.611598 675.830421,151.377213 672.714843,152.746255 L634.969527,75.6946474 C639.859265,72.8829068 643.155446,67.6114244 643.155446,61.5658281 C643.155446,59.9120713 642.906851,58.3170991 642.449324,56.8134907 L683.922143,41.1406929 L683.922143,41.1406929 Z M614.734202,72.4338782 C617.716631,75.7605144 622.045436,77.855509 626.865765,77.855509 C629.059914,77.855509 631.152076,77.4185206 633.062926,76.6316582 L670.805409,153.677599 C667.065156,155.713101 663.900001,158.667199 661.599614,162.231807 L575.733873,111.915107 C576.228938,110.790411 576.507279,109.55027 576.507279,108.242846 C576.507279,106.495601 576.008673,104.869466 575.158069,103.481302 L614.734202,72.4338782 L614.734202,72.4338782 Z M563.423124,116.479051 C564.618645,117.052731 565.952982,117.383482 567.367352,117.383482 C570.346947,117.383482 572.985875,115.951407 574.653797,113.744509 L660.520954,164.062625 C658.792123,167.312062 657.751708,170.98149 657.590936,174.879681 L549.927478,174.878973 C549.588935,166.683139 545.357868,159.495848 539.031097,155.1118 L563.423124,116.479051 L563.423124,116.479051 Z M518.235549,200.458022 C520.276717,200.98779 522.416331,201.271798 524.623229,201.271798 C529.925166,201.271798 534.844649,199.639996 538.91282,196.855878 L581.00748,253.235171 L508.291761,257.202063 C507.766242,254.141728 505.725782,251.602662 502.962911,250.388727 L518.235549,200.458022 L518.235549,200.458022 Z M490.407108,256.651047 C490.246336,257.328131 490.152848,258.030712 490.152848,258.756665 C490.152848,260.472039 490.634456,262.071261 491.456022,263.442427 L428.135908,312.123784 L409.929002,239.888965 C414.368294,238.457598 417.973271,235.173456 419.835961,230.946638 L490.407108,256.651047 L490.407108,256.651047 Z M389.10654,228.273006 C390.309144,233.182574 393.737059,237.216041 398.260633,239.248001 L353.854254,358.561415 C352.37331,358.118053 350.804543,357.877249 349.179824,357.877249 C348.081333,357.877249 347.008339,357.987735 345.970757,358.195251 L320.781244,264.836965 C331.045868,261.601693 338.490252,252.009196 338.490252,240.675119 C338.490252,239.529884 338.407387,238.404479 338.260072,237.299614 L389.10654,228.273006 L389.10654,228.273006 Z M299.595452,262.06347 C303.517724,264.555791 308.168074,266.005573 313.159798,266.005573 C315.07419,266.005573 316.935463,265.786725 318.728036,265.38444 L343.919674,358.749809 C341.570418,359.551544 339.461967,360.872425 337.733844,362.578592 L277.044159,308.668247 C278.081741,307.185178 278.695083,305.384106 278.695083,303.437135 C278.695083,300.711092 277.496021,298.270473 275.602877,296.596177 L299.595452,262.06347 L299.595452,262.06347 Z M269.447502,312.571396 C269.483623,312.572105 269.519035,312.577062 269.555156,312.577062 C271.890954,312.577062 274.014279,311.694587 275.62979,310.253304 L336.324433,364.168607 C334.37817,366.667302 333.144404,369.74676 332.928389,373.104559 L285.719477,373.104559 C285.222287,361.059402 276.316081,351.190689 264.714287,349.206889 L269.447502,312.571396 L269.447502,312.571396 Z M266.950223,398.641821 C277.442902,395.847078 285.254159,386.488302 285.719477,375.2293 L332.928389,375.2293 C333.19044,379.293929 334.93981,382.953442 337.641772,385.665319 L288.2635,441.757773 C285.51196,439.634449 282.065631,438.368103 278.321837,438.368103 C277.474065,438.368103 276.641875,438.433262 275.829516,438.557913 L266.950223,398.641821 L266.950223,398.641821 Z M182.054781,459.301051 C183.54564,464.321814 187.389297,468.326243 192.309489,470.040909 L161.871866,580.011836 C160.802413,579.790863 159.694006,579.674003 158.559395,579.674003 C157.501274,579.674003 156.46865,579.778115 155.467188,579.970758 L133.266478,495.227589 C143.623174,492.048268 151.153964,482.410443 151.153964,471.010499 C151.153964,469.445273 151.004524,467.916876 150.733265,466.430266 L182.054781,459.301051 L182.054781,459.301051 Z M65.46316,522.267042 C66.7380046,522.94271 68.1892027,523.327996 69.7324729,523.327996 C74.7808575,523.327996 78.8724004,519.235745 78.8724004,514.188069 C78.8724004,512.471278 78.3907924,510.87064 77.5671012,509.498057 L106.419667,487.28814 C111.066476,492.820965 118.032793,496.340953 125.82351,496.340953 C127.672743,496.340953 129.473107,496.137686 131.20902,495.761607 L153.411856,580.508318 C148.539116,582.130911 144.691918,585.989441 143.086323,590.869263 L51.3633788,567.177693 C51.5489395,566.193229 51.6502189,565.17902 51.6502189,564.140729 C51.6502189,558.954945 49.2237647,554.338591 45.4480999,551.355455 L65.46316,522.267042 L65.46316,522.267042 Z M34.8038558,580.416245 C34.9887083,580.42262 35.174269,580.43041 35.360538,580.43041 C38.3578392,580.43041 41.1639138,579.617343 43.5762031,578.205807 L79.2732682,631.067238 L48.7088691,645.050158 C45.0344837,637.850827 38.0221302,632.643087 29.7087269,631.469522 L34.8038558,580.416245 L34.8038558,580.416245 Z M32.7704787,680.991568 C43.5429155,678.076424 51.4696159,668.238873 51.4696159,656.544299 C51.4696159,653.159586 50.8003225,649.932813 49.5955943,646.981548 L80.4787046,632.852728 L101.806855,664.435587 L59.4919296,716.74671 C55.2771517,713.61555 50.0566631,711.761359 44.4020191,711.761359 C42.844584,711.761359 41.3225612,711.909383 39.8423249,712.178517 L32.7704787,680.991568 L32.7704787,680.991568 Z M61.5182243,755.760496 C66.5666088,751.130685 69.7324729,744.481662 69.7324729,737.091813 C69.7324729,729.519944 66.406545,722.729272 61.1407286,718.08813 L103.049828,666.276321 L132.294055,709.582791 C128.45394,712.562386 125.979325,717.21911 125.979325,722.456597 C125.979325,726.953257 127.801644,731.024261 130.747243,733.971277 L95.9616922,773.601237 C93.2136938,771.486412 89.7744464,770.22644 86.0391518,770.22644 C82.4221344,770.22644 79.0820415,771.407088 76.379371,773.400803 L61.5182243,755.760496 L61.5182243,755.760496 Z M101.253714,792.336495 C101.945671,790.528341 102.328833,788.567205 102.328833,786.516121 C102.328833,782.018753 100.506513,777.947749 97.5609139,775.000025 L132.346465,735.371481 C135.094463,737.485598 138.533711,738.746278 142.269006,738.746278 C148.296896,738.746278 153.55563,735.470636 156.373036,730.60427 L201.417545,752.84181 L174.727257,817.32699 C173.935437,817.103184 173.103247,816.974992 172.239185,816.974992 C168.933797,816.974992 166.046982,818.734985 164.442094,821.363998 L101.253714,792.336495 L101.253714,792.336495 Z M181.356449,825.655975 C181.194969,822.419995 179.360609,819.628793 176.691226,818.135808 L203.326271,753.784486 L243.064593,773.40222 L243.064593,814.63636 C235.276709,815.138507 228.983226,821.110446 227.981057,828.751723 L181.356449,825.655975 L181.356449,825.655975 Z M258.937825,824.107039 C256.504288,818.801561 251.308588,815.030854 245.189334,814.63636 L245.189334,774.451842 L287.433435,795.306883 C286.043854,798.441584 285.265491,801.907745 285.265491,805.55805 C285.265491,808.362 285.727976,811.055463 286.569373,813.576823 L258.937825,824.107039 L258.937825,824.107039 Z M330.672622,820.997126 C333.964554,816.722147 335.927815,811.370633 335.927815,805.55805 C335.927815,800.989149 334.711755,796.707087 332.595513,793.005789 L413.676337,742.119658 C414.961805,743.895234 416.593606,745.403091 418.476835,746.53912 L371.981836,836.612556 C369.986704,835.741412 367.785473,835.254847 365.469505,835.254847 C360.838278,835.254847 356.662454,837.190486 353.696315,840.292608 L330.672622,820.997126 L330.672622,820.997126 Z M381.417103,854.874705 C381.640909,853.800294 381.759186,852.68693 381.759186,851.544528 C381.759186,845.621458 378.597571,840.437798 373.870023,837.586396 L420.365022,747.512959 C422.360153,748.384103 424.562093,748.870669 426.878061,748.870669 C427.649342,748.870669 428.407874,748.813301 429.151534,748.709188 L450.746693,852.41213 C442.281017,854.542537 435.5123,860.93305 432.84575,869.172087 L381.417103,854.874705 L381.417103,854.874705 Z M481.99455,873.179349 C480.78274,865.117373 475.771892,858.303329 468.843112,854.609821 L532.243258,722.323447 C533.884975,722.983533 535.657009,723.386525 537.513324,723.476473 L539.58778,851.602604 C531.211342,852.277563 524.623229,859.284251 524.623229,867.834208 C524.623229,868.070055 524.63102,868.303776 524.641643,868.537498 L481.99455,873.179349 L481.99455,873.179349 Z M554.761263,859.257337 C552.019639,854.840709 547.226932,851.831368 541.711812,851.565067 L539.637357,723.438227 C541.387435,723.297286 543.061023,722.88367 544.611376,722.232791 L597.102393,827.607196 C594.609364,829.239705 592.959857,832.052862 592.959857,835.254847 C592.959857,836.430537 593.189329,837.549567 593.59303,838.581483 L554.761263,859.257337 L554.761263,859.257337 Z M608.663817,828.903996 C607.002978,827.186497 604.678512,826.114919 602.099784,826.114919 C601.012625,826.114919 599.974335,826.314645 599.00687,826.663102 L546.511602,721.280907 C548.498943,720.12009 550.218567,718.550615 551.555029,716.686509 L643.850236,774.058765 C641.76799,777.738108 640.572469,781.986174 640.572469,786.516121 C640.572469,791.917921 642.269429,796.920978 645.150578,801.032352 L608.663817,828.903996 L608.663817,828.903996 Z M686.560363,801.168335 C689.499588,797.031464 691.234085,791.978122 691.234085,786.516121 C691.234085,785.235611 691.137764,783.977764 690.953619,782.748247 L791.295221,763.322449 C791.924852,765.730488 793.094876,767.91968 794.664352,769.758289 L734.610672,828.166002 C733.037656,826.884784 731.0319,826.114919 728.844834,826.114919 C726.288062,826.114919 723.979177,827.167374 722.320462,828.859376 L686.560363,801.168335 L686.560363,801.168335 Z M737.124241,839.108419 C737.671008,837.93627 737.984761,836.633804 737.984761,835.254847 C737.984761,833.159852 737.272265,831.235545 736.086659,829.693691 L796.143172,771.283145 C797.900332,772.86891 800.004534,774.077179 802.328293,774.780469 L782.749513,858.75519 C782.412387,858.717653 782.070304,858.694281 781.723263,858.694281 C778.815909,858.694281 776.231515,860.05624 774.55722,862.171065 L737.124241,839.108419 L737.124241,839.108419 Z M790.801573,868.861875 C790.839818,868.524041 790.86319,868.182666 790.86319,867.834208 C790.86319,863.875108 788.340414,860.513059 784.817594,859.242464 L804.39779,775.259244 C805.26256,775.402309 806.149285,775.4788 807.054425,775.4788 C808.513414,775.4788 809.926366,775.284032 811.272744,774.924243 L843.041163,868.538914 C838.567167,870.393105 835.098881,874.182226 833.680971,878.864447 L790.801573,868.861875 L790.801573,868.861875 Z M864.585328,878.028716 C863.227619,874.292713 860.541946,871.194132 857.098449,869.304529 L899.781663,777.663742 L919.368942,836.888772 C909.799816,840.507206 902.993563,849.749121 902.993563,860.5853 C902.993563,862.671796 903.250656,864.698091 903.726598,866.637271 L864.585328,878.028716 L864.585328,878.028716 Z M949.023243,845.993288 C944.436636,839.500079 936.878224,835.254847 928.324017,835.254847 C925.917393,835.254847 923.592218,835.598346 921.386029,836.224437 L901.090503,774.854126 L940.357841,690.548653 C941.260148,690.847534 942.222656,691.01468 943.225533,691.01468 C944.121466,691.01468 944.985527,690.880113 945.803552,690.640017 L992.394165,800.059929 C987.089395,802.745601 983.449713,808.245139 983.449713,814.598115 C983.449713,817.46864 984.194789,820.16352 985.497255,822.504984 L949.023243,845.993288 L949.023243,845.993288 Z M1056.86306,814.295693 C1055.71711,810.555441 1052.23962,807.835064 1048.124,807.835064 C1047.74579,807.835064 1047.37467,807.864811 1047.00922,807.90943 L1028.15497,730.503699 C1031.53543,729.52986 1034.62764,727.878936 1037.26728,725.696119 L1098.85502,794.183603 C1095.98945,797.119995 1094.22167,801.131506 1094.22167,805.55805 C1094.22167,806.194056 1094.26133,806.820854 1094.33286,807.438446 L1056.86306,814.295693 L1056.86306,814.295693 Z M1124.69116,797.542819 C1122.76331,794.139692 1119.64703,791.499347 1115.90465,790.186966 L1153.27389,656.297829 C1154.35396,656.523759 1155.47299,656.643453 1156.62035,656.643453 C1156.91923,656.643453 1157.2167,656.634246 1157.51133,656.618665 L1169.91061,759.469585 C1162.34724,760.878288 1156.62035,767.506772 1156.62035,775.4788 C1156.62035,777.636829 1157.04389,779.694995 1157.80596,781.57964 L1124.69116,797.542819 L1124.69116,797.542819 Z M1185.25549,764.85722 C1182.2681,761.388226 1177.84722,759.189119 1172.91003,759.189119 C1172.61115,759.189119 1172.3144,759.198326 1172.01906,759.213908 L1159.6212,656.362987 C1161.56817,656.000365 1163.39474,655.295659 1165.03149,654.306238 L1217.85893,730.256521 C1215.96791,731.931525 1214.76885,734.370728 1214.76885,737.096062 C1214.76885,738.776733 1215.22992,740.346916 1216.02174,741.700376 L1185.25549,764.85722 L1185.25549,764.85722 Z M1227.94932,728.906602 C1226.72972,728.303884 1225.36139,727.955427 1223.90878,727.955427 C1222.34992,727.955427 1220.88314,728.347796 1219.59838,729.03692 L1166.77237,653.088761 C1168.67755,651.568155 1170.2364,649.632516 1171.30515,647.414995 L1235.8222,673.404118 C1234.88165,676.052962 1234.36604,678.903656 1234.36604,681.875461 C1234.36604,690.403463 1238.58507,697.940627 1245.04357,702.530776 L1227.94932,728.906602 L1227.94932,728.906602 Z M1265.13725,657.137101 C1263.38363,656.753231 1261.56485,656.545007 1259.6965,656.545007 C1255.39885,656.545007 1251.35264,657.619418 1247.80645,659.508312 L1203.6522,584.240779 L1227.58599,554.828698 L1269.60346,582.88307 C1268.21742,585.279069 1267.42064,588.057522 1267.42064,591.025077 C1267.42064,598.210243 1272.07382,604.303292 1278.52949,606.468403 L1265.13725,657.137101 L1265.13725,657.137101 Z" id="Fill-3" fill="#0CB7E1"></path>
    </g>
</svg>