<?xml version="1.0" encoding="UTF-8" standalone="no"?>
<svg width="126px" height="173px" viewBox="0 0 126 173" version="1.1" xmlns="http://www.w3.org/2000/svg" xmlns:xlink="http://www.w3.org/1999/xlink">
    <!-- Generator: Sketch 3.6.1 (26313) - http://www.bohemiancoding.com/sketch -->
    <title>Fill 15</title>
    <desc>Created with Sketch.</desc>
    <defs></defs>
    <g id="Page-1" stroke="none" stroke-width="1" fill="none" fill-rule="evenodd">
        <path d="M120.032,0 L5.969,0 L0,5.968 L0,166.452 L5.969,172.42 L120.032,172.42 L126,166.452 L126,5.968 L120.032,0 L120.032,0 Z M63,13.263 C89.37,13.263 110.748,34.639 110.748,61.01 C110.748,84.098 94.361,103.357 72.583,107.794 L86.234,83.391 C89.733,76.795 86.091,73.63 85.326,73.063 C84.756,72.641 83.54,71.934 81.795,71.934 C79.583,71.934 77.338,73.053 75.113,75.269 L45.965,105.616 C28.009,98.754 15.253,81.377 15.253,61.01 C15.253,34.639 36.63,13.263 63,13.263 L63,13.263 Z M12.821,8.398 C15.873,8.398 18.348,10.873 18.348,13.925 C18.348,16.978 15.873,19.453 12.821,19.453 C9.768,19.453 7.295,16.978 7.295,13.925 C7.295,10.873 9.768,8.398 12.821,8.398 L12.821,8.398 Z M12.821,88.641 C15.873,88.641 18.348,91.116 18.348,94.167 C18.348,97.22 15.873,99.695 12.821,99.695 C9.768,99.695 7.295,97.22 7.295,94.167 C7.295,91.116 9.768,88.641 12.821,88.641 L12.821,88.641 Z M12.821,166.01 C9.768,166.01 7.295,163.535 7.295,160.484 C7.295,157.432 9.768,154.957 12.821,154.957 C15.873,154.957 18.348,157.432 18.348,160.484 C18.348,163.535 15.873,166.01 12.821,166.01 L12.821,166.01 Z M60.79,154.747 C60.79,156.071 59.706,157.153 58.383,157.153 L25.888,157.153 C24.564,157.153 22.786,156.324 21.936,155.308 L19.009,151.809 C18.159,150.794 17.463,148.88 17.463,147.556 L17.463,122.891 L17.463,118.077 L17.463,113.513 C17.463,112.189 18.547,111.107 19.87,111.107 L29.098,111.107 C30.421,111.107 31.569,112.188 31.646,113.51 C31.646,113.51 32.356,125.498 39.127,131.996 C45.896,138.493 58.409,136.624 58.409,136.624 C59.719,136.429 60.79,137.351 60.79,138.675 L60.79,154.747 L60.79,154.747 Z M58.405,124.289 C55.826,129.152 50.096,130.449 45.674,127.172 L45.107,126.753 C40.684,123.475 40.257,117.617 44.158,113.733 L78.228,78.262 C82.129,74.38 84.997,76.504 82.418,81.366 L58.405,124.289 L58.405,124.289 Z M72.284,146.999 L106.768,146.999 L106.768,128.983 L72.284,128.983 L72.284,146.999 Z M112.295,166.01 C109.243,166.01 106.768,163.535 106.768,160.484 C106.768,157.432 109.243,154.957 112.295,154.957 C115.347,154.957 117.821,157.432 117.821,160.484 C117.821,163.535 115.347,166.01 112.295,166.01 L112.295,166.01 Z M112.295,99.695 C109.243,99.695 106.768,97.22 106.768,94.167 C106.768,91.116 109.243,88.641 112.295,88.641 C115.347,88.641 117.821,91.116 117.821,94.167 C117.821,97.22 115.347,99.695 112.295,99.695 L112.295,99.695 Z M112.295,19.453 C109.243,19.453 106.768,16.978 106.768,13.925 C106.768,10.873 109.243,8.398 112.295,8.398 C115.347,8.398 117.821,10.873 117.821,13.925 C117.821,16.978 115.347,19.453 112.295,19.453 L112.295,19.453 Z M52.762,61.01 C52.762,55.355 57.346,50.771 63,50.771 C68.654,50.771 73.239,55.355 73.239,61.01 C73.239,66.665 68.654,71.248 63,71.248 C57.346,71.248 52.762,66.665 52.762,61.01 L52.762,61.01 Z" id="Fill-15" fill="#8031A7"></path>
    </g>
</svg>