<?xml version="1.0" encoding="utf-8"?>
<!-- Generator: Adobe Illustrator 18.1.1, SVG Export Plug-In . SVG Version: 6.00 Build 0)  -->
<svg version="1.1" id="_x2014_ÎÓÈ_x5F_1" xmlns="http://www.w3.org/2000/svg" xmlns:xlink="http://www.w3.org/1999/xlink"
	 x="0px" y="0px" viewBox="0 0 762.9 811.6" enable-background="new 0 0 762.9 811.6" xml:space="preserve">
<g>
	<g>
		
			<radialGradient id="SVGID_1_" cx="380.609" cy="35644.7305" r="218.979" gradientTransform="matrix(1 6.700000e-03 -1.300000e-03 0.1968 44.6371 -6254.6587)" gradientUnits="userSpaceOnUse">
			<stop  offset="0" style="stop-color:#6B4A09"/>
			<stop  offset="7.815684e-03" style="stop-color:#6D4B09"/>
			<stop  offset="0.2182" style="stop-color:#AB6C0E"/>
			<stop  offset="0.3317" style="stop-color:#BE8E45"/>
			<stop  offset="0.4619" style="stop-color:#D2B07D"/>
			<stop  offset="0.5887" style="stop-color:#E2CCAC"/>
			<stop  offset="0.7088" style="stop-color:#EFE2D0"/>
			<stop  offset="0.8206" style="stop-color:#F8F2EA"/>
			<stop  offset="0.9209" style="stop-color:#FDFCFA"/>
			<stop  offset="1" style="stop-color:#FFFFFF"/>
		</radialGradient>
		<path fill="url(#SVGID_1_)" d="M73.1,760.7c-0.2,27,136.6,49.7,305.5,50.9c168.9,1.1,306-19.8,306.2-46.8
			c0.2-27-136.6-49.7-305.5-50.9C210.3,712.8,73.3,733.8,73.1,760.7z"/>
		
			<radialGradient id="SVGID_2_" cx="365.3479" cy="230.0113" r="422.5987" gradientTransform="matrix(1 6.700000e-03 -6.700000e-03 1 2.6003 -2.0738)" gradientUnits="userSpaceOnUse">
			<stop  offset="0" style="stop-color:#FDFF80"/>
			<stop  offset="0.2126" style="stop-color:#FEF166"/>
			<stop  offset="0.6061" style="stop-color:#FFD12C"/>
			<stop  offset="0.7879" style="stop-color:#F2BF1F"/>
			<stop  offset="0.7949" style="stop-color:#F2BE1E"/>
			<stop  offset="0.9027" style="stop-color:#F6B118"/>
			<stop  offset="1" style="stop-color:#F7AC16"/>
		</radialGradient>
		<circle fill="url(#SVGID_2_)" cx="381.4" cy="381.4" r="381.4"/>
	</g>
	<g>
		<g>
			
				<linearGradient id="SVGID_3_" gradientUnits="userSpaceOnUse" x1="459.1688" y1="189.7559" x2="459.1688" y2="377.7318" gradientTransform="matrix(-1 0 0 1 967.4332 0)">
				<stop  offset="0" style="stop-color:#FFB817"/>
				<stop  offset="0.2085" style="stop-color:#FBB215"/>
				<stop  offset="0.4984" style="stop-color:#F0A00F"/>
				<stop  offset="0.8346" style="stop-color:#DE8206"/>
				<stop  offset="1" style="stop-color:#D47100"/>
			</linearGradient>
			<path fill="url(#SVGID_3_)" d="M543.3,393.2c34.2-16.5,59-56.6,59-95.4c0-27.8-10.6-56.6-29.2-78.9c-18.3-22-41.3-34.6-63.2-34.6
				c-24.7,0-48.7,12.8-67.5,36c-17.9,22.1-28.1,50.4-28.1,77.5c0,32.2,14.6,62.7,39,81.6l0.9,0.7l1.1,0c22.1,0.1,45.4,1.5,64.3,4.4
				c5.5,0.8,12.6,4.2,15.6,5.7c2.6,1.3,4,3.3,6.6,3.3l0.8,0L543.3,393.2z"/>
			
				<radialGradient id="SVGID_4_" cx="455.8784" cy="-1046.6813" r="98.0719" gradientTransform="matrix(-1 0 0 1.1989 967.4332 1548.3555)" gradientUnits="userSpaceOnUse">
				<stop  offset="0" style="stop-color:#FFFFFF"/>
				<stop  offset="0.4703" style="stop-color:#FCFCFC"/>
				<stop  offset="0.8378" style="stop-color:#F2F2F2"/>
				<stop  offset="1" style="stop-color:#EBEBEB"/>
			</radialGradient>
			<path fill="url(#SVGID_4_)" d="M541.8,390.2c32.5-15.7,57.1-54.1,57.1-92.4c0-27.1-10.3-55.1-28.4-76.8
				c-17.6-21.2-39.7-33.4-60.6-33.4c-23.7,0-46.7,12.4-64.9,34.8c-17.4,21.5-27.4,49-27.4,75.4c0,31.2,15.5,61.4,39.2,79.7
				c22.3,0.1,46.8,3.3,65.8,6.1C532.9,385.2,537.6,390.1,541.8,390.2z"/>
			<g>
				<path fill="#2F7DB5" d="M508.3,363.7c29.9,0,54.2-24.3,54.2-54.2c0-29.9-24.3-54.2-54.2-54.2c-29.9,0-54.2,24.3-54.2,54.2
					C454.1,339.4,478.4,363.7,508.3,363.7z"/>
				
					<radialGradient id="SVGID_5_" cx="434.2314" cy="-1309.8973" r="68.2409" gradientTransform="matrix(-0.9544 0 0 0.9721 924.6466 1585.6578)" gradientUnits="userSpaceOnUse">
					<stop  offset="0" style="stop-color:#A6FFFF"/>
					<stop  offset="0.1497" style="stop-color:#9EF7FA"/>
					<stop  offset="0.3829" style="stop-color:#88E2EC"/>
					<stop  offset="0.6702" style="stop-color:#64C0D5"/>
					<stop  offset="0.9982" style="stop-color:#3291B5"/>
					<stop  offset="1" style="stop-color:#3291B5"/>
				</radialGradient>
				<path fill="url(#SVGID_5_)" d="M456.2,309.5c0,28.7,23.3,52,52,52c28.7,0,52-23.3,52-52c0-28.7-23.3-52-52-52
					C479.5,257.5,456.2,280.8,456.2,309.5z"/>
				<path d="M478.9,313.7c0,16.2,13.1,29.3,29.3,29.3c16.2,0,29.3-13.1,29.3-29.3c0-16.2-13.1-29.3-29.3-29.3
					C492.1,284.3,478.9,297.5,478.9,313.7z"/>
				<circle fill="#FFFFFF" cx="487.8" cy="333.2" r="9.8"/>
				<path fill="#FFFFFF" d="M514.5,296.3c0,7.9,6.4,14.3,14.3,14.3c7.9,0,14.3-6.4,14.3-14.3c0-7.9-6.4-14.3-14.3-14.3
					C520.9,282,514.5,288.4,514.5,296.3z"/>
			</g>
			<path fill="#D47100" d="M429.2,385.9c6.5-1.8,13.2-3,19.8-3.8c3.3-0.5,6.6-0.8,9.9-1.1c3.3-0.3,6.6-0.5,10-0.5
				c6.6-0.1,13.3,0,19.9,0.6c6.6,0.5,13.2,1.5,19.7,2.8c13.1,2.6,25.9,6.9,38.4,12.8c12.4,5.9,24.4,13.4,35.8,22.2c0,0,0.1,0,0.1,0
				c0,0,0-0.1,0-0.1c-10.5-10.5-22.2-19.2-34.6-26c-12.4-6.8-25.6-11.5-38.9-14.3c-6.7-1.4-13.4-2.2-20.2-2.7
				c-6.8-0.4-13.5-0.3-20.3,0.3c-3.4,0.3-6.7,0.7-10.1,1.2c-3.3,0.5-6.7,1.2-10,2c-6.6,1.6-13.2,3.6-19.5,6.5
				C429.1,385.7,429.1,385.8,429.2,385.9C429.1,385.9,429.2,385.9,429.2,385.9z"/>
		</g>
		<g>
			
				<linearGradient id="SVGID_6_" gradientUnits="userSpaceOnUse" x1="710.4453" y1="189.7559" x2="710.4453" y2="377.7318" gradientTransform="matrix(1 0 0 1 -489.5273 0)">
				<stop  offset="0" style="stop-color:#FFB817"/>
				<stop  offset="0.2085" style="stop-color:#FBB215"/>
				<stop  offset="0.4984" style="stop-color:#F0A00F"/>
				<stop  offset="0.8346" style="stop-color:#DE8206"/>
				<stop  offset="1" style="stop-color:#D47100"/>
			</linearGradient>
			<path fill="url(#SVGID_6_)" d="M185.9,393.2c-34.2-16.5-59-56.6-59-95.4c0-27.8,10.6-56.6,29.2-78.9c18.3-22,41.3-34.6,63.2-34.6
				c24.7,0,48.7,12.8,67.5,36c17.9,22.1,28.1,50.4,28.1,77.5c0,32.2-14.6,62.7-39,81.6l-0.9,0.7l-1.1,0c-22.1,0.1-45.4,1.5-64.3,4.4
				c-5.5,0.8-12.6,4.2-15.6,5.7c-2.6,1.3-4,3.3-6.6,3.3l-0.8,0L185.9,393.2z"/>
			
				<radialGradient id="SVGID_7_" cx="707.1555" cy="-1046.6813" r="98.0714" gradientTransform="matrix(1 0 0 1.1989 -489.5273 1548.3555)" gradientUnits="userSpaceOnUse">
				<stop  offset="0" style="stop-color:#FFFFFF"/>
				<stop  offset="0.4703" style="stop-color:#FCFCFC"/>
				<stop  offset="0.8378" style="stop-color:#F2F2F2"/>
				<stop  offset="1" style="stop-color:#EBEBEB"/>
			</radialGradient>
			<path fill="url(#SVGID_7_)" d="M187.4,390.2c-32.5-15.7-57.1-54.1-57.1-92.4c0-27.1,10.3-55.1,28.4-76.8
				c17.6-21.2,39.7-33.4,60.6-33.4c23.7,0,46.7,12.4,64.9,34.8c17.4,21.5,27.4,49,27.4,75.4c0,31.2-15.5,61.4-39.2,79.7
				c-22.3,0.1-46.8,3.3-65.8,6.1C196.2,385.2,191.6,390.1,187.4,390.2z"/>
			<g>
				<path fill="#2F7DB5" d="M220.9,363.7c-29.9,0-54.2-24.3-54.2-54.2c0-29.9,24.3-54.2,54.2-54.2c29.9,0,54.2,24.3,54.2,54.2
					C275.1,339.4,250.8,363.7,220.9,363.7z"/>
				
					<radialGradient id="SVGID_8_" cx="665.8511" cy="-1309.8971" r="68.2464" gradientTransform="matrix(0.9544 0 0 0.9721 -416.5185 1585.6571)" gradientUnits="userSpaceOnUse">
					<stop  offset="0" style="stop-color:#A6FFFF"/>
					<stop  offset="0.1497" style="stop-color:#9EF7FA"/>
					<stop  offset="0.3829" style="stop-color:#88E2EC"/>
					<stop  offset="0.6702" style="stop-color:#64C0D5"/>
					<stop  offset="0.9982" style="stop-color:#3291B5"/>
					<stop  offset="1" style="stop-color:#3291B5"/>
				</radialGradient>
				<path fill="url(#SVGID_8_)" d="M273,309.5c0,28.7-23.3,52-52,52c-28.7,0-52-23.3-52-52c0-28.7,23.3-52,52-52
					C249.7,257.5,273,280.8,273,309.5z"/>
				<path d="M250.3,313.7c0,16.2-13.1,29.3-29.3,29.3c-16.2,0-29.3-13.1-29.3-29.3c0-16.2,13.1-29.3,29.3-29.3
					C237.1,284.3,250.3,297.5,250.3,313.7z"/>
				<path fill="#FFFFFF" d="M251.2,333.2c0,5.4-4.4,9.8-9.8,9.8c-5.4,0-9.8-4.4-9.8-9.8c0-5.4,4.4-9.8,9.8-9.8
					C246.8,323.4,251.2,327.8,251.2,333.2z"/>
				<circle fill="#FFFFFF" cx="200.4" cy="296.3" r="14.3"/>
			</g>
			<path fill="#D47100" d="M300,385.9c-6.5-1.8-13.1-3-19.8-3.8c-3.3-0.5-6.6-0.8-9.9-1.1c-3.3-0.3-6.6-0.5-10-0.5
				c-6.6-0.1-13.3,0-19.9,0.6c-6.6,0.5-13.2,1.5-19.7,2.8c-13.1,2.6-25.9,6.9-38.4,12.8c-12.4,5.9-24.4,13.4-35.8,22.2
				c0,0-0.1,0-0.1,0c0,0,0-0.1,0-0.1c10.5-10.5,22.2-19.2,34.6-26c12.4-6.8,25.6-11.5,38.9-14.3c6.7-1.4,13.4-2.2,20.2-2.7
				c6.8-0.4,13.5-0.3,20.3,0.3c3.4,0.3,6.7,0.7,10.1,1.2c3.3,0.5,6.7,1.2,10,2c6.6,1.6,13.2,3.6,19.5,6.5
				C300.1,385.7,300.1,385.8,300,385.9C300,385.9,300,385.9,300,385.9z"/>
		</g>
	</g>
	<g>
		<path fill="#BA6400" d="M597.2,191.5c-20.3-18.6-74.6-53.9-136.1-32.8c-4.2,1.4-5.6-5.2,3.1-11.6c11.8-8.7,30.8-22.9,63.7-19.4
			c38,4,62.1,40,72.7,60.1C604.8,195.8,603.5,197.3,597.2,191.5z"/>
		<path fill="#BA6400" d="M132,191.5c20.3-18.6,74.6-53.9,136.1-32.8c4.2,1.4,5.6-5.2-3.1-11.6c-11.8-8.7-30.8-22.9-63.7-19.4
			c-38,4-62.1,40-72.7,60.1C124.4,195.8,125.7,197.3,132,191.5z"/>
	</g>
	<g>
		<path fill="#D47100" d="M144.2,503.9c-0.1-1.3,0.2-2.6,0.5-3.7c0.4-1.1,0.8-2.2,1.3-3.2c1-2.1,2.2-4,3.4-5.8
			c2.5-3.6,5.4-6.9,8.5-9.8c6.2-5.8,13.3-10.5,21.1-13.4c7.7-2.9,16.1-4.1,24.2-2.6c8.1,1.4,15.8,5.4,21.7,11.4l-0.7,1.3
			c-7.1-3.4-14.4-5.4-21.6-5.6c-7.2-0.3-14.4,1.2-21.3,3.8c-6.9,2.6-13.5,6.4-19.8,11c-3.1,2.3-6.2,4.8-9,7.5
			c-1.4,1.3-2.8,2.8-4.1,4.3c-0.6,0.8-1.2,1.6-1.7,2.4c-0.5,0.8-1,1.7-1.2,2.6L144.2,503.9z"/>
		<path fill="#D47100" d="M583.7,503.9c-0.2-0.9-0.6-1.8-1.2-2.6c-0.5-0.8-1.1-1.6-1.7-2.4c-1.3-1.5-2.6-3-4.1-4.3
			c-2.8-2.8-5.9-5.2-9-7.5c-6.2-4.6-12.9-8.3-19.8-11c-6.9-2.6-14.1-4-21.3-3.8c-7.2,0.2-14.5,2.3-21.6,5.6l-0.7-1.3
			c5.9-6,13.6-10,21.7-11.4c8.1-1.4,16.5-0.3,24.2,2.6c7.7,2.9,14.9,7.6,21.1,13.4c3.1,2.9,5.9,6.2,8.5,9.8c1.2,1.8,2.4,3.7,3.4,5.8
			c0.5,1,0.9,2.1,1.3,3.2c0.3,1.1,0.6,2.4,0.5,3.7L583.7,503.9z"/>
		<path fill="#D47100" d="M553.8,471.9c-6.1,20.8-16.5,40.2-29.5,56.9c-13.1,16.7-28.9,30.7-46.2,41.6c-17.2,11-35.9,19-55,24.3
			c-9.6,2.6-19.3,4.6-29.1,5.9c-9.8,1.2-19.6,2-29.5,1.9c-19.7-0.1-39.4-2.7-58.5-8c-9.6-2.7-19-6-28.2-10.1
			c-9.2-4-18.1-8.8-26.8-14.3c-17.2-11-33-24.9-46.1-41.6c-6.5-8.3-12.4-17.3-17.4-26.9c-2.5-4.8-4.8-9.6-6.9-14.6
			c-2-5-3.9-10.1-5.4-15.3l0.1,0c2.5,4.7,5,9.3,7.8,13.7c2.7,4.4,5.6,8.7,8.6,12.8c6,8.2,12.6,15.9,19.6,22.8
			c14,13.9,29.7,25.3,46.4,34.1c16.6,8.9,34.2,15.2,52.2,19.5c18,4.2,36.3,6.3,54.6,6.2c9.2-0.1,18.3-0.5,27.4-1.6
			c9.1-1.1,18.2-2.6,27.1-4.8c17.9-4.2,35.5-10.7,52.1-19.5c16.6-8.8,32.3-20.1,46.3-34c7-6.9,13.6-14.6,19.6-22.8
			C543.2,490,548.8,481.2,553.8,471.9L553.8,471.9z"/>
	</g>
</g>
</svg>
