<?xml version="1.0" encoding="UTF-8" standalone="no"?>
<svg width="168px" height="181px" viewBox="0 0 168 181" version="1.1" xmlns="http://www.w3.org/2000/svg" xmlns:xlink="http://www.w3.org/1999/xlink">
    <!-- Generator: Sketch 3.6.1 (26313) - http://www.bohemiancoding.com/sketch -->
    <title>Fill 22</title>
    <desc>Created with Sketch.</desc>
    <defs></defs>
    <g id="Page-1" stroke="none" stroke-width="1" fill="none" fill-rule="evenodd">
        <path d="M61.6541958,165.837486 C61.6541958,168.458291 62.1311623,170.95609 62.9645985,173.290715 L5.55540453,173.290715 L5.55540453,158.917706 L62.7713016,158.917706 C62.0558518,161.09669 61.6541958,163.421274 61.6541958,165.837486 L61.6541958,165.837486 Z M167.651214,116.815371 L167.651214,124.274876 C167.651214,133.573213 160.041088,141.183339 150.744007,141.183339 L91.0114838,141.183339 L91.0114838,152.4887 C95.7585556,155.050512 98.9843554,160.067447 98.9843554,165.837486 C98.9843554,174.212014 92.1976242,181 83.8243518,181 C75.4523346,181 68.6668585,174.212014 68.6668585,165.837486 C68.6668585,160.067447 71.8926583,155.050512 76.6397301,152.4887 L76.6397301,141.183339 L16.9072072,141.183339 C7.60887083,141.183339 0,133.573213 0,124.274876 L0,116.815371 C0,107.51578 7.60887083,99.9094194 16.9072072,99.9094194 L150.744007,99.9094194 C160.041088,99.9094194 167.651214,107.51578 167.651214,116.815371 L167.651214,116.815371 Z M117.780601,117.680187 C117.780601,115.486141 116.004528,113.711324 113.811738,113.711324 C111.620202,113.711324 109.842874,115.486141 109.842874,117.680187 C109.842874,119.871723 111.620202,121.64905 113.811738,121.64905 C116.004528,121.64905 117.780601,119.871723 117.780601,117.680187 L117.780601,117.680187 Z M133.151474,117.680187 C133.151474,115.486141 131.374146,113.711324 129.182611,113.711324 C126.98982,113.711324 125.212492,115.486141 125.212492,117.680187 C125.212492,119.871723 126.98982,121.64905 129.182611,121.64905 C131.374146,121.64905 133.151474,119.871723 133.151474,117.680187 L133.151474,117.680187 Z M157.488062,117.680187 C157.488062,113.505475 154.10411,110.125289 149.931908,110.125289 C145.757196,110.125289 142.37701,113.505475 142.37701,117.680187 C142.37701,121.852389 145.757196,125.23634 149.931908,125.23634 C154.10411,125.23634 157.488062,121.852389 157.488062,117.680187 L157.488062,117.680187 Z M105.997018,165.837486 C105.997018,168.458291 105.520052,170.95609 104.686615,173.290715 L162.10083,173.290715 L162.10083,158.917706 L104.881168,158.917706 C105.596617,161.09669 105.997018,163.421274 105.997018,165.837486 L105.997018,165.837486 Z M167.651214,16.9084624 L167.651214,24.3679674 C167.651214,33.6675589 160.041088,41.2764298 150.744007,41.2764298 L16.9072072,41.2764298 C7.60887083,41.2764298 0,33.6675589 0,24.3679674 L0,16.9084624 C0,7.610126 7.60887083,0 16.9072072,0 L150.744007,0 C160.041088,0 167.651214,7.610126 167.651214,16.9084624 L167.651214,16.9084624 Z M117.780601,17.7732779 C117.780601,15.5817424 116.004528,13.8044146 113.811738,13.8044146 C111.620202,13.8044146 109.842874,15.5817424 109.842874,17.7732779 C109.842874,19.9660687 111.620202,21.7433965 113.811738,21.7433965 C116.004528,21.7433965 117.780601,19.9660687 117.780601,17.7732779 L117.780601,17.7732779 Z M133.151474,17.7732779 C133.151474,15.5817424 131.374146,13.8044146 129.182611,13.8044146 C126.98982,13.8044146 125.212492,15.5817424 125.212492,17.7732779 C125.212492,19.9660687 126.98982,21.7433965 129.182611,21.7433965 C131.374146,21.7433965 133.151474,19.9660687 133.151474,17.7732779 L133.151474,17.7732779 Z M157.488062,17.7732779 C157.488062,13.5985659 154.10411,10.2158693 149.931908,10.2158693 C145.757196,10.2158693 142.37701,13.5985659 142.37701,17.7732779 C142.37701,21.9467348 145.757196,25.3294314 149.931908,25.3294314 C154.10411,25.3294314 157.488062,21.9467348 157.488062,17.7732779 L157.488062,17.7732779 Z M167.651214,66.8631721 L167.651214,74.3226771 C167.651214,83.6210134 160.041088,91.2286291 150.744007,91.2286291 L16.9072072,91.2286291 C7.60887083,91.2286291 0,83.6210134 0,74.3226771 L0,66.8631721 C0,57.5635805 7.60887083,49.9547097 16.9072072,49.9547097 L150.744007,49.9547097 C160.041088,49.9547097 167.651214,57.5635805 167.651214,66.8631721 L167.651214,66.8631721 Z M117.780601,67.7254773 C117.780601,65.5339417 116.004528,63.7566139 113.811738,63.7566139 C111.620202,63.7566139 109.842874,65.5339417 109.842874,67.7254773 C109.842874,69.9170128 111.620202,71.6943406 113.811738,71.6943406 C116.004528,71.6943406 117.780601,69.9170128 117.780601,67.7254773 L117.780601,67.7254773 Z M133.151474,67.7254773 C133.151474,65.5339417 131.374146,63.7566139 129.182611,63.7566139 C126.98982,63.7566139 125.212492,65.5339417 125.212492,67.7254773 C125.212492,69.9170128 126.98982,71.6943406 129.182611,71.6943406 C131.374146,71.6943406 133.151474,69.9170128 133.151474,67.7254773 L133.151474,67.7254773 Z M157.488062,67.7254773 C157.488062,63.5532756 154.10411,60.170579 149.931908,60.170579 C145.757196,60.170579 142.37701,63.5532756 142.37701,67.7254773 C142.37701,71.9001893 145.757196,75.2841411 149.931908,75.2841411 C154.10411,75.2841411 157.488062,71.9001893 157.488062,67.7254773 L157.488062,67.7254773 Z" id="Fill-22" fill="#9CD233"></path>
    </g>
</svg>