<?xml version="1.0" encoding="UTF-8" standalone="no"?>
<svg width="884px" height="289px" viewBox="0 0 884 289" version="1.1" xmlns="http://www.w3.org/2000/svg" xmlns:xlink="http://www.w3.org/1999/xlink" xmlns:sketch="http://www.bohemiancoding.com/sketch/ns">
    <!-- Generator: Sketch 3.3.3 (12072) - http://www.bohemiancoding.com/sketch -->
    <title>Rectangle 1 Copy 2 + Group</title>
    <desc>Created with Sketch.</desc>
    <defs></defs>
    <g id="Page-1" stroke="none" stroke-width="1" fill="none" fill-rule="evenodd" sketch:type="MSPage">
        <g id="Rectangle-1-Copy-2-+-Group" sketch:type="MSLayerGroup">
            <rect id="Rectangle-1-Copy-2" fill="#9EACAB" sketch:type="MSShapeGroup" x="0" y="0.5" width="884" height="288.5" rx="8"></rect>
            <g id="Group" transform="translate(3.000000, 6.000000)" fill="#007A97" sketch:type="MSShapeGroup">
                <rect id="Rectangle-4-Copy-30" x="0.966666667" y="0.5" width="25" height="19" rx="4"></rect>
                <rect id="Rectangle-4-Copy-31" x="28.4666667" y="0.5" width="82.5333333" height="19" rx="4"></rect>
                <rect id="Rectangle-4-Copy-32" x="113.466667" y="0.5" width="15" height="19" rx="4"></rect>
                <rect id="Rectangle-4-Copy-33" x="131" y="0.5" width="29" height="19" rx="4"></rect>
                <rect id="Rectangle-4-Copy-34" x="162" y="0.5" width="15" height="19" rx="4"></rect>
                <rect id="Rectangle-4-Copy-35" x="179" y="0.5" width="15" height="19" rx="4"></rect>
                <rect id="Rectangle-4-Copy-36" x="196.466667" y="0.5" width="25" height="19" rx="4"></rect>
                <rect id="Rectangle-4-Copy-37" x="223.5" y="0.5" width="45" height="19" rx="4"></rect>
                <rect id="Rectangle-4-Copy-38" x="271.5" y="0.5" width="13.5" height="19" rx="4"></rect>
                <rect id="Rectangle-4-Copy-39" x="287" y="0.5" width="13.5" height="19" rx="4"></rect>
                <rect id="Rectangle-4-Copy-57" x="742" y="0.5" width="15" height="19" rx="4"></rect>
                <rect id="Rectangle-4-Copy-56" x="759" y="0.5" width="15" height="19" rx="4"></rect>
                <rect id="Rectangle-4-Copy-55" x="776.466667" y="0.5" width="25" height="19" rx="4"></rect>
                <rect id="Rectangle-4-Copy-54" x="803.5" y="0.5" width="45" height="19" rx="4"></rect>
                <rect id="Rectangle-4-Copy-118" x="819" y="48" width="57" height="19" rx="4"></rect>
                <rect id="Rectangle-4-Copy-53" x="851.5" y="0.5" width="25" height="19" rx="4"></rect>
                <rect id="Rectangle-4-Copy-40" x="303" y="0.5" width="23" height="19" rx="4"></rect>
                <rect id="Rectangle-4-Copy-51" x="329.95" y="0.5" width="25" height="19" rx="4"></rect>
                <rect id="Rectangle-4-Copy-103" x="402.55" y="48" width="13.5" height="19" rx="4"></rect>
                <rect id="Rectangle-4-Copy-102" x="418.05" y="48" width="13.5" height="19" rx="4"></rect>
                <rect id="Rectangle-4-Copy-101" x="434.05" y="48" width="23" height="19" rx="4"></rect>
                <rect id="Rectangle-4-Copy-98" x="460" y="48" width="57" height="19" rx="4"></rect>
                <rect id="Rectangle-4-Copy-104" x="520" y="48" width="40" height="19" rx="4"></rect>
                <rect id="Rectangle-4-Copy-105" x="562" y="48" width="15" height="19" rx="4"></rect>
                <rect id="Rectangle-4-Copy-106" x="579" y="48" width="15" height="19" rx="4"></rect>
                <rect id="Rectangle-4-Copy-107" x="596" y="48" width="25" height="19" rx="4"></rect>
                <rect id="Rectangle-4-Copy-50" x="357.45" y="0.5" width="166.516667" height="19" rx="4"></rect>
                <rect id="Rectangle-4-Copy-49" x="526.466667" y="0.5" width="15" height="19" rx="4"></rect>
                <rect id="Rectangle-4-Copy-48" x="544" y="0.5" width="29" height="19" rx="4"></rect>
                <rect id="Rectangle-4-Copy-47" x="575" y="0.5" width="15" height="19" rx="4"></rect>
                <rect id="Rectangle-4-Copy-46" x="592" y="0.5" width="40" height="19" rx="4"></rect>
                <rect id="Rectangle-4-Copy-45" x="634.516667" y="0.5" width="25" height="19" rx="4"></rect>
                <rect id="Rectangle-4-Copy-44" x="662.016667" y="0.5" width="19.4833333" height="19" rx="4"></rect>
                <rect id="Rectangle-4-Copy-43" x="684.5" y="0.5" width="13.5" height="19" rx="4"></rect>
                <rect id="Rectangle-4-Copy-42" x="700" y="0.5" width="13.5" height="19" rx="4"></rect>
                <rect id="Rectangle-4-Copy-41" x="716" y="0.5" width="23" height="19" rx="4"></rect>
                <rect id="Rectangle-4-Copy-113" x="681.516667" y="48" width="15" height="19" rx="4"></rect>
                <rect id="Rectangle-4-Copy-112" x="698.516667" y="48" width="15" height="19" rx="4"></rect>
                <rect id="Rectangle-4-Copy-111" x="715.983333" y="48" width="51" height="19" rx="4"></rect>
                <rect id="Rectangle-4-Copy-110" x="624.016667" y="48" width="13.5" height="19" rx="4"></rect>
                <rect id="Rectangle-4-Copy-109" x="639.516667" y="48" width="13.5" height="19" rx="4"></rect>
                <rect id="Rectangle-4-Copy-108" x="655.516667" y="48" width="23" height="19" rx="4"></rect>
                <rect id="Rectangle-4-Copy-396" x="359.016667" y="141.5" width="15" height="19" rx="4"></rect>
                <rect id="Rectangle-4-Copy-395" x="376.016667" y="141.5" width="25" height="19" rx="4"></rect>
                <rect id="Rectangle-4-Copy-394" x="404.033333" y="141.5" width="13.5" height="19" rx="4"></rect>
                <rect id="Rectangle-4-Copy-367" x="422.533333" y="141.5" width="35" height="19" rx="4"></rect>
                <rect id="Rectangle-4-Copy-82" x="744.966667" y="24" width="82.5333333" height="19" rx="4"></rect>
                <rect id="Rectangle-4-Copy-81" x="829.966667" y="24" width="15" height="19" rx="4"></rect>
                <rect id="Rectangle-4-Copy-80" x="847.5" y="24" width="29" height="19" rx="4"></rect>
                <rect id="Rectangle-4-Copy-79" x="1" y="24" width="15" height="19" rx="4"></rect>
                <rect id="Rectangle-4-Copy-78" x="18" y="24" width="15" height="19" rx="4"></rect>
                <rect id="Rectangle-4-Copy-77" x="35.4666667" y="24" width="25" height="19" rx="4"></rect>
                <rect id="Rectangle-4-Copy-76" x="62.5" y="24" width="45" height="19" rx="4"></rect>
                <rect id="Rectangle-4-Copy-75" x="110.5" y="24" width="13.5" height="19" rx="4"></rect>
                <rect id="Rectangle-4-Copy-74" x="126" y="24" width="13.5" height="19" rx="4"></rect>
                <rect id="Rectangle-4-Copy-73" x="581" y="24" width="15" height="19" rx="4"></rect>
                <rect id="Rectangle-4-Copy-72" x="598" y="24" width="15" height="19" rx="4"></rect>
                <rect id="Rectangle-4-Copy-71" x="615.466667" y="24" width="25" height="19" rx="4"></rect>
                <rect id="Rectangle-4-Copy-70" x="642.5" y="24" width="45" height="19" rx="4"></rect>
                <rect id="Rectangle-4-Copy-69" x="690.5" y="24" width="51" height="19" rx="4"></rect>
                <rect id="Rectangle-4-Copy-68" x="142" y="24" width="23" height="19" rx="4"></rect>
                <rect id="Rectangle-4-Copy-67" x="168.95" y="24" width="25" height="19" rx="4"></rect>
                <rect id="Rectangle-4-Copy-66" x="196.45" y="24" width="94" height="19" rx="4"></rect>
                <rect id="Rectangle-4-Copy-65" x="365.466667" y="24" width="15" height="19" rx="4"></rect>
                <rect id="Rectangle-4-Copy-64" x="383" y="24" width="29" height="19" rx="4"></rect>
                <rect id="Rectangle-4-Copy-63" x="414" y="24" width="15" height="19" rx="4"></rect>
                <rect id="Rectangle-4-Copy-62" x="431" y="24" width="40" height="19" rx="4"></rect>
                <rect id="Rectangle-4-Copy-61" x="473.516667" y="24" width="25" height="19" rx="4"></rect>
                <rect id="Rectangle-4-Copy-60" x="501.016667" y="24" width="19.4833333" height="19" rx="4"></rect>
                <rect id="Rectangle-4-Copy-59" x="523.5" y="24" width="13.5" height="19" rx="4"></rect>
                <rect id="Rectangle-4-Copy-58" x="539" y="24" width="13.5" height="19" rx="4"></rect>
                <rect id="Rectangle-4-Copy-209" x="501.016667" y="24" width="19.4833333" height="19" rx="4"></rect>
                <rect id="Rectangle-4-Copy-208" x="539" y="24" width="13.5" height="19" rx="4"></rect>
                <rect id="Rectangle-4-Copy-52" x="555" y="24" width="23" height="19" rx="4"></rect>
                <rect id="Rectangle-4-Copy-213" x="451.5" y="72" width="13.5" height="19" rx="4"></rect>
                <rect id="Rectangle-4-Copy-212" x="429.016667" y="72" width="19.4833333" height="19" rx="4"></rect>
                <rect id="Rectangle-4-Copy-211" x="467" y="72" width="13.5" height="19" rx="4"></rect>
                <rect id="Rectangle-4-Copy-210" x="483" y="72" width="40" height="19" rx="4"></rect>
                <rect id="Rectangle-4-Copy-88" x="292.966667" y="24" width="23.55" height="19" rx="4"></rect>
                <rect id="Rectangle-4-Copy-87" x="319.016667" y="24" width="19.4833333" height="19" rx="4"></rect>
                <rect id="Rectangle-4-Copy-86" x="340.5" y="24" width="23" height="19" rx="4"></rect>
                <rect id="Rectangle-4-Copy-100" x="385.516667" y="48" width="15" height="19" rx="4"></rect>
                <rect id="Rectangle-4-Copy-99" x="0.966666667" y="48" width="94" height="19" rx="4"></rect>
                <rect id="Rectangle-4-Copy-97" x="171.516667" y="48" width="45" height="19" rx="4"></rect>
                <rect id="Rectangle-4-Copy-202" x="131" y="71.5" width="62.95" height="19" rx="4"></rect>
                <rect id="Rectangle-4-Copy-96" x="218.516667" y="48" width="15" height="19" rx="4"></rect>
                <rect id="Rectangle-4-Copy-95" x="235.516667" y="48" width="40" height="19" rx="4"></rect>
                <rect id="Rectangle-4-Copy-94" x="278.033333" y="48" width="25" height="19" rx="4"></rect>
                <rect id="Rectangle-4-Copy-93" x="305.533333" y="48" width="19.4833333" height="19" rx="4"></rect>
                <rect id="Rectangle-4-Copy-92" x="328.016667" y="48" width="13.5" height="19" rx="4"></rect>
                <rect id="Rectangle-4-Copy-85" x="343.516667" y="48" width="13.5" height="19" rx="4"></rect>
                <rect id="Rectangle-4-Copy-84" x="359.516667" y="48" width="23" height="19" rx="4"></rect>
                <rect id="Rectangle-4-Copy-117" x="787.516667" y="48" width="13.5" height="19" rx="4"></rect>
                <rect id="Rectangle-4-Copy-116" x="803.016667" y="48" width="13.5" height="19" rx="4"></rect>
                <rect id="Rectangle-4-Copy-115" x="770.483333" y="48" width="15" height="19" rx="4"></rect>
                <rect id="Rectangle-4-Copy-91" x="97.4833333" y="48" width="23.55" height="19" rx="4"></rect>
                <rect id="Rectangle-4-Copy-90" x="123.533333" y="48" width="19.4833333" height="19" rx="4"></rect>
                <rect id="Rectangle-4-Copy-89" x="145.016667" y="48" width="23" height="19" rx="4"></rect>
                <rect id="Rectangle-4-Copy-207" x="0.966666667" y="71.5" width="25" height="19" rx="4"></rect>
                <rect id="Rectangle-4-Copy-206" x="28.4666667" y="71.5" width="82.5333333" height="19" rx="4"></rect>
                <rect id="Rectangle-4-Copy-205" x="113.466667" y="71.5" width="15" height="19" rx="4"></rect>
                <rect id="Rectangle-4-Copy-201" x="196.466667" y="71.5" width="25" height="19" rx="4"></rect>
                <rect id="Rectangle-4-Copy-200" x="223.5" y="71.5" width="45" height="19" rx="4"></rect>
                <rect id="Rectangle-4-Copy-199" x="271.5" y="71.5" width="13.5" height="19" rx="4"></rect>
                <rect id="Rectangle-4-Copy-198" x="287" y="71.5" width="13.5" height="19" rx="4"></rect>
                <rect id="Rectangle-4-Copy-196" x="700" y="71.5" width="74" height="19" rx="4"></rect>
                <rect id="Rectangle-4-Copy-195" x="776.466667" y="71.5" width="25" height="19" rx="4"></rect>
                <rect id="Rectangle-4-Copy-194" x="803.5" y="71.5" width="45" height="19" rx="4"></rect>
                <rect id="Rectangle-4-Copy-193" x="819" y="119" width="57" height="19" rx="4"></rect>
                <rect id="Rectangle-4-Copy-192" x="851.5" y="71.5" width="25" height="19" rx="4"></rect>
                <rect id="Rectangle-4-Copy-191" x="303" y="71.5" width="23" height="19" rx="4"></rect>
                <rect id="Rectangle-4-Copy-190" x="329.95" y="71.5" width="25" height="19" rx="4"></rect>
                <rect id="Rectangle-4-Copy-189" x="402.55" y="119" width="13.5" height="19" rx="4"></rect>
                <rect id="Rectangle-4-Copy-188" x="418.05" y="119" width="13.5" height="19" rx="4"></rect>
                <rect id="Rectangle-4-Copy-187" x="434.05" y="119" width="23" height="19" rx="4"></rect>
                <rect id="Rectangle-4-Copy-186" x="460" y="119" width="57" height="19" rx="4"></rect>
                <rect id="Rectangle-4-Copy-185" x="520" y="119" width="40" height="19" rx="4"></rect>
                <rect id="Rectangle-4-Copy-184" x="562" y="119" width="15" height="19" rx="4"></rect>
                <rect id="Rectangle-4-Copy-183" x="579" y="119" width="15" height="19" rx="4"></rect>
                <rect id="Rectangle-4-Copy-182" x="596" y="119" width="25" height="19" rx="4"></rect>
                <rect id="Rectangle-4-Copy-181" x="357.45" y="71.5" width="69" height="19" rx="4"></rect>
                <rect id="Rectangle-4-Copy-180" x="526.466667" y="71.5" width="15" height="19" rx="4"></rect>
                <rect id="Rectangle-4-Copy-179" x="544" y="71.5" width="29" height="19" rx="4"></rect>
                <rect id="Rectangle-4-Copy-178" x="575" y="71.5" width="15" height="19" rx="4"></rect>
                <rect id="Rectangle-4-Copy-177" x="592" y="71.5" width="40" height="19" rx="4"></rect>
                <rect id="Rectangle-4-Copy-176" x="634.516667" y="71.5" width="25" height="19" rx="4"></rect>
                <rect id="Rectangle-4-Copy-175" x="662.016667" y="71.5" width="19.4833333" height="19" rx="4"></rect>
                <rect id="Rectangle-4-Copy-174" x="684.5" y="71.5" width="13.5" height="19" rx="4"></rect>
                <rect id="Rectangle-4-Copy-171" x="681.516667" y="119" width="15" height="19" rx="4"></rect>
                <rect id="Rectangle-4-Copy-170" x="698.516667" y="119" width="15" height="19" rx="4"></rect>
                <rect id="Rectangle-4-Copy-168" x="624.016667" y="119" width="13.5" height="19" rx="4"></rect>
                <rect id="Rectangle-4-Copy-167" x="639.516667" y="119" width="13.5" height="19" rx="4"></rect>
                <rect id="Rectangle-4-Copy-166" x="655.516667" y="119" width="23" height="19" rx="4"></rect>
                <rect id="Rectangle-4-Copy-164" x="744.966667" y="95" width="82.5333333" height="19" rx="4"></rect>
                <rect id="Rectangle-4-Copy-163" x="829.966667" y="95" width="15" height="19" rx="4"></rect>
                <rect id="Rectangle-4-Copy-162" x="847.5" y="95" width="29" height="19" rx="4"></rect>
                <rect id="Rectangle-4-Copy-161" x="1" y="95" width="15" height="19" rx="4"></rect>
                <rect id="Rectangle-4-Copy-160" x="18" y="95" width="15" height="19" rx="4"></rect>
                <rect id="Rectangle-4-Copy-159" x="35.4666667" y="95" width="25" height="19" rx="4"></rect>
                <rect id="Rectangle-4-Copy-158" x="62.5" y="95" width="45" height="19" rx="4"></rect>
                <rect id="Rectangle-4-Copy-157" x="110.5" y="95" width="13.5" height="19" rx="4"></rect>
                <rect id="Rectangle-4-Copy-156" x="126" y="95" width="13.5" height="19" rx="4"></rect>
                <rect id="Rectangle-4-Copy-155" x="581" y="95" width="15" height="19" rx="4"></rect>
                <rect id="Rectangle-4-Copy-154" x="598" y="95" width="15" height="19" rx="4"></rect>
                <rect id="Rectangle-4-Copy-153" x="615.466667" y="95" width="25" height="19" rx="4"></rect>
                <rect id="Rectangle-4-Copy-152" x="642.5" y="95" width="45" height="19" rx="4"></rect>
                <rect id="Rectangle-4-Copy-151" x="690.5" y="95" width="51" height="19" rx="4"></rect>
                <rect id="Rectangle-4-Copy-150" x="142" y="95" width="23" height="19" rx="4"></rect>
                <rect id="Rectangle-4-Copy-149" x="168.95" y="95" width="25" height="19" rx="4"></rect>
                <rect id="Rectangle-4-Copy-148" x="196.45" y="95" width="40" height="19" rx="4"></rect>
                <rect id="Rectangle-4-Copy-147" x="365.466667" y="95" width="15" height="19" rx="4"></rect>
                <rect id="Rectangle-4-Copy-146" x="383" y="95" width="29" height="19" rx="4"></rect>
                <rect id="Rectangle-4-Copy-145" x="414" y="95" width="15" height="19" rx="4"></rect>
                <rect id="Rectangle-4-Copy-144" x="431" y="95" width="40" height="19" rx="4"></rect>
                <rect id="Rectangle-4-Copy-143" x="473.516667" y="95" width="25" height="19" rx="4"></rect>
                <rect id="Rectangle-4-Copy-142" x="501.016667" y="95" width="19.4833333" height="19" rx="4"></rect>
                <rect id="Rectangle-4-Copy-141" x="523.5" y="95" width="13.5" height="19" rx="4"></rect>
                <rect id="Rectangle-4-Copy-140" x="539" y="95" width="13.5" height="19" rx="4"></rect>
                <rect id="Rectangle-4-Copy-139" x="555" y="95" width="23" height="19" rx="4"></rect>
                <rect id="Rectangle-4-Copy-138" x="239" y="95" width="23.55" height="19" rx="4"></rect>
                <rect id="Rectangle-4-Copy-137" x="264.5" y="95" width="74" height="19" rx="4"></rect>
                <rect id="Rectangle-4-Copy-136" x="340.5" y="95" width="23" height="19" rx="4"></rect>
                <rect id="Rectangle-4-Copy-135" x="385.516667" y="119" width="15" height="19" rx="4"></rect>
                <rect id="Rectangle-4-Copy-134" x="0.966666667" y="119" width="94" height="19" rx="4"></rect>
                <rect id="Rectangle-4-Copy-133" x="171.516667" y="119" width="45" height="19" rx="4"></rect>
                <rect id="Rectangle-4-Copy-132" x="218.516667" y="119" width="15" height="19" rx="4"></rect>
                <rect id="Rectangle-4-Copy-131" x="235.516667" y="119" width="40" height="19" rx="4"></rect>
                <rect id="Rectangle-4-Copy-130" x="278.033333" y="119" width="25" height="19" rx="4"></rect>
                <rect id="Rectangle-4-Copy-129" x="305.533333" y="119" width="19.4833333" height="19" rx="4"></rect>
                <rect id="Rectangle-4-Copy-128" x="328.016667" y="119" width="13.5" height="19" rx="4"></rect>
                <rect id="Rectangle-4-Copy-127" x="343.516667" y="119" width="13.5" height="19" rx="4"></rect>
                <rect id="Rectangle-4-Copy-126" x="359.516667" y="119" width="23" height="19" rx="4"></rect>
                <rect id="Rectangle-4-Copy-125" x="787.516667" y="119" width="13.5" height="19" rx="4"></rect>
                <rect id="Rectangle-4-Copy-124" x="803.016667" y="119" width="13.5" height="19" rx="4"></rect>
                <rect id="Rectangle-4-Copy-123" x="770.483333" y="119" width="15" height="19" rx="4"></rect>
                <rect id="Rectangle-4-Copy-122" x="716.483333" y="119" width="51" height="19" rx="4"></rect>
                <rect id="Rectangle-4-Copy-121" x="97.4833333" y="119" width="23.55" height="19" rx="4"></rect>
                <rect id="Rectangle-4-Copy-120" x="123.533333" y="119" width="19.4833333" height="19" rx="4"></rect>
                <rect id="Rectangle-4-Copy-119" x="145.016667" y="119" width="23" height="19" rx="4"></rect>
                <rect id="Rectangle-4-Copy-393" x="0.966666667" y="141.5" width="25" height="19" rx="4"></rect>
                <rect id="Rectangle-4-Copy-392" x="28.4666667" y="141.5" width="82.5333333" height="19" rx="4"></rect>
                <rect id="Rectangle-4-Copy-391" x="113.466667" y="141.5" width="15" height="19" rx="4"></rect>
                <rect id="Rectangle-4-Copy-390" x="131" y="141.5" width="29" height="19" rx="4"></rect>
                <rect id="Rectangle-4-Copy-389" x="162" y="141.5" width="15" height="19" rx="4"></rect>
                <rect id="Rectangle-4-Copy-388" x="179" y="141.5" width="15" height="19" rx="4"></rect>
                <rect id="Rectangle-4-Copy-387" x="196.466667" y="141.5" width="25" height="19" rx="4"></rect>
                <rect id="Rectangle-4-Copy-386" x="223.5" y="141.5" width="45" height="19" rx="4"></rect>
                <rect id="Rectangle-4-Copy-385" x="271.5" y="141.5" width="13.5" height="19" rx="4"></rect>
                <rect id="Rectangle-4-Copy-384" x="287" y="141.5" width="13.5" height="19" rx="4"></rect>
                <rect id="Rectangle-4-Copy-383" x="742" y="141.5" width="15" height="19" rx="4"></rect>
                <rect id="Rectangle-4-Copy-382" x="759" y="141.5" width="15" height="19" rx="4"></rect>
                <rect id="Rectangle-4-Copy-381" x="776.466667" y="141.5" width="25" height="19" rx="4"></rect>
                <rect id="Rectangle-4-Copy-380" x="803.5" y="141.5" width="45" height="19" rx="4"></rect>
                <rect id="Rectangle-4-Copy-379" x="819" y="189" width="57" height="19" rx="4"></rect>
                <rect id="Rectangle-4-Copy-378" x="851.5" y="141.5" width="25" height="19" rx="4"></rect>
                <rect id="Rectangle-4-Copy-377" x="303" y="141.5" width="23" height="19" rx="4"></rect>
                <rect id="Rectangle-4-Copy-376" x="329.95" y="141.5" width="25" height="19" rx="4"></rect>
                <rect id="Rectangle-4-Copy-375" x="402.55" y="189" width="13.5" height="19" rx="4"></rect>
                <rect id="Rectangle-4-Copy-374" x="418.05" y="189" width="13.5" height="19" rx="4"></rect>
                <rect id="Rectangle-4-Copy-373" x="434.05" y="189" width="23" height="19" rx="4"></rect>
                <rect id="Rectangle-4-Copy-372" x="460" y="189" width="57" height="19" rx="4"></rect>
                <rect id="Rectangle-4-Copy-371" x="520" y="189" width="40" height="19" rx="4"></rect>
                <rect id="Rectangle-4-Copy-370" x="562" y="189" width="15" height="19" rx="4"></rect>
                <rect id="Rectangle-4-Copy-369" x="579" y="189" width="15" height="19" rx="4"></rect>
                <rect id="Rectangle-4-Copy-368" x="596" y="189" width="25" height="19" rx="4"></rect>
                <rect id="Rectangle-4-Copy-366" x="526.466667" y="141.5" width="15" height="19" rx="4"></rect>
                <rect id="Rectangle-4-Copy-365" x="544" y="141.5" width="29" height="19" rx="4"></rect>
                <rect id="Rectangle-4-Copy-364" x="575" y="141.5" width="15" height="19" rx="4"></rect>
                <rect id="Rectangle-4-Copy-363" x="592" y="141.5" width="40" height="19" rx="4"></rect>
                <rect id="Rectangle-4-Copy-362" x="634.516667" y="141.5" width="25" height="19" rx="4"></rect>
                <rect id="Rectangle-4-Copy-361" x="662.016667" y="141.5" width="19.4833333" height="19" rx="4"></rect>
                <rect id="Rectangle-4-Copy-360" x="684.5" y="141.5" width="13.5" height="19" rx="4"></rect>
                <rect id="Rectangle-4-Copy-359" x="700" y="141.5" width="13.5" height="19" rx="4"></rect>
                <rect id="Rectangle-4-Copy-358" x="716" y="141.5" width="23" height="19" rx="4"></rect>
                <rect id="Rectangle-4-Copy-357" x="681.516667" y="189" width="15" height="19" rx="4"></rect>
                <rect id="Rectangle-4-Copy-356" x="698.516667" y="189" width="26.4833333" height="19" rx="4"></rect>
                <rect id="Rectangle-4-Copy-354" x="624.016667" y="189" width="13.5" height="19" rx="4"></rect>
                <rect id="Rectangle-4-Copy-353" x="639.516667" y="189" width="13.5" height="19" rx="4"></rect>
                <rect id="Rectangle-4-Copy-352" x="655.516667" y="189" width="23" height="19" rx="4"></rect>
                <rect id="Rectangle-4-Copy-351" x="717.466667" y="165" width="25" height="19" rx="4"></rect>
                <rect id="Rectangle-4-Copy-350" x="744.966667" y="165" width="82.5333333" height="19" rx="4"></rect>
                <rect id="Rectangle-4-Copy-349" x="829.966667" y="165" width="15" height="19" rx="4"></rect>
                <rect id="Rectangle-4-Copy-348" x="847.5" y="165" width="29" height="19" rx="4"></rect>
                <rect id="Rectangle-4-Copy-347" x="1" y="165" width="15" height="19" rx="4"></rect>
                <rect id="Rectangle-4-Copy-346" x="18" y="165" width="15" height="19" rx="4"></rect>
                <rect id="Rectangle-4-Copy-345" x="35.4666667" y="165" width="25" height="19" rx="4"></rect>
                <rect id="Rectangle-4-Copy-344" x="62.5" y="165" width="45" height="19" rx="4"></rect>
                <rect id="Rectangle-4-Copy-343" x="110.5" y="165" width="13.5" height="19" rx="4"></rect>
                <rect id="Rectangle-4-Copy-342" x="126" y="165" width="13.5" height="19" rx="4"></rect>
                <rect id="Rectangle-4-Copy-341" x="581" y="165" width="15" height="19" rx="4"></rect>
                <rect id="Rectangle-4-Copy-340" x="598" y="165" width="15" height="19" rx="4"></rect>
                <rect id="Rectangle-4-Copy-339" x="615.466667" y="165" width="25" height="19" rx="4"></rect>
                <rect id="Rectangle-4-Copy-338" x="642.5" y="165" width="45" height="19" rx="4"></rect>
                <rect id="Rectangle-4-Copy-337" x="690.5" y="165" width="25" height="19" rx="4"></rect>
                <rect id="Rectangle-4-Copy-336" x="142" y="165" width="23" height="19" rx="4"></rect>
                <rect id="Rectangle-4-Copy-335" x="168.95" y="165" width="25" height="19" rx="4"></rect>
                <rect id="Rectangle-4-Copy-334" x="196.45" y="165" width="94" height="19" rx="4"></rect>
                <rect id="Rectangle-4-Copy-333" x="365.466667" y="165" width="15" height="19" rx="4"></rect>
                <rect id="Rectangle-4-Copy-332" x="383" y="165" width="29" height="19" rx="4"></rect>
                <rect id="Rectangle-4-Copy-331" x="414" y="165" width="15" height="19" rx="4"></rect>
                <rect id="Rectangle-4-Copy-330" x="431" y="165" width="40" height="19" rx="4"></rect>
                <rect id="Rectangle-4-Copy-329" x="473.516667" y="165" width="25" height="19" rx="4"></rect>
                <rect id="Rectangle-4-Copy-328" x="501.016667" y="165" width="19.4833333" height="19" rx="4"></rect>
                <rect id="Rectangle-4-Copy-327" x="523.5" y="165" width="13.5" height="19" rx="4"></rect>
                <rect id="Rectangle-4-Copy-326" x="539" y="165" width="13.5" height="19" rx="4"></rect>
                <rect id="Rectangle-4-Copy-325" x="501.016667" y="165" width="19.4833333" height="19" rx="4"></rect>
                <rect id="Rectangle-4-Copy-324" x="539" y="165" width="13.5" height="19" rx="4"></rect>
                <rect id="Rectangle-4-Copy-399" x="484.241667" y="141.5" width="13.5" height="19" rx="4"></rect>
                <rect id="Rectangle-4-Copy-398" x="461.758333" y="141.5" width="19.4833333" height="19" rx="4"></rect>
                <rect id="Rectangle-4-Copy-397" x="499.741667" y="141.5" width="25" height="19" rx="4"></rect>
                <rect id="Rectangle-4-Copy-323" x="555" y="165" width="23" height="19" rx="4"></rect>
                <rect id="Rectangle-4-Copy-322" x="451.5" y="213" width="13.5" height="19" rx="4"></rect>
                <rect id="Rectangle-4-Copy-321" x="429.016667" y="213" width="19.4833333" height="19" rx="4"></rect>
                <rect id="Rectangle-4-Copy-320" x="467" y="213" width="13.5" height="19" rx="4"></rect>
                <rect id="Rectangle-4-Copy-319" x="483" y="213" width="40" height="19" rx="4"></rect>
                <rect id="Rectangle-4-Copy-318" x="292.966667" y="165" width="23.55" height="19" rx="4"></rect>
                <rect id="Rectangle-4-Copy-317" x="319.016667" y="165" width="19.4833333" height="19" rx="4"></rect>
                <rect id="Rectangle-4-Copy-316" x="340.5" y="165" width="23" height="19" rx="4"></rect>
                <rect id="Rectangle-4-Copy-315" x="385.516667" y="189" width="15" height="19" rx="4"></rect>
                <rect id="Rectangle-4-Copy-314" x="0.966666667" y="189" width="94" height="19" rx="4"></rect>
                <rect id="Rectangle-4-Copy-313" x="171.516667" y="189" width="45" height="19" rx="4"></rect>
                <rect id="Rectangle-4-Copy-312" x="131" y="212.5" width="62.95" height="19" rx="4"></rect>
                <rect id="Rectangle-4-Copy-311" x="218.516667" y="189" width="15" height="19" rx="4"></rect>
                <rect id="Rectangle-4-Copy-310" x="235.516667" y="189" width="40" height="19" rx="4"></rect>
                <rect id="Rectangle-4-Copy-309" x="278.033333" y="189" width="25" height="19" rx="4"></rect>
                <rect id="Rectangle-4-Copy-308" x="305.533333" y="189" width="19.4833333" height="19" rx="4"></rect>
                <rect id="Rectangle-4-Copy-307" x="328.016667" y="189" width="13.5" height="19" rx="4"></rect>
                <rect id="Rectangle-4-Copy-306" x="343.516667" y="189" width="13.5" height="19" rx="4"></rect>
                <rect id="Rectangle-4-Copy-305" x="359.516667" y="189" width="23" height="19" rx="4"></rect>
                <rect id="Rectangle-4-Copy-304" x="787.516667" y="189" width="13.5" height="19" rx="4"></rect>
                <rect id="Rectangle-4-Copy-303" x="803.016667" y="189" width="13.5" height="19" rx="4"></rect>
                <rect id="Rectangle-4-Copy-302" x="770.483333" y="189" width="15" height="19" rx="4"></rect>
                <rect id="Rectangle-4-Copy-301" x="744.483333" y="189" width="23" height="19" rx="4"></rect>
                <rect id="Rectangle-4-Copy-355" x="727" y="189" width="15" height="19" rx="4"></rect>
                <rect id="Rectangle-4-Copy-300" x="97.4833333" y="189" width="23.55" height="19" rx="4"></rect>
                <rect id="Rectangle-4-Copy-299" x="123.533333" y="189" width="19.4833333" height="19" rx="4"></rect>
                <rect id="Rectangle-4-Copy-298" x="145.016667" y="189" width="23" height="19" rx="4"></rect>
                <rect id="Rectangle-4-Copy-297" x="0.966666667" y="212.5" width="25" height="19" rx="4"></rect>
                <rect id="Rectangle-4-Copy-296" x="28.4666667" y="212.5" width="82.5333333" height="19" rx="4"></rect>
                <rect id="Rectangle-4-Copy-295" x="113.466667" y="212.5" width="15" height="19" rx="4"></rect>
                <rect id="Rectangle-4-Copy-294" x="196.466667" y="212.5" width="25" height="19" rx="4"></rect>
                <rect id="Rectangle-4-Copy-293" x="223.5" y="212.5" width="45" height="19" rx="4"></rect>
                <rect id="Rectangle-4-Copy-292" x="271.5" y="212.5" width="13.5" height="19" rx="4"></rect>
                <rect id="Rectangle-4-Copy-291" x="287" y="212.5" width="13.5" height="19" rx="4"></rect>
                <rect id="Rectangle-4-Copy-289" x="759" y="212.5" width="15" height="19" rx="4"></rect>
                <rect id="Rectangle-4-Copy-288" x="776.466667" y="212.5" width="25" height="19" rx="4"></rect>
                <rect id="Rectangle-4-Copy-287" x="803.5" y="212.5" width="45" height="19" rx="4"></rect>
                <rect id="Rectangle-4-Copy-286" x="819" y="260" width="57" height="19" rx="4"></rect>
                <rect id="Rectangle-4-Copy-285" x="851.5" y="212.5" width="25" height="19" rx="4"></rect>
                <rect id="Rectangle-4-Copy-284" x="303" y="212.5" width="23" height="19" rx="4"></rect>
                <rect id="Rectangle-4-Copy-283" x="329.95" y="212.5" width="25" height="19" rx="4"></rect>
                <rect id="Rectangle-4-Copy-282" x="402.55" y="260" width="13.5" height="19" rx="4"></rect>
                <rect id="Rectangle-4-Copy-281" x="418.05" y="260" width="13.5" height="19" rx="4"></rect>
                <rect id="Rectangle-4-Copy-280" x="434.05" y="260" width="23" height="19" rx="4"></rect>
                <rect id="Rectangle-4-Copy-279" x="460" y="260" width="57" height="19" rx="4"></rect>
                <rect id="Rectangle-4-Copy-278" x="520" y="260" width="40" height="19" rx="4"></rect>
                <rect id="Rectangle-4-Copy-277" x="562" y="260" width="15" height="19" rx="4"></rect>
                <rect id="Rectangle-4-Copy-276" x="579" y="260" width="15" height="19" rx="4"></rect>
                <rect id="Rectangle-4-Copy-275" x="596" y="260" width="25" height="19" rx="4"></rect>
                <rect id="Rectangle-4-Copy-274" x="357.45" y="212.5" width="69" height="19" rx="4"></rect>
                <rect id="Rectangle-4-Copy-273" x="526.466667" y="212.5" width="15" height="19" rx="4"></rect>
                <rect id="Rectangle-4-Copy-272" x="544" y="212.5" width="29" height="19" rx="4"></rect>
                <rect id="Rectangle-4-Copy-271" x="575" y="212.5" width="15" height="19" rx="4"></rect>
                <rect id="Rectangle-4-Copy-270" x="592" y="212.5" width="40" height="19" rx="4"></rect>
                <rect id="Rectangle-4-Copy-269" x="634.516667" y="212.5" width="25" height="19" rx="4"></rect>
                <rect id="Rectangle-4-Copy-268" x="662.016667" y="212.5" width="19.4833333" height="19" rx="4"></rect>
                <rect id="Rectangle-4-Copy-267" x="684.5" y="212.5" width="13.5" height="19" rx="4"></rect>
                <rect id="Rectangle-4-Copy-266" x="700" y="212.5" width="57" height="19" rx="4"></rect>
                <rect id="Rectangle-4-Copy-264" x="681.516667" y="260" width="15" height="19" rx="4"></rect>
                <rect id="Rectangle-4-Copy-263" x="698.516667" y="260" width="15" height="19" rx="4"></rect>
                <rect id="Rectangle-4-Copy-262" x="715.983333" y="260" width="25" height="19" rx="4"></rect>
                <rect id="Rectangle-4-Copy-261" x="624.016667" y="260" width="13.5" height="19" rx="4"></rect>
                <rect id="Rectangle-4-Copy-260" x="639.516667" y="260" width="13.5" height="19" rx="4"></rect>
                <rect id="Rectangle-4-Copy-259" x="655.516667" y="260" width="23" height="19" rx="4"></rect>
                <rect id="Rectangle-4-Copy-258" x="717.466667" y="236" width="25" height="19" rx="4"></rect>
                <rect id="Rectangle-4-Copy-257" x="744.966667" y="236" width="82.5333333" height="19" rx="4"></rect>
                <rect id="Rectangle-4-Copy-256" x="829.966667" y="236" width="15" height="19" rx="4"></rect>
                <rect id="Rectangle-4-Copy-255" x="847.5" y="236" width="29" height="19" rx="4"></rect>
                <rect id="Rectangle-4-Copy-254" x="1" y="236" width="15" height="19" rx="4"></rect>
                <rect id="Rectangle-4-Copy-253" x="18" y="236" width="15" height="19" rx="4"></rect>
                <rect id="Rectangle-4-Copy-252" x="35.4666667" y="236" width="25" height="19" rx="4"></rect>
                <rect id="Rectangle-4-Copy-251" x="62.5" y="236" width="45" height="19" rx="4"></rect>
                <rect id="Rectangle-4-Copy-250" x="110.5" y="236" width="13.5" height="19" rx="4"></rect>
                <rect id="Rectangle-4-Copy-249" x="126" y="236" width="13.5" height="19" rx="4"></rect>
                <rect id="Rectangle-4-Copy-248" x="581" y="236" width="15" height="19" rx="4"></rect>
                <rect id="Rectangle-4-Copy-247" x="598" y="236" width="15" height="19" rx="4"></rect>
                <rect id="Rectangle-4-Copy-246" x="615.466667" y="236" width="25" height="19" rx="4"></rect>
                <rect id="Rectangle-4-Copy-245" x="642.5" y="236" width="45" height="19" rx="4"></rect>
                <rect id="Rectangle-4-Copy-244" x="690.5" y="236" width="25" height="19" rx="4"></rect>
                <rect id="Rectangle-4-Copy-243" x="142" y="236" width="23" height="19" rx="4"></rect>
                <rect id="Rectangle-4-Copy-242" x="168.95" y="236" width="25" height="19" rx="4"></rect>
                <rect id="Rectangle-4-Copy-241" x="196.45" y="236" width="40" height="19" rx="4"></rect>
                <rect id="Rectangle-4-Copy-240" x="365.466667" y="236" width="15" height="19" rx="4"></rect>
                <rect id="Rectangle-4-Copy-239" x="383" y="236" width="29" height="19" rx="4"></rect>
                <rect id="Rectangle-4-Copy-238" x="414" y="236" width="15" height="19" rx="4"></rect>
                <rect id="Rectangle-4-Copy-237" x="431" y="236" width="40" height="19" rx="4"></rect>
                <rect id="Rectangle-4-Copy-236" x="473.516667" y="236" width="25" height="19" rx="4"></rect>
                <rect id="Rectangle-4-Copy-235" x="501.016667" y="236" width="19.4833333" height="19" rx="4"></rect>
                <rect id="Rectangle-4-Copy-234" x="523.5" y="236" width="13.5" height="19" rx="4"></rect>
                <rect id="Rectangle-4-Copy-233" x="539" y="236" width="13.5" height="19" rx="4"></rect>
                <rect id="Rectangle-4-Copy-232" x="555" y="236" width="23" height="19" rx="4"></rect>
                <rect id="Rectangle-4-Copy-231" x="239" y="236" width="23.55" height="19" rx="4"></rect>
                <rect id="Rectangle-4-Copy-230" x="264.5" y="236" width="74" height="19" rx="4"></rect>
                <rect id="Rectangle-4-Copy-229" x="340.5" y="236" width="23" height="19" rx="4"></rect>
                <rect id="Rectangle-4-Copy-228" x="385.516667" y="260" width="15" height="19" rx="4"></rect>
                <rect id="Rectangle-4-Copy-227" x="0.966666667" y="260" width="94" height="19" rx="4"></rect>
                <rect id="Rectangle-4-Copy-226" x="171.516667" y="260" width="45" height="19" rx="4"></rect>
                <rect id="Rectangle-4-Copy-225" x="218.516667" y="260" width="15" height="19" rx="4"></rect>
                <rect id="Rectangle-4-Copy-224" x="235.516667" y="260" width="40" height="19" rx="4"></rect>
                <rect id="Rectangle-4-Copy-223" x="278.033333" y="260" width="25" height="19" rx="4"></rect>
                <rect id="Rectangle-4-Copy-222" x="305.533333" y="260" width="19.4833333" height="19" rx="4"></rect>
                <rect id="Rectangle-4-Copy-221" x="328.016667" y="260" width="13.5" height="19" rx="4"></rect>
                <rect id="Rectangle-4-Copy-220" x="343.516667" y="260" width="13.5" height="19" rx="4"></rect>
                <rect id="Rectangle-4-Copy-219" x="359.516667" y="260" width="23" height="19" rx="4"></rect>
                <rect id="Rectangle-4-Copy-218" x="787.516667" y="260" width="13.5" height="19" rx="4"></rect>
                <rect id="Rectangle-4-Copy-217" x="803.016667" y="260" width="13.5" height="19" rx="4"></rect>
                <rect id="Rectangle-4-Copy-216" x="770.483333" y="260" width="15" height="19" rx="4"></rect>
                <rect id="Rectangle-4-Copy-215" x="744.483333" y="260" width="23" height="19" rx="4"></rect>
                <rect id="Rectangle-4-Copy-214" x="97.4833333" y="260" width="23.55" height="19" rx="4"></rect>
                <rect id="Rectangle-4-Copy-204" x="123.533333" y="260" width="19.4833333" height="19" rx="4"></rect>
                <rect id="Rectangle-4-Copy-203" x="145.016667" y="260" width="23" height="19" rx="4"></rect>
            </g>
        </g>
    </g>
</svg>