<?xml version="1.0" encoding="UTF-8" standalone="no"?>
<!DOCTYPE svg PUBLIC "-//W3C//DTD SVG 1.1//EN" "http://www.w3.org/Graphics/SVG/1.1/DTD/svg11.dtd">
<!-- Generated by Microsoft Visio, SVG Export typical-relational-table.svg Page-1 -->
<svg xmlns="http://www.w3.org/2000/svg" xmlns:xlink="http://www.w3.org/1999/xlink" xmlns:ev="http://www.w3.org/2001/xml-events"
		xmlns:v="http://schemas.microsoft.com/visio/2003/SVGExtensions/" width="7.00155in" height="1.6477in"
		viewBox="0 0 504.111 118.635" xml:space="preserve" color-interpolation-filters="sRGB" class="st10">
	<v:documentProperties v:langID="1033" v:viewMarkup="false">
		<v:userDefs>
			<v:ud v:nameU="msvConvertTheme"/>
		</v:userDefs>
	</v:documentProperties>

	<style type="text/css">
	<![CDATA[
		.st1 {fill:#bfbfbf;stroke:none;stroke-linecap:round;stroke-linejoin:round;stroke-width:0.75}
		.st2 {stroke:#4b3c37;stroke-linecap:round;stroke-linejoin:round;stroke-width:0.997017}
		.st3 {stroke:#4b3c37;stroke-linecap:round;stroke-linejoin:round;stroke-width:1.00451}
		.st4 {stroke:#4b3c37;stroke-linecap:round;stroke-linejoin:round;stroke-width:2.00903}
		.st5 {stroke:#4b3c37;stroke-linecap:round;stroke-linejoin:round;stroke-width:0.989521}
		.st6 {stroke:none;stroke-linecap:round;stroke-linejoin:round;stroke-width:0.75}
		.st7 {fill:#4b3c37;font-family:Arial;font-size:1.32809em;font-weight:bold}
		.st8 {fill:#007b98;font-family:Arial;font-size:1.49785em}
		.st9 {fill:#cb6015;font-family:Arial;font-size:1.49785em}
		.st10 {fill:none;fill-rule:evenodd;font-size:12px;overflow:visible;stroke-linecap:square;stroke-miterlimit:3}
	]]>
	</style>

	<g v:mID="0" v:index="1" v:groupContext="foregroundPage">
		<title>Page-1</title>
		<v:pageProperties v:drawingScale="1" v:pageScale="1" v:drawingUnits="0" v:shadowOffsetX="9" v:shadowOffsetY="-9"/>
		<g id="shape1016-1" v:mID="1016" v:groupContext="shape" transform="translate(1.49224,-59.3229)">
			<title>Sheet.1016</title>
			<path d="M0 89.48 L0 118.63 L102.47 118.63 L102.47 89.48 L0 89.48 L0 89.48 Z" class="st1"/>
		</g>
		<g id="shape1017-3" v:mID="1017" v:groupContext="shape" transform="translate(103.967,-59.3229)">
			<title>Sheet.1017</title>
			<path d="M0 89.49 L0 118.63 L243.32 118.63 L243.32 89.49 L0 89.49 L0 89.49 Z" class="st1"/>
		</g>
		<g id="shape1018-5" v:mID="1018" v:groupContext="shape" transform="translate(347.29,-59.3229)">
			<title>Sheet.1018</title>
			<path d="M0 89.49 L0 118.63 L77.66 118.63 L77.66 89.49 L0 89.49 L0 89.49 Z" class="st1"/>
		</g>
		<g id="shape1019-7" v:mID="1019" v:groupContext="shape" transform="translate(424.951,-59.3079)">
			<title>Sheet.1019</title>
			<path d="M0 89.49 L0 118.63 L77.68 118.63 L77.68 89.49 L0 89.49 L0 89.49 Z" class="st1"/>
		</g>
		<g id="shape1020-9" v:mID="1020" v:groupContext="shape" transform="translate(1.49224,-1.00404)">
			<title>Sheet.1020</title>
			<path d="M0 89.47 L0 118.63 L102.47 118.63 L102.47 89.47 L0 89.47 L0 89.47 Z" class="st1"/>
		</g>
		<g id="shape1021-11" v:mID="1021" v:groupContext="shape" transform="translate(103.967,-0.996548)">
			<title>Sheet.1021</title>
			<path d="M0 89.47 L0 118.63 L243.32 118.63 L243.32 89.47 L0 89.47 L0 89.47 Z" class="st1"/>
		</g>
		<g id="shape1022-13" v:mID="1022" v:groupContext="shape" transform="translate(347.29,-0.996548)">
			<title>Sheet.1022</title>
			<path d="M0 89.47 L0 118.63 L77.66 118.63 L77.66 89.47 L0 89.47 L0 89.47 Z" class="st1"/>
		</g>
		<g id="shape1023-15" v:mID="1023" v:groupContext="shape" transform="translate(424.951,-0.981569)">
			<title>Sheet.1023</title>
			<path d="M0 89.46 L0 118.63 L77.68 118.63 L77.68 89.46 L0 89.46 L0 89.46 Z" class="st1"/>
		</g>
		<g id="shape1024-17" v:mID="1024" v:groupContext="shape" transform="translate(103.96,-0.509746)">
			<title>Sheet.1024</title>
			<path d="M0 1.01 L0 118.63" class="st2"/>
		</g>
		<g id="shape1025-20" v:mID="1025" v:groupContext="shape" transform="translate(347.29,-0.502257)">
			<title>Sheet.1025</title>
			<path d="M0 1.01 L0 118.63" class="st3"/>
		</g>
		<g id="shape1026-23" v:mID="1026" v:groupContext="shape" transform="translate(424.951,-0.502257)">
			<title>Sheet.1026</title>
			<path d="M0 1.01 L0 118.63" class="st3"/>
		</g>
		<g id="shape1027-26" v:mID="1027" v:groupContext="shape" transform="translate(1.00451,-88.4562)">
			<title>Sheet.1027</title>
			<path d="M0 118.63 L502.1 118.63" class="st4"/>
		</g>
		<g id="shape1028-29" v:mID="1028" v:groupContext="shape" transform="translate(1.00451,-59.3079)">
			<title>Sheet.1028</title>
			<path d="M0 118.63 L502.1 118.63" class="st5"/>
		</g>
		<g id="shape1029-32" v:mID="1029" v:groupContext="shape" transform="translate(1.00451,-30.1597)">
			<title>Sheet.1029</title>
			<path d="M0 118.63 L502.1 118.63" class="st5"/>
		</g>
		<g id="shape1030-35" v:mID="1030" v:groupContext="shape" transform="translate(1.49224,-0.509746)">
			<title>Sheet.1030</title>
			<path d="M0 1.01 L0 118.63" class="st2"/>
		</g>
		<g id="shape1031-38" v:mID="1031" v:groupContext="shape" transform="translate(502.627,-0.502257)">
			<title>Sheet.1031</title>
			<path d="M0 1.02 L0 118.63" class="st5"/>
		</g>
		<g id="shape1032-41" v:mID="1032" v:groupContext="shape" transform="translate(1.00451,-117.634)">
			<title>Sheet.1032</title>
			<path d="M0 118.63 L502.1 118.63" class="st5"/>
		</g>
		<g id="shape1033-44" v:mID="1033" v:groupContext="shape" transform="translate(1.00451,-0.98157)">
			<title>Sheet.1033</title>
			<path d="M0 118.63 L502.1 118.63" class="st5"/>
		</g>
		<g id="shape1034-47" v:mID="1034" v:groupContext="shape" transform="translate(45.6198,-92.3101)">
			<title>Sheet.1034</title>
			<desc>id</desc>
			<v:textBlock v:margins="rect(0,0,0,0)"/>
			<v:textRect cx="10.6916" cy="109.071" width="21.39" height="19.1281"/>
			<path d="M21.38 99.51 L0 99.51 L0 118.63 L21.38 118.63 L21.38 99.51" class="st6"/>
			<text x="3.61" y="113.85" class="st7" v:langID="1033"><v:paragraph v:horizAlign="1"/><v:tabList/>id</text>		</g>
		<g id="shape1035-51" v:mID="1035" v:groupContext="shape" transform="translate(211.501,-92.3101)">
			<title>Sheet.1035</title>
			<desc>name</desc>
			<v:textBlock v:margins="rect(0,0,0,0)"/>
			<v:textRect cx="25.8654" cy="109.071" width="51.74" height="19.1281"/>
			<path d="M51.73 99.51 L0 99.51 L0 118.63 L51.73 118.63 L51.73 99.51" class="st6"/>
			<text x="5.05" y="113.85" class="st7" v:langID="1033"><v:paragraph v:horizAlign="1"/><v:tabList/>name</text>		</g>
		<g id="shape1036-55" v:mID="1036" v:groupContext="shape" transform="translate(356.877,-92.3101)">
			<title>Sheet.1036</title>
			<desc>runtime</desc>
			<v:textBlock v:margins="rect(0,0,0,0)"/>
			<v:textRect cx="36.1517" cy="109.071" width="72.31" height="19.1281"/>
			<path d="M72.3 99.51 L0 99.51 L0 118.63 L72.3 118.63 L72.3 99.51" class="st6"/>
			<text x="6.93" y="113.85" class="st7" v:langID="1033"><v:paragraph v:horizAlign="1"/><v:tabList/>runtime</text>		</g>
		<g id="shape1037-59" v:mID="1037" v:groupContext="shape" transform="translate(447.502,-92.3101)">
			<title>Sheet.1037</title>
			<desc>year</desc>
			<v:textBlock v:margins="rect(0,0,0,0)"/>
			<v:textRect cx="21.4037" cy="109.071" width="42.81" height="19.1281"/>
			<path d="M42.81 99.51 L0 99.51 L0 118.63 L42.81 118.63 L42.81 99.51" class="st6"/>
			<text x="5.01" y="113.85" class="st7" v:langID="1033"><v:paragraph v:horizAlign="1"/><v:tabList/>year</text>		</g>
		<g id="shape1038-63" v:mID="1038" v:groupContext="shape" transform="translate(47.7809,-60.5037)">
			<title>Sheet.1038</title>
			<desc>1</desc>
			<v:textBlock v:margins="rect(0,0,0,0)"/>
			<v:textRect cx="8.62149" cy="107.848" width="17.25" height="21.5726"/>
			<path d="M17.24 97.06 L0 97.06 L0 118.63 L17.24 118.63 L17.24 97.06" class="st6"/>
			<text x="3.62" y="113.24" class="st8" v:langID="1033"><v:paragraph v:horizAlign="1"/><v:tabList/>1</text>		</g>
		<g id="shape1039-67" v:mID="1039" v:groupContext="shape" transform="translate(188.207,-60.5037)">
			<title>Sheet.1039</title>
			<desc>Insurgent</desc>
			<v:textBlock v:margins="rect(0,0,0,0)"/>
			<v:textRect cx="45.9656" cy="107.848" width="91.94" height="21.5726"/>
			<path d="M91.93 97.06 L0 97.06 L0 118.63 L91.93 118.63 L91.93 97.06" class="st6"/>
			<text x="8.49" y="113.24" class="st9" v:langID="1033"><v:paragraph v:horizAlign="1"/><v:tabList/>Insurgent</text>		</g>
		<g id="shape1040-71" v:mID="1040" v:groupContext="shape" transform="translate(371.882,-60.5037)">
			<title>Sheet.1040</title>
			<desc>119</desc>
			<v:textBlock v:margins="rect(0,0,0,0)"/>
			<v:textRect cx="20.1174" cy="107.848" width="40.24" height="21.5726"/>
			<path d="M40.23 97.06 L0 97.06 L0 118.63 L40.23 118.63 L40.23 97.06" class="st6"/>
			<text x="5.12" y="113.24" class="st9" v:langID="1033"><v:paragraph v:horizAlign="1"/><v:tabList/>119</text>		</g>
		<g id="shape1041-75" v:mID="1041" v:groupContext="shape" transform="translate(443.903,-60.5037)">
			<title>Sheet.1041</title>
			<desc>2015</desc>
			<v:textBlock v:margins="rect(0,0,0,0)"/>
			<v:textRect cx="25.8654" cy="107.848" width="51.74" height="21.5726"/>
			<path d="M51.73 97.06 L0 97.06 L0 118.63 L51.73 118.63 L51.73 97.06" class="st6"/>
			<text x="5.87" y="113.24" class="st9" v:langID="1033"><v:paragraph v:horizAlign="1"/><v:tabList/>2015</text>		</g>
		<g id="shape1042-79" v:mID="1042" v:groupContext="shape" transform="translate(47.7809,-31.3455)">
			<title>Sheet.1042</title>
			<desc>2</desc>
			<v:textBlock v:margins="rect(0,0,0,0)"/>
			<v:textRect cx="8.62149" cy="107.848" width="17.25" height="21.5726"/>
			<path d="M17.24 97.06 L0 97.06 L0 118.63 L17.24 118.63 L17.24 97.06" class="st6"/>
			<text x="3.62" y="113.24" class="st8" v:langID="1033"><v:paragraph v:horizAlign="1"/><v:tabList/>2</text>		</g>
		<g id="shape1043-83" v:mID="1043" v:groupContext="shape" transform="translate(183.645,-31.3455)">
			<title>Sheet.1043</title>
			<desc>Interstellar</desc>
			<v:textBlock v:margins="rect(0,0,0,0)"/>
			<v:textRect cx="51.123" cy="107.848" width="102.25" height="21.5726"/>
			<path d="M102.25 97.06 L0 97.06 L0 118.63 L102.25 118.63 L102.25 97.06" class="st6"/>
			<text x="9.17" y="113.24" class="st9" v:langID="1033"><v:paragraph v:horizAlign="1"/><v:tabList/>Interstellar</text>		</g>
		<g id="shape1044-87" v:mID="1044" v:groupContext="shape" transform="translate(376.206,-31.3455)">
			<title>Sheet.1044</title>
			<desc>98</desc>
			<v:textBlock v:margins="rect(0,0,0,0)"/>
			<v:textRect cx="14.3695" cy="107.848" width="28.74" height="21.5726"/>
			<path d="M28.74 97.06 L0 97.06 L0 118.63 L28.74 118.63 L28.74 97.06" class="st6"/>
			<text x="4.37" y="113.24" class="st9" v:langID="1033"><v:paragraph v:horizAlign="1"/><v:tabList/>98</text>		</g>
		<g id="shape1045-91" v:mID="1045" v:groupContext="shape" transform="translate(443.903,-31.3455)">
			<title>Sheet.1045</title>
			<desc>2014</desc>
			<v:textBlock v:margins="rect(0,0,0,0)"/>
			<v:textRect cx="25.8654" cy="107.848" width="51.74" height="21.5726"/>
			<path d="M51.73 97.06 L0 97.06 L0 118.63 L51.73 118.63 L51.73 97.06" class="st6"/>
			<text x="5.87" y="113.24" class="st9" v:langID="1033"><v:paragraph v:horizAlign="1"/><v:tabList/>2014</text>		</g>
		<g id="shape1046-95" v:mID="1046" v:groupContext="shape" transform="translate(47.7809,-2.1873)">
			<title>Sheet.1046</title>
			<desc>3</desc>
			<v:textBlock v:margins="rect(0,0,0,0)"/>
			<v:textRect cx="8.62149" cy="107.848" width="17.25" height="21.5726"/>
			<path d="M17.24 97.06 L0 97.06 L0 118.63 L17.24 118.63 L17.24 97.06" class="st6"/>
			<text x="3.62" y="113.24" class="st8" v:langID="1033"><v:paragraph v:horizAlign="1"/><v:tabList/>3</text>		</g>
		<g id="shape1047-99" v:mID="1047" v:groupContext="shape" transform="translate(180.884,-2.1873)">
			<title>Sheet.1047</title>
			<desc>Mockingjay</desc>
			<v:textBlock v:margins="rect(0,0,0,0)"/>
			<v:textRect cx="54.5697" cy="107.848" width="109.14" height="21.5726"/>
			<path d="M109.14 97.06 L0 97.06 L0 118.63 L109.14 118.63 L109.14 97.06" class="st6"/>
			<text x="9.62" y="113.24" class="st9" v:langID="1033"><v:paragraph v:horizAlign="1"/><v:tabList/>Mockingjay</text>		</g>
		<g id="shape1048-103" v:mID="1048" v:groupContext="shape" transform="translate(371.164,-2.1873)">
			<title>Sheet.1048</title>
			<desc>122</desc>
			<v:textBlock v:margins="rect(0,0,0,0)"/>
			<v:textRect cx="20.1174" cy="107.848" width="40.24" height="21.5726"/>
			<path d="M40.23 97.06 L0 97.06 L0 118.63 L40.23 118.63 L40.23 97.06" class="st6"/>
			<text x="5.12" y="113.24" class="st9" v:langID="1033"><v:paragraph v:horizAlign="1"/><v:tabList/>122</text>		</g>
		<g id="shape1049-107" v:mID="1049" v:groupContext="shape" transform="translate(443.903,-2.1873)">
			<title>Sheet.1049</title>
			<desc>2014</desc>
			<v:textBlock v:margins="rect(0,0,0,0)"/>
			<v:textRect cx="25.8654" cy="107.848" width="51.74" height="21.5726"/>
			<path d="M51.73 97.06 L0 97.06 L0 118.63 L51.73 118.63 L51.73 97.06" class="st6"/>
			<text x="5.87" y="113.24" class="st9" v:langID="1033"><v:paragraph v:horizAlign="1"/><v:tabList/>2014</text>		</g>
	</g>
</svg>
