<?xml version="1.0" encoding="UTF-8" standalone="no"?>
<!DOCTYPE svg PUBLIC "-//W3C//DTD SVG 1.1//EN" "http://www.w3.org/Graphics/SVG/1.1/DTD/svg11.dtd">
<!-- Generated by Microsoft Visio, SVG Export table.svg Page-1 -->
<svg xmlns="http://www.w3.org/2000/svg" xmlns:xlink="http://www.w3.org/1999/xlink" xmlns:ev="http://www.w3.org/2001/xml-events"
		xmlns:v="http://schemas.microsoft.com/visio/2003/SVGExtensions/" width="6.31405in" height="1.65635in"
		viewBox="0 0 454.611 119.257" xml:space="preserve" color-interpolation-filters="sRGB" class="st11">
	<v:documentProperties v:langID="1033" v:viewMarkup="false">
		<v:userDefs>
			<v:ud v:nameU="msvConvertTheme"/>
		</v:userDefs>
	</v:documentProperties>

	<style type="text/css">
	<![CDATA[
		.st1 {fill:#bfbfbf;stroke:none;stroke-linecap:round;stroke-linejoin:round;stroke-width:0.75}
		.st2 {stroke:#4b3c37;stroke-linecap:round;stroke-linejoin:round;stroke-width:0.997017}
		.st3 {stroke:#4b3c37;stroke-linecap:round;stroke-linejoin:round;stroke-width:1.00451}
		.st4 {stroke:#4b3c37;stroke-linecap:round;stroke-linejoin:round;stroke-width:2.00903}
		.st5 {stroke:#4b3c37;stroke-linecap:round;stroke-linejoin:round;stroke-width:0.989521}
		.st6 {stroke:none;stroke-linecap:round;stroke-linejoin:round;stroke-width:0.75}
		.st7 {fill:#4b3c37;font-family:Arial;font-size:1.32809em;font-weight:bold}
		.st8 {fill:#cb6015;font-family:Arial;font-size:1.49785em}
		.st9 {fill:#000000;font-family:Arial;font-size:1.49785em}
		.st10 {fill:#0d6886;font-family:Arial;font-size:1.49785em}
		.st11 {fill:none;fill-rule:evenodd;font-size:12px;overflow:visible;stroke-linecap:square;stroke-miterlimit:3}
	]]>
	</style>

	<g v:mID="0" v:index="1" v:groupContext="foregroundPage">
		<title>Page-1</title>
		<v:pageProperties v:drawingScale="1" v:pageScale="1" v:drawingUnits="0" v:shadowOffsetX="9" v:shadowOffsetY="-9"/>
		<g id="shape1016-1" v:mID="1016" v:groupContext="shape" transform="translate(1.49224,-59.9455)">
			<title>Sheet.1016</title>
			<path d="M0 90.1 L0 119.26 L102.47 119.26 L102.47 90.1 L0 90.1 L0 90.1 Z" class="st1"/>
		</g>
		<g id="shape1017-3" v:mID="1017" v:groupContext="shape" transform="translate(95.857,-59.9455)">
			<title>Sheet.1017</title>
			<path d="M0 90.11 L0 119.26 L263.25 119.26 L263.25 90.11 L0 90.11 L0 90.11 Z" class="st1"/>
		</g>
		<g id="shape1018-5" v:mID="1018" v:groupContext="shape" transform="translate(347.29,-59.9455)">
			<title>Sheet.1018</title>
			<path d="M0 90.11 L0 119.26 L77.66 119.26 L77.66 90.11 L0 90.11 L0 90.11 Z" class="st1"/>
		</g>
		<g id="shape1019-7" v:mID="1019" v:groupContext="shape" transform="translate(413.455,-59.9306)">
			<title>Sheet.1019</title>
			<path d="M0 90.11 L0 119.26 L40.23 119.26 L40.23 90.11 L0 90.11 L0 90.11 Z" class="st1"/>
		</g>
		<g id="shape1020-9" v:mID="1020" v:groupContext="shape" transform="translate(1.49224,-1.62664)">
			<title>Sheet.1020</title>
			<path d="M0 90.09 L0 119.26 L102.47 119.26 L102.47 90.09 L0 90.09 L0 90.09 Z" class="st1"/>
		</g>
		<g id="shape1021-11" v:mID="1021" v:groupContext="shape" transform="translate(95.857,-1.61916)">
			<title>Sheet.1021</title>
			<path d="M0 90.09 L0 119.26 L263.25 119.26 L263.25 90.09 L0 90.09 L0 90.09 Z" class="st1"/>
		</g>
		<g id="shape1022-13" v:mID="1022" v:groupContext="shape" transform="translate(347.29,-1.61916)">
			<title>Sheet.1022</title>
			<path d="M0 90.09 L0 119.26 L77.66 119.26 L77.66 90.09 L0 90.09 L0 90.09 Z" class="st1"/>
		</g>
		<g id="shape1023-15" v:mID="1023" v:groupContext="shape" transform="translate(413.455,-1.60418)">
			<title>Sheet.1023</title>
			<path d="M0 90.08 L0 119.26 L40.23 119.26 L40.23 90.08 L0 90.08 L0 90.08 Z" class="st1"/>
		</g>
		<g id="shape1024-17" v:mID="1024" v:groupContext="shape" transform="translate(91.357,-0.498508)">
			<title>Sheet.1024</title>
			<path d="M0 1.63 L0 119.26" class="st2"/>
		</g>
		<g id="shape1025-20" v:mID="1025" v:groupContext="shape" transform="translate(262.357,-1.12486)">
			<title>Sheet.1025</title>
			<path d="M0 1.63 L0 119.26" class="st3"/>
		</g>
		<g id="shape1026-23" v:mID="1026" v:groupContext="shape" transform="translate(359.107,-1.12486)">
			<title>Sheet.1026</title>
			<path d="M0 1.63 L0 119.26" class="st3"/>
		</g>
		<g id="shape1027-26" v:mID="1027" v:groupContext="shape" transform="translate(1.00451,-89.0788)">
			<title>Sheet.1027</title>
			<path d="M0 119.26 L452.6 119.26" class="st4"/>
		</g>
		<g id="shape1028-29" v:mID="1028" v:groupContext="shape" transform="translate(1.00451,-59.9306)">
			<title>Sheet.1028</title>
			<path d="M0 119.26 L452.6 119.26" class="st5"/>
		</g>
		<g id="shape1029-32" v:mID="1029" v:groupContext="shape" transform="translate(1.00451,-30.7823)">
			<title>Sheet.1029</title>
			<path d="M0 119.26 L452.6 119.26" class="st5"/>
		</g>
		<g id="shape1030-35" v:mID="1030" v:groupContext="shape" transform="translate(1.49224,-1.13235)">
			<title>Sheet.1030</title>
			<path d="M0 1.63 L0 119.26" class="st2"/>
		</g>
		<g id="shape1031-38" v:mID="1031" v:groupContext="shape" transform="translate(453.607,-1.12486)">
			<title>Sheet.1031</title>
			<path d="M0 1.65 L0 119.26" class="st5"/>
		</g>
		<g id="shape1032-41" v:mID="1032" v:groupContext="shape" transform="translate(1.00451,-118.257)">
			<title>Sheet.1032</title>
			<path d="M0 119.26 L452.6 119.26" class="st5"/>
		</g>
		<g id="shape1033-44" v:mID="1033" v:groupContext="shape" transform="translate(1.00451,-1.60418)">
			<title>Sheet.1033</title>
			<path d="M0 119.26 L452.6 119.26" class="st5"/>
		</g>
		<g id="shape1034-47" v:mID="1034" v:groupContext="shape" transform="translate(305.107,-93.4977)">
			<title>Sheet.1034</title>
			<desc>id</desc>
			<v:textBlock v:margins="rect(0,0,0,0)"/>
			<v:textRect cx="10.6916" cy="109.693" width="21.39" height="19.1281"/>
			<path d="M21.38 100.13 L0 100.13 L0 119.26 L21.38 119.26 L21.38 100.13" class="st6"/>
			<text x="3.61" y="114.47" class="st7" v:langID="1033"><v:paragraph v:horizAlign="1"/><v:tabList/>id</text>		</g>
		<g id="shape1035-51" v:mID="1035" v:groupContext="shape" transform="translate(133.803,-94.1113)">
			<title>Sheet.1035</title>
			<desc>name</desc>
			<v:textBlock v:margins="rect(0,0,0,0)"/>
			<v:textRect cx="36.1517" cy="109.693" width="72.31" height="19.1281"/>
			<path d="M72.3 100.13 L0 100.13 L0 119.26 L72.3 119.26 L72.3 100.13" class="st6"/>
			<text x="15.34" y="114.47" class="st7" v:langID="1033"><v:paragraph v:horizAlign="1"/><v:tabList/>name</text>		</g>
		<g id="shape1036-55" v:mID="1036" v:groupContext="shape" transform="translate(367.955,-92.9327)">
			<title>Sheet.1036</title>
			<desc>runtime</desc>
			<v:textBlock v:margins="rect(0,0,0,0)"/>
			<v:textRect cx="36.1517" cy="109.693" width="72.31" height="19.1281"/>
			<path d="M72.3 100.13 L0 100.13 L0 119.26 L72.3 119.26 L72.3 100.13" class="st6"/>
			<text x="6.93" y="114.47" class="st7" v:langID="1033"><v:paragraph v:horizAlign="1"/><v:tabList/>runtime</text>		</g>
		<g id="shape1037-59" v:mID="1037" v:groupContext="shape" transform="translate(29.7061,-93.4977)">
			<title>Sheet.1037</title>
			<desc>year</desc>
			<v:textBlock v:margins="rect(0,0,0,0)"/>
			<v:textRect cx="21.4037" cy="109.693" width="42.81" height="19.1281"/>
			<path d="M42.81 100.13 L0 100.13 L0 119.26 L42.81 119.26 L42.81 100.13" class="st6"/>
			<text x="5.01" y="114.47" class="st7" v:langID="1033"><v:paragraph v:horizAlign="1"/><v:tabList/>year</text>		</g>
		<g id="shape1038-63" v:mID="1038" v:groupContext="shape" transform="translate(307.268,-61.6913)">
			<title>Sheet.1038</title>
			<desc>1</desc>
			<v:textBlock v:margins="rect(0,0,0,0)"/>
			<v:textRect cx="8.62149" cy="108.471" width="17.25" height="21.5726"/>
			<path d="M17.24 97.68 L0 97.68 L0 119.26 L17.24 119.26 L17.24 97.68" class="st6"/>
			<text x="3.62" y="113.86" class="st8" v:langID="1033"><v:paragraph v:horizAlign="1"/><v:tabList/>1</text>		</g>
		<g id="shape1039-67" v:mID="1039" v:groupContext="shape" transform="translate(128.492,-61.1263)">
			<title>Sheet.1039</title>
			<desc>Insurgent</desc>
			<v:userDefs>
				<v:ud v:nameU="msvThemeColors" v:val="VT0(36):26"/>
			</v:userDefs>
			<v:textBlock v:margins="rect(0,0,0,0)"/>
			<v:textRect cx="45.9656" cy="108.471" width="91.94" height="21.5726"/>
			<path d="M91.93 97.68 L0 97.68 L0 119.26 L91.93 119.26 L91.93 97.68" class="st6"/>
			<text x="8.49" y="113.86" class="st9" v:langID="1033"><v:paragraph v:horizAlign="1"/><v:tabList/>Insurgent</text>		</g>
		<g id="shape1040-71" v:mID="1040" v:groupContext="shape" transform="translate(382.96,-61.1263)">
			<title>Sheet.1040</title>
			<desc>119</desc>
			<v:textBlock v:margins="rect(0,0,0,0)"/>
			<v:textRect cx="20.1174" cy="108.471" width="40.24" height="21.5726"/>
			<path d="M40.23 97.68 L0 97.68 L0 119.26 L40.23 119.26 L40.23 97.68" class="st6"/>
			<text x="5.12" y="113.86" class="st8" v:langID="1033"><v:paragraph v:horizAlign="1"/><v:tabList/>119</text>		</g>
		<g id="shape1041-75" v:mID="1041" v:groupContext="shape" transform="translate(26.107,-61.6913)">
			<title>Sheet.1041</title>
			<desc>2015</desc>
			<v:textBlock v:margins="rect(0,0,0,0)"/>
			<v:textRect cx="25.8654" cy="108.471" width="51.74" height="21.5726"/>
			<path d="M51.73 97.68 L0 97.68 L0 119.26 L51.73 119.26 L51.73 97.68" class="st6"/>
			<text x="5.87" y="113.86" class="st10" v:langID="1033"><v:paragraph v:horizAlign="1"/><v:tabList/>2015</text>		</g>
		<g id="shape1042-79" v:mID="1042" v:groupContext="shape" transform="translate(307.268,-32.5331)">
			<title>Sheet.1042</title>
			<desc>2</desc>
			<v:textBlock v:margins="rect(0,0,0,0)"/>
			<v:textRect cx="8.62149" cy="108.471" width="17.25" height="21.5726"/>
			<path d="M17.24 97.68 L0 97.68 L0 119.26 L17.24 119.26 L17.24 97.68" class="st6"/>
			<text x="3.62" y="113.86" class="st8" v:langID="1033"><v:paragraph v:horizAlign="1"/><v:tabList/>2</text>		</g>
		<g id="shape1043-83" v:mID="1043" v:groupContext="shape" transform="translate(123.93,-31.9681)">
			<title>Sheet.1043</title>
			<desc>Interstellar</desc>
			<v:textBlock v:margins="rect(0,0,0,0)"/>
			<v:textRect cx="51.123" cy="108.471" width="102.25" height="21.5726"/>
			<path d="M102.25 97.68 L0 97.68 L0 119.26 L102.25 119.26 L102.25 97.68" class="st6"/>
			<text x="9.17" y="113.86" class="st9" v:langID="1033"><v:paragraph v:horizAlign="1"/><v:tabList/>Interstellar</text>		</g>
		<g id="shape1044-87" v:mID="1044" v:groupContext="shape" transform="translate(387.284,-31.9681)">
			<title>Sheet.1044</title>
			<desc>98</desc>
			<v:textBlock v:margins="rect(0,0,0,0)"/>
			<v:textRect cx="14.3695" cy="108.471" width="28.74" height="21.5726"/>
			<path d="M28.74 97.68 L0 97.68 L0 119.26 L28.74 119.26 L28.74 97.68" class="st6"/>
			<text x="4.37" y="113.86" class="st8" v:langID="1033"><v:paragraph v:horizAlign="1"/><v:tabList/>98</text>		</g>
		<g id="shape1045-91" v:mID="1045" v:groupContext="shape" transform="translate(26.107,-32.5331)">
			<title>Sheet.1045</title>
			<desc>2014</desc>
			<v:textBlock v:margins="rect(0,0,0,0)"/>
			<v:textRect cx="25.8654" cy="108.471" width="51.74" height="21.5726"/>
			<path d="M51.73 97.68 L0 97.68 L0 119.26 L51.73 119.26 L51.73 97.68" class="st6"/>
			<text x="5.87" y="113.86" class="st10" v:langID="1033"><v:paragraph v:horizAlign="1"/><v:tabList/>2014</text>		</g>
		<g id="shape1046-95" v:mID="1046" v:groupContext="shape" transform="translate(307.268,-3.37486)">
			<title>Sheet.1046</title>
			<desc>3</desc>
			<v:textBlock v:margins="rect(0,0,0,0)"/>
			<v:textRect cx="8.62149" cy="108.471" width="17.25" height="21.5726"/>
			<path d="M17.24 97.68 L0 97.68 L0 119.26 L17.24 119.26 L17.24 97.68" class="st6"/>
			<text x="3.62" y="113.86" class="st8" v:langID="1033"><v:paragraph v:horizAlign="1"/><v:tabList/>3</text>		</g>
		<g id="shape1047-99" v:mID="1047" v:groupContext="shape" transform="translate(121.168,-2.80991)">
			<title>Sheet.1047</title>
			<desc>Mockingjay</desc>
			<v:textBlock v:margins="rect(0,0,0,0)"/>
			<v:textRect cx="54.5697" cy="108.471" width="109.14" height="21.5726"/>
			<path d="M109.14 97.68 L0 97.68 L0 119.26 L109.14 119.26 L109.14 97.68" class="st6"/>
			<text x="9.62" y="113.86" class="st9" v:langID="1033"><v:paragraph v:horizAlign="1"/><v:tabList/>Mockingjay</text>		</g>
		<g id="shape1048-103" v:mID="1048" v:groupContext="shape" transform="translate(382.242,-2.80991)">
			<title>Sheet.1048</title>
			<desc>122</desc>
			<v:textBlock v:margins="rect(0,0,0,0)"/>
			<v:textRect cx="20.1174" cy="108.471" width="40.24" height="21.5726"/>
			<path d="M40.23 97.68 L0 97.68 L0 119.26 L40.23 119.26 L40.23 97.68" class="st6"/>
			<text x="5.12" y="113.86" class="st8" v:langID="1033"><v:paragraph v:horizAlign="1"/><v:tabList/>122</text>		</g>
		<g id="shape1049-107" v:mID="1049" v:groupContext="shape" transform="translate(26.107,-3.37486)">
			<title>Sheet.1049</title>
			<desc>2014</desc>
			<v:textBlock v:margins="rect(0,0,0,0)"/>
			<v:textRect cx="25.8654" cy="108.471" width="51.74" height="21.5726"/>
			<path d="M51.73 97.68 L0 97.68 L0 119.26 L51.73 119.26 L51.73 97.68" class="st6"/>
			<text x="5.87" y="113.86" class="st10" v:langID="1033"><v:paragraph v:horizAlign="1"/><v:tabList/>2014</text>		</g>
	</g>
</svg>
