<?xml version="1.0" encoding="UTF-8" standalone="no"?>
<svg width="2475px" height="4105px" viewBox="0 0 2475 4105" version="1.1" xmlns="http://www.w3.org/2000/svg" xmlns:xlink="http://www.w3.org/1999/xlink">
    <!-- Generator: Sketch 3.6.1 (26313) - http://www.bohemiancoding.com/sketch -->
    <title>Group</title>
    <desc>Created with Sketch.</desc>
    <defs></defs>
    <g id="Page-1" stroke="none" stroke-width="1" fill="none" fill-rule="evenodd">
        <g id="Group">
            <path d="M2172.46,3136.58 C1247.17,2851.64 1283.42,2146.39 1283.42,2146.39 L1283.42,1964.06 C1780.91,1936.68 2159.51,1479.32 2172.41,995.36 C2172.42,994.84 2172.43,1005.89 2172.44,1016.93 C2172.46,1038.53 2172.46,1060.12 2172.46,995.35 C2172.41,995.36 1950.75,841.1 1234.2,841.1 C511.02,841.1 303.96,995.28 303.96,995.28 C303.94,1055.24 303.93,1032.68 303.93,1010.11 L303.93,986.56 C303.93,1473.05 658.14,1936.19 1185.94,1964.02 L1185.94,2146.42 C1153.09,2894.75 309.58,3145.44 303.96,3146.44 C304.02,3410.53 304.16,4038.15 304.37,4045.13 L2172.25,4035.08 C2172.33,4030.95 2172.46,3400.88 2172.46,3136.58" id="Fill-4" fill="#BC9751"></path>
            <path d="M1947.58,1067.52 C1947.58,1067.52 1990.77,1065.21 1990.53,1098.87 C1990.32,1129.32 1944.13,1165.35 1944.13,1165.35 L1929.58,1097.71 L1947.58,1067.52" id="Fill-5" fill="#B0873B"></path>
            <path d="M545.98,1055.34 C545.98,1055.34 496.77,1072.36 501.5,1108.29 C506.23,1144.22 545.98,1172.96 545.98,1172.96 L567.21,1161.24 L574.78,1101.72 L545.98,1055.34" id="Fill-6" fill="#B0873B"></path>
            <path d="M1947.91,1097.21 C1945.01,1484.33 1628.8,1795.8 1241.68,1792.88 C854.55,1789.96 543.08,1473.77 546,1086.65 C548.92,699.52 865.11,388.04 1252.25,390.96 C1639.36,393.87 1950.83,710.07 1947.91,1097.21" id="Fill-7" fill="#E8BC42"></path>
            <path d="M637.44,745.98 C712.61,613.57 824.56,514.85 953.04,455.62 C1151,364.31 1388.9,366.55 1592.99,482.47 C1725.31,557.56 1824.06,669.53 1883.29,797.98 C1974.55,996.01 1972.32,1233.84 1856.48,1437.98 L1829.42,1422.62 L1802.4,1407.3 C1908.04,1221.14 1910.03,1004.67 1826.8,824.02 C1772.8,706.87 1683.07,605.08 1562.25,536.51 C1376.17,430.82 1159.69,428.84 979.04,512.11 C861.92,566.12 760.07,655.86 691.52,776.6 C585.87,962.74 583.88,1179.21 667.09,1359.86 C721.13,1476.98 810.84,1578.82 931.54,1647.4 C1117.75,1752.92 1334.22,1754.95 1514.85,1671.76 C1632.01,1617.7 1733.81,1528.03 1802.4,1407.3 L1829.42,1422.62 L1856.48,1437.98 C1781.31,1570.35 1669.36,1669.06 1540.89,1728.25 C1342.91,1819.53 1105.02,1817.26 900.89,1701.46 C768.56,1626.31 669.86,1514.36 610.62,1385.87 C519.36,1187.9 521.6,950.07 637.44,745.98" id="Fill-8" fill="#DF9B3C"></path>
            <path d="M1290.51,1178.01 L1294.18,1179.64 C1294.34,1179.86 1379.73,1217.14 1399.13,1275.84 C1404.17,1291.21 1407.48,1309.16 1407.39,1328.21 C1407.13,1380.74 1380.53,1441.49 1294.49,1476.49 L1290.88,1477.93 L1290.51,1178.01 L1290.51,1178.01 Z M1140.09,869.19 L1140.09,869.19 C1132.6,852.86 1129.45,836.8 1129.58,821.64 C1130.01,767.41 1171.45,724.89 1206,715.26 C1206.76,715.01 1207.6,714.82 1208.36,714.68 L1211.64,713.82 L1211.23,935.57 L1207.24,933.22 C1177.97,916.07 1151.79,894.92 1140.09,869.19 L1140.09,869.19 Z M1337.5,980.8 L1337.36,980.7 L1337.23,980.69 C1337.19,980.76 1322.98,977.09 1302.06,970.01 L1301.65,712.11 C1335.1,714.42 1363.01,725.03 1367.27,751.28 C1365.59,755.41 1356.5,778.39 1349.88,794.13 C1345.75,803.84 1339.9,822.77 1339.83,842.67 C1339.71,859.62 1343.74,877.41 1357.19,890.31 C1376.41,908.73 1401.78,916.11 1425.34,916.31 C1436.6,916.32 1447.48,914.71 1457.14,911.94 C1483.48,904.36 1528.85,879.8 1529.16,809.15 C1529.22,799.69 1528.52,789.43 1526.83,778.33 C1512.49,687.16 1372.05,633.77 1309.7,633.12 C1307.48,633.1 1305.37,633.13 1303.35,633.26 C1302.77,623.43 1300.83,590.11 1300.83,586.64 C1300.75,583.14 1298.01,575.35 1291.23,567.18 C1284.46,559.23 1273.4,551.72 1257.37,551.62 C1257.04,551.64 1256.59,551.63 1256.06,551.67 C1230.7,552.26 1217.98,573.86 1214.82,586.19 C1212.21,596.83 1211.66,627.74 1211.59,636.75 C1196.37,637.75 1115.73,646.68 1044.67,720.87 C999.98,767.53 980.41,834.58 979.98,896.84 C979.72,944.7 990.74,989.83 1010.95,1020.94 C1056.59,1091.35 1160.68,1136.4 1205.09,1156.7 L1204.25,1481.7 C1197.68,1480.67 1181.35,1477.71 1163.14,1472.31 C1139.71,1465.3 1113.36,1453.85 1102.29,1437.84 C1097.18,1430.52 1095.21,1422.74 1095.3,1414.87 C1095.3,1401.64 1101.19,1388.21 1107.14,1378.17 C1113.08,1368.09 1118.94,1361.54 1118.94,1361.54 C1119.15,1361.18 1145.99,1327.99 1146.32,1290.66 C1146.3,1286.34 1146.01,1281.93 1145.16,1277.55 C1137.66,1237.7 1089.19,1204.91 1043.22,1204.5 C1040.33,1204.46 1037.51,1204.58 1034.64,1204.88 C995.73,1208.31 939.26,1251.89 938.68,1323.72 C938.62,1342.02 942.12,1362.09 950.57,1383.72 C991.5,1489.17 1083.09,1552.5 1204.96,1563.73 C1205.78,1574.67 1208.87,1622.01 1208.83,1624.62 C1209,1627.96 1211.67,1633.02 1217.79,1639.03 C1223.87,1644.69 1233.47,1650.28 1247.13,1651.5 C1249.6,1651.72 1251.93,1651.81 1254.23,1651.83 L1255.08,1651.8 C1276.81,1651.92 1288.68,1640.94 1291.6,1623.39 C1294.69,1606.58 1296.95,1563.73 1297.41,1554.07 C1318.91,1548.81 1507.83,1498.89 1544.51,1333.41 C1551.13,1303.57 1554.42,1275.58 1554.59,1249.32 C1555.45,1122.01 1480.72,1035.97 1337.5,980.8 L1337.5,980.8 Z" id="Fill-9" fill="#FFFFFF"></path>
            <path d="M1268.95,1171.08 L1272.62,1172.71 C1272.78,1172.94 1358.16,1210.22 1377.56,1268.92 C1382.61,1284.28 1385.91,1302.23 1385.83,1321.28 C1385.57,1373.81 1358.96,1434.56 1272.93,1469.55 L1269.32,1471.01 L1268.95,1171.08 L1268.95,1171.08 Z M1118.53,862.27 L1118.53,862.27 C1111.04,845.93 1107.88,829.87 1108.02,814.72 C1108.45,760.49 1149.88,717.96 1184.43,708.33 C1185.2,708.09 1186.04,707.9 1186.78,707.76 L1190.07,706.89 L1189.66,928.65 L1185.68,926.29 C1156.4,909.15 1130.23,888 1118.53,862.27 L1118.53,862.27 Z M1315.95,973.88 L1315.8,973.78 L1315.67,973.75 C1315.63,973.83 1301.42,970.17 1280.5,963.08 L1280.09,705.18 C1313.54,707.5 1341.45,718.1 1345.71,744.35 C1344.03,748.49 1334.93,771.47 1328.32,787.2 C1324.19,796.91 1318.33,815.85 1318.27,835.74 C1318.15,852.7 1322.17,870.49 1335.62,883.39 C1354.84,901.8 1380.21,909.19 1403.78,909.39 C1415.03,909.4 1425.91,907.79 1435.58,905.02 C1461.92,897.44 1507.29,872.88 1507.6,802.23 C1507.65,792.76 1506.95,782.5 1505.26,771.42 C1490.93,680.23 1350.48,626.85 1288.13,626.19 C1285.92,626.17 1283.81,626.21 1281.79,626.34 C1281.2,616.51 1279.26,583.19 1279.27,579.71 C1279.19,576.22 1276.45,568.42 1269.67,560.26 C1262.89,552.3 1251.84,544.79 1235.81,544.7 C1235.48,544.72 1235.02,544.7 1234.49,544.75 C1209.13,545.33 1196.42,566.94 1193.27,579.27 C1190.64,589.91 1190.1,620.81 1190.02,629.82 C1174.81,630.83 1094.16,639.75 1023.1,713.94 C978.41,760.61 958.84,827.66 958.42,889.91 C958.16,937.79 969.18,982.9 989.39,1014.01 C1035.03,1084.43 1139.1,1129.47 1183.53,1149.77 L1182.68,1474.78 C1176.12,1473.75 1159.78,1470.78 1141.58,1465.38 C1118.14,1458.38 1091.8,1446.92 1080.72,1430.93 C1075.62,1423.6 1073.64,1415.81 1073.73,1407.94 C1073.74,1394.71 1079.62,1381.29 1085.58,1371.25 C1091.52,1361.16 1097.38,1354.6 1097.38,1354.6 C1097.58,1354.25 1124.43,1321.06 1124.76,1283.74 C1124.73,1279.42 1124.45,1275.01 1123.59,1270.63 C1116.1,1230.78 1067.63,1197.99 1021.66,1197.57 C1018.77,1197.52 1015.95,1197.67 1013.07,1197.95 C974.16,1201.39 917.7,1244.96 917.12,1316.8 C917.05,1335.09 920.55,1355.17 929.01,1376.8 C969.94,1482.24 1061.52,1545.58 1183.4,1556.8 C1184.22,1567.75 1187.3,1615.08 1187.27,1617.7 C1187.45,1621.03 1190.1,1626.1 1196.24,1632.1 C1202.31,1637.77 1211.9,1643.36 1225.56,1644.58 C1228.04,1644.78 1230.37,1644.88 1232.67,1644.91 L1233.52,1644.87 C1255.25,1644.99 1267.12,1634 1270.03,1616.47 C1273.12,1599.66 1275.38,1556.81 1275.85,1547.15 C1297.35,1541.89 1486.26,1491.97 1522.95,1326.49 C1529.56,1296.65 1532.85,1268.65 1533.02,1242.4 C1533.9,1115.09 1459.16,1029.04 1315.95,973.88 L1315.95,973.88 Z" id="Fill-10" fill="#DF9B3C"></path>
            <path d="M540.82,1168.88 C540.82,1168.88 744.4,1326.22 1247.68,1333.22 C1765.78,1340.42 1944.13,1165.35 1944.13,1165.35 C1959.8,1165.35 2020.19,1135.14 2020.19,1135.14 C2020.19,1135.14 2042.94,1166.08 1975.04,1291.43 C1907.14,1416.79 1735.97,1744.59 1468.6,1792.89 C1201.24,1841.19 885.48,1803.3 717.3,1589.15 C549.13,1375 504.26,1247.23 540.82,1168.88" id="Fill-11" fill="#BC9751"></path>
            <path d="M545.98,1172.96 C545.98,1172.96 744.4,1326.22 1247.68,1333.22 C1765.78,1340.42 1946.92,1163.07 1946.92,1163.07 L1947.93,1120.99 C1947.93,1120.99 1741.51,1304.93 1247.68,1301.45 C928.18,1299.2 619.35,1214.19 545.98,1120.15 L545.98,1172.96" id="Fill-12" fill="#B0873B"></path>
            <path d="M1956.35,3265.74 C1956.35,3265.74 1985.92,3275.53 1995.64,3278.91 C2005.35,3282.28 2041.95,3285.53 2046.78,3254.48 C2051.61,3223.44 1983.18,3188.95 1956.35,3176.53 L1956.35,3265.74" id="Fill-13" fill="#B0873B"></path>
            <path d="M570.57,3288.78 C570.57,3288.78 547.64,3298.77 535.53,3304.46 C535.53,3304.46 517.22,3310.07 502.81,3303.79 C492.27,3299.2 480.82,3286.72 488.61,3266.65 C510.56,3210.09 570.57,3184.99 570.57,3184.99 L570.57,3288.78" id="Fill-14" fill="#B0873B"></path>
            <path d="M1985.77,3060.24 C1985.77,3462.18 1659.93,3788.01 1257.99,3788.01 C856.05,3788.01 530.21,3462.18 530.21,3060.24 C530.21,2658.29 856.05,2332.46 1257.99,2332.46 C1659.93,2332.46 1985.77,2658.29 1985.77,3060.24" id="Fill-15" fill="#0B0F0E"></path>
            <path d="M1257.99,3638.8 C938.46,3638.8 679.43,3379.77 679.43,3060.24 C679.43,2740.7 938.46,2481.67 1257.99,2481.67 C1577.51,2481.67 1836.56,2740.7 1836.56,3060.24 C1836.56,3379.77 1577.51,3638.8 1257.99,3638.8" id="Fill-16" fill="#DDDDD9"></path>
            <path d="M1276.52,2566 C1276.52,2576.28 1268.19,2584.61 1257.92,2584.61 C1247.64,2584.61 1239.31,2576.28 1239.31,2566 L1239.31,2462.9 C1239.31,2452.62 1247.64,2444.28 1257.92,2444.28 C1268.19,2444.28 1276.52,2452.62 1276.52,2462.9 L1276.52,2566" id="Fill-17" fill="#0B0F0E"></path>
            <path d="M1276.52,3657.63 C1276.52,3667.91 1268.19,3676.24 1257.92,3676.24 C1247.64,3676.24 1239.31,3667.91 1239.31,3657.63 L1239.31,3554.52 C1239.31,3544.24 1247.64,3535.91 1257.92,3535.91 C1268.19,3535.91 1276.52,3544.24 1276.52,3554.52 L1276.52,3657.63" id="Fill-18" fill="#0B0F0E"></path>
            <path d="M763.66,3041.65 C773.94,3041.65 782.27,3049.99 782.27,3060.26 C782.27,3070.54 773.94,3078.87 763.66,3078.87 L660.55,3078.87 C650.27,3078.87 641.94,3070.54 641.94,3060.26 C641.94,3049.99 650.27,3041.65 660.55,3041.65 L763.66,3041.65" id="Fill-19" fill="#0B0F0E"></path>
            <path d="M1855.29,3041.65 C1865.56,3041.65 1873.89,3049.99 1873.89,3060.26 C1873.89,3070.54 1865.56,3078.87 1855.29,3078.87 L1752.18,3078.87 C1741.9,3078.87 1733.57,3070.54 1733.57,3060.26 C1733.57,3049.99 1741.9,3041.65 1752.18,3041.65 L1855.29,3041.65" id="Fill-20" fill="#0B0F0E"></path>
            <path d="M1266.26,3063 C1263.78,3065.6 1259.68,3065.69 1257.09,3063.23 C1254.5,3060.75 1254.4,3056.65 1256.87,3054.05 L1544.7,2752.04 C1547.16,2749.45 1551.27,2749.35 1553.86,2751.82 C1556.45,2754.29 1556.56,2758.39 1554.08,2760.99 L1266.26,3063" id="Fill-21" fill="#CE3135"></path>
            <path d="M1109.07,2963.93 C1114.58,2955.4 1125.95,2952.96 1134.47,2958.46 L1247.03,3031.2 C1255.56,3036.71 1258,3048.09 1252.5,3056.61 C1246.98,3065.13 1235.61,3067.58 1227.09,3062.07 L1114.53,2989.33 C1106,2983.82 1103.56,2972.45 1109.07,2963.93" id="Fill-22" fill="#CE3135"></path>
            <path d="M1301.22,3060.23 C1301.22,3084.11 1281.87,3103.47 1257.99,3103.47 C1234.11,3103.47 1214.76,3084.11 1214.76,3060.23 C1214.76,3036.36 1234.11,3017.01 1257.99,3017.01 C1281.87,3017.01 1301.22,3036.36 1301.22,3060.23" id="Fill-23" fill="#161818"></path>
            <path d="M1026.9,2622.92 C1032.04,2631.82 1028.99,2643.2 1020.1,2648.34 C1011.19,2653.48 999.8,2650.43 994.67,2641.53 L943.12,2552.23 C937.97,2543.33 941.03,2531.95 949.93,2526.81 C958.82,2521.67 970.21,2524.72 975.35,2533.63 L1026.9,2622.92" id="Fill-24" fill="#0B0F0E"></path>
            <path d="M1572.71,3568.29 C1577.85,3577.2 1574.81,3588.58 1565.9,3593.72 C1557,3598.85 1545.62,3595.81 1540.48,3586.9 L1488.92,3497.61 C1483.79,3488.71 1486.84,3477.33 1495.73,3472.19 C1504.64,3467.05 1516.02,3470.1 1521.16,3479 L1572.71,3568.29" id="Fill-25" fill="#0B0F0E"></path>
            <path d="M820.57,3291.28 C829.47,3286.14 840.86,3289.19 845.99,3298.09 C851.13,3306.99 848.08,3318.37 839.18,3323.5 L749.88,3375.06 C740.98,3380.2 729.6,3377.16 724.46,3368.25 C719.32,3359.35 722.38,3347.97 731.28,3342.83 L820.57,3291.28" id="Fill-26" fill="#0B0F0E"></path>
            <path d="M1765.94,2745.46 C1774.85,2740.32 1786.23,2743.37 1791.37,2752.27 C1796.51,2761.17 1793.46,2772.55 1784.56,2777.7 L1695.26,2829.25 C1686.36,2834.39 1674.98,2831.34 1669.84,2822.43 C1664.71,2813.54 1667.75,2802.15 1676.65,2797.02 L1765.94,2745.46" id="Fill-27" fill="#0B0F0E"></path>
            <path d="M839.18,2797.02 C848.08,2802.16 851.13,2813.54 845.99,2822.44 C840.86,2831.34 829.47,2834.39 820.57,2829.25 L731.28,2777.7 C722.38,2772.56 719.32,2761.17 724.46,2752.27 C729.6,2743.37 740.98,2740.33 749.89,2745.46 L839.18,2797.02" id="Fill-28" fill="#0B0F0E"></path>
            <path d="M1784.56,3342.83 C1793.46,3347.97 1796.51,3359.35 1791.37,3368.25 C1786.23,3377.16 1774.85,3380.2 1765.94,3375.06 L1676.65,3323.51 C1667.74,3318.37 1664.7,3306.99 1669.84,3298.09 C1674.97,3289.19 1686.36,3286.14 1695.26,3291.28 L1784.56,3342.83" id="Fill-29" fill="#0B0F0E"></path>
            <path d="M994.67,3478.99 C999.8,3470.1 1011.19,3467.05 1020.08,3472.19 C1028.99,3477.33 1032.04,3488.7 1026.9,3497.6 L975.35,3586.9 C970.21,3595.8 958.82,3598.85 949.92,3593.72 C941.03,3588.57 937.97,3577.19 943.12,3568.29 L994.67,3478.99" id="Fill-30" fill="#0B0F0E"></path>
            <path d="M1540.48,2533.62 C1545.62,2524.72 1557,2521.67 1565.9,2526.81 C1574.81,2531.95 1577.85,2543.32 1572.71,2552.23 L1521.16,2641.52 C1516.02,2650.43 1504.64,2653.48 1495.73,2648.33 C1486.84,2643.2 1483.79,2631.82 1488.92,2622.92 L1540.48,2533.62" id="Fill-31" fill="#0B0F0E"></path>
            <path d="M2066.05,3304.46 C1196.28,2973.12 535.53,3304.46 535.53,3304.46 L535.53,3788.01 L2038.44,3788.01 L2066.05,3304.46" id="Fill-32" fill="#BC9751"></path>
            <path d="M271.43,6.809 L271.43,957.78 C271.43,1220.67 363.25,1471.38 529.99,1663.74 C695.75,1854.97 920.17,1971.32 1161.92,1991.37 L1162.37,1991.41 L1162.37,2118.81 L1161.92,2118.85 C920.17,2138.89 695.75,2255.25 529.99,2446.48 C363.25,2638.84 271.43,2889.55 271.43,3152.44 L271.43,4103.41 L2203.32,4099.81 L2203.32,3152.44 C2203.32,2889.55 2111.49,2638.84 1944.76,2446.48 C1779,2255.25 1554.58,2138.89 1312.83,2118.85 L1312.38,2118.81 L1312.38,1991.41 L1312.83,1991.37 C1554.58,1971.32 1779,1854.97 1944.76,1663.74 C2111.49,1471.38 2203.32,1220.67 2203.32,957.78 L2203.32,10.409 L271.43,6.809 M270.45,4104.39 L270.45,3152.44 C270.45,2889.32 362.36,2638.37 529.25,2445.84 C695.07,2254.53 919.55,2138.08 1161.39,2117.91 L1161.39,1992.31 C919.55,1972.14 695.07,1855.69 529.25,1664.38 C362.36,1471.84 270.45,1220.9 270.45,957.78 L270.45,5.826 L271.43,5.829 L2203.81,9.43 L2204.3,9.431 L2204.3,957.78 C2204.3,1220.9 2112.39,1471.84 1945.5,1664.38 C1779.67,1855.69 1555.19,1972.14 1313.36,1992.31 L1313.36,2117.91 C1555.19,2138.08 1779.67,2254.53 1945.5,2445.84 C2112.39,2638.37 2204.3,2889.32 2204.3,3152.44 L2204.3,4100.79 L2203.32,4100.79 L270.45,4104.39" id="Fill-33" fill="#010604"></path>
            <path d="M1343.34,1958.63 C1352.8,1957.44 1362.14,1956.1 1371.5,1954.59 C1370.36,1955.28 1359.18,1956.86 1343.34,1958.63 M1112.57,1957.24 C730.35,1907.36 506.3,1645.1 403.3,1429.25 C315.53,1245.32 304.96,1069.69 303.95,1013.7 C303.95,1008.69 303.95,1002.6 303.96,995.28 C307.97,1455.68 628.61,1892.95 1112.57,1957.24 M303.93,1012.41 C303.8,1004.11 303.88,998.64 303.93,996.41 L303.93,1010.11 L303.93,1012.41 M303.96,995.28 L303.96,994.32 L303.93,140.998 L377.74,136.911 L377.72,958.01 C325.74,979.25 304.43,994.93 303.96,995.28" id="Fill-34" fill="#E0E8E7"></path>
            <path d="M1240.23,1965.31 C1228.02,1965.31 1216.28,1965.08 1206.44,1964.79 L1187.08,1964.07 C1184.62,1963.95 1182.69,1963.85 1181.42,1963.77 C1157.93,1962.36 1134.96,1960.16 1112.57,1957.24 C628.61,1892.95 307.97,1455.68 303.96,995.28 C304.43,994.93 325.74,979.25 377.72,958.01 L377.71,1033.84 C383.57,1326.23 530.21,1600.89 713.47,1755.6 C925.7,1934.78 1190.6,1957.03 1309.13,1957.03 C1348.3,1957.03 1371.5,1954.59 1371.5,1954.59 C1362.14,1956.1 1352.8,1957.44 1343.34,1958.63 C1326.47,1960.52 1304.34,1962.62 1283.42,1964.06 C1269.96,1964.99 1254.76,1965.31 1240.23,1965.31 M303.95,1013.7 C303.94,1013.26 303.94,1012.83 303.93,1012.41 L303.93,1010.11 L303.93,996.41 C303.94,995.66 303.96,995.28 303.96,995.28 C303.95,1002.6 303.95,1008.69 303.95,1013.7 M303.96,995.28 L303.96,994.32 L303.96,995.28" id="Fill-35" fill="#D9C395"></path>
            <path d="M1536.56,1911.6 C1536.56,1911.6 1541.76,1909.52 1551.17,1905.15 C1609.12,1882.22 1664.29,1853.24 1716.04,1819.14 C1665.41,1853.16 1607.58,1884.42 1536.56,1911.6 M1881.07,1681.76 C1980.39,1578.91 2058.5,1454.47 2108.81,1319.26 C2066.62,1434.36 1996.75,1564.2 1881.07,1681.76 M2158.89,1133.11 C2166.6,1087.67 2171.17,1041.65 2172.41,995.36 L2172.41,995.34 C2172.42,995.34 2172.43,1004.89 2172.44,1015.01 C2171.33,1039.4 2168.11,1080.72 2158.89,1133.11 M2172.46,1014.5 L2172.46,995.35 C2172.45,995.35 2150.52,980.1 2098.22,959.2 L2098.2,132.071 L2172.01,136.16 L2172.98,990.44 C2172.98,990.44 2173.15,998.97 2172.46,1014.5" id="Fill-36" fill="#E0E8E7"></path>
            <path d="M1551.17,1905.15 C1638.32,1864.66 2086.22,1627.69 2098.23,1029 L2098.22,959.2 C2150.52,980.1 2172.45,995.35 2172.46,995.35 L2172.46,1014.5 C2172.46,1014.67 2172.45,1014.84 2172.44,1015.01 C2172.43,1004.89 2172.42,995.34 2172.41,995.34 L2172.41,995.36 C2171.17,1041.65 2166.6,1087.67 2158.89,1133.11 C2149.61,1185.88 2134.24,1249.88 2108.81,1319.26 C2058.5,1454.47 1980.39,1578.91 1881.07,1681.76 C1863.82,1699.3 1845.56,1716.55 1826.21,1733.45 C1792.01,1763.31 1756.3,1792.1 1716.04,1819.14 C1664.29,1853.24 1609.12,1882.22 1551.17,1905.15" id="Fill-37" fill="#D9C395"></path>
            <path d="M2172.28,4013.38 C2172.33,3930.59 2172.4,3626.85 2172.44,3377.17 L2172.46,4013.37 L2172.28,4013.38 M304.29,4013.38 L304.15,4013.37 L304.16,3813.6 C304.2,3901.92 304.24,3974.21 304.29,4013.38 M304.5,3146.3 C308.59,3039.35 365.53,2293.32 1157.15,2142.98 C1161.64,2142.13 1172.62,2140.82 1185.94,2139.64 L1185.94,2146.42 C1185.7,2151.76 1185.43,2157.06 1185.11,2162.36 C1001.78,2190.22 435.47,2335.81 377.94,3120.53 C335.73,3136.95 308.68,3145.15 304.5,3146.3 M2172.15,3136.48 C2146.74,3128.65 2122.01,3120.49 2098.03,3112.05 C2036.19,2323.43 1457.77,2185.76 1283.81,2161.12 C1283.62,2161.11 1283.43,2161.09 1283.25,2161.08 C1283.16,2151.52 1283.42,2146.39 1283.42,2146.39 L1283.42,2139.07 C1299.86,2140.42 1313.79,2142.04 1319.46,2142.98 C2110.9,2273.7 2168.2,3049.4 2172.15,3136.48" id="Fill-38" fill="#E0E8E7"></path>
            <path d="M2098.64,4017.46 L2098.67,3120.53 C2098.47,3117.71 2098.25,3114.85 2098.03,3112.05 C2122.01,3120.49 2146.74,3128.65 2172.15,3136.48 C2172.39,3141.68 2172.43,3144.43 2172.43,3144.43 L2172.44,3377.17 C2172.4,3626.85 2172.33,3930.59 2172.28,4013.38 L2098.64,4017.46 M377.97,4017.46 L304.29,4013.38 C304.24,3974.21 304.2,3901.92 304.16,3813.6 L304.18,3159.08 C304.18,3159.08 304.18,3154.63 304.5,3146.3 C308.68,3145.15 335.73,3136.95 377.94,3120.53 L377.97,4017.46 M1185.11,2162.36 C1185.43,2157.06 1185.7,2151.76 1185.94,2146.42 L1185.94,2139.64 L1206.41,2138.06 C1217.73,2137.33 1229.25,2136.84 1239.05,2136.84 C1240.26,2136.84 1241.45,2136.84 1242.6,2136.86 C1255.88,2137.11 1270.43,2138.01 1283.42,2139.07 L1283.42,2146.39 C1283.42,2146.39 1283.16,2151.52 1283.25,2161.08 C1281.72,2160.95 1280.73,2160.87 1280.73,2160.87 L1280.75,2160.69 C1280.25,2160.62 1279.76,2160.56 1279.26,2160.49 C1265.9,2159.33 1252.71,2158.93 1240.87,2158.93 C1214.77,2158.93 1195.29,2160.87 1195.27,2160.87 C1192.03,2161.33 1188.65,2161.82 1185.11,2162.36" id="Fill-39" fill="#D9C395"></path>
            <path d="M2474.44,4036.31 C2474.44,4073.37 2444.399,4103.41 2407.34,4103.41 L67.41,4103.41 C30.35,4103.41 0.31,4073.37 0.31,4036.31 C0.31,3999.26 30.35,3969.22 67.41,3969.22 L2407.34,3969.22 C2444.399,3969.22 2474.44,3999.26 2474.44,4036.31" id="Fill-40" fill="#010604"></path>
            <path d="M2474.44,68.026 C2474.44,105.081 2444.399,135.121 2407.34,135.121 L67.41,135.121 C30.35,135.121 0.31,105.081 0.31,68.026 C0.31,30.97 30.35,0.931 67.41,0.931 L2407.34,0.931 C2444.399,0.931 2474.44,30.97 2474.44,68.026" id="Fill-41" fill="#010604"></path>
            <path d="M1185.94,2139.64 L1185.94,1964.02 L1187.08,1964.07 C1191.8,1964.29 1198.5,1964.56 1206.44,1964.79 L1206.44,2138.06 L1206.41,2138.06 C1199.35,2138.52 1192.37,2139.06 1185.94,2139.64" id="Fill-42" fill="#D9C395"></path>
            <path d="M1206.44,1964.79 C1198.5,1964.56 1191.8,1964.29 1187.08,1964.07 L1206.44,1964.79" id="Fill-43" fill="#EBDEC2"></path>
            <path d="M1185.94,2139.64 L1185.94,2139.64 C1192.37,2139.06 1199.35,2138.52 1206.41,2138.06 L1185.94,2139.64" id="Fill-44" fill="#EBDEC2"></path>
        </g>
    </g>
</svg>