<?xml version="1.0" encoding="UTF-8" standalone="no"?>
<svg width="340px" height="255px" viewBox="0 0 340 255" version="1.1" xmlns="http://www.w3.org/2000/svg" xmlns:xlink="http://www.w3.org/1999/xlink">
    <!-- Generator: Sketch 3.6.1 (26313) - http://www.bohemiancoding.com/sketch -->
    <title>Group</title>
    <desc>Created with Sketch.</desc>
    <defs></defs>
    <g id="Page-1" stroke="none" stroke-width="1" fill="none" fill-rule="evenodd">
        <g id="Group" stroke="#374C51">
            <path d="M82.329,48.422 L55.94,31.047 C56.043,30.914 56.145,30.776 56.241,30.628 C62.18,21.611 59.675,9.436 50.656,3.492 C48.272,1.921 45.646,0.909 42.845,0.482 C35.297,-0.672 27.707,2.702 23.51,9.076 C20.628,13.449 19.624,18.68 20.68,23.805 C21.152,26.104 21.022,27.763 20.29,28.879 C19.555,29.994 18.083,30.766 15.783,31.24 C10.656,32.292 6.248,35.282 3.366,39.651 C-2.576,48.672 -0.066,60.851 8.954,66.799 C11.335,68.366 13.96,69.377 16.758,69.805 C24.306,70.958 31.898,67.585 36.094,61.212 C36.19,61.065 36.278,60.92 36.357,60.776 L63.15,78.418 C67.872,67.59 74.311,57.481 82.329,48.422" id="Fill-3" stroke-width="2" fill="#9EACAB"></path>
            <path d="M339.591,200.618 C338.537,195.491 335.548,191.083 331.179,188.206 C328.795,186.634 326.169,185.623 323.37,185.196 C315.82,184.043 308.231,187.414 304.035,193.787 C303.939,193.935 303.853,194.079 303.772,194.226 L276.689,176.392 C275.196,179.567 273.526,182.588 271.67,185.472 C266.975,192.767 261.378,198.85 254.711,204.55 L284.187,223.956 C284.087,224.084 283.99,224.22 283.894,224.365 C277.952,233.391 280.456,245.564 289.48,251.512 C291.861,253.079 294.486,254.092 297.283,254.519 L297.284,254.519 C304.833,255.671 312.425,252.296 316.622,245.926 C319.503,241.553 320.507,236.322 319.449,231.194 C318.514,226.643 319.795,224.697 324.347,223.759 C329.471,222.71 333.881,219.721 336.763,215.349 C339.642,210.976 340.646,205.745 339.591,200.618" id="Fill-4" stroke-width="2" fill="#9EACAB"></path>
            <path d="M336.777,39.651 C333.896,35.282 329.486,32.292 324.36,31.24 C322.061,30.766 320.588,29.994 319.853,28.879 C319.12,27.763 318.991,26.104 319.463,23.805 C320.518,18.68 319.515,13.449 316.632,9.076 C312.437,2.702 304.846,-0.672 297.298,0.482 C294.496,0.909 291.871,1.921 289.486,3.492 C280.468,9.436 277.963,21.611 283.901,30.628 C283.999,30.776 284.1,30.914 284.202,31.047 L257.814,48.421 C265.833,57.48 272.271,67.59 276.993,78.417 L303.786,60.776 C303.864,60.92 303.953,61.065 304.049,61.212 C308.245,67.585 315.837,70.958 323.385,69.805 C326.182,69.377 328.808,68.366 331.189,66.799 C340.209,60.851 342.719,48.672 336.777,39.651" id="Fill-5" stroke-width="2" fill="#9EACAB"></path>
            <path d="M55.956,223.956 L85.758,204.333 C76.718,196.256 69.354,187.171 63.978,176.047 L36.371,194.226 C36.291,194.079 36.204,193.935 36.107,193.787 C31.911,187.414 24.322,184.043 16.774,185.196 C13.974,185.623 11.347,186.634 8.963,188.206 C4.594,191.083 1.607,195.491 0.552,200.618 C-0.502,205.745 0.502,210.976 3.38,215.349 C6.263,219.721 10.672,222.71 15.796,223.759 C20.348,224.697 21.63,226.643 20.694,231.194 C19.637,236.322 20.641,241.553 23.521,245.926 C27.719,252.296 35.309,255.671 42.858,254.519 L42.86,254.519 C45.657,254.092 48.282,253.079 50.662,251.512 C59.687,245.564 62.192,233.391 56.249,224.365 C56.153,224.22 56.055,224.084 55.956,223.956" id="Fill-6" stroke-width="2" fill="#9EACAB"></path>
            <path d="M221.429,177.933 C205.023,177.933 191.68,164.588 191.68,148.184 C191.68,131.781 205.023,118.436 221.429,118.436 C237.831,118.436 251.177,131.781 251.177,148.184 C251.177,164.588 237.831,177.933 221.429,177.933 L221.429,177.933 Z M185.22,193.693 C184.273,194.642 183.013,195.164 181.669,195.164 C180.326,195.164 179.191,194.513 178.115,193.692 L172.13,189.761 C171.743,189.539 171.077,189.261 170.076,189.261 C169.164,189.261 168.425,189.538 168.022,189.761 L162.037,193.692 C160.821,194.59 159.826,195.164 158.484,195.164 C157.142,195.164 155.879,194.642 154.93,193.692 C153.981,192.743 153.458,191.481 153.458,190.139 C153.458,188.797 153.981,187.536 154.93,186.587 L166.379,175.136 C167.321,174.194 168.581,173.676 169.928,173.676 L170.104,173.677 L170.225,173.676 C171.572,173.676 172.833,174.194 173.773,175.136 L185.221,186.587 C186.172,187.536 186.693,188.797 186.693,190.139 C186.693,191.481 186.172,192.743 185.22,193.693 L185.22,193.693 Z M118.724,177.933 C106.459,177.933 95.907,170.47 91.362,159.85 C91.369,159.803 91.377,159.757 91.383,159.709 C91.356,159.712 91.329,159.709 91.301,159.711 C89.805,156.165 88.976,152.269 88.976,148.184 C88.976,131.781 102.321,118.436 118.724,118.436 C135.127,118.436 148.474,131.781 148.474,148.184 C148.474,164.588 135.127,177.933 118.724,177.933 L118.724,177.933 Z M170.52,17.332 C170.371,17.332 170.222,17.327 170.072,17.327 C169.927,17.327 169.784,17.332 169.64,17.332 C169.559,17.328 169.479,17.331 169.401,17.334 C110.054,17.691 62.055,65.187 62.055,123.733 C62.055,173.191 81.568,193.896 111.093,212.889 C113.505,214.44 115.648,217.913 115.778,220.779 C115.898,223.421 116.014,226.082 116.014,226.082 C116.014,226.704 116.101,227.323 116.268,227.915 C117.538,232.415 121.24,237.675 130.421,237.675 C135.485,237.675 138.254,232.957 138.254,229.515 L138.254,222.008 C138.254,220 139.882,218.372 141.89,218.372 C143.897,218.372 145.525,220 145.525,222.008 L145.525,228.797 C145.525,232.238 148.468,237.675 155.815,237.675 C163.398,237.675 166.438,232.357 166.438,228.916 L166.438,222.008 C166.438,220 168.064,218.372 170.072,218.372 C172.079,218.372 173.707,220 173.707,222.008 L173.707,228.797 C173.707,232.238 176.901,237.675 184.528,237.675 C192.22,237.675 194.687,232.349 194.687,228.908 L194.687,222.008 C194.687,220 196.313,218.372 198.321,218.372 C200.329,218.372 201.956,220 201.956,222.008 L201.956,229.48 C201.956,232.92 204.423,237.675 209.922,237.675 C219.068,237.675 222.726,232.63 224.068,227.915 C224.24,227.311 224.328,226.688 224.328,226.063 L224.328,226.182 C224.328,225.556 224.428,223.087 224.532,220.677 C224.657,217.812 226.79,214.334 229.201,212.778 C258.638,193.772 278.089,176.652 278.089,123.733 C278.089,65.191 230.096,17.697 170.755,17.334 C170.677,17.332 170.599,17.329 170.52,17.332 L170.52,17.332 Z" id="Fill-7" stroke-width="3" fill="#E0E8E7"></path>
        </g>
    </g>
</svg>