<?xml version="1.0" encoding="utf-8"?>
<!-- Generator: Adobe Illustrator 18.1.1, SVG Export Plug-In . SVG Version: 6.00 Build 0)  -->
<svg version="1.1" id="_x2014_ÎÓÈ_x5F_1" xmlns="http://www.w3.org/2000/svg" xmlns:xlink="http://www.w3.org/1999/xlink"
	 x="0px" y="0px" viewBox="0 0 172.7 183.8" enable-background="new 0 0 172.7 183.8" xml:space="preserve">
<g>
	<g>
		
			<radialGradient id="SVGID_1_" cx="85.6671" cy="33928.4648" r="49.5793" gradientTransform="matrix(1 6.700000e-03 -1.300000e-03 0.1968 44.2288 -6504.9956)" gradientUnits="userSpaceOnUse">
			<stop  offset="0" style="stop-color:#6B4A09"/>
			<stop  offset="7.815684e-03" style="stop-color:#6D4B09"/>
			<stop  offset="0.2182" style="stop-color:#AB6C0E"/>
			<stop  offset="0.3317" style="stop-color:#BE8E45"/>
			<stop  offset="0.4619" style="stop-color:#D2B07D"/>
			<stop  offset="0.5887" style="stop-color:#E2CCAC"/>
			<stop  offset="0.7088" style="stop-color:#EFE2D0"/>
			<stop  offset="0.8206" style="stop-color:#F8F2EA"/>
			<stop  offset="0.9209" style="stop-color:#FDFCFA"/>
			<stop  offset="1" style="stop-color:#FFFFFF"/>
		</radialGradient>
		<path fill="url(#SVGID_1_)" d="M16.5,172.2c0,6.1,30.9,11.3,69.2,11.5c38.2,0.3,69.3-4.5,69.3-10.6c0-6.1-30.9-11.3-69.2-11.5
			C47.6,161.4,16.6,166.1,16.5,172.2z"/>
		
			<radialGradient id="SVGID_2_" cx="82.808" cy="51.703" r="95.6807" gradientTransform="matrix(1 6.700000e-03 -6.700000e-03 1 0.4956 -9.580874e-02)" gradientUnits="userSpaceOnUse">
			<stop  offset="0" style="stop-color:#FDFF80"/>
			<stop  offset="0.2126" style="stop-color:#FEF166"/>
			<stop  offset="0.6061" style="stop-color:#FFD12C"/>
			<stop  offset="0.7879" style="stop-color:#F2BF1F"/>
			<stop  offset="0.7949" style="stop-color:#F2BE1E"/>
			<stop  offset="0.9027" style="stop-color:#F6B118"/>
			<stop  offset="1" style="stop-color:#F7AC16"/>
		</radialGradient>
		<path fill="url(#SVGID_2_)" d="M172.7,86.9c-0.3,47.7-39.2,86.1-86.9,85.8C38.1,172.4-0.3,133.5,0,85.8C0.3,38.1,39.2-0.3,86.9,0
			C134.6,0.3,173,39.2,172.7,86.9z"/>
	</g>
	<g>
		<g>
			
				<linearGradient id="SVGID_3_" gradientUnits="userSpaceOnUse" x1="43.9038" y1="-92.6273" x2="69.356" y2="-56.0025" gradientTransform="matrix(-0.9433 0.3318 0.3318 0.9433 136.625 99.9257)">
				<stop  offset="0" style="stop-color:#FFB817"/>
				<stop  offset="0.2085" style="stop-color:#FBB215"/>
				<stop  offset="0.4984" style="stop-color:#F0A00F"/>
				<stop  offset="0.8346" style="stop-color:#DE8206"/>
				<stop  offset="1" style="stop-color:#D47100"/>
			</linearGradient>
			<path fill="url(#SVGID_3_)" d="M67.7,73.3c6.3-3.8,10.7-10.7,11.5-18c0.7-6.3-0.9-13-4.5-18.6c-3.8-5.9-9-9.5-14.8-10.1
				c-2.3-0.3-4.6,0-7,0.9c-3,1.1-6,3-8.6,5.5c-4.8,4.7-8,11-8.8,17.4c-1,9,3.7,18.9,11.2,23.6l0.3,0.2l0.3,0
				c0.8,0.1,1.5-0.1,2.3-0.4c0.7-0.2,1.5-0.4,2.6-0.6c4.6-0.7,9.5-0.3,14.6,0.3l0.5,0.1L67.7,73.3z"/>
			
				<radialGradient id="SVGID_4_" cx="357.6497" cy="-1426.5481" r="22.2042" gradientTransform="matrix(0.9952 9.780000e-02 -0.1172 1.1932 -466.3447 1718.9457)" gradientUnits="userSpaceOnUse">
				<stop  offset="0" style="stop-color:#FFFFFF"/>
				<stop  offset="0.4703" style="stop-color:#FCFCFC"/>
				<stop  offset="0.8378" style="stop-color:#F2F2F2"/>
				<stop  offset="1" style="stop-color:#EBEBEB"/>
			</radialGradient>
			<path fill="url(#SVGID_4_)" d="M47.8,72.9c-7-4.3-11.7-13.5-10.8-22.1c0.6-6.1,3.6-12.2,8.1-16.7c4.4-4.4,9.7-6.6,14.4-6.2
				c5.3,0.5,10.3,3.8,13.9,9.3c3.4,5.2,5.1,11.7,4.5,17.6c-0.7,7-4.9,13.5-10.6,17.1c-5-0.5-10.1-0.9-15-0.1
				C50,72.2,48.8,73,47.8,72.9z"/>
		</g>
	</g>
	<g>
		<path fill="#2F7DB5" d="M62.9,66.9c-6.8-0.1-12.2-5.6-12.1-12.4c0.1-6.8,5.6-12.2,12.4-12.1c6.8,0.1,12.2,5.6,12.1,12.4
			C75.2,61.5,69.6,67,62.9,66.9z"/>
		
			<radialGradient id="SVGID_5_" cx="342.4366" cy="-1714.4108" r="15.449" gradientTransform="matrix(0.9543 1.110000e-02 -1.130000e-02 0.9721 -283.6033 1718.0099)" gradientUnits="userSpaceOnUse">
			<stop  offset="0" style="stop-color:#A6FFFF"/>
			<stop  offset="0.1497" style="stop-color:#9EF7FA"/>
			<stop  offset="0.3829" style="stop-color:#88E2EC"/>
			<stop  offset="0.6702" style="stop-color:#64C0D5"/>
			<stop  offset="0.9982" style="stop-color:#3291B5"/>
			<stop  offset="1" style="stop-color:#3291B5"/>
		</radialGradient>
		<circle fill="url(#SVGID_5_)" cx="63" cy="54.6" r="11.8"/>
		<path d="M69.6,55.6c0,3.7-3.1,6.6-6.7,6.6c-3.7,0-6.6-3.1-6.6-6.7c0-3.7,3.1-6.6,6.7-6.6C66.7,48.9,69.7,52,69.6,55.6z"/>
		<path fill="#FFFFFF" d="M69.8,60c0,1.2-1,2.2-2.2,2.2c-1.2,0-2.2-1-2.2-2.2c0-1.2,1-2.2,2.2-2.2C68.8,57.8,69.8,58.8,69.8,60z"/>
		<circle fill="#FFFFFF" cx="58.4" cy="51.6" r="3.2"/>
	</g>
	<path fill="#BA6400" d="M38.3,29.5c4.5-8.2,9.9-16.5,20.7-18.9c0.9-0.2,2.9-0.7,2-2.2c-1.3-2.2-5.9-2.3-11.7,1.7
		c-6.3,4.4-10.8,14.3-12.1,19.1C36.9,31,37.5,31.1,38.3,29.5z"/>
	<g>
		<g>
			
				<linearGradient id="SVGID_6_" gradientUnits="userSpaceOnUse" x1="-625.5873" y1="142.8623" x2="-600.135" y2="179.4874" gradientTransform="matrix(0.9433 0.3318 -0.3318 0.9433 741.1973 99.9257)">
				<stop  offset="0" style="stop-color:#FFB817"/>
				<stop  offset="0.2085" style="stop-color:#FBB215"/>
				<stop  offset="0.4984" style="stop-color:#F0A00F"/>
				<stop  offset="0.8346" style="stop-color:#DE8206"/>
				<stop  offset="1" style="stop-color:#D47100"/>
			</linearGradient>
			<path fill="url(#SVGID_6_)" d="M100.4,73.3c-6.3-3.8-10.7-10.7-11.5-18c-0.7-6.3,0.9-13,4.5-18.6c3.8-5.9,9-9.5,14.8-10.1
				c2.3-0.3,4.6,0,7,0.9c3,1.1,6,3,8.6,5.5c4.8,4.7,8,11,8.8,17.4c1,9-3.7,18.9-11.2,23.6l-0.3,0.2l-0.3,0c-0.8,0.1-1.5-0.1-2.3-0.4
				c-0.7-0.2-1.5-0.4-2.6-0.6c-4.6-0.7-9.5-0.3-14.6,0.3l-0.5,0.1L100.4,73.3z"/>
			
				<radialGradient id="SVGID_7_" cx="1063.9225" cy="-1484.4373" r="22.2056" gradientTransform="matrix(-0.9952 9.780000e-02 0.1172 1.1932 1344.1666 1718.9457)" gradientUnits="userSpaceOnUse">
				<stop  offset="0" style="stop-color:#FFFFFF"/>
				<stop  offset="0.4703" style="stop-color:#FCFCFC"/>
				<stop  offset="0.8378" style="stop-color:#F2F2F2"/>
				<stop  offset="1" style="stop-color:#EBEBEB"/>
			</radialGradient>
			<path fill="url(#SVGID_7_)" d="M120.3,72.9c7-4.3,11.7-13.5,10.8-22.1c-0.6-6.1-3.6-12.2-8.1-16.7c-4.4-4.4-9.7-6.6-14.4-6.2
				c-5.3,0.5-10.3,3.8-13.8,9.3c-3.4,5.2-5.1,11.7-4.5,17.6c0.7,7,4.9,13.5,10.6,17.1c5-0.5,10.1-0.9,15-0.1
				C118.2,72.2,119.4,73,120.3,72.9z"/>
		</g>
	</g>
	<g>
		<path fill="#2F7DB5" d="M105.3,66.9c6.8-0.1,12.2-5.6,12.1-12.4c-0.1-6.8-5.6-12.2-12.4-12.1c-6.8,0.1-12.2,5.6-12.1,12.4
			C93,61.5,98.5,67,105.3,66.9z"/>
		
			<radialGradient id="SVGID_8_" cx="1085.988" cy="-1722.9011" r="15.449" gradientTransform="matrix(-0.9543 1.110000e-02 1.130000e-02 0.9721 1161.4257 1718.0099)" gradientUnits="userSpaceOnUse">
			<stop  offset="0" style="stop-color:#A6FFFF"/>
			<stop  offset="0.1497" style="stop-color:#9EF7FA"/>
			<stop  offset="0.3829" style="stop-color:#88E2EC"/>
			<stop  offset="0.6702" style="stop-color:#64C0D5"/>
			<stop  offset="0.9982" style="stop-color:#3291B5"/>
			<stop  offset="1" style="stop-color:#3291B5"/>
		</radialGradient>
		<path fill="url(#SVGID_8_)" d="M93.4,54.7c0.1,6.5,5.4,11.7,11.9,11.6c6.5-0.1,11.7-5.4,11.6-11.9c-0.1-6.5-5.4-11.7-11.9-11.6
			C98.5,42.9,93.3,48.2,93.4,54.7z"/>
		<path d="M98.5,55.6c0,3.7,3,6.6,6.7,6.6c3.7,0,6.6-3.1,6.6-6.7c0-3.7-3.1-6.6-6.7-6.6C101.4,48.9,98.5,52,98.5,55.6z"/>
		<circle fill="#FFFFFF" cx="100.6" cy="60" r="2.2"/>
		<path fill="#FFFFFF" d="M106.5,51.6c0,1.8,1.5,3.2,3.3,3.2c1.8,0,3.2-1.5,3.2-3.3c0-1.8-1.5-3.2-3.3-3.2
			C107.9,48.3,106.5,49.8,106.5,51.6z"/>
	</g>
	<path fill="#BA6400" d="M129.8,28c-4.5-8.2-9.9-16.5-20.7-18.9c-0.9-0.2-2.9-0.7-2-2.2c1.3-2.2,5.9-2.3,11.7,1.7
		c6.3,4.4,10.8,14.3,12.1,19.1C131.3,29.5,130.7,29.6,129.8,28z"/>
	<g>
		<g>
			<defs>
				<path id="SVGID_9_" d="M112.2,118.3c4.8,20.5-6.8,37-25.9,37c-19,0-30.6-16.6-25.9-37c4.8-20.5,16.3-30.1,25.9-30.1
					C95.9,88.2,107.5,97.8,112.2,118.3z"/>
			</defs>
			<linearGradient id="SVGID_10_" gradientUnits="userSpaceOnUse" x1="86.3636" y1="92.8284" x2="86.3636" y2="151.5023">
				<stop  offset="0" style="stop-color:#290003"/>
				<stop  offset="0.3874" style="stop-color:#530007"/>
				<stop  offset="0.7884" style="stop-color:#79000B"/>
				<stop  offset="1" style="stop-color:#87000D"/>
			</linearGradient>
			<use xlink:href="#SVGID_9_"  overflow="visible" fill="url(#SVGID_10_)"/>
			<clipPath id="SVGID_11_">
				<use xlink:href="#SVGID_9_"  overflow="visible"/>
			</clipPath>
			<g clip-path="url(#SVGID_11_)">
				
					<radialGradient id="SVGID_12_" cx="99.4833" cy="78.8317" r="19.223" gradientTransform="matrix(1.0977 0 0 1.4424 -25.471 40.068)" gradientUnits="userSpaceOnUse">
					<stop  offset="0" style="stop-color:#E9182A"/>
					<stop  offset="0.255" style="stop-color:#DB1325"/>
					<stop  offset="0.7384" style="stop-color:#B50717"/>
					<stop  offset="1" style="stop-color:#9E000E"/>
				</radialGradient>
				<path fill="url(#SVGID_12_)" d="M109.2,157.6c0,12.4-9.5,22.4-21.3,22.4c-11.7,0-21.3-11.6-21.3-24c-4.7-1.3-1.7,0.5-9.1-4.4
					c7.3-10.3,13.3-14.1,21.6-14.1c3.2,0,5.9,1.8,7.4,3.2c0.9,0.8,1.4,1.5,1.4,1.5s3-4.7,8.8-4.7
					C106.5,137.6,109.2,148.8,109.2,157.6z"/>
				<path fill="#990E25" d="M88.2,141.7c0.5,0.8,0.9,1.6,1.2,2.4c0.7,1.5,1.1,4.7,1.1,6.6c-0.1-1.9-1.2-5.5-1.6-6.3
					c-0.4-0.8-0.8-1.5-1.3-2.2L88.2,141.7z"/>
			</g>
		</g>
	</g>
</g>
</svg>
