<?xml version="1.0" encoding="UTF-8" standalone="no"?>
<svg width="395px" height="395px" viewBox="0 0 395 395" version="1.1" xmlns="http://www.w3.org/2000/svg" xmlns:xlink="http://www.w3.org/1999/xlink">
    <!-- Generator: Sketch 3.6.1 (26313) - http://www.bohemiancoding.com/sketch -->
    <title>Oval-1</title>
    <desc>Created with Sketch.</desc>
    <defs>
        <radialGradient cx="50%" cy="0%" fx="50%" fy="0%" r="100%" id="radialGradient-1">
            <stop stop-color="#F3C716" offset="0%"></stop>
            <stop stop-color="#CA5F14" offset="100%"></stop>
        </radialGradient>
    </defs>
    <g id="Page-1" stroke="none" stroke-width="1" fill="none" fill-rule="evenodd">
        <path d="M197.5,395 C306.576238,395 395,306.576238 395,197.5 C395,88.4237619 306.576238,0 197.5,0 C88.4237619,0 0,88.4237619 0,197.5 C0,306.576238 88.4237619,395 197.5,395 L197.5,395 Z" id="Oval-1" fill="url(#radialGradient-1)"></path>
        <path d="M187.304,7 C187.304,7 174.035,17.033 171.304,21.5 C168.574,25.969 165.031,27.472 164.934,29.704 C164.685,35.413 169.649,42.858 172.131,46.334 C174.614,49.809 183.053,60.979 184.542,60.235 C186.031,59.49 200.208,49.112 200.208,48.367 C200.208,47.622 203.187,46.627 204.179,47.125 C205.172,47.622 215.572,49 218.054,48.75 C220.536,48.502 240.813,43.489 242.054,41.75 C243.296,40.012 242.79,34.447 243.782,33.205 C244.775,31.962 246.179,34.682 246.179,35.922 L246.179,42.375 C246.179,42.375 243.88,44.391 237.179,46.625 C230.477,48.86 223.889,51.375 218.429,51.375 C212.969,51.375 205.535,49.518 202.804,52 C200.074,54.483 206.195,55.625 208.429,55.625 C210.664,55.625 221.879,60.5 232.304,60.25 C242.729,60.002 247.34,62.886 252.304,64.375 C257.269,65.865 263.23,68.751 263.23,68.751 C263.23,68.751 245.888,62.875 240.179,62.875 C234.471,62.875 222.065,62.131 223.554,62.875 C225.044,63.62 243.622,73.147 253.054,76.375 C262.486,79.602 255.169,79.62 271.054,78.875 C286.94,78.131 291.19,79.256 292.679,80 C294.169,80.746 309.462,94.893 314.179,97.125 C318.896,99.36 302.414,92.862 300.429,91.125 C298.443,89.389 289.164,83.5 287.179,83.5 C285.194,83.5 256.919,84.5 255.429,84.5 C253.94,84.5 225.297,68 224.304,68 C223.312,68 214.824,67.184 212.838,66.936 C210.852,66.687 206.632,63.956 204.151,64.205 C201.669,64.454 189.755,70.163 188.762,72.893 C187.769,75.624 185.535,94.737 186.031,98.956 C186.528,103.174 193.975,110.125 198.442,110.621 C202.91,111.117 212.179,106.5 212.179,106.5 C212.179,106.5 202.432,113.135 202.929,114.625 C203.426,116.114 208.067,119.627 209.804,119.875 C211.541,120.125 226.817,120.634 228.554,121.875 C230.292,123.116 234.458,137.196 234.706,140.174 C234.954,143.153 228.04,125.861 226.054,123.875 C224.069,121.891 204.179,124.5 204.179,124.5 C204.179,124.5 197.047,112.87 196.054,112.125 C195.061,111.381 188.017,111.862 180.074,109.627 C172.132,107.393 167.913,104.167 155.75,107.641 C143.587,111.117 140.609,111.117 139.12,112.854 C137.63,114.593 130.432,122.784 123.482,124.272 C116.532,125.762 116.036,126.259 114.298,138.421 C112.561,150.582 106.065,164.292 107.554,170 C109.044,175.708 119.93,187.756 120.179,188.5 C120.428,189.245 111.4,197.672 111.4,197.672 L115.054,190.125 C115.054,190.125 103.051,172.483 102.554,170 C102.058,167.517 104.929,160.5 104.929,160.5 C104.929,160.5 100.1,165.282 96.128,165.779 C92.156,166.274 84.179,164.25 84.179,164.25 C84.179,164.25 75.792,171.385 74.054,172.625 C72.316,173.867 52.429,171 52.429,171 L43.123,177.682 L51.054,168.625 C51.054,168.625 55.475,168.75 61.929,168.75 C68.383,168.75 70.701,171.479 73.679,168.5 C76.658,165.522 80.074,160.375 82.804,160.375 C85.535,160.375 93.451,164.871 96.429,164.125 C99.408,163.381 103.929,158.125 103.929,158.125 L109.155,133.885 C109.155,133.885 92.287,139.75 89.804,139.75 C87.321,139.75 48.054,123.125 48.054,123.125 C48.054,123.125 38.517,138.045 33.304,144.25 C28.092,150.455 25.663,153.403 23.429,157.125 C21.195,160.848 19.554,164.625 19.554,164.625 L0,170.72 C0,170.72 15.446,163.348 17.929,159.625 C20.412,155.903 30.565,138.592 32.054,134.125 C33.543,129.657 30.564,125.438 33.791,122.956 C37.019,120.473 49.411,111.426 49.411,111.426 C49.411,111.426 56.35,119.653 62.804,123.375 C69.258,127.099 86.836,134.249 91.304,134 C95.772,133.751 105.611,125.017 108.589,124.769 C111.568,124.52 119.511,118.066 121.993,114.095 C124.475,110.125 128.942,99.947 128.942,99.947 C128.943,99.947 114.05,96.968 111.568,96.473 C109.086,95.976 97.42,83.813 97.42,83.813 C97.42,83.813 84.363,82.502 75.179,82.75 C65.996,82.999 63.012,87.367 57.054,86.125 C51.098,84.885 46.054,82.125 46.054,82.125 L26.179,87.625 L44.304,78.75 C44.304,78.75 56.211,81.375 60.679,81.375 C65.147,81.375 102.054,75.25 102.054,75.25 C102.054,75.25 98.297,70.245 97.304,69.5 C96.312,68.756 90.03,67.141 86.554,69.125 C83.08,71.112 79.148,73.256 74.929,74 C70.71,74.745 64.01,72.794 64.01,72.794 C64.01,72.794 69.454,72.748 72.929,72.5 C76.404,72.252 85.693,64.625 87.679,64.625 C89.665,64.625 98.504,67.155 99.497,67.404 C100.49,67.653 105.611,78.104 111.32,83.069 C117.028,88.034 121.745,93.745 141.105,91.757 C160.465,89.77 176.599,81.829 176.599,76.616 C176.599,71.403 158.554,41.625 158.554,41.625 C158.554,41.625 142.921,40.125 141.929,40.125 C140.936,40.125 129.688,49.344 128.695,50.335 C127.703,51.327 140.429,36.375 140.429,36.375 C140.429,36.375 157.057,39.364 157.304,37.625 C157.553,35.887 156.32,35.512 156.32,35.512 C156.32,35.512 162.471,20.471 168.179,16.25 C173.888,12.032 187.304,7 187.304,7" id="Fill-5" fill="#F3C716" transform="translate(157.511959, 102.336000) rotate(-7.000000) translate(-157.511959, -102.336000) "></path>
        <path d="M186.866,7 C186.866,7 173.615,19.577 171.144,23.62 C168.673,27.663 164.27,34.179 164.182,36.198 C163.957,41.363 168.448,48.101 170.695,51.246 C172.941,54.391 180.577,64.498 181.925,63.824 C183.273,63.15 199.893,50.348 199.893,49.674 C199.893,49 202.588,48.101 203.486,48.551 C204.385,49 215.166,49.899 217.412,49.674 C219.658,49.449 239.422,44.284 240.545,42.711 C241.669,41.139 242.342,33.953 243.24,32.829 C244.139,31.705 244.139,36.424 244.139,37.546 L244.139,43.385 C244.139,43.385 238.299,46.08 232.235,48.102 C226.171,50.123 217.861,51.919 212.92,51.919 C207.979,51.919 205.957,51.246 203.486,53.492 C201.016,55.738 202.139,57.983 204.16,57.983 C206.182,57.983 220.556,61.803 229.989,61.577 C239.422,61.353 244.813,62.477 249.305,63.824 C253.797,65.172 263.23,68.315 263.23,68.315 C263.23,68.315 242.566,62.7 237.4,62.7 C232.235,62.7 224.823,63.374 226.171,64.048 C227.519,64.722 240.32,74.828 248.855,77.749 C257.39,80.669 257.166,82.017 271.54,81.343 C285.914,80.669 287.262,80.444 288.609,81.118 C289.957,81.792 309.272,94.369 313.54,96.39 C317.808,98.411 294.448,89.876 292.652,88.305 C290.856,86.733 288.384,84.712 286.588,84.712 C284.791,84.712 256.941,86.06 255.593,86.06 C254.246,86.06 221.903,68.989 221.005,68.989 C220.107,68.989 209.326,70.113 207.529,69.889 C205.732,69.663 201.914,67.191 199.668,67.417 C197.422,67.642 186.642,72.809 185.743,75.278 C184.844,77.749 182.823,95.044 183.273,98.861 C183.722,102.68 190.46,108.969 194.503,109.417 C198.545,109.866 212.471,106.048 212.471,106.048 C212.471,106.048 199.443,111.664 199.893,113.012 C200.342,114.358 203.487,119.074 205.059,119.299 C206.631,119.524 224.375,119.749 225.947,120.872 C227.519,121.994 234.482,137.043 234.706,139.738 C234.931,142.434 226.396,125.139 224.599,123.342 C222.802,121.546 203.038,122.22 203.038,122.22 C203.038,122.22 196.299,112.338 195.401,111.664 C194.503,110.99 185.069,110.54 177.882,108.519 C170.695,106.497 166.878,103.578 155.872,106.722 C144.866,109.866 142.171,109.866 140.823,111.438 C139.476,113.012 132.962,120.423 126.673,121.771 C120.385,123.118 119.936,123.568 118.363,134.573 C116.792,145.577 109.379,163.098 110.727,168.263 C112.074,173.428 121.956,188.252 122.181,188.926 C122.406,189.6 111.4,197.236 111.4,197.236 L117.016,189.824 C117.016,189.824 104.888,170.284 104.438,168.038 C103.989,165.791 104.888,160.626 104.888,160.626 C104.888,160.626 99.722,164.894 96.128,165.343 C92.534,165.791 83.55,161.524 83.55,161.524 C83.55,161.524 74.792,168.937 73.219,170.059 C71.647,171.182 51.658,168.937 51.658,168.937 L43.123,177.246 L50.534,167.139 C50.534,167.139 57.497,167.364 63.337,167.364 C69.176,167.364 72.32,168.486 75.016,165.791 C77.711,163.096 79.957,158.155 82.427,158.155 C84.898,158.155 93.433,161.974 96.128,161.3 C98.823,160.626 107.358,153.888 107.358,153.888 L109.155,133.449 C109.155,133.449 94.332,136.369 92.086,136.369 C89.839,136.369 53.454,122.894 53.454,122.894 C53.454,122.894 43.123,135.022 38.406,140.637 C33.69,146.251 28.299,150.07 26.278,153.439 C24.256,156.808 22.01,164.22 22.01,164.22 L0,170.284 C0,170.284 16.844,163.77 19.09,160.4 C21.336,157.032 35.037,135.92 36.385,131.878 C37.732,127.835 35.036,124.017 37.957,121.771 C40.877,119.524 49.411,110.99 49.411,110.99 C49.411,110.99 61.09,119.075 66.93,122.444 C72.77,125.813 83.55,130.755 87.593,130.53 C91.636,130.305 110.503,122.444 113.197,122.22 C115.893,121.994 123.08,116.154 125.326,112.562 C127.572,108.969 131.614,99.759 131.614,99.759 C131.614,99.759 118.139,97.063 115.893,96.615 C113.647,96.166 103.09,85.16 103.09,85.16 C103.09,85.16 90.513,82.914 82.203,83.139 C73.893,83.364 61.54,86.957 56.149,85.834 C50.759,84.712 45.144,82.465 45.144,82.465 L25.828,87.407 L44.694,79.771 C44.694,79.771 57.048,82.69 61.091,82.69 C65.133,82.69 101.743,76.401 101.743,76.401 C101.743,76.401 98.823,71.461 97.924,70.787 C97.026,70.113 91.412,66.97 88.267,68.766 C85.123,70.563 78.833,73.931 75.016,74.604 C71.198,75.278 64.01,72.358 64.01,72.358 C64.01,72.358 70.299,73.256 73.443,73.032 C76.588,72.809 87.817,65.62 89.615,65.62 C91.412,65.62 98.599,66.743 99.497,66.968 C100.396,67.193 110.503,79.994 115.669,84.486 C120.834,88.979 125.102,94.146 142.62,92.349 C160.139,90.551 174.737,83.364 174.737,78.647 C174.737,73.931 158.566,43.385 158.566,43.385 C158.566,43.385 143.743,40.466 142.845,40.466 C141.946,40.466 129.593,49.002 128.695,49.899 C127.797,50.797 140.823,38.22 140.823,38.22 C140.823,38.22 156.77,40.466 156.994,38.894 C157.219,37.321 156.32,35.076 156.32,35.076 C156.32,35.076 162.161,24.968 167.326,21.149 C172.492,17.332 186.866,7 186.866,7" id="Fill-6" fill="#8C400B" transform="translate(157.029943, 102.118000) rotate(-7.000000) translate(-157.029943, -102.118000) "></path>
        <path d="M256.711426,314.461575 C263.713156,316.815877 269.40142,323.317597 273.128891,326.457224 C276.856363,329.597687 282.076876,334.136514 284.75597,339.445611 C287.433353,344.754709 285.593133,348.534973 288.177309,349.553638 C290.760629,350.570629 306.464924,352.3696 306.464924,352.3696 L285.690617,353.057073 C285.690617,353.057073 284.47036,343.028499 280.743743,339.889709 C277.014561,336.749246 267.70828,329.435437 262.853759,324.888247 C257.570822,319.941286 238.469132,313.961442 236.641739,313.999078 C234.81349,314.039222 224.90264,319.821689 222.057652,323.459775 C219.21181,327.097862 210.971865,327.424872 207.333326,328.216051 C203.693077,329.009739 202.342841,334.047025 196.564789,337.389047 C190.786737,340.732741 186.327282,335.212886 179.242605,335.665347 C170.841898,336.202278 170.602464,334.532104 166.581686,334.617411 C162.560052,334.703554 180.632177,333.362898 182.801619,332.243036 C184.97106,331.123175 194.140521,332.524047 195.72335,332.399432 C202.424077,331.869192 204.654232,322.908626 208.667315,322.466201 C212.681252,322.022104 226.738584,312.779692 226.326416,310.642002 C225.912537,308.505149 225.126681,306.017032 225.07965,303.870979 C225.030053,301.726599 225.555097,292.41477 221.747244,285.699783 C217.941101,278.984795 219.275944,273.232436 218.067658,268.250349 C216.859373,263.268261 215.576691,250.235548 211.547362,249.963737 C207.518032,249.691089 204.590098,229.817937 204.590098,229.817937 C204.590098,229.817937 207.521453,243.781498 210.501549,246.221944 C213.481645,248.662389 218.390039,249.961228 218.477261,253.894543 C218.564484,257.828694 219.547873,259.997328 220.651834,260.331029 C221.75665,260.664729 233.692427,259.271384 237.030819,256.426985 C239.958753,253.928833 230.345484,261.191624 227.119968,264.121329 C223.892742,267.052707 223.301853,271.425938 225.709874,281.032159 C228.118749,290.639217 230.855991,300.528121 230.879934,301.601984 C230.903878,302.675011 233.152846,305.129674 238.135635,298.943254 C243.118424,292.755998 263.399326,283.739398 264.710226,276.914013 C266.021982,270.089464 271.441738,267.112924 268.080258,263.964934 C264.717067,260.81778 271.09969,251.738454 261.228174,251.948376 C251.357514,252.158297 241.831467,249.802323 238.524715,249.157503 C235.218818,248.511847 246.160089,248.692497 247.956698,247.223045 C249.752452,245.753592 254.003258,239.582227 251.770537,237.840963 C249.536962,236.0997 238.604241,226.277702 238.604241,226.277702 C238.604241,226.277702 241.14224,217.754544 238.94971,217.800543 C236.75718,217.847378 230.460925,215.890338 230.460925,215.890338 L224.297214,193.619394 L227.928057,201.863214 C227.928057,201.863214 230.67043,210.031764 235.453976,211.360711 C240.237522,212.688822 244.663628,215.157703 244.85603,223.740242 C245.045867,232.320271 252.739389,232.096968 252.739389,232.096968 C252.739389,232.096968 255.3629,234.902895 257.110767,231.288226 C258.859489,227.673557 259.964306,211.510416 258.995454,205.767258 C257.731585,198.281999 258.543095,196.233798 258.543095,196.233798 C258.543095,196.233798 262.831526,199.125032 262.165387,218.457071 C261.499248,237.787437 255.46637,239.551282 255.46637,239.551282 C255.46637,239.551282 252.645326,244.261559 254.878047,246.003658 C257.111622,247.743249 270.294166,245.659086 274.395325,249.148303 C278.496485,252.637521 282.933707,257.566919 286.587639,257.489139 C290.244136,257.412196 299.304996,253.641131 303.674664,252.832389 C308.046042,252.025319 315.713911,251.501769 316.38176,248.628099 C317.050465,245.751083 321.89729,233.485295 324.011149,229.863099 C326.124152,226.24174 330.012387,222.030759 329.129902,215.252209 C328.247418,208.474496 321.000268,200.681464 321.000268,200.681464 C321.000268,200.681464 323.148332,191.483377 323.044007,186.835826 C322.940537,182.187439 318.015896,170.021176 319.298578,172.275953 C320.512849,174.409461 325.139908,177.303203 325.631603,183.016253 C326.125008,188.728467 323.98293,198.664207 325.476826,200.062571 C326.970722,201.462607 336.123936,213.287643 335.457797,216.162985 C334.790802,219.040837 323.264628,245.618105 323.678507,247.756631 C324.09153,249.893484 325.734217,253.816763 328.984532,251.958412 C332.234846,250.10006 338.182212,258.536239 341.529155,260.97083 C344.873533,263.402076 353.704366,265.718742 358.829105,265.966299 C363.955555,266.215529 376.619895,257.605391 376.619895,257.605391 C376.619895,257.605391 373.866406,267.79287 366.943347,269.013929 C360.021999,270.234151 347.902371,267.987737 345.661954,265.889356 C343.419827,263.790974 332.609389,261.0829 332.609389,261.0829 C332.609389,261.0829 330.734109,255.444284 326.679126,254.099446 C322.626708,252.753773 303.070949,258.568857 302.363764,259.657774 C301.656579,260.745854 294.568482,270.912424 294.568482,270.912424 C294.568482,270.912424 290.84101,284.227821 291.301065,288.509891 C291.763685,292.792797 289.937147,309.286292 289.984179,311.432345 C290.032921,313.577562 287.051969,327.59214 285.264767,329.417874 C283.475854,331.244444 278.499051,332.61019 278.499051,332.61019 C278.499051,332.61019 282.224812,328.353211 283.226159,324.03936 C284.227505,319.72551 287.464993,313.275642 286.565406,305.78202 C285.669239,298.288398 288.067853,291.082478 287.614639,287.157526 C287.16057,283.232574 277.323259,284.874313 274.088337,287.445228 C270.85427,290.019488 265.315652,287.632568 262.452707,290.555583 C259.593183,293.477761 252.42385,300.069806 249.531831,301.562676 C246.639812,303.055546 241.623673,307.811822 241.623673,307.811822 C241.623673,307.811822 249.710551,312.106436 256.711426,314.461575 Z" id="Fill-7" fill="#E09615"></path>
        <path d="M243.345957,304.686452 C243.345957,304.686452 249.63024,310.570953 256.175336,312.772204 C262.721286,314.972619 269.310847,319.179418 272.79461,322.114978 C276.279227,325.049701 281.159402,329.293299 283.663196,334.255314 C286.16699,339.21733 286.693744,347.564857 289.108606,348.516614 C291.523467,349.468371 306.284564,352.1639 306.284564,352.1639 L285.409353,351.270687 C285.409353,351.270687 283.396398,337.604027 279.911781,334.67014 C276.428018,331.733744 267.728018,324.897487 263.188182,320.648034 C258.250714,316.024737 240.396645,310.432956 238.688969,310.469756 C236.979582,310.505718 226.483829,315.076326 223.823548,318.476055 C221.164977,321.877457 214.693422,323.017391 211.292606,323.759226 C207.89008,324.499388 206.627067,329.207156 201.226978,332.332565 C195.826035,335.457138 191.79585,332.58514 185.172939,333.008329 C177.320364,333.51097 170.158727,334.331422 166.401326,334.41171 C162.641359,334.491999 186.48726,330.640645 188.515607,329.593546 C190.543098,328.547282 196.092833,332.108425 200.439412,327.668287 C204.784281,323.228985 208.787957,318.796374 212.539372,318.382385 C216.291643,317.968396 229.432285,309.328985 229.046626,307.330965 C228.659256,305.332945 227.922997,303.007915 227.878531,301.002367 C227.83492,298.99682 228.324904,290.293011 224.766746,284.01543 C221.207733,277.738685 222.456209,272.362681 221.325739,267.705094 C220.19698,263.048343 216.489176,250.086719 212.722368,249.832471 C208.957271,249.577387 204.409738,229.612237 204.409738,229.612237 C204.409738,229.612237 207.432591,242.588915 210.218574,244.869619 C213.004558,247.150323 219.207605,249.359938 219.289697,253.03566 C219.370933,256.712218 221.868741,261.339697 222.900017,261.652489 C223.933003,261.96528 235.498513,257.923241 237.809905,255.6509 C240.372702,253.131839 232.803172,261.10803 229.78716,263.846213 C226.772004,266.586068 224.423842,268.641796 226.675376,277.62327 C228.926054,286.602235 233.280329,297.877794 233.302562,298.880568 C233.324796,299.884178 235.428393,302.1791 240.084526,296.395797 C244.742369,290.612494 263.699544,282.184678 264.925787,275.804227 C266.15032,269.425449 271.216912,266.64294 268.074342,263.699853 C264.931773,260.757603 270.897096,252.271243 261.670342,252.467784 C252.444443,252.664324 241.434762,249.554805 238.344355,248.951803 C235.253948,248.348801 247.585646,249.424336 249.264249,248.050227 C250.943706,246.67779 254.917453,240.907868 252.830103,239.281183 C250.742753,237.653662 240.268377,227.845047 240.268377,227.845047 C240.268377,227.845047 242.436108,217.767965 240.385529,217.811455 C238.335804,217.855781 232.489342,216.306876 232.489342,216.306876 L224.115999,193.413694 L230.543087,205.649373 C230.543087,205.649373 233.10674,213.28601 237.577312,214.527977 C242.050449,215.769945 244.449918,216.053464 244.627783,224.074818 C244.806504,232.095335 253.735676,233.91187 253.735676,233.91187 C253.735676,233.91187 256.188162,236.534637 257.821443,233.155817 C259.456434,229.777832 261.61647,214.722845 260.710897,209.354367 C259.52912,202.357532 258.362735,196.028934 258.362735,196.028934 C258.362735,196.028934 263.56358,199.261395 262.939342,217.331395 C262.315958,235.400558 256.283936,240.879433 256.283936,240.879433 C256.283936,240.879433 253.646743,245.282772 255.734948,246.909456 C257.822298,248.536977 269.43313,247.95572 273.267492,251.217453 C277.100143,254.480022 281.95894,257.72001 285.376003,257.647248 C288.793066,257.574486 297.261328,254.050142 301.347951,253.294089 C305.433718,252.538873 312.602197,252.051285 313.22558,249.364119 C313.849818,246.675281 318.380248,235.209872 320.357288,231.823524 C322.331762,228.438013 327.30942,221.645245 326.484229,215.30912 C325.659892,208.972995 319.66464,200.74172 319.66464,200.74172 C319.66464,200.74172 321.453553,189.001155 321.357779,184.655523 C321.261151,180.310728 319.025009,172 319.025009,172 C320.117854,173.722028 323.638387,179.59231 324.098442,184.932352 C324.559352,190.271558 321.016586,200.044211 322.412143,201.352249 C323.809411,202.660288 332.263136,213.848868 331.639753,216.536034 C331.016369,219.224872 319.659509,246.550666 320.045169,248.549523 C320.431683,250.546707 325.631673,253.78084 328.670773,252.043758 C331.707307,250.307513 333.60311,258.626604 336.730287,260.899781 C339.858319,263.173794 348.111946,265.339083 352.902333,265.57075 C357.69443,265.804089 376.660156,257.709137 376.660156,257.709137 C376.660156,257.709137 366.957955,267.278559 360.48811,268.418493 C354.017411,269.5601 342.688769,267.460046 340.594578,265.498824 C338.498677,263.536766 330.617028,262.702097 330.617028,262.702097 C330.617028,262.702097 331.166016,256.672073 327.37783,255.415052 C323.58879,254.157194 300.782716,258.655876 300.122563,259.673704 C299.459844,260.691532 292.834367,270.194047 292.834367,270.194047 C292.834367,270.194047 289.350605,282.641321 289.782441,286.644052 C290.213422,290.64762 288.505745,306.064744 288.550212,308.069455 C288.593823,310.074166 285.809549,323.174623 284.137788,324.882433 C282.466027,326.590242 279.845081,331.660982 279.845081,331.660982 C279.845081,331.660982 281.410808,325.273841 282.347165,321.242673 C283.283522,317.21067 286.196064,309.791482 285.354625,302.788793 C284.515751,295.784431 286.759589,289.048535 286.335449,285.379504 C285.912164,281.710472 276.715339,283.243487 273.691631,285.647969 C270.667924,288.054124 265.491022,285.822765 262.816204,288.555093 C260.142241,291.288258 253.441514,297.448751 250.736767,298.844605 C248.03373,300.239623 243.345957,304.686452 243.345957,304.686452" id="Fill-8" fill="#8C400B"></path>
    </g>
</svg>