<?xml version="1.0" encoding="UTF-8" standalone="no"?>
<svg width="916px" height="944px" viewBox="0 0 916 944" version="1.1" xmlns="http://www.w3.org/2000/svg" xmlns:xlink="http://www.w3.org/1999/xlink">
    <!-- Generator: Sketch 3.6.1 (26313) - http://www.bohemiancoding.com/sketch -->
    <title>Group</title>
    <desc>Created with Sketch.</desc>
    <defs></defs>
    <g id="Page-1" stroke="none" stroke-width="1" fill="none" fill-rule="evenodd">
        <g id="Group" transform="translate(5.000000, 5.000000)">
            <path d="M208.5,183.5 L183.5,117.5" id="Line" stroke="#6296C7" stroke-width="3" stroke-linecap="square"></path>
            <path id="Line-decoration-1" d="M183.5,117.5 L184.520174,128.662403 L190.131131,126.537041 L183.5,117.5 Z" stroke="#6296C7" stroke-width="3" stroke-linecap="square"></path>
            <path d="M167.5,220.5 L96.5,176.5" id="Line-Copy" stroke="#6296C7" stroke-width="3" stroke-linecap="square"></path>
            <path id="Line-Copy-decoration-1" d="M96.5,176.5 L104.099807,184.73911 L107.260407,179.639051 L96.5,176.5 Z" stroke="#6296C7" stroke-width="3" stroke-linecap="square"></path>
            <path d="M153.5,267.5 L77.5,269.5" id="Line-Copy-2" stroke="#6296C7" stroke-width="3" stroke-linecap="square"></path>
            <path id="Line-Copy-2-decoration-1" d="M77.5,269.5 L88.3751824,272.21485 L88.2173423,266.216926 L77.5,269.5 Z" stroke="#6296C7" stroke-width="3" stroke-linecap="square"></path>
            <path d="M370.5,129.5 L294.5,62.5" id="Line-Copy-3" stroke="#6296C7" stroke-width="3" stroke-linecap="square"></path>
            <path id="Line-Copy-3-decoration-1" d="M294.5,62.5 L300.617473,71.8923649 L304.585244,67.39161 L294.5,62.5 Z" stroke="#6296C7" stroke-width="3" stroke-linecap="square"></path>
            <path d="M441.5,93.5 L436.5,0.5" id="Line-Copy-4" stroke="#6296C7" stroke-width="3" stroke-linecap="square"></path>
            <path id="Line-Copy-4-decoration-1" d="M436.5,0.5 L434.084134,11.4454827 L440.075481,11.1233673 L436.5,0.5 Z" stroke="#6296C7" stroke-width="3" stroke-linecap="square"></path>
            <path d="M510.5,14.5 L474.5,106.5" id="Line-Copy-33" stroke="#D27329" stroke-width="3" stroke-linecap="square"></path>
            <path id="Line-Copy-33-decoration-1" d="M474.5,106.5 L481.229241,97.535776 L475.641785,95.3493799 L474.5,106.5 Z" stroke="#D27329" stroke-width="3" stroke-linecap="square"></path>
            <path d="M348.5,29.5 L400.5,106.5" id="Line-Copy-34" stroke="#D27329" stroke-width="3" stroke-linecap="square"></path>
            <path id="Line-Copy-34-decoration-1" d="M400.5,106.5 L396.941869,95.870809 L391.969525,99.2287551 L400.5,106.5 Z" stroke="#D27329" stroke-width="3" stroke-linecap="square"></path>
            <path d="M272.5,120.5 L347.5,149.5" id="Line-Copy-36" stroke="#D27329" stroke-width="3" stroke-linecap="square"></path>
            <path id="Line-Copy-36-decoration-1" d="M347.5,149.5 L338.508742,142.806923 L336.344871,148.403141 L347.5,149.5 Z" stroke="#D27329" stroke-width="3" stroke-linecap="square"></path>
            <path d="M235.5,99.5 L244.5,171.5" id="Line-Copy-37" stroke="#D27329" stroke-width="3" stroke-linecap="square"></path>
            <path id="Line-Copy-37-decoration-1" d="M244.5,171.5 L246.137258,160.411295 L240.183591,161.155503 L244.5,171.5 Z" stroke="#D27329" stroke-width="3" stroke-linecap="square"></path>
            <path d="M141.5,139.5 L189.5,199.5" id="Line-Copy-38" stroke="#D27329" stroke-width="3" stroke-linecap="square"></path>
            <path id="Line-Copy-38-decoration-1" d="M189.5,199.5 L185.0959,189.192532 L180.410687,192.940702 L189.5,199.5 Z" stroke="#D27329" stroke-width="3" stroke-linecap="square"></path>
            <path d="M84.5,227.5 L159.5,242.5" id="Line-Copy-39" stroke="#D27329" stroke-width="3" stroke-linecap="square"></path>
            <path id="Line-Copy-39-decoration-1" d="M159.5,242.5 L149.498077,237.440204 L148.32138,243.323688 L159.5,242.5 Z" stroke="#D27329" stroke-width="3" stroke-linecap="square"></path>
            <path d="M35.5,343.5 L103.5,378.5" id="Line-Copy-40" stroke="#D27329" stroke-width="3" stroke-linecap="square"></path>
            <path id="Line-Copy-40-decoration-1" d="M103.5,378.5 L95.2702635,370.890044 L92.524403,376.224858 L103.5,378.5 Z" stroke="#D27329" stroke-width="3" stroke-linecap="square"></path>
            <path d="M0.5,441.5 L83.5,435.5" id="Line-Copy-41" stroke="#D27329" stroke-width="3" stroke-linecap="square"></path>
            <path id="Line-Copy-41-decoration-1" d="M83.5,435.5 L72.5118057,433.286499 L72.9444118,439.270883 L83.5,435.5 Z" stroke="#D27329" stroke-width="3" stroke-linecap="square"></path>
            <path d="M5.5,527.5 L83.5,499.5" id="Line-Copy-42" stroke="#D27329" stroke-width="3" stroke-linecap="square"></path>
            <path id="Line-Copy-42-decoration-1" d="M83.5,499.5 L72.3215033,500.325355 L74.3486918,505.972523 L83.5,499.5 Z" stroke="#D27329" stroke-width="3" stroke-linecap="square"></path>
            <path d="M35.5,598.5 L103.5,542.5" id="Line-Copy-43" stroke="#D27329" stroke-width="3" stroke-linecap="square"></path>
            <path id="Line-Copy-43-decoration-1" d="M103.5,542.5 L93.2560317,547.049848 L97.0702752,551.681429 L103.5,542.5 Z" stroke="#D27329" stroke-width="3" stroke-linecap="square"></path>
            <path d="M67.5,703.5 L155.5,678.5" id="Line-Copy-44" stroke="#D27329" stroke-width="3" stroke-linecap="square"></path>
            <path id="Line-Copy-44-decoration-1" d="M155.5,678.5 L144.291267,678.565587 L145.930929,684.337199 L155.5,678.5 Z" stroke="#D27329" stroke-width="3" stroke-linecap="square"></path>
            <path d="M76.5,783.5 L167.5,727.5" id="Line-Copy-45" stroke="#D27329" stroke-width="3" stroke-linecap="square"></path>
            <path id="Line-Copy-45-decoration-1" d="M167.5,727.5 L156.729798,730.605277 L159.874382,735.715227 L167.5,727.5 Z" stroke="#D27329" stroke-width="3" stroke-linecap="square"></path>
            <path d="M588.5,66.5 L518.5,139.5" id="Line-Copy-35" stroke="#D27329" stroke-width="3" stroke-linecap="square"></path>
            <path id="Line-Copy-35-decoration-1" d="M518.5,139.5 L528.140244,133.781111 L523.80955,129.62839 L518.5,139.5 Z" stroke="#D27329" stroke-width="3" stroke-linecap="square"></path>
            <path d="M508.5,114.5 L569.5,33.5" id="Line-Copy-5" stroke="#6296C7" stroke-width="3" stroke-linecap="square"></path>
            <path id="Line-Copy-5-decoration-1" d="M569.5,33.5 L560.606526,40.3224719 L565.399416,43.9319324 L569.5,33.5 Z" stroke="#6296C7" stroke-width="3" stroke-linecap="square"></path>
            <path d="M610.5,184.5 L630.5,99.5" id="Line-Copy-6" stroke="#6296C7" stroke-width="3" stroke-linecap="square"></path>
            <path id="Line-Copy-6-decoration-1" d="M630.5,99.5 L625.106124,109.325787 L630.946627,110.700023 L630.5,99.5 Z" stroke="#6296C7" stroke-width="3" stroke-linecap="square"></path>
            <path d="M715.5,231.5 L797.5,181.5" id="Line-Copy-8" stroke="#6296C7" stroke-width="3" stroke-linecap="square"></path>
            <path id="Line-Copy-8-decoration-1" d="M797.5,181.5 L786.717179,184.561172 L789.840824,189.683949 L797.5,181.5 Z" stroke="#6296C7" stroke-width="3" stroke-linecap="square"></path>
            <path d="M727.5,297.5 L820.5,311.5" id="Line-Copy-9" stroke="#6296C7" stroke-width="3" stroke-linecap="square"></path>
            <path id="Line-Copy-9-decoration-1" d="M820.5,311.5 L810.266912,306.925733 L809.37375,312.858883 L820.5,311.5 Z" stroke="#6296C7" stroke-width="3" stroke-linecap="square"></path>
            <path d="M529.5,821.5 L593.5,902.5" id="Line-Copy-19" stroke="#6296C7" stroke-width="3" stroke-linecap="square"></path>
            <path id="Line-Copy-19-decoration-1" d="M593.5,902.5 L589.158354,892.16607 L584.450546,895.88582 L593.5,902.5 Z" stroke="#6296C7" stroke-width="3" stroke-linecap="square"></path>
            <path d="M347.5,800.5 L276.5,902.5" id="Line-Copy-21" stroke="#6296C7" stroke-width="3" stroke-linecap="square"></path>
            <path id="Line-Copy-21-decoration-1" d="M276.5,902.5 L285.132266,895.349896 L280.207819,891.922095 L276.5,902.5 Z" stroke="#6296C7" stroke-width="3" stroke-linecap="square"></path>
            <path d="M189.5,746.5 L122.5,840.5" id="Line-Copy-24" stroke="#6296C7" stroke-width="3" stroke-linecap="square"></path>
            <path id="Line-Copy-24-decoration-1" d="M122.5,840.5 L131.211474,833.446617 L126.325564,829.964106 L122.5,840.5 Z" stroke="#6296C7" stroke-width="3" stroke-linecap="square"></path>
            <path d="M150.5,655.5 L53.5,680.5" id="Line-Copy-26" stroke="#6296C7" stroke-width="3" stroke-linecap="square"></path>
            <path id="Line-Copy-26-decoration-1" d="M53.5,680.5 L64.7069643,680.709644 L63.2095078,674.899513 L53.5,680.5 Z" stroke="#6296C7" stroke-width="3" stroke-linecap="square"></path>
            <path d="M84.5,404.5 L0.5,394.5" id="Line-Copy-29" stroke="#6296C7" stroke-width="3" stroke-linecap="square"></path>
            <path id="Line-Copy-29-decoration-1" d="M0.5,394.5 L10.8696347,398.755664 L11.578912,392.797734 L0.5,394.5 Z" stroke="#6296C7" stroke-width="3" stroke-linecap="square"></path>
            <path d="M79.5,477.5 L1.5,483.5" id="Line-Copy-30" stroke="#6296C7" stroke-width="3" stroke-linecap="square"></path>
            <path id="Line-Copy-30-decoration-1" d="M1.5,483.5 L12.4982779,485.662841 L12.0380989,479.680514 L1.5,483.5 Z" stroke="#6296C7" stroke-width="3" stroke-linecap="square"></path>
            <path d="M94.5,516.5 L19.5,558.5" id="Line-Copy-31" stroke="#6296C7" stroke-width="3" stroke-linecap="square"></path>
            <path id="Line-Copy-31-decoration-1" d="M19.5,558.5 L30.3888751,555.840602 L27.4572549,550.605566 L19.5,558.5 Z" stroke="#6296C7" stroke-width="3" stroke-linecap="square"></path>
            <path d="M115.5,558.5 L57.5,621.5" id="Line-Copy-32" stroke="#6296C7" stroke-width="3" stroke-linecap="square"></path>
            <path id="Line-Copy-32-decoration-1" d="M57.5,621.5 L67.022037,615.586388 L62.6078477,611.522531 L57.5,621.5 Z" stroke="#6296C7" stroke-width="3" stroke-linecap="square"></path>
            <path d="M154.5,704.5 L73.5,738.5" id="Line-Copy-27" stroke="#6296C7" stroke-width="3" stroke-linecap="square"></path>
            <path id="Line-Copy-27-decoration-1" d="M73.5,738.5 L84.6194012,737.08617 L82.2971675,731.553789 L73.5,738.5 Z" stroke="#6296C7" stroke-width="3" stroke-linecap="square"></path>
            <path d="M177.5,864.5 L216.5,758.5" id="Line-Copy-47" stroke="#D27329" stroke-width="3" stroke-linecap="square"></path>
            <path id="Line-Copy-47-decoration-1" d="M216.5,758.5 L209.955331,767.599852 L215.586296,769.671622 L216.5,758.5 Z" stroke="#D27329" stroke-width="3" stroke-linecap="square"></path>
            <path d="M319.5,912.5 L370.5,813.5" id="Line-Copy-48" stroke="#D27329" stroke-width="3" stroke-linecap="square"></path>
            <path id="Line-Copy-48-decoration-1" d="M370.5,813.5 L362.887145,821.727055 L368.220993,824.474795 L370.5,813.5 Z" stroke="#D27329" stroke-width="3" stroke-linecap="square"></path>
            <path d="M425.5,934.5 L448.5,842.5" id="Line-Copy-50" stroke="#D27329" stroke-width="3" stroke-linecap="square"></path>
            <path id="Line-Copy-50-decoration-1" d="M448.5,842.5 L442.970188,852.249932 L448.791043,853.705146 L448.5,842.5 Z" stroke="#D27329" stroke-width="3" stroke-linecap="square"></path>
            <path d="M555.5,921.5 L501.5,823.5" id="Line-Copy-51" stroke="#D27329" stroke-width="3" stroke-linecap="square"></path>
            <path id="Line-Copy-51-decoration-1" d="M501.5,823.5 L504.084617,834.406867 L509.339646,831.511239 L501.5,823.5 Z" stroke="#D27329" stroke-width="3" stroke-linecap="square"></path>
            <path d="M714.5,858.5 L660.5,760.5" id="Line-Copy-53" stroke="#D27329" stroke-width="3" stroke-linecap="square"></path>
            <path id="Line-Copy-53-decoration-1" d="M660.5,760.5 L663.084617,771.406867 L668.339646,768.511239 L660.5,760.5 Z" stroke="#D27329" stroke-width="3" stroke-linecap="square"></path>
            <path d="M788.5,778.5 L705.5,727.5" id="Line-Copy-55" stroke="#D27329" stroke-width="3" stroke-linecap="square"></path>
            <path id="Line-Copy-55-decoration-1" d="M705.5,727.5 L713.131141,735.710097 L716.272288,730.598034 L705.5,727.5 Z" stroke="#D27329" stroke-width="3" stroke-linecap="square"></path>
            <path d="M815.5,680.5 L727.5,670.5" id="Line-Copy-56" stroke="#D27329" stroke-width="3" stroke-linecap="square"></path>
            <path id="Line-Copy-56-decoration-1" d="M727.5,670.5 L737.892208,674.70024 L738.569666,668.738609 L727.5,670.5 Z" stroke="#D27329" stroke-width="3" stroke-linecap="square"></path>
            <path d="M856.5,565.5 L778.5,531.5" id="Line-Copy-57" stroke="#D27329" stroke-width="3" stroke-linecap="square"></path>
            <path id="Line-Copy-57-decoration-1" d="M778.5,531.5 L787.20156,538.56561 L789.599073,533.065435 L778.5,531.5 Z" stroke="#D27329" stroke-width="3" stroke-linecap="square"></path>
            <path d="M891.5,480.5 L803.5,470.5" id="Line-Copy-58" stroke="#D27329" stroke-width="3" stroke-linecap="square"></path>
            <path id="Line-Copy-58-decoration-1" d="M803.5,470.5 L813.892208,474.70024 L814.569666,468.738609 L803.5,470.5 Z" stroke="#D27329" stroke-width="3" stroke-linecap="square"></path>
            <path d="M889.5,384.5 L803.5,407.5" id="Line-Copy-59" stroke="#D27329" stroke-width="3" stroke-linecap="square"></path>
            <path id="Line-Copy-59-decoration-1" d="M803.5,407.5 L814.708406,407.607838 L813.158236,401.811548 L803.5,407.5 Z" stroke="#D27329" stroke-width="3" stroke-linecap="square"></path>
            <path d="M241.5,766.5 L217.5,867.5" id="Line-Copy-25" stroke="#6296C7" stroke-width="3" stroke-linecap="square"></path>
            <path id="Line-Copy-25-decoration-1" d="M217.5,867.5 L222.915542,857.686137 L217.078085,856.299018 L217.5,867.5 Z" stroke="#6296C7" stroke-width="3" stroke-linecap="square"></path>
            <path d="M407.5,825.5 L371.5,932.5" id="Line-Copy-22" stroke="#6296C7" stroke-width="3" stroke-linecap="square"></path>
            <path id="Line-Copy-22-decoration-1" d="M371.5,932.5 L377.787327,923.220479 L372.100565,921.307175 L371.5,932.5 Z" stroke="#6296C7" stroke-width="3" stroke-linecap="square"></path>
            <path d="M473.5,839.5 L504.5,933.5" id="Line-Copy-23" stroke="#6296C7" stroke-width="3" stroke-linecap="square"></path>
            <path id="Line-Copy-23-decoration-1" d="M504.5,933.5 L503.966558,922.303776 L498.268425,924.182947 L504.5,933.5 Z" stroke="#6296C7" stroke-width="3" stroke-linecap="square"></path>
            <path d="M779.5,391.5 L879.5,364.5" id="Line-Copy-10" stroke="#6296C7" stroke-width="3" stroke-linecap="square"></path>
            <path id="Line-Copy-10-decoration-1" d="M879.5,364.5 L868.291368,364.418904 L869.855363,370.211478 L879.5,364.5 Z" stroke="#6296C7" stroke-width="3" stroke-linecap="square"></path>
            <path d="M629.5,771.5 L655.5,870.5" id="Line-Copy-14" stroke="#6296C7" stroke-width="3" stroke-linecap="square"></path>
            <path id="Line-Copy-14-decoration-1" d="M655.5,870.5 L655.658269,859.292192 L649.855063,860.816267 L655.5,870.5 Z" stroke="#6296C7" stroke-width="3" stroke-linecap="square"></path>
            <path d="M799.5,439.5 L905.5,414.5" id="Line-Copy-11" stroke="#6296C7" stroke-width="3" stroke-linecap="square"></path>
            <path id="Line-Copy-11-decoration-1" d="M905.5,414.5 L894.299743,414.059262 L895.67705,419.899042 L905.5,414.5 Z" stroke="#6296C7" stroke-width="3" stroke-linecap="square"></path>
            <path d="M817.5,275.5 L729.5,265.5" id="Line-Copy-60" stroke="#D27329" stroke-width="3" stroke-linecap="square"></path>
            <path id="Line-Copy-60-decoration-1" d="M729.5,265.5 L739.892208,269.70024 L740.569666,263.738609 L729.5,265.5 Z" stroke="#D27329" stroke-width="3" stroke-linecap="square"></path>
            <path d="M757.5,143.5 L689.5,200.5" id="Line-Copy-61" stroke="#D27329" stroke-width="3" stroke-linecap="square"></path>
            <path id="Line-Copy-61-decoration-1" d="M689.5,200.5 L699.703998,195.861204 L695.849605,191.262981 L689.5,200.5 Z" stroke="#D27329" stroke-width="3" stroke-linecap="square"></path>
            <path d="M665.5,109.5 L635.5,179.5" id="Line-Copy-62" stroke="#D27329" stroke-width="3" stroke-linecap="square"></path>
            <path id="Line-Copy-62-decoration-1" d="M635.5,179.5 L642.511764,170.754992 L636.996893,168.391476 L635.5,179.5 Z" stroke="#D27329" stroke-width="3" stroke-linecap="square"></path>
            <path d="M797.5,500.5 L891.5,526.5" id="Line-Copy-12" stroke="#6296C7" stroke-width="3" stroke-linecap="square"></path>
            <path id="Line-Copy-12-decoration-1" d="M891.5,526.5 L881.890598,520.729437 L880.291082,526.512304 L891.5,526.5 Z" stroke="#6296C7" stroke-width="3" stroke-linecap="square"></path>
            <path d="M757.5,558.5 L860.5,617.5" id="Line-Copy-13" stroke="#6296C7" stroke-width="3" stroke-linecap="square"></path>
            <path id="Line-Copy-13-decoration-1" d="M860.5,617.5 L852.619716,609.528731 L849.63744,614.735077 L860.5,617.5 Z" stroke="#6296C7" stroke-width="3" stroke-linecap="square"></path>
            <path d="M725.5,646.5 L843.5,664.5" id="Line-Copy-15" stroke="#6296C7" stroke-width="3" stroke-linecap="square"></path>
            <path id="Line-Copy-15-decoration-1" d="M843.5,664.5 L833.275896,659.905688 L832.371108,665.837076 L843.5,664.5 Z" stroke="#6296C7" stroke-width="3" stroke-linecap="square"></path>
            <path d="M682.5,744.5 L759.5,814.5" id="Line-Copy-17" stroke="#6296C7" stroke-width="3" stroke-linecap="square"></path>
            <path id="Line-Copy-17-decoration-1" d="M759.5,814.5 L753.526666,805.015314 L749.490629,809.454954 L759.5,814.5 Z" stroke="#6296C7" stroke-width="3" stroke-linecap="square"></path>
            <path d="M712.5,701.5 L821.5,730.5" id="Line-Copy-18" stroke="#6296C7" stroke-width="3" stroke-linecap="square"></path>
            <path id="Line-Copy-18-decoration-1" d="M821.5,730.5 L811.834407,724.824058 L810.291743,730.622349 L821.5,730.5 Z" stroke="#6296C7" stroke-width="3" stroke-linecap="square"></path>
            <path d="M671.5,189.5 L713.5,103.5" id="Line-Copy-7" stroke="#6296C7" stroke-width="3" stroke-linecap="square"></path>
            <path id="Line-Copy-7-decoration-1" d="M713.5,103.5 L706.064876,111.888023 L711.456281,114.521035 L713.5,103.5 Z" stroke="#6296C7" stroke-width="3" stroke-linecap="square"></path>
            <path id="Path-217" stroke="#979797" d=""></path>
            <path id="Path-220" stroke="#979797" d=""></path>
            <path id="Path-226" stroke="#979797" d=""></path>
            <g transform="translate(130.000000, 148.000000)">
                <ellipse id="Oval-29" stroke="#1B7387" stroke-width="15" cx="315.5" cy="316" rx="270.229581" ry="270.061674"></ellipse>
                <ellipse id="Oval-10" stroke="#FFFFFF" stroke-width="4" fill="#BC5E2E" cx="315.5" cy="52.2026432" rx="52.2350993" ry="52.2026432"></ellipse>
                <ellipse id="Oval-10-Copy" stroke="#FFFFFF" stroke-width="4" fill="#BC5E2E" cx="502.153422" cy="127.374449" rx="52.2350993" ry="52.2026432"></ellipse>
                <ellipse id="Oval-10-Copy-2" stroke="#FFFFFF" stroke-width="4" fill="#BC5E2E" cx="578.764901" cy="316.696035" rx="52.2350993" ry="52.2026432"></ellipse>
                <ellipse id="Oval-10-Copy-3" stroke="#FFFFFF" stroke-width="4" fill="#BC5E2E" cx="502.153422" cy="506.017621" rx="52.2350993" ry="52.2026432"></ellipse>
                <ellipse id="Oval-10-Copy-4" stroke="#FFFFFF" stroke-width="4" fill="#BC5E2E" cx="315.5" cy="579.797357" rx="52.2350993" ry="52.2026432"></ellipse>
                <ellipse id="Oval-10-Copy-5" stroke="#FFFFFF" stroke-width="4" fill="#BC5E2E" cx="128.846578" cy="506.017621" rx="52.2350993" ry="52.2026432"></ellipse>
                <ellipse id="Oval-10-Copy-6" stroke="#FFFFFF" stroke-width="4" fill="#BC5E2E" cx="52.2350993" cy="316.696035" rx="52.2350993" ry="52.2026432"></ellipse>
                <ellipse id="Oval-10-Copy-7" stroke="#FFFFFF" stroke-width="4" fill="#BC5E2E" cx="128.846578" cy="127.374449" rx="52.2350993" ry="52.2026432"></ellipse>
            </g>
        </g>
    </g>
</svg>